<svg width="43" height="15" viewBox="0 0 43 15" fill="none" xmlns="http://www.w3.org/2000/svg">
<path d="M3.3 8.8C3.3 8.8 3.2 8.4 3.2 8C2.9 8.6 2.5 9 1.7 9C0.6 9 0 8.2 0 6.8C0 5.5 0.7 4.7 1.6 4.2C2.6 3.7 3.2 3.2 3.2 2.2C3.2 1.2 2.9 0.6 2.1 0.6C1.3 0.6 0.9 1.2 0.9 2.2V2.5H0.3C0.3 2.4 0.3 2.2 0.3 2.2C0.3 0.9 0.8 0 2.1 0C3.4 0 3.9 0.9 3.9 2.4V7.4C3.9 8.1 4 8.9 4 8.9H3.3V8.8ZM3.2 3.6C3 4 2.7 4.3 2 4.7C1 5.2 0.7 5.8 0.7 6.8C0.7 7.9 1.1 8.4 1.8 8.4C2.5 8.4 3.2 7.7 3.2 6.7V3.6Z" fill="#ADB3B9"/>
<path d="M6.9 9C5.7 9 5 8.2 5 6.7V2.3C5 0.8 5.7 0 6.9 0C8 0 8.7 0.8 8.7 2.3V2.5H8.1V2.3C8.1 1.2 7.7 0.6 6.9 0.6C6.1 0.6 5.7 1.2 5.7 2.3V6.6C5.7 7.7 6.1 8.3 6.9 8.3C7.7 8.3 8.1 7.7 8.1 6.6V6.5H8.7V6.7C8.7 8.2 8 9 6.9 9Z" fill="#ADB3B9"/>
<path d="M11.6 9C10.5 9 9.80005 8.2 9.80005 6.7V2.3C9.80005 0.8 10.5 0 11.6 0C12.7 0 13.4 0.8 13.4 2.3V2.5H12.8V2.3C12.8 1.2 12.4 0.6 11.6 0.6C10.8 0.6 10.4 1.2 10.4 2.3V6.6C10.4 7.7 10.8 8.3 11.6 8.3C12.4 8.3 12.8 7.7 12.8 6.6V6.5H13.4V6.7C13.4 8.2 12.7 9 11.6 9Z" fill="#ADB3B9"/>
<path d="M22.3999 2.5V2C22.3999 1.2 21.9999 0.6 21.2999 0.6C20.5999 0.6 20.0999 1.1 20.0999 2C20.0999 2.6 20.3999 3.1 20.7999 3.5L22.1999 4.8C22.7999 5.3 23.1999 5.9 23.1999 6.9C23.1999 8.2 22.4999 9 21.2999 9C19.8999 9 19.3999 8 19.3999 6.8V6.4H19.9999V6.8C19.9999 7.8 20.3999 8.4 21.2999 8.4C22.0999 8.4 22.5999 7.8 22.5999 6.9C22.5999 6.3 22.2999 5.8 21.8999 5.3L20.3999 4C19.7999 3.5 19.3999 2.9 19.3999 2C19.3999 0.8 20.0999 0 21.1999 0C22.3999 0 22.9999 0.8 22.9999 2C22.9999 2.1 22.9999 2.4 22.9999 2.4H22.3999V2.5Z" fill="#ADB3B9"/>
<path d="M26.0001 9C24.9001 9 24.1001 8.2 24.1001 6.7V2.3C24.1001 0.8 24.9001 0 26.0001 0C27.2001 0 28.0001 0.8 28.0001 2.3V6.6C28.0001 8.2 27.2001 9 26.0001 9ZM27.3001 2.3C27.3001 1.2 26.8001 0.6 26.0001 0.6C25.2001 0.6 24.7001 1.2 24.7001 2.3V6.6C24.7001 7.7 25.2001 8.3 26.0001 8.3C26.8001 8.3 27.3001 7.7 27.3001 6.6V2.3Z" fill="#ADB3B9"/>
<path d="M32.3999 8.8V2.3C32.3999 1.2 32.0999 0.6 31.2999 0.6C30.3999 0.6 29.9999 1.3 29.9999 2.5V8.8H29.3999V0.1H29.9999V0.8C30.0999 0.3 30.6999 0 31.2999 0C32.4999 0 32.9999 0.7 32.9999 2.3V8.8H32.3999Z" fill="#ADB3B9"/>
<path d="M42.2 2.5V2C42.2 1.2 41.7999 0.6 41.0999 0.6C40.3999 0.6 39.9 1.1 39.9 2C39.9 2.6 40.1999 3.1 40.5999 3.5L42 4.8C42.6 5.3 43 5.9 43 6.9C43 8.1 42.2999 9 41.0999 9C39.6999 9 39.2 8 39.2 6.8V6.4H39.7999V6.8C39.7999 7.8 40.1999 8.4 41.0999 8.4C41.8999 8.4 42.4 7.8 42.4 6.9C42.4 6.3 42.1 5.8 41.7 5.3L40.2999 4C39.6999 3.5 39.2999 2.9 39.2999 2C39.2999 0.8 39.9999 0 41.0999 0C42.1999 0 42.7999 0.8 42.7999 2C42.7999 2.1 42.7999 2.4 42.7999 2.4H42.2V2.5Z" fill="#ADB3B9"/>
<path d="M37.5999 0.0999756V6.59998C37.5999 7.69998 37.0999 8.29998 36.2999 8.29998C35.4999 8.29998 34.9999 7.69998 34.9999 6.59998V0.0999756H34.3999V6.59998C34.3999 8.19998 35.1999 8.89997 36.2999 8.89997C37.3999 8.89997 38.1999 8.09998 38.1999 6.59998V0.0999756H37.5999Z" fill="#ADB3B9"/>
<path d="M17.7 5.59998V6.59998C17.7 7.69998 17.2 8.29998 16.4 8.29998C15.6 8.29998 15.1 7.69998 15.1 6.59998V0.0999756H14.5V6.59998C14.5 7.99998 15.2 8.79997 16.2 8.89997V13.1C16 13.2 15.8 13.4 15.8 13.7C15.8 14.1 16.1 14.3 16.4 14.3C16.8 14.3 17 14 17 13.7C17 13.4 16.8 13.2 16.6 13.1V8.99998C17.6 8.89998 18.3 8.09998 18.3 6.69998V0.0999756H17.7V5.59998Z" fill="#ADB3B9"/>
</svg>
