<svg id="Layer_1" xmlns="http://www.w3.org/2000/svg" viewBox="0 0 122 67.1"><style>.st0{fill:#adb3b9}</style><g id="XMLID_15_"><g id="XMLID_28_"><path id="XMLID_29_" class="st0" d="M15.1.6C23.4-1.6 32.8 2.4 37 9.9c2.8 4.8 3.4 10.9 1.6 16.2-1.8 5.4-6 9.9-11.2 12-5.7 2.4-12.5 1.9-17.8-1.4C3.1 32.9-.8 25.1.2 17.5c.8-8 7-15 14.9-16.9zm3.6 11.1c-3.9.5-7.1 4.1-7.1 8-.2 4.4 3.7 8.5 8.1 8.4 4.5.2 8.6-3.9 8.4-8.4 0-4.8-4.7-8.8-9.4-8z"/></g><g id="XMLID_24_"><path id="XMLID_25_" class="st0" d="M88.3 5.9c2.8-1 6.3-.9 8.8 1 2.6 2 3.4 5.4 3.8 8.4.3 4 .4 8.1-.2 12.1-.5 3.1-2 6.5-5.1 7.8-3.5 1.3-8.1.9-10.5-2.3-2.2-3-2.5-6.9-2.6-10.5 0-3.8 0-7.8 1.3-11.4.7-2.3 2.3-4.2 4.5-5.1zm1.1 2.8c-1.8.8-2.8 2.7-3.1 4.6-.6 3.7-.6 7.5-.4 11.2.1 2.5.6 5.1 2.2 7 2.5 2.7 7.8 1.6 8.8-2.1.9-3.4.8-6.9.8-10.4-.1-3-.1-6.2-1.7-8.9-1.4-2.1-4.4-2.3-6.6-1.4z"/></g><path id="XMLID_23_" class="st0" d="M106.6 9.1c2-3.9 7.4-4.7 11.1-2.9 2.6 1.4 3.4 4.5 3.5 7.3h-3c0-2.6-1.8-5.5-4.7-5.4-3-.2-5.4 2.7-4.8 5.6 0 2.1 1.7 3.4 3.5 4.1 3 1.4 6.6 2 8.8 4.7 1.6 2.7 1.4 6.2.1 9-2.2 4.4-8.3 5.5-12.4 3.1-2.9-1.8-3.5-5.6-3.5-8.7h3.1c-.1 2 .3 4.3 1.8 5.7 2.6 2.4 7.3 1.3 8.5-2 .6-1.8.5-4.1-.8-5.6-3.2-2.8-8-3-10.9-6.3-1.8-2.5-1.6-6-.3-8.6z"/><g id="XMLID_18_"><path id="XMLID_19_" class="st0" d="M53.5 6c3.5.1 6.9-.3 10.4.3 2.4.4 4.5 2.3 4.8 4.8.2 2.2.5 4.7-.9 6.6-.7 1-1.8 1.6-2.9 2.1 1.9.5 3.7 1.8 4.3 3.7 1 3 .8 6.6-1.2 9.1-1.5 1.8-3.9 2.7-6.3 2.7-2.8.1-5.5 0-8.2 0V6zm3.2 2.6v9.8c2.4-.1 5 .4 7.2-.8 2.3-1.6 2.2-5.2.8-7.4-2-2.2-5.4-1.4-8-1.6zm0 12.6v11.1c2.8-.2 6.4.7 8.6-1.6 1.6-2.1 1.6-5.4.2-7.7-2.3-2.5-5.9-1.7-8.8-1.8z"/></g><path id="XMLID_17_" class="st0" d="M74.5 6h3.3v29.2h-3.3V6z"/><path id="XMLID_16_" class="st0" d="M17.8 51.2c4.5-1.3 9.5 2.1 10 6.7.8 4.5-3 9.1-7.6 9.2-4.1.3-8-3-8.5-7-.5-3.9 2.2-8 6.1-8.9z"/></g></svg>