<svg id="Layer_1" xmlns="http://www.w3.org/2000/svg" xmlns:xlink="http://www.w3.org/1999/xlink" viewBox="0 0 284.4 66.5"><style>.st10{fill:#adb3b9}.st11{fill:#cfd3d6}</style><path d="M123.3 58.2h1.2c.4 0 .7-.1.9-.3.2-.2.3-.5.3-.9v-1c0-.4-.1-.7-.3-.9-.2-.2-.5-.3-.9-.3h-.8c-1 0-1.7-.3-2.1-.8-.4-.5-.5-1.3-.5-2.2V44c0-.3.1-.4.4-.4h3c.4 0 .7-.1.9-.3.2-.2.3-.5.3-.9v-1c0-.4-.1-.7-.3-.9-.2-.2-.5-.3-.9-.3h-3c-.3 0-.4-.1-.4-.4V37c0-.4-.1-.7-.3-.9-.2-.2-.5-.3-.9-.3h-1.2c-.4 0-.7.1-.9.3-.2.2-.3.5-.3.9v2.8c0 .3-.1.4-.4.4h-1.2c-.4 0-.7.1-.9.3-.2.2-.3.5-.3.9v1c0 .4.1.7.3.9.2.2.5.3.9.3h1.2c.3 0 .4.1.4.4v8c0 1.9.5 3.5 1.4 4.6 1 1.1 2.5 1.6 4.4 1.6m50.3 0h1.2c.4 0 .7-.1.9-.3.2-.2.3-.5.3-.9v-1c0-.4-.1-.7-.3-.9-.2-.2-.5-.3-.9-.3h-.8c-1 0-1.7-.3-2.1-.8-.4-.5-.5-1.3-.5-2.2V44c0-.3.1-.4.4-.4h3c.4 0 .7-.1.9-.3.2-.2.3-.5.3-.9v-1c0-.4-.1-.7-.3-.9-.2-.2-.5-.3-.9-.3h-3c-.3 0-.4-.1-.4-.4V37c0-.4-.1-.7-.3-.9-.2-.2-.5-.3-.9-.3H169c-.4 0-.7.1-.9.3-.2.2-.3.5-.3.9v2.8c0 .3-.1.4-.4.4h-1.2c-.4 0-.7.1-.9.3-.2.2-.3.5-.3.9v1c0 .4.1.7.3.9.2.2.5.3.9.3h1.2c.3 0 .4.1.4.4v8c0 1.9.5 3.5 1.4 4.6 1 1.1 2.4 1.6 4.4 1.6m28.7 0h1.2c.4 0 .7-.1.9-.3.2-.2.3-.5.3-.9V41.5c0-.4-.1-.7-.3-.9-.2-.2-.5-.3-.9-.3h-1.2c-.4 0-.7.1-.9.3-.2.2-.3.5-.3.9V57c0 .4.1.7.3.9.2.2.5.3.9.3m0-20.7h1.2c.4 0 .7-.1.9-.3.2-.2.3-.5.3-.9v-2c0-.4-.1-.7-.3-.9-.2-.2-.5-.3-.9-.3h-1.2c-.4 0-.7.1-.9.3-.2.2-.3.5-.3.9v2c0 .4.1.7.3.9.2.2.5.3.9.3M216.9 50c-.5 0-.9-.1-1.3-.3-.4-.2-.8-.4-1.1-.7-.3-.3-.6-.7-.7-1.1-.2-.4-.3-.9-.3-1.3 0-.5.1-.9.3-1.3.2-.4.4-.8.7-1.1.3-.3.7-.5 1.1-.7.4-.2.8-.3 1.3-.3s.9.1 1.3.3c.4.2.8.4 1.1.7.3.3.6.7.7 1.1.2.4.3.9.3 1.3 0 .5-.1.9-.3 1.3-.2.4-.4.8-.7 1.1-.3.3-.7.5-1.1.7-.5.3-.9.3-1.3.3m1.7 15.1l.8.9c.2.2.5.4.8.5.3.1.6 0 .9-.2.7-.5 1.3-1.1 1.9-1.9.6-.8.9-1.9.9-3.3 0-.9-.2-1.8-.6-2.5-.4-.8-.9-1.4-1.5-1.9-.7-.5-1.4-.9-2.3-1.2-.9-.3-1.8-.4-2.7-.4h-3.1c-.5 0-.6-.2-.4-.6l.6-.9c.1-.2.3-.3.5-.4h.6c.2.1.5.1.8.2.3 0 .7.1 1 .1.9 0 1.8-.2 2.7-.5.8-.3 1.6-.8 2.2-1.4.6-.6 1.1-1.3 1.5-2.1.4-.8.6-1.7.6-2.6 0-1.3-.3-2.4-1-3.5-.1-.2-.2-.4-.3-.7-.1-.2-.1-.5.1-.7l1.3-1.7c.2-.3.3-.6.3-.9 0-.3-.2-.6-.5-.8l-.8-.6c-.3-.2-.6-.3-.9-.3-.3 0-.6.2-.8.5l-1.3 1.7c-.1.2-.3.3-.4.4-.2.1-.4.1-.8 0s-.7-.2-1-.2h-.8c-.9 0-1.8.2-2.7.5-.8.4-1.6.8-2.2 1.5-.6.6-1.1 1.3-1.5 2.2-.4.8-.6 1.7-.6 2.6 0 .7.1 1.4.3 2 .2.7.5 1.3.9 1.8.1.1.2.3.2.5s0 .4-.1.6l-1.9 2.6c-.5.6-.7 1.2-.7 1.8v1c0 .4.1.7.3.9.2.2.5.3.9.3h6.9c1 0 1.8.3 2.5.8s1 1.2 1 2.1c0 .6-.1 1.1-.4 1.5-.2.4-.5.7-.9.9-.6.2-.7.8-.3 1.4M270 44.8c-.1.2-.1.5-.2.7.1-.2.1-.5.2-.7m-.2.7c-.1.5-.2 1-.2 1.6v10c0 .4.1.7.3.9.2.2.5.3.9.3h1.2c.4 0 .7-.1.9-.3.2-.2.3-.5.3-.9v-10c0-1 .3-1.9.9-2.7.6-.8 1.6-1.1 2.9-1.1 1.3 0 2.2.4 2.9 1.1.6.8.9 1.6.9 2.7v10c0 .4.1.7.3.9.2.2.5.3.9.3h1.2c.4 0 .7-.1.9-.3.2-.2.3-.5.3-.9v-10c0-1-.2-1.9-.5-2.8-.4-.9-.9-1.6-1.5-2.3-.6-.7-1.4-1.2-2.3-1.6-.9-.4-1.9-.6-3-.6s-2.1.2-3 .6c-.5.2-.9.4-1.3.7-.3.2-.5.1-.7.1-.2-.1-.3-.2-.5-.4l-.6-.7c-.2-.3-.5-.4-.8-.4-.3 0-.6.1-.9.4l-.7.6c-.3.2-.4.5-.4.8 0 .3.1.6.4.9l1.5 1.6c.2.2.2.4.1.7-.3.3-.3.6-.4.8m-13.1 9.7c-.8 0-1.6-.2-2.3-.5-.7-.3-1.3-.7-1.8-1.3-.5-.5-.9-1.2-1.2-1.9-.3-.7-.4-1.5-.4-2.3 0-.8.1-1.6.4-2.3.3-.7.7-1.4 1.2-1.9s1.1-1 1.8-1.3c.7-.3 1.5-.5 2.3-.5.8 0 1.6.2 2.3.5.7.3 1.3.7 1.8 1.3.5.5.9 1.2 1.2 1.9.3.7.4 1.5.4 2.3 0 .8-.1 1.6-.4 2.3-.3.7-.7 1.4-1.2 1.9s-1.1 1-1.8 1.3c-.7.4-1.5.5-2.3.5m0 3.4c1.3 0 2.5-.2 3.7-.7 1.1-.5 2.1-1.2 3-2 .8-.8 1.5-1.8 2-3 .5-1.1.7-2.4.7-3.7 0-1.3-.2-2.5-.7-3.7-.5-1.1-1.2-2.1-2-3-.9-.9-1.8-1.5-3-2-1.1-.5-2.4-.7-3.7-.7-1.3 0-2.5.2-3.7.7-1.1.5-2.1 1.2-3 2-.9.8-1.5 1.8-2 3-.5 1.1-.7 2.4-.7 3.7 0 1.3.2 2.5.7 3.7.5 1.1 1.2 2.1 2 3 .8.9 1.8 1.5 3 2s2.4.7 3.7.7M96.9 44.8c-.1.2-.2.5-.2.7.1-.2.2-.5.2-.7m-.2.7c-.1.5-.2 1-.2 1.6v10c0 .4.1.7.3.9.2.2.5.3.9.3h1.2c.4 0 .7-.1.9-.3.2-.2.3-.5.3-.9v-10c0-1 .3-1.9.9-2.7.6-.8 1.6-1.1 2.9-1.1 1.3 0 2.2.4 2.9 1.1.6.8.9 1.6.9 2.7v10c0 .4.1.7.3.9.2.2.5.3.9.3h1.2c.4 0 .7-.1.9-.3.2-.2.3-.5.3-.9v-10c0-1-.2-1.9-.5-2.8-.4-.9-.9-1.6-1.5-2.3-.6-.7-1.4-1.2-2.3-1.6-.9-.4-1.9-.6-3-.6s-2.1.2-3 .6c-.5.2-.9.4-1.3.7-.3.2-.5.1-.7.1-.2-.1-.3-.2-.5-.4l-.6-.7c-.2-.3-.5-.4-.8-.4-.3 0-.6.1-.9.4l-.7.6c-.3.2-.4.5-.4.8 0 .3.1.6.4.9L97 44c.2.2.2.4.2.7-.3.3-.4.6-.5.8m-13 9.7c-.8 0-1.6-.2-2.3-.5-.7-.3-1.3-.7-1.8-1.3-.5-.5-.9-1.2-1.2-1.9-.3-.7-.4-1.5-.4-2.3 0-.8.1-1.6.4-2.3.3-.7.7-1.4 1.2-1.9s1.1-1 1.8-1.3c.7-.3 1.5-.5 2.3-.5.8 0 1.6.2 2.3.5.7.3 1.3.7 1.8 1.3.5.5.9 1.2 1.2 1.9.3.7.4 1.5.4 2.3 0 .8-.1 1.6-.4 2.3-.3.7-.7 1.4-1.2 1.9s-1.1 1-1.8 1.3c-.8.4-1.5.5-2.3.5m0 3.4c1.3 0 2.5-.2 3.7-.7 1.1-.5 2.1-1.2 3-2 .8-.8 1.5-1.8 2-3 .5-1.1.7-2.4.7-3.7 0-1.3-.2-2.5-.7-3.7-.5-1.1-1.2-2.1-2-3-.8-.9-1.8-1.5-3-2-1.1-.5-2.4-.7-3.7-.7-1.3 0-2.5.2-3.7.7-1.1.5-2.1 1.2-3 2-.8.8-1.5 1.8-2 3-.5 1.1-.7 2.4-.7 3.7 0 1.3.2 2.5.7 3.7.5 1.1 1.2 2.1 2 3 .9.9 1.8 1.5 3 2 1.1.5 2.4.7 3.7.7M197.6 36c-.4-1-1-1.8-1.7-2.6-.7-.7-1.5-1.3-2.5-1.7-1-.4-2-.6-3-.6H182c-.4 0-.7.1-.9.3-.2.2-.3.5-.3.9V57c0 .4.1.7.3.9.2.2.5.3.9.3h1.4c.4 0 .7-.1.9-.3.2-.2.3-.5.3-.9V35c0-.3.1-.4.4-.4h5.1c.5 0 1.1.1 1.6.3.5.2 1 .5 1.4.8.4.4.7.8 1 1.4.2.5.4 1.2.4 1.9s-.1 1.4-.4 1.9c-.3.5-.6 1-1 1.4-.4.4-.8.7-1.4.8-.5.2-1 .3-1.6.3h-1.6c-.4 0-.7.1-.9.3-.2.2-.3.5-.3.9v1.1c0 .4.1.7.3.9.2.2.5.3.9.3h1.9c1.1 0 2.1-.2 3-.6 1-.4 1.8-1 2.5-1.7s1.2-1.6 1.7-2.5c.4-1 .6-2 .6-3.1 0-1-.2-2-.6-3M67 54.8c-.4.2-.8.4-1.3.5-.5.1-1.1.2-1.7.2h-.4c-3.7-.1-6.9-2.1-8.7-5.1-.9-1.5-1.4-3.3-1.4-5.3 0-1.9.5-3.7 1.4-5.3 1.8-3 5-5 8.7-5.1h.4c.7 0 1.3.1 1.9.2.4.1.7.2 1 .4.7.4 1.2.8 1.6 1.1.3.3.6.4.8.4.2 0 .4-.1.5-.2l.2-.2.9-.9c.6-.6.6-1.1 0-1.7-.3-.3-.7-.6-1.1-.9-.4-.3-.9-.6-1.5-.9-.6-.3-1.2-.5-2-.7h-.2c-.8-.1-1.6-.2-2.4-.2h-.4c-7.5.2-13.6 6.4-13.6 14s6.1 13.8 13.6 14h.4c1.2 0 2.4-.2 3.5-.4.4-.1.8-.3 1.1-.5 1.1-.6 2.1-1.3 3-2.2.2-.2.3-.5.4-.8 0-.3-.1-.6-.4-.9l-.8-.8c-.1-.1-.2-.2-.4-.3-.2-.1-.3-.1-.5-.1-.3 0-.6.1-.8.4-.4.4-1 .9-1.8 1.3m-1.4.5c-.6.1-1.2.2-1.8.2h-.3.4c.7 0 1.2-.1 1.7-.2m-2-20.6h.2c.7 0 1.4.1 2 .2-.5-.1-1.2-.2-1.9-.2h-.3m72.9 20.8h-.7c-1.9 0-3.4-1.5-3.4-3.4 0-1.1.5-2.1 1.4-2.7.1-.1.2-.1.3-.2.4-.3.8-.5 1.3-.5.5-.1.9-.1 1.2-.1.7.1 1.1-.2 1.3-.8l.2-1c.1-.3 0-.6-.2-.8-.2-.2-.4-.4-.7-.5-.7-.1-1.5-.1-2.4 0-.8.1-1.6.5-2.4 1-1.8 1.1-3.1 3.2-3.1 5.5 0 3.6 2.9 6.5 6.5 6.5h.1c1 0 1.9-.2 2.7-.5.7-.3 1.3-.7 1.7-1.2.1-.1.2-.2.3-.1.1 0 .2.1.2.3 0 .3.1.6.3.8.2.2.5.4.9.4h1.2c.4 0 .7-.1.9-.3.2-.2.3-.5.3-.9V46.3c0-.9-.2-1.8-.5-2.7-.3-.9-.8-1.7-1.5-2.4-.6-.7-1.4-1.2-2.3-1.6-.9-.4-1.9-.6-3.1-.6-1.4 0-2.5.1-3.4.4-.9.3-1.7.7-2.4 1.1-.3.2-.5.4-.6.7-.1.3-.1.6.1.9l.5.9c.3.7.9.8 1.6.5.6-.3 1.2-.6 1.8-.8.7-.2 1.5-.3 2.4-.3 1.4 0 2.3.4 2.9 1.1.6.7.8 1.6.9 2.8v4.4c0 .6-.1 1.1-.3 1.6-.2.5-.4 1-.8 1.4-.3.4-.8.8-1.3 1-.3.2-.7.3-1.2.5-.2.2-.4.3-.7.3m23.7-15.1c-.8-.4-1.7-.6-2.8-.6h-.4c-1.3 0-2.5.2-3.7.7-1.1.5-2.1 1.2-3 2-.8.8-1.5 1.8-2 3-.5 1.1-.7 2.4-.7 3.7 0 1.3.2 2.5.7 3.7.5 1.1 1.2 2.1 2 3 .8.9 1.8 1.5 3 2 .5.2 1 .4 1.5.5.7.2 1.6.2 2.4.2 1.2 0 2.3-.3 3.3-.8.9-.5 1.6-1 2.1-1.6.2-.3.3-.6.4-.8 0-.3-.1-.6-.3-.8l-.7-.7c-.5-.5-1.1-.5-1.7 0-.3.3-.7.5-1.2.8-.5.3-1.1.4-1.8.4-.6 0-.9 0-1.3-.1-.1 0-.2 0-.3-.1h-.1c-.1 0-.2-.1-.3-.1-.2-.1-.4-.1-.6-.2-.7-.3-1.3-.7-1.8-1.3-.5-.5-.9-1.2-1.2-1.9-.3-.7-.4-1.5-.4-2.3 0-.8.1-1.6.4-2.3.3-.7.7-1.4 1.2-1.9s1.1-1 1.8-1.3c.7-.3 1.5-.5 2.3-.5h.3c.5 0 1 .1 1.5.3.5.2.8.4 1.1.7.6.5 1.1.5 1.6 0l.8-.8c.2-.2.4-.5.4-.8 0-.3-.1-.6-.4-.8-.6-.4-1.3-.9-2.1-1.3m75 14.8c-1.1-.2-2.3-.9-3-1.6l-.4-.4c-.9-1-1.4-2.3-1.4-3.8s.6-2.9 1.6-4l.1-.1c.8-.8 2.1-1.5 3.7-1.6 3.3.3 5.2 2.5 5.6 4.1h-6.5c-.4 0-.6.1-.8.3-.2.2-.3.5-.3.8v1c0 .4.1.6.3.8.2.2.5.3.8.3h8.1c1.1 0 1.9-.6 2-1.5V49c-.3-5.2-4.2-8.9-9.1-8.9-5.2 0-9.2 4.4-9.3 9.6 0 4.7 3.3 8.7 7.8 9.4.8.2 1.7.1 2.7 0 1.3-.1 2.5-.5 3.5-1.1 1-.6 1.8-1.2 2.2-1.8.2-.3.3-.6.4-.9 0-.3-.1-.6-.4-.9l-.8-.8c-.6-.5-1.2-.5-1.8.1-.3.3-.7.6-1.3 1-.5.3-1.2.5-2 .6-.7 0-1.1 0-1.7-.1z" fill-rule="evenodd" clip-rule="evenodd" fill="#adb3b9"/><defs><path id="SVGID_1_" d="M7.2 50l7.2 10 19.9-18.6z"/></defs><clipPath id="SVGID_2_"><use xlink:href="#SVGID_1_" overflow="visible"/></clipPath><linearGradient id="SVGID_3_" gradientUnits="userSpaceOnUse" x1="-428.491" y1="783.905" x2="-428.435" y2="783.905" gradientTransform="scale(-266.1082 266.1082) rotate(-80 -681.267 136.784)"><stop offset="0" stop-color="#53b6e4"/><stop offset=".005" stop-color="#fff"/><stop offset=".217" stop-color="#f8f8f8"/><stop offset=".435" stop-color="#ebeaea"/><stop offset=".658" stop-color="#d7d7d7"/><stop offset=".881" stop-color="#bebebf"/><stop offset="1" stop-color="#aeafb1"/></linearGradient><path clip-path="url(#SVGID_2_)" fill="url(#SVGID_3_)" d="M8 64.6L4.1 42l29.4-5.2 4 22.6z"/><path fill="#0664a7" d="M22.4 41.3l-1.2-.1.4.5 1.1.2z"/><path fill="#bc4b27" d="M22.7 42.3l-.7-.1.3.5z"/><path d="M56.2 24.9l-6.1-6.5-1.6 6 7.7.5zM44.7 38.1l5.4-19.7-12.6 4.8-8.8-18.4L0 0l20.8 28.7-6.2 19L7.2 50l7.2 9.9 19.8-18.5 10.5-3.3z" fill-rule="evenodd" clip-rule="evenodd" fill="#34a0d9"/><defs><path id="SVGID_4_" d="M37.5 23.2l7.2 14.9 5.4-19.7z"/></defs><clipPath id="SVGID_5_"><use xlink:href="#SVGID_4_" overflow="visible"/></clipPath><linearGradient id="SVGID_6_" gradientUnits="userSpaceOnUse" x1="-427.551" y1="784.271" x2="-427.495" y2="784.271" gradientTransform="rotate(150 -28428.326 117647.831) scale(261.7376)"><stop offset="0" stop-color="#46b4e3"/><stop offset=".005" stop-color="#fff"/><stop offset=".252" stop-color="#f8f8f8"/><stop offset=".507" stop-color="#ebeaea"/><stop offset=".766" stop-color="#d7d7d8"/><stop offset="1" stop-color="#c0c1c3"/></linearGradient><path clip-path="url(#SVGID_5_)" fill="url(#SVGID_6_)" d="M47 12.9L29 23.3l11.7 20.3 18-10.4z"/><defs><path id="SVGID_7_" d="M48.5 24.4l7.7.5-6.1-6.5z"/></defs><clipPath id="SVGID_8_"><use xlink:href="#SVGID_7_" overflow="visible"/></clipPath><linearGradient id="SVGID_9_" gradientUnits="userSpaceOnUse" x1="-425.541" y1="786.106" x2="-425.486" y2="786.106" gradientTransform="matrix(-138.305 0 0 138.305 -58798.398 -108700.688)"><stop offset="0" stop-color="#46b4e3"/><stop offset=".005" stop-color="#fff"/><stop offset=".263" stop-color="#f8f8f8"/><stop offset=".529" stop-color="#ebeaea"/><stop offset=".799" stop-color="#d7d7d8"/><stop offset="1" stop-color="#c5c5c7"/></linearGradient><path clip-path="url(#SVGID_8_)" fill="url(#SVGID_9_)" d="M48.5 18.4h7.7v6.5h-7.7z"/><defs><path id="SVGID_10_" d="M14.6 47.7l30.1-9.6-16-33.3z"/></defs><clipPath id="SVGID_11_"><use xlink:href="#SVGID_10_" overflow="visible"/></clipPath><linearGradient id="SVGID_12_" gradientUnits="userSpaceOnUse" x1="-429.293" y1="783.717" x2="-429.237" y2="783.717" gradientTransform="scale(627.428 -627.428) rotate(-45 -1160.692 -126.391)"><stop offset="0" stop-color="#46b4e3"/><stop offset=".005" stop-color="#fff"/><stop offset="1" stop-color="#cacccd"/></linearGradient><path clip-path="url(#SVGID_11_)" fill="url(#SVGID_12_)" d="M29.6-10.3l36.6 36.6-36.6 36.5-36.5-36.5z"/><defs><path id="SVGID_13_" d="M0 0l20.8 28.7 7.9-23.9z"/></defs><clipPath id="SVGID_14_"><use xlink:href="#SVGID_13_" overflow="visible"/></clipPath><linearGradient id="SVGID_15_" gradientUnits="userSpaceOnUse" x1="-428.723" y1="784.732" x2="-428.667" y2="784.732" gradientTransform="rotate(20 1062619.18 849785.67) scale(528.4533)"><stop offset="0" stop-color="#46b4e3"/><stop offset=".005" stop-color="#fff"/><stop offset=".329" stop-color="#f8f8f8"/><stop offset=".665" stop-color="#ebebeb"/><stop offset="1" stop-color="#d7d8da"/></linearGradient><path clip-path="url(#SVGID_14_)" fill="url(#SVGID_15_)" d="M-9.2 25.3l34.5 12.6L37.9 3.4 3.4-9.2z"/><defs><path id="SVGID_16_" d="M7.2 50l7.2 10 19.9-18.6z"/></defs><clipPath id="SVGID_17_"><use xlink:href="#SVGID_16_" overflow="visible"/></clipPath><linearGradient id="SVGID_18_" gradientUnits="userSpaceOnUse" x1="-428.491" y1="783.905" x2="-428.435" y2="783.905" gradientTransform="scale(-266.1082 266.1082) rotate(-80 -681.267 136.784)"><stop offset="0" stop-color="#53b6e4"/><stop offset=".005" stop-color="#fff"/><stop offset=".217" stop-color="#f8f8f8"/><stop offset=".435" stop-color="#ebeaea"/><stop offset=".658" stop-color="#d7d7d7"/><stop offset=".881" stop-color="#bebebf"/><stop offset="1" stop-color="#aeafb1"/></linearGradient><path clip-path="url(#SVGID_17_)" fill="url(#SVGID_18_)" d="M8 64.6L4.1 42l29.4-5.2 4 22.6z"/><path class="st10" d="M3 1L.4.6l.9 1.2 2.6.4z"/><path class="st11" d="M4.7 3.4L2.2 3 3 4.2l2.6.4zm3.5 4.7l-2.6-.4.9 1.2 2.5.4z"/><path class="st10" d="M6.4 5.7l-2.5-.4.8 1.2 2.6.4zm3.5 4.8l-2.6-.4.9 1.2 2.6.4z"/><path class="st11" d="M11.6 12.8L9 12.4l.9 1.2 2.6.4z"/><path class="st10" d="M13.4 15.2l-2.6-.4.8 1.2 2.6.4zm4.3 5.9l-.9-1.2-2.6-.4.9 1.2z"/><path class="st11" d="M19.4 23.5l-.8-1.2-2.7-.4.9 1.2z"/><path class="st10" d="M21.2 25.9l-.9-1.2-2.7-.4.9 1.2z"/><path class="st11" d="M15.1 17.6l-2.6-.4.8 1.2 2.7.4zm4.3 9l.8 1.2.9.2.3-1z"/><path class="st10" d="M9.3 49.7l-.8-.1-1.3.4.4.5 2.6.4zm3.5 4.8l-2.6-.4.8 1.2 2.7.4zm2.9 4.3l-2.4-.4.9 1.2.5.1z"/><path class="st11" d="M11.1 52.1l-2.6-.4.8 1.2 2.6.4zm3.4 4.7l-2.7-.4.9 1.2 2.6.4z"/></svg>