<svg id="Layer_1" xmlns="http://www.w3.org/2000/svg" viewBox="0 0 196 66.6"><style>.st0{fill:#adb3b9}</style><path class="st0" d="M184.9 3.1c2.5-1 5-2.1 7.5-3.1-.1 5.9.4 11.9-.4 17.8-3.8-5.6-6.6-13.6-14.1-15.1-4-1.4-9.7 2.9-6.7 7 4 4.6 10.3 6.1 15.1 9.8 4.7 3.2 8.5 7.9 9.6 13.6.1.9.2 1.8.2 2.8-.4 4.1-1.1 8.7-4.3 11.6-4.1 3.8-10 5.1-15.5 4.6l.7-1.7c3.5-.3 6.9-1.5 8.7-4.8-1.2-2.5-2.7-5.2-5.4-6.4-6.8-3.6-14.5-7.3-17.9-14.7-3.5-7.7-1.5-18.8 6.7-22.7 5-2.6 11.1-1.4 15.8 1.3zM29.1 18.3c1.8-7.6 7.5-14.9 15.4-16.7 5.2-.7 11-1.1 15.6 2.2C62 2.3 64 .8 66.4.2c.1 6 0 12 0 18-.4.1-1.3.2-1.7.3-1.3-4.5-2.9-9.3-6.6-12.4-2.2-1.9-5.8-2.6-8.2-.5-2.7 2.2-3.4 5.9-3.3 9.2v20.9c0 4.2.6 8.9 3.8 11.9 3.1 2.6 7.6.9 9.9-2 2.8-2.9 3.7-6.9 5.1-10.6l1.5-.8c.7 9.5-7.7 19.1-17.5 18.2-6.4 0-12.5-3.4-16.1-8.5-5.4-7.4-6.2-17.1-4.2-25.6z"/><path class="st0" d="M83.4 1.8C90.6.3 98.7 1.3 104.6 6c10.8 8 11.8 24.6 5.1 35.6-3.8 6.1-10.5 10.4-17.8 10.7h-3.7c-6.6-.4-12.7-4.1-16.4-9.5-4.5-6.4-5.3-14.8-4-22.4C69.4 12.1 75 4 83.4 1.8zm5.9 1.7c-2.7 1.3-2.8 4.8-2.9 7.4.1 11.2-.1 22.4.1 33.6.2 2.3 1.1 6.2 4.2 5.8 2.8-.7 3.5-4.3 3.6-6.8 0-11.5.1-23 0-34.6.1-2.5-1.9-6.4-5-5.4zM0 3.8c.1-.6.2-1.7.3-2.2 8.9.1 17.9.1 26.8 0 0 .6.1 1.7.2 2.2h-4.5v44.8c1.5 0 2.7-.1 4.3 0-.1.5.1 1.7 0 2.2-8.8-.1-17.6 0-26.4-.1-.1-.4.1-2.2 0-2.6 1.7-.4 4.6 1.1 4.2-1.6L4.5 3.8H0z"/><path class="st0" d="M114.6 1.6c7.8 0 15.6-.1 23.4 0 4.9 8.9 9.9 17.7 15 26.5.1-6.4 0-12.9.1-19.3-.1-1.3.2-2.9-.8-3.9-1.7-.9-4.4-.7-4.6-3.2 4.3-.1 8.6-.1 13 0-.3 2.7-3.3 2.4-4.9 3.9-.3 1.4-.3 2.9-.3 4.3.1 13.6 0 27.2 0 40.7-3.2 0-6.4 0-9.6.2-.7-.7-1.3-1.5-1.9-2.4v-.5l-1.2.9-.4-2.5c-.2-1.2-1-2.3-1.6-3.4-6.3-10.4-12.4-21-18.7-31.4-.1 10 0 20-.1 30 0 2.1-.1 4.4 1.2 6.2 1.2.7 2.6.9 4 1.3v1.7c-3.9-.1-7.9.2-11.8-.1-1.5-1.9 1.8-1.9 2.7-2.8 2.1-.9 1.8-3.4 1.8-5.3-.1-11.9.2-23.7-.1-35.6 0-3.2-5.1-2-5.2-5.3zm46.4 32c2.9 3.2 4.1 7.6 7 10.9 1.6 1.8 3.5 3.1 5.4 4.5.2.8.4 1.7.5 2.5-1.9-.8-3.8-1.9-5.7-2.6-2.6.9-4.9 2.2-7.4 3.3 0-6.2-.2-12.4.2-18.6z"/><path class="st0" d="M175.6 46.2h3c-.5 1.4-1.1 2.8-1.6 4.2l-.7 1.7c-.6-.1-1.7-.4-2.3-.5-.2-.8-.3-1.7-.5-2.5l.7.5c.4-1.2.9-2.3 1.4-3.4zm-33.3 1.1c0-.2.2-.7.2-.9l.4 2.5 1.2-.9v.5c-.4.3-1.1.9-1.4 1.1-.1 4.8 0 9.5-.1 14.2.7 0 2.1.1 2.8.2-.2.5-.5 1.6-.6 2.1-4.9.2-9.7-.1-14.6.1-.5-.9-.9-1.7-1.4-2.5-3.9 3.8-12.1 4.3-14.6-1.3-2.7-7 6.3-12.4 12.2-9.6 2.4 1 3.5 3.4 4.1 5.8-4.6.8-9.2 1.6-13.7 2.7 1.3 1.3 2.7 3.1 4.8 2.8 3.5.6 5.4-3.4 8.7-3.4-.7 1.6.7 2.8 1.6 3.7.6-5 .2-10.1.3-15.1-.6 0-1.9-.1-2.5-.1v-2.1h5.5c-.1 5.6 0 11.2 0 16.9h4.5V49.4c-.6 0-1.9-.1-2.5-.1v-2.2c1.6-.1 3.3 0 5.1.2zm-25.7 11.6c3.4-.5 6.7-1.1 10.1-1.8-1.9-4.7-9.5-3-10.1 1.8zm-53.3-5.8c2-1.2 3.4-3 5-4.6.1 1.4.1 2.8.2 4.2h7.9c0 .6-.1 1.8-.1 2.4 1.7-1.8 6.4-4.5 7.2-.7 1.5-.8 3-1.7 4.7-2.1h3.7c5.5 1.1 4.4 7.4 4.4 11.5.7 0 2.1 0 2.7.1v2.3c-3 0-6.1-.9-9.1 0-2.7.9-6.2-.1-7.5-2.8-.5-2.1.8-4.1 2.7-4.9 2.7-1.4 5.8-.2 8.6.2-.8-1.4-.9-3.8-2.9-4.1-2-.6-3.8.6-5.5 1.5-2.2-.6-4.9-2-6.9-.2-2.5 1.8-1.7 5.2-1.9 7.9h3.2v2.3c-4.7-.5-9.6 1.3-14.1-.4-.1-3.5-.1-7.1-.1-10.6-.6-.1-1.8-.2-2.3-.2 0-.5.1-1.3.1-1.8zm5.2 1.9c0 3-.1 6 .2 8.9 1.6.2 3.3 0 4.9 0V55h-5.1zm16.8 7.3c2 3.2 6.1 1.3 8.7-.1-2.3-2-6.9-3.3-8.7.1z"/><path class="st0" d="M96.9 52.7h7.8c-.1 1.4-.8 2.2-2 2.7 1.1 2.4 2.2 4.7 3.2 7.1 1.3-2.5 2.6-4.9 3.8-7.4-.7-.1-2-.2-2.7-.3l.6-1.9c2.4-.2 4.8-.1 7.2-.2l.1 2.2c-.6 0-1.9.1-2.5.1-1.8 3.7-3.6 7.4-5.3 11.1h-2.9c-1.6-3.7-3.3-7.3-4.9-11-.6-.1-1.9-.2-2.6-.3.2-.5.2-1.6.2-2.1zm48.7 4c2.1-4.5 8.3-5.4 12.5-3.3 2.6 1.3 3.5 4.1 4 6.7-4.6.1-9.3 0-13.9.1.7 1.8 2 3.7 4.1 3.8 2.9.7 5.4-1.2 8.2-1.9l.7.1c.3.5.8 1.5 1.1 1.9l2-.7c.2-2.8.1-5.6.1-8.4-.6 0-1.9-.1-2.5-.2v-2.2c1.9.6 6.4-1.4 5.5 2.3 1.6-1.8 3.9-2.5 6.2-3l.4 2.8c-2.2.2-5 .4-6.1 2.7-.6 2-.4 4.2-.6 6.4h3.2v2.3h-8.2c-.6-.8-1.3-1.5-2-2.2-2.4 3.1-7.1 3.1-10.5 2-3.8-1.1-6.1-5.7-4.2-9.2zm2.5 1.3c3.5.2 7 .2 10.5.1-1.6-4.7-8.7-4.6-10.5-.1zm31-.6c-.9-2.9 2.3-4.6 4.6-5 2.8.1 5.6.9 8.4.4v4.7c-2.8-.2-4.4-3.4-7.3-2.9-1.7-.3-3.8 1.3-2.1 2.9 3 1.2 6.5.9 9.2 2.9.9 1.4.9 3.5-.6 4.6-2.4 2.2-6 1.9-8.9.9-1.1.1-2.2.3-3.3.4 0-1.5-.1-3.1-.1-4.6.6 0 1.7.1 2.2.1 1.8 3 5.4 3.3 8.4 1.9-.9-5-8.6-2-10.5-6.3z"/></svg>