<svg xmlns="http://www.w3.org/2000/svg" viewBox="0 0 146.8 63.7"><path d="M24.5 17c6.6-2.3 14.6-1.3 19.5 4 5.1 6.2 7.8 16.6 1.4 22.9-5.7 4.5-14.3 6.3-21 3.1-7-3.4-9.4-12-9.3-19.2.1-5.2 4.5-9.5 9.4-10.8z" fill="#80888e"/><path d="M27.2.7c4.6-1.4 10.2-.9 13.7 2.7C47.5 9.8 54 16.3 60.4 22.8c4.7 4.8 4.7 13.3-.1 18-6.5 6.5-12.9 13-19.5 19.4-4.9 4.8-13.6 4.5-18.3-.5-6.3-6.4-12.7-12.6-19-19-4.7-4.7-4.7-13.1-.1-17.9 5-5.2 10.3-10.2 15.4-15.4 2.6-2.3 4.9-5.3 8.4-6.7zM26 20c-3.9 1-7.4 4.4-7.6 8.7-.1 5.8 1.8 12.7 7.4 15.4 5.4 2.6 12.3 1.2 16.9-2.5 5.2-5.1 3-13.4-1.1-18.4-3.9-4.2-10.3-5-15.6-3.2zm48.3-1.1c1.3-1.6 3.8 0 3.3 1.8 0 7.7.1 15.4 0 23.1 0 2.7-4.5 2-3.9-.6 0-7.9-.2-15.8.1-23.8l.5-.5zm9-.3c1.3-1.3 2.6.7 3.2 1.6 3.4 5.5 6.8 11 10.2 16.4.1-5.6-.2-11.2.1-16.7.1-2.5 4.2-1.8 3.9.5v22.8c.4 2-2.8 3.2-3.6 1.3-3.7-5.7-7.1-11.6-11-17.3-.2 5.8.2 11.4-.1 17-.2 1.9-3.4 1.9-3.6 0-.2-7.2 0-14.4-.1-21.6.2-1.3-.6-3.4 1-4zm22.1.7c1.3-.7 2.8-1.6 3.9 0 .4 3.6.1 7.2.1 10.7h4.3c2.1-2.5 4.2-4.9 6.2-7.4 0-1.6-.2-4.5 2.3-4 2.8.1 1.7 3.9 1.5 5.7-1.5 3-4.3 5.1-6.4 7.7 2.9 3.5 7.9 6.7 6.6 12-.1 2.1-3.3 2.1-3.8.2-.1-.7-.2-2.2-.2-2.9-2-2.4-4.1-4.8-6.1-7.2-1.4 0-2.9-.1-4.3 0-.1 3.5.2 7-.1 10.6-1 1.9-4.2.8-3.8-1.3-.2-8.1-.1-16.1-.2-24.1zm23.1-.6c.7 0 2 0 2.7.1 1.4.6.7 2.6 1.1 3.8 1.7 2.2 3.4 4.3 5.2 6.4 1.8-2.1 3.5-4.2 5.2-6.4.3-1.6-.2-3.9 2-4.1 3 .3 2 4 1.7 6-2.1 3-4.8 5.6-7 8.5-.1 3.7.2 7.5-.1 11.2-.1 1.9-3.6 1.9-3.6 0-.3-3.7 0-7.5-.1-11.3-2.1-2.7-4.6-5.1-6.6-7.8-1.4-1.9-.7-4.3-.5-6.4z" fill="#adb3b9"/></svg>