<svg id="Layer_1" xmlns="http://www.w3.org/2000/svg" viewBox="0 0 64.9 65.7"><style>.st0{fill:#adb3b9}</style><path class="st0" d="M13.1.1h5.7v38.1h22.7l2.8 4.8H13.1V.1z"/><path class="st0" d="M54.1 43h-5.7l-8.9-20H28v11.6h-4.7V0h14.1c4.7 0 8.4 1 11.1 2.9 2.7 1.9 4.1 4.8 4.1 8.6 0 3-1 5.5-3 7.6-1.3 1.3-3 2.3-5.1 2.9l9.6 21zM28 19h8.3c2.1 0 3.8-.2 5.3-.6s2.6-.9 3.5-1.6c.9-.7 1.5-1.5 1.9-2.4.4-.9.6-1.9.6-2.9s-.2-2-.6-2.9c-.4-.9-1-1.7-1.9-2.4-.9-.7-2-1.2-3.5-1.6-1.4-.4-3.2-.6-5.3-.6H28v15zM0 51.6h.7v2.2h2.7v-2.2h.7v5.2h-.7v-2.4H.7v2.4H0v-5.2zm5.4 0h3.4v.7H6.2v1.6h2.5v.7H6.2v1.7H9v.7H5.4v-5.4zm6.2 0h.6l2.2 5.2h-.8l-.5-1.3h-2.5l-.5 1.3h-.8l2.3-5.2zm1.2 3.3l-1-2.4-1 2.4h2zm2.3-3.3h.7v4.5h2.4v.7h-3.1v-5.2zm4.2.6h-1.7v-.7h4.1v.7H20v4.5h-.7v-4.5zm3.2-.6h.7v2.2h2.7v-2.2h.7v5.2h-.7v-2.4h-2.7v2.4h-.7v-5.2zm12 5.2h-.9l-.6-.7c-.2.3-.5.5-.7.6-.2.1-.5.2-.9.2-.3 0-.5 0-.8-.1-.2-.1-.4-.2-.5-.3-.1-.1-.2-.3-.3-.5-.1-.2-.1-.4-.1-.6 0-.2 0-.3.1-.5s.1-.3.3-.4c.1-.1.2-.2.4-.3.1-.1.3-.2.5-.3-.2-.2-.3-.4-.4-.5-.1-.2-.2-.4-.2-.7 0-.2 0-.4.1-.5.1-.2.2-.3.3-.4.1-.1.3-.2.4-.2.2-.1.3-.1.5-.1s.4 0 .5.1c.2 0 .3.1.4.2.1.1.2.2.3.4.1.1.1.3.1.5s0 .3-.1.4c-.1.1-.1.3-.3.4l-.3.3c-.1.1-.3.2-.4.2l1 1.1.7-1.1h.8l-1 1.6 1.1 1.2zm-3.2-2.5c-.1.1-.2.1-.3.2-.1.1-.2.1-.3.2-.1.1-.2.2-.2.3-.1.1-.1.2-.1.4 0 .1 0 .2.1.4.1.1.1.2.2.3.1.1.2.1.3.2.1 0 .2.1.4.1.1 0 .2 0 .4-.1s.2-.1.3-.2c.1-.1.2-.1.3-.2l.2-.2-1.3-1.4zm.9-1.6c0-.2-.1-.3-.2-.4-.1-.1-.3-.2-.5-.2s-.3.1-.5.2c-.1.1-.2.3-.2.5v.3c0 .1.1.2.1.2l.2.2.2.2c.1 0 .2-.1.3-.2.1-.1.2-.1.3-.2.1-.1.1-.2.2-.2.1-.2.1-.3.1-.4zm5.1-1.1h1.8c.2 0 .4 0 .6.1.2.1.4.1.5.2s.3.2.3.4c.1.2.1.4.1.6 0 .3-.1.5-.3.7-.2.2-.4.3-.6.4.2 0 .3.1.4.1.1.1.3.2.4.3s.2.2.2.4c.1.2.1.3.1.5s0 .4-.1.6c-.1.2-.2.3-.4.5l-.6.3c-.2.1-.5.1-.7.1h-1.8l.1-5.2zm.7 2.1h1.4c.1 0 .2-.1.3-.1.1-.1.2-.1.2-.2.1-.1.1-.2.1-.4s-.1-.4-.2-.5c-.1-.2-.3-.2-.6-.2H38v1.4zm0 2.5h1.4c.1 0 .3-.1.4-.1l.3-.3c.1-.1.1-.3.1-.4 0-.3-.1-.5-.3-.7-.2-.2-.5-.2-.8-.2h-1l-.1 1.7zm3.9-4.6h3.4v.7h-2.7v1.6h2.5v.7h-2.5v1.7h2.8v.7h-3.5v-5.4zm6.1 0h.6l2.2 5.2H50l-.5-1.3H47l-.5 1.3h-.8l2.3-5.2zm1.3 3.3l-1-2.4-1 2.4h2zm2.9-3.3v3.2c0 .2 0 .3.1.5 0 .2.1.3.2.5.1.1.2.3.4.4.2.1.4.1.6.1.2 0 .5 0 .6-.1.2-.1.3-.2.4-.4.1-.1.2-.3.2-.5s.1-.3.1-.5v-3.2h.7v3.3c0 .3-.1.6-.2.8-.1.2-.2.5-.4.6-.2.2-.4.3-.6.4-.2.1-.5.1-.8.1-.3 0-.5 0-.8-.1-.2-.1-.5-.2-.6-.4-.2-.2-.3-.4-.4-.6-.1-.2-.2-.5-.2-.8v-3.3h.7zm5.7.6h-1.7v-.7h4.1v.7h-1.7v4.5h-.7v-4.5z"/><path class="st0" d="M62.2 54.6l-2-3h.9l1.4 2.3 1.5-2.3h.9l-2 3v2.2h-.7v-2.2zm-45.4 9.9c.1.2.3.3.5.4.2.1.4.1.6.1.1 0 .2 0 .4-.1.1 0 .2-.1.3-.2s.2-.2.2-.3.1-.2.1-.4-.1-.4-.2-.5c-.1-.1-.3-.2-.5-.3-.2-.1-.4-.1-.6-.2l-.6-.3c-.2-.1-.3-.3-.5-.5-.1-.2-.2-.5-.2-.8 0-.2 0-.3.1-.5s.2-.3.3-.5c.1-.1.3-.3.5-.4.2-.1.5-.1.8-.1.3 0 .6 0 .8.1.3.1.5.2.7.5l-.6.5c-.1-.1-.2-.2-.4-.3-.2-.1-.3-.1-.6-.1-.2 0-.4 0-.5.1-.1.1-.2.1-.3.2-.1.1-.1.2-.2.3s0 .2 0 .3c0 .2.1.4.2.5.1.1.3.2.5.3.2.1.4.1.6.2.2.1.4.1.6.2.2.1.3.2.5.4.1.2.2.4.2.7 0 .3 0 .5-.1.7-.1.2-.2.4-.4.5l-.6.3c-.2.1-.5.1-.7.1-.3 0-.6-.1-.9-.2-.3-.1-.5-.3-.7-.5l.7-.2zm5.2-1.1l-2-3h.9l1.4 2.3 1.5-2.3h.9l-2 3v2.2H22v-2.2zm3.4 1.1c.1.2.3.3.5.4.2.1.4.1.6.1.1 0 .2 0 .4-.1.1 0 .2-.1.3-.2.1-.1.2-.2.2-.3s.1-.2.1-.4-.1-.4-.2-.5c-.1-.1-.3-.2-.5-.3-.2-.1-.4-.1-.6-.2l-.6-.3c-.2-.1-.3-.3-.5-.5-.1-.2-.2-.5-.2-.8 0-.2 0-.3.1-.5s.2-.3.3-.5c.1-.1.3-.3.5-.4.2-.1.5-.1.8-.1.3 0 .6 0 .8.1.3.1.5.2.7.5l-.6.5c-.1-.1-.2-.2-.4-.3-.2-.1-.3-.1-.6-.1-.2 0-.4 0-.5.1-.1.1-.2.1-.3.2-.1.1-.1.2-.2.3v.3c0 .2.1.4.2.5.1.1.3.2.5.3.2.1.4.1.6.2.2.1.4.1.6.2.2.1.3.2.5.4.1.2.2.4.2.7 0 .3 0 .5-.1.7-.1.2-.2.4-.4.5l-.6.3c-.2.1-.5.1-.7.1-.3 0-.6-.1-.9-.2-.3-.1-.5-.3-.7-.5l.7-.2zm5-3.4h-1.7v-.7h4.1v.7h-1.7v4.5h-.7v-4.5zm3.2-.7H37v.7h-2.7v1.6h2.5v.7h-2.5v1.7h2.8v.7h-3.5v-5.4zm4.4 0h1.1l1.7 3.9 1.6-3.9h1.1v5.2h-.7v-4.3L41 65.6h-.5l-1.8-4.3v4.3H38v-5.2zm6.9 4.1c.1.2.3.3.5.4.2.1.4.1.6.1.1 0 .2 0 .4-.1s.2-.1.3-.2.2-.2.2-.3.1-.2.1-.4-.1-.4-.2-.5c-.1-.1-.3-.2-.5-.3-.2-.1-.4-.1-.6-.2l-.6-.3c-.2-.1-.3-.3-.5-.5-.1-.2-.2-.5-.2-.8 0-.2 0-.3.1-.5s.2-.3.3-.5c.1-.1.3-.3.5-.4.2-.1.5-.1.8-.1.3 0 .6 0 .8.1.3.1.5.2.7.5l-.6.5c-.1-.1-.2-.2-.4-.3-.2-.1-.3-.1-.6-.1-.2 0-.4 0-.5.1-.1.1-.2.1-.3.2-.1.1-.1.2-.2.3v.3c0 .2.1.4.2.5.1.1.3.2.5.3.2.1.4.1.6.2.2.1.4.1.6.2.2.1.3.2.5.4.1.2.2.4.2.7 0 .3 0 .5-.1.7-.1.2-.2.4-.4.5l-.6.3c-.2.1-.5.1-.7.1-.3 0-.6-.1-.9-.2-.3-.1-.5-.3-.7-.5l.7-.2z"/></svg>