<?xml version="1.0" encoding="utf-8"?>
<!-- Generator: Adobe Illustrator 26.0.2, SVG Export Plug-In . SVG Version: 6.00 Build 0)  -->
<svg version="1.1" xmlns="http://www.w3.org/2000/svg" xmlns:xlink="http://www.w3.org/1999/xlink" x="0px" y="0px"
	 viewBox="0 0 4962.36 1000" style="enable-background:new 0 0 4962.36 1000;" xml:space="preserve">
<style type="text/css">
	.st0{fill:#ADB3B9;}
</style>
<g id="Artboard_outline">
</g>
<g id="Wordmark">
	<g>
		<path class="st0" d="M1821.41,32.13h188.08l319.8,578.49l319.79-578.49h184V982.7h-153.45V254.16l-280.42,504.48h-143.94
			l-280.42-504.48V982.7h-153.45V32.13z"/>
		<path class="st0" d="M3328.04,999.67c-71.07,0-133.53-15.74-187.4-47.19c-53.87-31.46-95.85-75.03-125.95-130.7
			c-30.11-55.68-45.15-119.5-45.15-191.47c0-72.87,14.71-137.38,44.13-193.51c29.42-56.12,70.28-100.03,122.56-131.73
			c52.28-31.68,112.37-47.53,180.27-47.53c67.44,0,125.5,15.96,174.16,47.87c48.65,31.92,86.11,76.62,112.37,134.1
			c26.25,57.49,39.38,124.93,39.38,202.34v42.09h-520.77c9.51,57.95,32.93,103.54,70.28,136.82c37.34,33.27,84.53,49.9,141.56,49.9
			c45.72,0,85.1-6.79,118.14-20.37c33.04-13.58,64.05-34.17,93.02-61.78l81.48,99.81C3545.08,962.56,3445.73,999.67,3328.04,999.67z
			 M3440.08,435.78c-32.14-32.81-74.24-49.23-126.29-49.23c-50.7,0-93.14,16.75-127.31,50.25c-34.18,33.5-55.8,78.54-64.84,135.12
			h373.44C3490.54,513.98,3472.21,468.61,3440.08,435.78z"/>
		<path class="st0" d="M3828.46,400.14h-141.23V274.53h141.23V66.76h148.01v207.76h214.55v125.61h-214.55v318.44
			c0,52.96,9.05,90.75,27.16,113.39c18.1,22.64,49.11,33.95,93.02,33.95c19.45,0,35.99-0.78,49.57-2.38
			c13.58-1.58,28.52-3.74,44.81-6.45v124.25c-16.75,4.98-35.64,9.05-56.69,12.23c-21.05,3.16-43.11,4.75-66.2,4.75
			c-159.79,0-239.67-87.35-239.67-262.08V400.14z"/>
		<path class="st0" d="M4962.36,982.7h-145.3v-99.13c-25.8,37.12-58.63,65.75-98.45,85.89c-39.84,20.13-85.1,30.22-135.8,30.22
			c-62.46,0-117.8-15.96-166.01-47.87s-86.12-75.81-113.73-131.72c-27.61-55.9-41.42-119.84-41.42-191.81
			c0-72.42,14.03-136.48,42.1-192.16c28.06-55.67,66.88-99.35,116.44-131.04c49.56-31.68,106.48-47.53,170.76-47.53
			c48.43,0,91.89,9.4,130.36,28.18c38.47,18.78,70.38,45.39,95.74,79.78v-90.98h145.3V982.7z M4814.35,522.35
			c-15.85-40.29-40.85-72.08-75.03-95.4c-34.18-23.31-73.67-34.96-118.48-34.96c-63.38,0-113.85,21.28-151.41,63.82
			c-37.58,42.55-56.35,100.04-56.35,172.46c0,72.88,18.1,130.59,54.32,173.14c36.21,42.55,85.32,63.82,147.34,63.82
			c45.71,0,86.45-11.77,122.21-35.31c35.75-23.53,61.55-55.22,77.4-95.05V522.35z"/>
	</g>
</g>
<g id="Symbol">
	<path class="st0" d="M1080,0C956.61,0,860.15,92.94,772.84,210.99C652.85,58.22,552.5,0,432.41,0C187.59,0,0,318.62,0,655.86
		C0,866.9,102.1,1000,273.1,1000c123.08,0,211.6-58.03,368.97-333.1c0,0,65.6-115.84,110.72-195.64
		c15.81,25.53,32.43,53,49.96,82.54l73.79,124.14C1020.3,918.48,1100.39,1000,1245.52,1000c166.6,0,259.31-134.92,259.31-350.34
		C1504.83,296.55,1313.01,0,1080,0z M522.07,592.41c-127.59,200-171.72,244.83-242.76,244.83c-73.1,0-116.55-64.18-116.55-178.62
		c0-244.83,122.07-495.17,267.59-495.17c78.8,0,144.65,45.51,245.52,189.91C580.09,500.27,522.07,592.41,522.07,592.41z
		 M1003.6,567.24l-88.23-147.15c-23.88-38.83-46.76-74.51-68.84-107.23c79.52-122.74,145.11-183.89,223.13-183.89
		c162.07,0,291.72,238.62,291.72,531.72c0,111.72-36.59,176.55-112.41,176.55C1176.29,837.24,1141.58,789.25,1003.6,567.24z"/>
</g>
</svg>
