<svg xmlns="http://www.w3.org/2000/svg" viewBox="0 0 296 65.5"><path d="M61 0h17.1c7.6 20.9 15 41.9 22.5 62.9-6.8 0-13.5.1-20.3-.1-1.8-5.5-3.5-11-5.2-16.5-1.7 5.5-3.4 11.1-5.1 16.6H49.8l16.5-45c-1.7-6-3.5-12-5.3-17.9zm42.1 24c5.7-7.3 17.7-8.3 24.9-2.6l.2-2.6h18.1v44.1c-5.8 0-11.6-.1-17.3.1-.5-.4-1.6-1.1-2.2-1.5-7.1 4.1-17.4 3.5-23-3-8.5-9.4-8.6-24.8-.7-34.5zm17.4 12.2c-3.2 2.3-2.9 8.4 1 9.9 3.9 1.1 6.5-3.3 5.6-6.7-.3-3-4.1-4.9-6.6-3.2zM0 18.8h47.8v44.1H27.4V35.3h-7v27.6H.1C0 48.2 0 33.5 0 18.8zm150.3 0h19.9v44.1h-19.9V18.8zm30.8 5.5c5.5-4.3 12.6-5.8 19.5-5.7 8.2.1 16.3.2 24.5.2v13.6h-5.8c3.1 3 5.7 6.8 5.7 11.3 1 9.1-6.6 16.7-14.8 19-10.8 3.1-24.1 1.4-31.9-7.4-7.7-8.9-6.4-23.9 2.8-31zm16.1 12.1c-3.6 2.1-3.4 8.2.6 9.8 3.9 1.8 8.4-2.6 6.9-6.6-.7-3.2-4.8-5.1-7.5-3.2zm30.1-17.6h19.8v44.1h-19.8V18.8z" fill="#adb3b9"/><path d="M263.5 19.6c9.1-3.7 20.5-1 26.8 6.6 6.4 7.2 7.5 18.4 2.9 26.8-3.7 6.9-10.9 11.6-18.7 12.4h-4.8c-10.1-1.2-19-9.2-20.7-19.3-2.4-10.8 4.1-22.6 14.5-26.5z" fill="#95989e"/></svg>