<svg id="Layer_1" xmlns="http://www.w3.org/2000/svg" viewBox="0 0 278.4 36.8"><style>.st0{fill:#adb3b9}</style><path class="st0" d="M18.4 16.6c-.3.2-2.4 1.4-3.1 1.8.8.5 1.7 1 2.5 1.4l.6.3c1-.6 2-1.2 3.1-1.8l-1.5-.9c-.5-.2-1.1-.5-1.6-.8z"/><path class="st0" d="M36.7 16.7c-.3-2.5-1.3-4.9-3-6.9-.4-.5-.8-.9-1.2-1.3-1.1-1.2-2.3-2.3-3.4-3.5-.5-.5-.9-1-1.4-1.4C25.8 1.9 23.4.7 20.9.2c-.9-.2-2-.2-3.1-.2-1.1.1-2.2.2-3.2.5-1.8.5-3.6 1.5-5 2.7-.9.7-1.6 1.5-2.3 2.2-1.2 1.2-2.4 2.5-3.6 3.7-1.2 1.2-2.1 2.6-2.7 4.1-.4 1-.7 2.1-.9 3.1-.3 1.9-.2 3.8.3 5.6.6 2.4 1.9 4.5 3.7 6.2 1.1 1.1 2.1 2.2 3.2 3.3.6.6 1.2 1.3 1.8 1.8 1 .9 2.2 1.7 3.5 2.3 1.7.8 3.5 1.2 5.3 1.3.7 0 1.3 0 2-.1 1.2-.1 2.3-.4 3.4-.8 1.9-.7 3.6-1.8 5.1-3.3 1.1-1.2 2.2-2.3 3.3-3.5.6-.6 1.1-1.2 1.7-1.8.6-.6 1.1-1.3 1.5-2.1.5-.8.9-1.7 1.2-2.6.7-1.8.9-3.9.6-5.9zm-4.5 4.1s0 .1-.1.1l-1.5 2.7c-2-1.2-4-2.3-6-3.5-1 .6-2 1.2-3 1.7l.1.1c1.5.8 2.9 1.7 4.4 2.5 1 .6 2 1.1 3 1.7-.3.6-.7 1.2-1 1.8-.2.3-.4.7-.5 1-3-1.8-6.1-3.5-9.2-5.3-3 1.7-6 3.5-9 5.2 0 .2-.1.2-.2.2-.5-.9-1-1.9-1.5-2.8 2.5-1.4 5-2.9 7.5-4.3-1-.6-2-1.2-3-1.7-2 1.2-4 2.3-6 3.5-.2-.3-.4-.6-.5-1-.3-.6-.7-1.2-1-1.9 1.4-.8 2.9-1.6 4.3-2.5-1.5-.9-2.9-1.7-4.4-2.6.5-.9 1-1.8 1.6-2.7 2 1.1 4 2.3 6 3.4 1-.6 2.1-1.2 3.1-1.8-1.4-.8-2.9-1.7-4.3-2.5-1.1-.6-2.2-1.3-3.3-1.9.5-.9 1-1.8 1.6-2.7 3 1.7 6.1 3.5 9.1 5.2 3.1-1.7 6.1-3.5 9.2-5.2.5.9 1 1.8 1.6 2.7L25 12.6c-1.1.7-2.3 1.3-3.4 2 1 .6 2.1 1.2 3.1 1.8 2-1.1 4-2.3 6-3.4.5.9 1 1.8 1.6 2.7-1.5.9-2.9 1.7-4.4 2.6 1.4.9 2.9 1.7 4.3 2.5zm40.3-7.6c0 2.3-.7 4.1-2 5.4-1.3 1.3-3.2 1.9-5.7 1.9h-3.1v10h-1.4V6.3h5c4.8 0 7.2 2.3 7.2 6.9zM61.7 19h2.8c2.3 0 3.9-.5 5-1.4 1-.9 1.5-2.4 1.5-4.4 0-1.9-.5-3.3-1.4-4.2-1-.9-2.5-1.4-4.5-1.4h-3.4V19zm33.7-.6c0 3.8-.8 6.9-2.4 9.1-1.6 2.2-3.8 3.4-6.7 3.4-2.8 0-5.1-1.1-6.7-3.4-1.6-2.2-2.4-5.3-2.4-9.2 0-3.9.8-6.9 2.4-9.1 1.6-2.2 3.9-3.3 6.7-3.3 2.8 0 5.1 1.1 6.7 3.3 1.6 2.3 2.4 5.3 2.4 9.2zm-16.6 0c0 3.5.6 6.2 1.9 8.1 1.3 1.9 3.2 2.8 5.6 2.8 2.4 0 4.3-.9 5.6-2.8 1.3-1.9 1.9-4.6 1.9-8.1s-.6-6.2-1.9-8c-1.3-1.9-3.2-2.8-5.6-2.8-2.4 0-4.3.9-5.6 2.8s-1.9 4.5-1.9 8zm28 12.1h-1.4V7.9h-6.6V6.3h14.6v1.6h-6.6v22.6zm25.7 0h-1.4L119.1 9h-.1c.1 2.6.2 4.5.2 5.8v15.7h-1.4V6.3h1.4l12 21.5h.1c-.1-2-.1-3.9-.1-5.7V6.3h1.4l-.1 24.2zm7.2 0V6.3h1.4v24.3c0-.1-1.4-.1-1.4-.1zM158 22h-8.3l-2.8 8.6h-1.6l8.2-24.4h.9l8 24.4h-1.6L158 22zm-7.7-1.6h7.3l-2.8-8.7c-.2-.7-.5-1.6-.8-2.9-.3 1.1-.5 2-.8 2.9l-2.9 8.7zm30.5 10.1h-1.4V7.9h-6.6V6.3h14.6v1.6h-6.6v22.6zm25.7 0H205V18.6h-11.9v11.9h-1.4V6.3h1.4V17H205V6.3h1.4v24.2zm7.1 0V6.3h1.4v24.3c0-.1-1.4-.1-1.4-.1zm10-10.5v10.6h-1.4V6.3h4.8c2.5 0 4.4.6 5.6 1.7 1.2 1.1 1.8 2.8 1.8 5 0 1.6-.4 3-1.1 4.1-.7 1.1-1.8 1.9-3.3 2.4l5.5 11.1h-1.7L228.6 20h-5zm0-1.5h3.9c1.7 0 3-.5 4-1.4.9-.9 1.4-2.3 1.4-4 0-1.8-.5-3.2-1.4-4-.9-.8-2.4-1.3-4.5-1.3h-3.4v10.7zm33.9-.1c0 3.8-.8 6.9-2.4 9.1-1.6 2.2-3.8 3.4-6.7 3.4-2.8 0-5.1-1.1-6.7-3.4-1.6-2.2-2.4-5.3-2.4-9.2 0-3.9.8-6.9 2.4-9.1 1.6-2.2 3.9-3.3 6.7-3.3 2.8 0 5.1 1.1 6.7 3.3 1.6 2.3 2.4 5.3 2.4 9.2zm-16.6 0c0 3.5.6 6.2 1.9 8.1 1.3 1.9 3.2 2.8 5.6 2.8 2.4 0 4.3-.9 5.6-2.8 1.3-1.9 1.9-4.6 1.9-8.1s-.6-6.2-1.9-8c-1.3-1.9-3.2-2.8-5.6-2.8-2.4 0-4.3.9-5.6 2.8-1.2 1.8-1.9 4.5-1.9 8zm37.5 12.1H277L264.9 9h-.1c.1 2.6.2 4.5.2 5.8v15.7h-1.4V6.3h1.4l12 21.5h.1c-.1-2-.1-3.9-.1-5.7V6.3h1.4v24.2z"/></svg>