<svg id="Layer_1" xmlns="http://www.w3.org/2000/svg" viewBox="0 0 479 427.2"><style>.st0{fill:#fff}</style><path class="st0" d="M76.3 57.2c9.3-21.1 12-56 41.5-57.2 39.8 7 75.6 27.8 115.1 35.8 54.5-2.8 108-19.8 162.6-17.6 42 8.6 44.1 56.7 48.3 90.9 12.2 7.1 31.4 9.8 34.7 26 3.7 28.5-14.4 53.5-19.2 80.7.7 36.9 14.6 73.3 10.1 110.2-6.5 30.1-37.9 41-65 44.1-9.5 21.5-12.8 58.2-43.9 57.1-39.6-7.8-75.6-29.2-115.5-35.7-48.4 4.2-96.1 14.5-144.5 18.6-25.3 2.4-50.9-16.2-55.7-41.3-3.6-16.6-5.5-33.6-8.1-50.4C22.8 312.2 8.4 306 0 292.6v-16.1c6.7-21.7 16.3-42.5 21.1-64.7-.7-36.8-14.6-73.1-10.2-110 6.3-30.3 38.2-41.6 65.4-44.6zm-19.1 52.5c7 59.7 15.9 119 24.6 178.4 30.7-34.1 53.9-74.4 85.8-107.4l9.5-.2c36.7 23.8 70.2 52.3 105.7 77.9 17.4-20.6 30.4-45.3 51.3-62.6 31 8.7 53.1 36.8 80.3 53.6-8.6-61.7-16.9-123.4-26.1-185C277.8 78.1 167.5 94 57.2 109.7z"/><path class="st0" d="M254.5 111c23.2-17.1 60 3.3 56.7 32.2-.3 26.3-33.3 43.5-55.1 28.8-22.5-12-23.3-47.7-1.6-61z"/></svg>