<svg id="Layer_1" xmlns="http://www.w3.org/2000/svg" viewBox="-525 354 664 191"><style>.st3{fill:#009019}.st4{fill:#fff755}.st6{fill:#3d60ad}.st7{font-family:&apos;AvantGardeLT-Bold&apos;}.st8{font-size:27.3913px}.st9{enable-background:new}.st10{fill:#4c96fa}</style><path d="M-462.6 486.4h15.3c7.3 0 8.9 4.1 8.9 7 0 2.8-1.4 4.3-3.4 5.5 2.5.8 4.8 2.9 4.8 7 0 5.6-4.9 8.5-9.8 8.5h-15.8v-28zm8.6 10.9h4.5c1.8 0 2.9-.5 2.9-2.3 0-1.4-1.2-1.9-2.9-1.9h-4.5v4.2zm0 10.4h5c1.8 0 3.4-.5 3.4-2.7 0-1.7-1-2.5-3-2.5h-5.4v5.2zm-20.4-8.3v2.2c0 .4 0 1-.1 1.6 0 .6-.2 1.2-.5 1.7s-.7 1-1.3 1.4c-.6.4-1.4.6-2.4.6s-1.8-.2-2.4-.6c-.6-.4-1-.8-1.3-1.4-.2-.5-.3-1.1-.4-1.7v-3.8h-8v3.4c0 .9 0 1.7.1 2.5 0 .7.2 1.4.3 2 .2.6.4 1.2.7 1.8.3.6.7 1.2 1.3 1.9.6.7 1.2 1.3 2 1.8.7.4 1.5.8 2.2 1 .7.2 1.4.4 2.1.5.6.1 1.2.1 1.6.1h3.9c.4 0 .9 0 1.6-.1.6-.1 1.3-.2 2.1-.5s1.5-.6 2.2-1c.7-.4 1.4-1 2-1.8.5-.7 1-1.3 1.3-1.9.3-.6.5-1.2.7-1.8.2-.6.3-1.3.3-2s.1-1.5.1-2.5v-3.4h-8.1zm7.9-6.8v-6.2h-7.9v6.2zm-16.3 0v-6.2h-8v6.2z" fill="#ef435b"/><path d="M-435.1 486.4h8.6v9.7h8.1v-9.7h8.6v28h-8.6v-11.1h-8.1v11.1h-8.6zm28.9 0h23.1v7.2h-14.5v3.5h13.2v6.6h-13.2v3.5h15v7.2h-23.6z" fill="#ffce0e"/><path d="M-380.4 486.6h16.3c4.8 0 9.1 2.7 9.1 7.9 0 2.9-1.3 5.9-4.2 7 2.3.9 3.8 3.5 4.1 6.9.1 1.3.1 4.7.9 5.9h-8.6c-.4-1.4-.6-2.8-.7-4.3-.2-2.6-.5-5.4-3.8-5.4h-4.5v9.8h-8.6v-27.8zm8.6 12.1h4.5c1.6 0 3.8-.3 3.8-2.8 0-1.7-1-2.8-4.2-2.8h-4v5.6h-.1zm32.1-12.3c8.1 0 13.5 5.8 13.5 14s-5.4 14-13.5 14-13.5-5.8-13.5-14 5.4-14 13.5-14m0 21.3c2.1 0 5.3-1.4 5.3-7.3s-3.2-7.3-5.3-7.3-5.3 1.4-5.3 7.3 3.2 7.3 5.3 7.3" fill="#2f74ba"/><g id="XMLID_14_"><path class="st3" d="M-399.8 412.1c-2.7 1.4-6 1.8-8.6 1.8-6.6 0-10-3.7-10-9.7 0-7 5.1-14.4 13.5-14.4 4.7 0 8 2.6 8 6.9 0 5.9-5.7 8-15 7.8 0 .7.2 1.7.7 2.4.9 1.2 2.5 1.8 4.4 1.8 2.5 0 4.6-.6 6.5-1.5l.5 4.9zm-6-17.3c-3.2 0-5 2.6-5.4 4.8 5.3 0 7.9-.7 7.9-2.8 0-1.2-.9-2-2.5-2m19.2-13.2l-2.3 12.4h11.6l2.3-12.4h6.8l-6 31.8h-6.8l2.5-13.3H-390l-2.6 13.3h-6.8l6-31.8zm33.4 30.5c-2.7 1.4-6 1.8-8.6 1.8-6.6 0-10-3.7-10-9.7 0-7 5.1-14.4 13.5-14.4 4.7 0 8 2.6 8 6.9 0 5.9-5.7 8-15 7.8 0 .7.2 1.7.7 2.4.9 1.2 2.5 1.8 4.4 1.8 2.5 0 4.6-.6 6.5-1.5l.5 4.9zm-6-17.3c-3.2 0-5 2.6-5.4 4.8 5.3 0 7.9-.7 7.9-2.8 0-1.2-.9-2-2.5-2"/><path class="st3" d="M-353.1 413.4l2.6-13.7c.7-3.5.9-7.4 1.2-9.3h5.9c-.1 1.6-.3 3.1-.4 4.7h.1c1.6-3.1 4.2-5.2 7.4-5.2h1.3l-1.3 6.6h-1.1c-4.3 0-6.4 3.9-7.2 8.4l-1.6 8.6h-6.9v-.1z"/><path class="st3" d="M-315.5 399.3c0 8.4-5.8 14.6-13.8 14.6-5.9 0-9.8-3.8-9.8-9.5 0-8 5.6-14.6 13.8-14.6 6.2 0 9.8 4.3 9.8 9.5m-16.5 5c0 2.7 1.3 4.5 3.7 4.5 3.7 0 5.8-5.4 5.8-9.4 0-2.1-.9-4.4-3.6-4.4-4 0-6 5.7-5.9 9.3m-154.5-6.7l11.7-16h-8.1l-4.8 8c-1.4 2.3-2.3 4.1-3.3 5.8h-.1c-.3-1.6-.7-3.1-1.2-5.8l-2-8.1h-7.2l5.2 16h9.8v.1zm-8.9 2.6l.1.2-2.5 13h6.8l2.5-13.1.1-.1zm19.3-2.6c1-1.5 2.3-2.6 4-2.6 2 0 3 1.2 3.4 2.6h7.1c-.7-4.4-4.1-7.7-9.6-7.7-5.7 0-10.1 3.1-12.3 7.7h7.4zm7.6 2.6c-.3 3.8-2.3 8.5-5.8 8.5-2.4 0-3.7-1.8-3.7-4.5 0-1.2.2-2.6.6-4h-7.1c-.3 1.3-.5 2.7-.5 4.2 0 5.7 3.9 9.5 9.8 9.5 7.7 0 13.3-5.7 13.7-13.7h-7zm28.5-2.6l1.4-7.3h-6.8l-1.4 7.3zm-14 0l1.3-7.3h-6.8l-1.3 7.3z"/><path class="st3" d="M-447.3 400.2l-.2.8c-.9 4.6-3.3 7.4-5.6 7.4-1.7 0-2.3-1.2-2.3-2.7 0-.8.1-2 .3-3l.5-2.5h-6.8l-.6 3c-.3 1.6-.5 3-.5 4.2 0 4.4 2.2 6.5 5.9 6.5 2.8 0 5.6-1.3 8-4.3h.1l-.4 3.8h6c.3-2.1.7-4.6 1.2-7.5l1.1-5.7h-6.7zm23.4-10.4c-2.8 0-5.4 1.2-7.1 3.3h-.1l2.7-13.2h-6.8l-3.5 17.7h2v-1.4l3.7 2.8-3.7 2.8v-1.4h-2.5l-.6 3c-.3 1.4-.5 2.8-.5 4.2 0 4.1 2.7 6.5 8.2 6.5 10.4 0 15.3-8.6 15.3-16.1-.1-4.3-2.3-8.2-7.1-8.2m-6.9 19c-1.6 0-2.5-.9-2.6-2.5 0-1 .1-1.8.2-2.5l.4-1.9c.8-4 3.2-6.5 5.7-6.5 2.1 0 3 1.7 3 4 .1 3.9-2.8 9.4-6.7 9.4"/></g><g id="XMLID_16_"><path class="st4" d="M48.3 388.7l7.2-8.1c3.8-.1 7.8 1.1 10.5 3.8 2.6 2.3 3.6 6.2 2.3 9.5-.8 2.2-2.6 3.8-4.5 5 2.6 4.7 5.3 9.4 7.9 14.2H61.6c-1.6-2.8-3.2-5.7-4.9-8.5v8.5H25.2V381h17.5c-3.7 4.1-7.3 8.2-11 12.4h13c-4.3 5.4-8.7 10.8-13 16.2 9.9-7 19.5-13.9 29.2-20.8-4.2-.1-8.4 0-12.6-.1"/><path class="st4" d="M82.3 381c4.1-.8 8.5-.2 12 2.2 3.5 2.4 6.2 6.1 7 10.3.8 4.1.2 8.6-2 12.2-2.1 3.3-5.3 6-9.1 7.1-4.2 1.1-8.9.7-12.6-1.6-3.7-2.3-6.5-6-7.4-10.3-.9-4.1-.4-8.5 1.8-12.2 2.2-3.8 5.9-6.8 10.3-7.7m1.9 9.7c-2.9.7-4.9 3.7-4.7 6.6 0 3.3 3 6.4 6.4 6.2 3.6 0 6.4-3.7 5.9-7.2-.2-3.6-4-6.7-7.6-5.6m-87-9.7H8.7v7.3h3.8c0-2.5-.1-4.9.1-7.4 3.4.1 6.9 0 10.3.1v32.1H12.6v-13.9c-1.3 0-2.5 0-3.8-.1-.1 4.7 0 9.3 0 14H-2.8V381z"/></g><path d="M-3.2 485.6h9.8v9.6h5.9v-9.5h9.9c-.1 9.5 0 19.1 0 28.6-3.2.2-6.5 0-9.8.1.1-3.2 0-6.4 0-9.6H6.7c-.1 3.2 0 6.5-.1 9.7l-9.8-.2v-28.7zm28.6 0h35.5c2.8 0 5.8.9 7.7 3.1 1.9 2.3 2.3 5.5 1.6 8.3-.8 2.7-2.6 5.1-4.6 7 2.4 3.5 4.7 7.1 7.1 10.7h-9.6c-3.1-4.9-6-10-9.1-14.9 1.6-2.3 2.9-4.7 4.3-7.2-2.7.2-5.4 0-8.1.2-1.5-2.3-2.7-4.8-4.1-7.2-1.6 2.2-2.8 4.7-4.2 7.1-2.8 0-5.5-.1-8.3-.1 1.4 2.4 2.8 4.7 4.2 7.1-1.2 2.5-2.9 4.8-4.1 7.3 2.7-.2 5.5-.2 8.2-.1 1.5 2.4 2.7 5 4.3 7.3-6.9.1-13.8 0-20.7 0 0-9.5 0-19-.1-28.6m60.3.1c4.6-.4 9.3 1.3 12.5 4.7 4.6 4.8 5.3 12.9 1.4 18.3-2.8 3.9-7.5 6.5-12.4 6.4-6.8.3-13.4-4.8-14.7-11.5-1-4.4.2-9.3 3.2-12.7 2.4-3 6.2-4.9 10-5.2m.1 9.2c-2.5.5-4.5 2.7-4.4 5.2 0 2.6 2.2 4.9 4.7 5.3 3.3.6 6.7-2.3 6.4-5.7-.3-3.1-3.6-5.5-6.7-4.8" fill="#d70017" id="XMLID_15_"/><g id="XMLID_17_"><text transform="translate(-212.696 507.842)" class="st6 st7 st8">y</text><g class="st9"><path class="st6" d="M-196.9 500.2c0-.9.2-1.9.5-2.8.3-1 .8-1.8 1.5-2.6s1.5-1.4 2.5-1.9 2.2-.7 3.6-.7 2.6.2 3.6.7c1 .5 1.9 1.1 2.5 1.9.7.8 1.2 1.6 1.5 2.6.3 1 .5 1.9.5 2.8 0 .9-.2 1.9-.5 2.8-.3 1-.8 1.8-1.5 2.6s-1.5 1.4-2.5 1.9-2.2.7-3.6.7-2.6-.2-3.6-.7c-1-.5-1.9-1.1-2.5-1.9-.7-.8-1.2-1.6-1.5-2.6-.3-.9-.5-1.8-.5-2.8zm4.6 0c0 .5.1 1.1.3 1.5.2.5.5.9.8 1.2.3.3.7.6 1.2.8.4.2.9.3 1.4.3.5 0 1-.1 1.4-.3.4-.2.8-.5 1.2-.8.3-.3.6-.7.8-1.2.2-.5.3-1 .3-1.5s-.1-1.1-.3-1.5c-.2-.5-.5-.9-.8-1.2-.3-.3-.7-.6-1.2-.8-.4-.2-.9-.3-1.4-.3-.5 0-1 .1-1.4.3-.4.2-.8.5-1.2.8s-.6.7-.8 1.2c-.2.5-.3 1-.3 1.5zm28.5 7.6h-4.3v-1.6h-.1c-.2.5-.5.9-.8 1.2-.3.3-.7.5-1 .6-.4.1-.7.2-1.1.3-.4 0-.7.1-1 .1-.2 0-.5 0-.9-.1-.4 0-.8-.1-1.2-.3-.4-.1-.8-.3-1.3-.6-.4-.3-.8-.6-1.1-1-.3-.4-.6-.7-.7-1.1-.2-.3-.3-.7-.4-1-.1-.4-.2-.7-.2-1.2v-10.5h4.5v9.3c0 .4.1.7.3 1 .1.3.4.6.7.8.3.2.8.3 1.4.3.3 0 .6 0 1-.2.3-.1.6-.3.8-.5.2-.2.4-.5.6-.9.1-.4.2-.9.2-1.5v-8.4h4.5v15.3z"/></g><g class="st9"><path class="st6" d="M-160.4 507.8v-20.3h2.8v7.2h.1c.6-.9 1.4-1.5 2.3-1.9.9-.4 1.9-.6 2.9-.6s2 .2 2.9.6c.9.4 1.8.9 2.5 1.7.7.7 1.3 1.6 1.8 2.5s.7 2 .7 3.2c0 1.1-.2 2.1-.6 3.1-.4 1-.9 1.8-1.6 2.5-.7.7-1.5 1.3-2.5 1.7-.9.4-2 .6-3.1.6-.3 0-.7 0-1.2-.1-.4-.1-.9-.2-1.4-.4-.5-.2-.9-.5-1.4-.8-.5-.3-.9-.8-1.3-1.3h-.1v2.2h-2.8zm2.8-7.6c0 .9.2 1.6.5 2.3.3.7.7 1.2 1.2 1.7s1 .8 1.7 1.1c.6.2 1.3.4 1.9.4.7 0 1.3-.1 2-.4.6-.3 1.2-.7 1.7-1.1.5-.5.9-1.1 1.1-1.7.3-.7.4-1.4.4-2.1 0-.7-.1-1.4-.4-2-.3-.6-.6-1.2-1.1-1.7s-1-.9-1.6-1.2-1.3-.4-2.1-.4-1.5.2-2.1.5c-.6.3-1.2.7-1.6 1.2s-.8 1.1-1 1.7c-.5.4-.6 1-.6 1.7zm18.2 1.3c.2.7.5 1.4.8 1.9.4.5.8 1 1.2 1.3.5.3 1 .6 1.5.7.5.2 1 .2 1.5.2 1.1 0 2-.3 2.7-.8.7-.5 1.3-1.1 1.6-1.8h2.8c-.4 1-.8 1.8-1.4 2.5-.6.7-1.2 1.2-1.9 1.6-.7.4-1.4.7-2.1.8-.7.2-1.3.3-1.9.3-1.1 0-2.1-.2-3-.6-.9-.4-1.8-1-2.5-1.7s-1.2-1.6-1.6-2.5c-.4-1-.6-2-.6-3.1s.2-2.2.6-3.2 1-1.8 1.7-2.5 1.5-1.3 2.5-1.7c.9-.4 1.9-.6 3-.6 1 0 2 .2 2.9.6.9.4 1.8.9 2.5 1.6.7.7 1.3 1.5 1.7 2.5s.6 2 .6 3.1v.8c0 .3 0 .5-.1.6h-12.5zm9.8-2.2c0-.5-.2-1.1-.4-1.6-.3-.5-.6-1-1-1.4-.4-.4-1-.7-1.5-1-.6-.3-1.2-.4-1.9-.4s-1.3.1-1.9.4-1.1.6-1.5 1c-.4.4-.8.9-1 1.4-.3.5-.4 1.1-.4 1.6h9.6z"/></g><text transform="translate(-125.21 507.842)" class="st6 st7 st8">he</text><text transform="translate(-90.21 507.842)" class="st6 st7 st8">r</text><text transform="translate(-80.81 507.842)" class="st6 st7 st8">o</text><path class="st6" d="M-250 477c1-.3 2.1.7 1.8 1.7-.2 1-1.6 1.4-2.3.7-.9-.7-.6-2.2.5-2.4m-8.1.8c.9-.4 2.1.5 1.9 1.5-.1 1-1.5 1.6-2.3.9-.9-.6-.6-2.1.4-2.4m15.5 1.4c1-.6 2.3.4 2 1.5-.1 1-1.6 1.6-2.3.8-.7-.6-.5-1.9.3-2.3m-22.9 2.2c.9-.5 2.1.2 2.1 1.2.1 1-1.1 1.8-2 1.4-1.1-.5-1.1-2.1-.1-2.6m29.6 2.6c1-.4 2.2.7 1.8 1.8-.3 1-1.6 1.3-2.3.7-.9-.8-.6-2.3.5-2.5m-34.8 3.3c1-.4 2.1.6 1.9 1.6-.1 1-1.4 1.5-2.2.9-1-.6-.7-2.2.3-2.5m18.1 2.5c3.1-.3 6.4.9 8.5 3.2 1.7 1.8 2.7 4.2 2.8 6.7.1 2.9-1 5.8-3.1 7.9-2.1 2-5 3.1-7.9 2.9-3.2-.2-6.3-2-8.1-4.7-1.7-2.5-2.1-5.8-1.2-8.7 1.3-4 4.9-7 9-7.3m-.7 3c-2.8.6-5.1 3-5.6 5.9-.7 3.1.9 6.4 3.6 8 1.9 1.2 4.4 1.4 6.5.5 2-.7 3.6-2.4 4.4-4.4s.6-4.4-.5-6.3c-1.7-3-5.3-4.6-8.4-3.7m21.5-2c1-.5 2.2.5 1.9 1.6-.1 1-1.6 1.5-2.3.8-.8-.6-.5-2.1.4-2.4m-41.8 4c1-.4 2.1.5 1.9 1.6-.1 1-1.5 1.6-2.3.9-.8-.6-.6-2.2.4-2.5m43.3 3.9c.9-.4 2.1.4 2 1.4.1 1-1.1 1.8-2 1.3-1.1-.5-1.1-2.3 0-2.7m-43.3 4.1c.9-.4 2.1.4 2 1.4 0 1-1.4 1.7-2.2 1.1-1-.5-.8-2.1.2-2.5m42 3.8c1-.3 2 .7 1.7 1.7-.2 1-1.6 1.4-2.4.7-.7-.7-.3-2.2.7-2.4m-38.8 3.6c1.1-.2 2 1 1.6 1.9-.4 1-1.8 1.2-2.4.3-.7-.7-.2-2 .8-2.2m34.5 3.3c1-.4 2.1.5 1.9 1.6-.1 1-1.6 1.6-2.3.8-.9-.7-.6-2.1.4-2.4m-29.3 2.7c1-.5 2.2.6 1.9 1.7-.2 1-1.6 1.4-2.3.7-.9-.7-.6-2 .4-2.4m22.9 2.1c1-.5 2.2.6 1.9 1.7-.2 1-1.5 1.4-2.3.8-.9-.7-.6-2.1.4-2.5m-15.7 1.5c.9-.3 2 .6 1.8 1.6-.1 1.1-1.6 1.6-2.4.8-.7-.7-.4-2.2.6-2.4m7.9.7c.9-.4 2.1.4 1.9 1.4 0 1.1-1.4 1.7-2.2 1.1-.9-.5-.7-2.1.3-2.5"/></g><path class="st10" d="M-242.2 387.5l-9.6 25.4h-6l3-7.3-7.2-18.2h6.2l3.9 11.2h.1l3.7-11.2c-.1.1 5.9.1 5.9.1zm.2 9.5c0-1.1.3-2.4.7-3.6.4-1.1 1-2.3 1.9-3.3.9-.9 1.9-1.7 3.2-2.4 1.3-.7 2.7-.9 4.5-.9 1.7 0 3.3.4 4.6.9 1.3.7 2.4 1.4 3.2 2.4.9.9 1.4 2.2 1.9 3.3.4 1.1.7 2.4.7 3.6s-.3 2.4-.7 3.6c-.4 1.1-1 2.3-1.9 3.3-.9.9-1.9 1.7-3.2 2.4-1.3.7-2.7.9-4.5.9-1.7 0-3.3-.3-4.5-.9-1.3-.7-2.4-1.4-3.2-2.4-.9-.9-1.4-2.2-1.9-3.3-.7-1.2-.8-2.5-.8-3.6zm5.6 0c0 .7.1 1.3.4 2 .3.7.6 1 1 1.6.4.4.9.9 1.4 1 .6.1 1.1.4 1.7.4.6 0 1.1-.1 1.7-.4.6-.3 1-.6 1.4-1 .4-.4.9-.9 1-1.6.1-.7.4-1.1.4-2 0-.7-.1-1.3-.4-2-.3-.7-.6-1-1-1.6-.4-.4-.9-.9-1.4-1-.6-.1-1.1-.3-1.7-.3-.6 0-1.1.1-1.7.4-.6.3-1 .6-1.4 1-.4.4-.9.9-1 1.6-.3.6-.4 1.2-.4 1.9zm40.2 9.6v-25.4h3.6v9h.1c.9-1 1.7-1.9 2.9-2.4 1.1-.6 2.4-.9 3.7-.9 1.3 0 2.6.3 3.7.9 1.1.6 2.3 1.1 3.2 2.2.9.9 1.6 2 2.3 3.2.6 1.1.9 2.6.9 4.2 0 1.3-.3 2.6-.9 3.9-.6 1.1-1.1 2.3-2.2 3.2-.9.9-1.9 1.6-3 2.2-1.1.6-2.6.9-3.9.9-.4 0-.9 0-1.4-.1-.6-.1-1.1-.3-1.7-.6-.7-.3-1.1-.6-1.9-.9-.7-.3-1.1-.9-1.6-1.6h-.1v2.7l-3.7-.5zm3.5-9.6c0 1 .1 2 .6 2.9.4.9.9 1.6 1.4 2.2.7.6 1.3 1 2.2 1.3.9.3 1.6.6 2.4.6s1.7-.1 2.6-.6 1.4-.9 2.2-1.4c.7-.6 1-1.3 1.4-2.2s.6-1.7.6-2.6c0-.9-.1-1.7-.6-2.6-.3-.9-.9-1.6-1.3-2.2-.6-.7-1.3-1.1-2.2-1.4-.9-.4-1.7-.6-2.6-.6-.9 0-1.9.1-2.6.6-.9.4-1.4.9-2 1.4-.6.7-1 1.3-1.3 2.2-.6.7-.8 1.5-.8 2.4zm22.9 1.6c.3.9.6 1.7 1 2.4.6.7.9 1.1 1.6 1.6.6.4 1.1.9 1.9.9.7.1 1.3.3 1.9.3 1.3 0 2.6-.3 3.4-.9.9-.7 1.6-1.4 2-2.3h3.6c-.4 1.1-1 2.3-1.9 3-.9.9-1.4 1.4-2.4 2-.9.6-1.7.9-2.6 1-.9.3-1.7.3-2.4.3-1.3 0-2.6-.3-3.9-.9-1.1-.6-2.3-1.3-3-2.3-.9-.9-1.6-2-2.2-3.2-.6-1.1-.9-2.6-.9-3.9 0-1.4.3-2.7.9-4 .6-1.3 1.1-2.3 2.2-3.2.9-.9 1.9-1.6 3-2.2 1.1-.4 2.6-.7 3.9-.7 1.3 0 2.6.3 3.7.9s2.3 1.1 3 2c.9.9 1.6 1.9 2.2 3 .6 1.1.9 2.6.9 3.9v1c0 .4 0 .7-.1.9l-15.8.4zm12.3-2.7c0-.7-.3-1.3-.6-2s-.9-1.3-1.3-1.9c-.4-.6-1.1-.9-2-1.1-.9-.3-1.4-.6-2.3-.6s-1.7.1-2.4.6c-.7.3-1.3.9-1.9 1.1-.6.6-.9 1-1.3 1.9-.3.7-.6 1.3-.6 2h12.4zm6.9-14.8h5.7v8h.1c.6-.9 1.1-1.4 2-1.9.9-.4 1.9-.6 2.9-.6.4 0 .9 0 1.4.1.6.1.9.3 1.4.4.4.1.9.4 1.3.7.4.3.9.6 1 .9.4.6.9.9.9 1.4.1.4.4.9.6 1.4.1.6.3 1.1.3 1.9v13.1h-5.7V395c0-.4-.1-.9-.3-1.3-.1-.4-.6-.9-.9-1.1-.4-.4-1-.6-1.7-.6-.9 0-1.4.1-1.9.6-.4.3-.9.7-.9 1-.1.4-.3.9-.4 1.1v11.5h-5.7v-25.3l-.1.2zm40.4 19.5c-.4 1-1 2-1.7 2.7-.7.9-1.4 1.4-2.3 2-1.6 1.1-3.4 1.7-5.5 1.7-1.3 0-2.6-.3-3.9-.9-1.1-.6-2.3-1.1-3.2-2.2-.9-.9-1.7-2-2.3-3.2-.6-1.1-.9-2.6-.9-4 0-1.3.3-2.6.9-3.9.6-1.3 1.1-2.4 2.2-3.3 1-.9 2-1.7 3.2-2.3 1.1-.6 2.6-.9 4-.9s2.7.3 4 .9c1.1.6 2.3 1.3 3.2 2.3.9.9 1.6 2 2.2 3.3.6 1.3.9 2.6.9 4.2v.9c0 .2 0 .4-.1.7H-124c.1 1.1.7 2 1.6 2.6.9.7 1.9.9 2.9.9.9 0 1.6-.1 2.2-.6.6-.4.9-.9 1.3-1.3-.1.4 5.8.4 5.8.4zm-5.2-5.8c-.1-.3-.1-.7-.4-.9-.1-.4-.4-.9-.9-1-.4-.4-.9-.7-1.3-.9-.6-.3-1.1-.4-1.9-.4-.9 0-1.3.1-1.9.4-.6.3-.9.6-1.3.9-.4.3-.7.7-.9 1-.1.3-.3.7-.4.9h9zm8.9-7.3h5.5v2h.1c.1-.3.3-.6.6-.9.3-.3.6-.7.9-.9.4-.3.9-.6 1.3-.7.6-.1 1.1-.3 2.2-.3v5.7c-.7 0-1.3.1-1.9.1-.6.1-1 .3-1.4.6-.4.3-.7.7-.9 1-.3.4-.3 1-.3 1.7v10.5h-5.9v-19h-.2zm11.1 9.5c0-1.1.3-2.4.7-3.6.4-1.1 1-2.3 1.9-3.3s1.9-1.7 3.2-2.4 2.7-.9 4.5-.9c1.7 0 3.3.3 4.5.9 1.3.7 2.4 1.4 3.2 2.4.9.9 1.4 2.2 1.9 3.3.4 1.1.7 2.4.7 3.6s-.3 2.4-.7 3.6c-.4 1.1-1 2.3-1.9 3.3-.9.9-1.9 1.7-3.2 2.4-1.3.7-2.7.9-4.5.9-1.7 0-3.3-.3-4.5-.9-1.3-.7-2.4-1.4-3.2-2.4-.9-.9-1.4-2.2-1.9-3.3-.5-1.2-.7-2.5-.7-3.6zm5.6 0c0 .7.1 1.3.4 2 .3.7.6 1 1 1.6.4.4.9.9 1.4 1 .6.3 1.1.4 1.7.4.7 0 1.1-.1 1.7-.4.6-.3 1-.6 1.4-1 .4-.4.9-.9 1-1.6.1-.7.4-1.1.4-2 0-.7-.1-1.3-.4-2-.3-.7-.6-1-1-1.6-.4-.4-.9-.9-1.4-1-.6-.1-1.1-.4-1.7-.4-.7 0-1.1.1-1.7.4-.6.3-1 .6-1.4 1-.4.4-.9.9-1 1.6-.3.7-.4 1.3-.4 2z"/><g id="XMLID_30_"><path id="XMLID_31_" class="st10" d="M-206.4 396.4v2.5c0 .4-.1.9-.3 1.1-.1.4-.6.7-.9 1-.4.3-1 .4-1.7.4-.9 0-1.3-.1-1.7-.4-.4-.3-.7-.7-.9-1-.1-.4-.3-.9-.3-1.1v-2.5h-5.7v4.1c0 .6.1 1 .3 1.4s.3.9.6 1.3.6.9.9 1.3c.4.6.9.9 1.4 1.3.6.3 1 .6 1.6.9.6.1 1 .3 1.4.3.4 0 .9.1 1.1.1h2.7c.3 0 .7 0 1.1-.1.4 0 .9-.1 1.4-.3.6-.1 1-.4 1.6-.9.6-.3 1-.9 1.4-1.3.4-.6.7-.9.9-1.3.1-.4.4-.9.6-1.3s.3-.9.3-1.4v-4.1h-5.8z"/><path id="XMLID_32_" class="st10" d="M-200.7 392.1v-4.6h-5.7v4.6z"/><path id="XMLID_33_" class="st10" d="M-212.5 392.1v-4.6h-5.7v4.6z"/></g></svg>