<svg xmlns="http://www.w3.org/2000/svg" viewBox="0 0 164.6 28"><path d="M28.2 0h15.3c7.3 0 8.9 4.1 8.9 7 0 2.8-1.4 4.3-3.4 5.5 2.5.8 4.8 2.9 4.8 7 0 5.6-4.9 8.5-9.8 8.5H28.2V0zm8.6 10.9h4.5c1.8 0 2.9-.5 2.9-2.3 0-1.4-1.2-1.9-2.9-1.9h-4.5v4.2zm0 10.4h5c1.8 0 3.4-.5 3.4-2.7 0-1.7-1-2.5-3-2.5h-5.4v5.2zM16.4 13v2.2c0 .4 0 1-.1 1.6 0 .6-.2 1.2-.5 1.7s-.7 1-1.3 1.4c-.6.4-1.4.6-2.4.6s-1.8-.2-2.4-.6c-.6-.4-1-.8-1.3-1.4-.2-.5-.3-1.1-.4-1.7V13H0v3.4c0 .9 0 1.7.1 2.5 0 .7.2 1.4.3 2 .2.6.4 1.2.7 1.8.3.6.7 1.2 1.3 1.9.6.7 1.2 1.3 2 1.8.7.4 1.5.8 2.2 1 .7.2 1.4.4 2.1.5.6.1 1.2.1 1.6.1h3.9c.4 0 .9 0 1.6-.1.6-.1 1.3-.2 2.1-.5s1.5-.6 2.2-1c.7-.4 1.4-1 2-1.8.5-.7 1-1.3 1.3-1.9.3-.6.5-1.2.7-1.8.2-.6.3-1.3.3-2s.1-1.5.1-2.5V13h-8.1zm7.9-6.8V0h-7.9v6.2zM8 6.2V0H0v6.2z" fill="#ef435b"/><path d="M55.7 0h8.6v9.7h8.1V0H81v28h-8.6V16.9h-8.1V28h-8.6zm28.9 0h23.1v7.2H93.2v3.5h13.2v6.6H93.2v3.5h15V28H84.6z" fill="#ffce0e"/><path d="M110.4.2h16.3c4.8 0 9.1 2.7 9.1 7.9 0 2.9-1.3 5.9-4.2 7 2.3.9 3.8 3.5 4.1 6.9.1 1.3.1 4.7.9 5.9H128c-.4-1.4-.6-2.8-.7-4.3-.2-2.6-.5-5.4-3.8-5.4H119V28h-8.6V.2zm8.6 12.1h4.5c1.6 0 3.8-.3 3.8-2.8 0-1.7-1-2.8-4.2-2.8h-4v5.6zM151.1 0c8.1 0 13.5 5.8 13.5 14s-5.4 14-13.5 14-13.5-5.8-13.5-14S143 0 151.1 0m0 21.3c2.1 0 5.3-1.4 5.3-7.3s-3.2-7.3-5.3-7.3c-2.1 0-5.3 1.4-5.3 7.3s3.2 7.3 5.3 7.3" fill="#2f74ba"/></svg>