<svg id="Layer_1" xmlns="http://www.w3.org/2000/svg" viewBox="0 0 104.4 32.7"><style>.st0{fill:#326fb7}</style><g id="XMLID_16_"><path class="st0" d="M51.1 8.1L58.3 0c3.8-.1 7.8 1.1 10.5 3.8 2.6 2.3 3.6 6.2 2.3 9.5-.8 2.2-2.6 3.8-4.5 5 2.6 4.7 5.3 9.4 7.9 14.2H64.4c-1.6-2.8-3.2-5.7-4.9-8.5v8.5H28V.4h17.5c-3.7 4.1-7.3 8.2-11 12.4h13c-4.3 5.4-8.7 10.8-13 16.2C44.4 22 54 15.1 63.7 8.2c-4.2-.1-8.4 0-12.6-.1"/><path class="st0" d="M85.1.4c4.1-.8 8.5-.2 12 2.2 3.5 2.4 6.2 6.1 7 10.3.8 4.1.2 8.6-2 12.2-2.1 3.3-5.3 6-9.1 7.1-4.2 1.1-8.9.7-12.6-1.6-3.7-2.3-6.5-6-7.4-10.3-.9-4.1-.4-8.5 1.8-12.2C77 4.3 80.7 1.3 85.1.4m1.9 9.7c-2.9.7-4.9 3.7-4.7 6.6 0 3.3 3 6.4 6.4 6.2 3.6 0 6.4-3.7 5.9-7.2-.2-3.6-4-6.7-7.6-5.6M0 .4h11.5v7.3h3.8c0-2.5-.1-4.9.1-7.4 3.4.1 6.9 0 10.3.1v32.1H15.4V18.6c-1.3 0-2.5 0-3.8-.1-.1 4.7 0 9.3 0 14H0V.4z"/></g></svg>