<svg id="Layer_1" xmlns="http://www.w3.org/2000/svg" viewBox="0 0 212 46.4"><style>.st0{fill:#3d60ad}.st1{font-family:&apos;AvantGardeLT-Bold&apos;}.st2{font-size:27.3913px}</style><g id="XMLID_17_"><text transform="translate(61.8 30.903)"><tspan x="0" y="0" class="st0 st1 st2">y</tspan><tspan x="14.9" y="0" class="st0 st1 st2">ou</tspan></text><text transform="translate(112.31 30.903)" class="st0 st2" font-family="AvantGardeLT-Medium">be</text><text transform="translate(149.286 30.903)"><tspan x="0" y="0" class="st0 st1 st2">he</tspan><tspan x="35" y="0" class="st0 st1 st2">r</tspan><tspan x="44.4" y="0" class="st0 st1 st2">o</tspan></text><path class="st0" d="M24.5.1c1-.3 2.1.7 1.8 1.7-.2 1-1.6 1.4-2.3.7-.9-.7-.6-2.2.5-2.4m-8.1.8c.9-.4 2.1.5 1.9 1.5-.1 1-1.5 1.6-2.3.9-.9-.6-.6-2.1.4-2.4m15.5 1.4c1-.6 2.3.4 2 1.5-.1 1-1.6 1.6-2.3.8-.7-.6-.5-1.9.3-2.3M9 4.5c.9-.5 2.1.2 2.1 1.2.1 1-1.1 1.8-2 1.4C8 6.6 8 5 9 4.5m29.6 2.6c1-.4 2.2.7 1.8 1.8-.3 1-1.6 1.3-2.3.7-.9-.8-.6-2.3.5-2.5M3.8 10.4c1-.4 2.1.6 1.9 1.6-.1 1-1.4 1.5-2.2.9-1-.6-.7-2.2.3-2.5m18.1 2.5c3.1-.3 6.4.9 8.5 3.2 1.7 1.8 2.7 4.2 2.8 6.7.1 2.9-1 5.8-3.1 7.9-2.1 2-5 3.1-7.9 2.9-3.2-.2-6.3-2-8.1-4.7-1.7-2.5-2.1-5.8-1.2-8.7 1.3-4 4.9-7 9-7.3m-.7 3c-2.8.6-5.1 3-5.6 5.9-.7 3.1.9 6.4 3.6 8 1.9 1.2 4.4 1.4 6.5.5 2-.7 3.6-2.4 4.4-4.4.8-2 .6-4.4-.5-6.3-1.7-3-5.3-4.6-8.4-3.7m21.5-2c1-.5 2.2.5 1.9 1.6-.1 1-1.6 1.5-2.3.8-.8-.6-.5-2.1.4-2.4m-41.8 4c1-.4 2.1.5 1.9 1.6-.1 1-1.5 1.6-2.3.9-.8-.6-.6-2.2.4-2.5m43.3 3.9c.9-.4 2.1.4 2 1.4.1 1-1.1 1.8-2 1.3-1.1-.5-1.1-2.3 0-2.7M.9 25.9c.9-.4 2.1.4 2 1.4 0 1-1.4 1.7-2.2 1.1-1-.5-.8-2.1.2-2.5m42 3.8c1-.3 2 .7 1.7 1.7-.2 1-1.6 1.4-2.4.7-.7-.7-.3-2.2.7-2.4M4.1 33.3c1.1-.2 2 1 1.6 1.9-.4 1-1.8 1.2-2.4.3-.7-.7-.2-2 .8-2.2m34.5 3.3c1-.4 2.1.5 1.9 1.6-.1 1-1.6 1.6-2.3.8-.9-.7-.6-2.1.4-2.4M9.3 39.3c1-.5 2.2.6 1.9 1.7-.2 1-1.6 1.4-2.3.7-.9-.7-.6-2 .4-2.4m22.9 2.1c1-.5 2.2.6 1.9 1.7-.2 1-1.5 1.4-2.3.8-.9-.7-.6-2.1.4-2.5m-15.7 1.5c.9-.3 2 .6 1.8 1.6-.1 1.1-1.6 1.6-2.4.8-.7-.7-.4-2.2.6-2.4m7.9.7c.9-.4 2.1.4 1.9 1.4 0 1.1-1.4 1.7-2.2 1.1-.9-.5-.7-2.1.3-2.5"/></g></svg>