<svg id="Layer_1" xmlns="http://www.w3.org/2000/svg" viewBox="174.6 225.5 766.3 526.1"><script/><style>.st3{fill:#c8c7cb}.st7{fill:#efefef}.st10{fill:#c7c7c7}.st12{fill:#cfcfcf}.st13{fill:#4a4a4a}.st18{fill:#0957e8}.st19{fill:#2b2b2b}.st21{fill:#fff}</style><path fill="#fafafa" d="M202 365.9h737.4v269.2H202z"/><path d="M919.3 333.4H223.5c-12.2 0-22 3.3-22-8.9V252c0-4.3 3.5-7.7 7.7-7.7h723.1c4.3 0 7.7 3.5 7.7 7.7v72.6c0 12.1-8.5 8.8-20.7 8.8z" fill="#e5e5e5" stroke="#947d6d" stroke-width="1.883" stroke-miterlimit="10"/><path fill="#fff" stroke="#947d6d" stroke-width="1.883" stroke-miterlimit="10" d="M201.5 306.6H940v444.1H201.5z"/><circle class="st3" cx="918.2" cy="267.7" r="2"/><circle class="st3" cx="918.2" cy="275.2" r="2"/><circle class="st3" cx="918.2" cy="282.7" r="2"/><path d="M202 365.9h737.4M202 636.3h737.4" fill="none" stroke="#d7cdc7" stroke-width="1.102" stroke-miterlimit="10"/><path class="st3" d="M224.3 269.9c3-.9 6.4 1.4 6.8 4.4.5 2.9-1.7 6-4.7 6.3-2.8.5-5.7-1.7-6.1-4.5-.6-2.8 1.3-5.6 4-6.2zm13.3 0c2.8-.8 6 1.2 6.6 4 .9 3-1.4 6.4-4.5 6.8-2.8.5-5.8-1.7-6.2-4.5-.5-2.9 1.4-5.8 4.1-6.3zm13 .1c3-1.1 6.6 1.2 7 4.3.6 2.9-1.6 6-4.6 6.3-2.7.4-5.5-1.4-6.1-4.2-.8-2.6 1-5.7 3.7-6.4z"/><path d="M837.5 290H275c-1.4 0-2.6-1.2-2.6-2.6v-24.5c0-1.4 1.2-2.6 2.6-2.6h562.5c1.4 0 2.6 1.2 2.6 2.6v24.5c0 1.5-1.2 2.6-2.6 2.6z" fill="#fff" stroke="#cfc6be" stroke-width=".919" stroke-miterlimit="10"/><path class="st7" d="M314.4 270.3h371.1v9.7H314.4zm-41 55.2h93.5v15.7h-93.5z"/><path d="M302.7 279.1c-.1-.2-2.9-3.5-8.9-5.5v-.6c0-.7 1.4-.9 1.4-2.1 0-1-1-1.5-1.8-1.5-1.1 0-1.6.7-1.6.7-.2.2-.3.5-.1.9.3.4.7.2.9.1 0 0 .4-.3.8-.3.3 0 .6.2.6.5 0 .7-1.3.9-1.3 1.9v.7c-6 2-8.8 5.3-8.9 5.5-.1.1-.2.3-.1.5s.2.3.3.4c1.3.7 6 1 9.6 1 1.6 0 7.2-.1 9.1-1 .2-.1.3-.2.3-.4-.1-.4-.2-.6-.3-.8zm-9.2.7c-3.5 0-6.6-.2-8.1-.6 1.1-1.1 3.7-3.2 7.9-4.5 4.3 1.4 6.9 3.5 7.9 4.5-1.6.4-4.4.6-7.7.6zm-37.7 59.9c-.2-.3-5.3-6.5-16.3-10.1v-1.1c0-1.3 2.5-1.6 2.5-4 0-1.8-1.7-2.8-3.3-2.8-1.9 0-3 1.2-3 1.2-.3.3-.6 1-.2 1.5.5.7 1.4.3 1.5.1 0 0 .7-.6 1.4-.6.6 0 1.1.4 1.1.9 0 1.3-2.2 1.5-2.2 3.5v1.3c-11 3.7-16.1 9.9-16.3 10.1s-.3.6-.2.9c.1.3.3.6.6.8 2.4 1.4 10.9 1.7 17.5 1.7 3.1 0 13.3-.1 16.7-1.7.3-.1.5-.4.6-.8-.1-.2-.2-.6-.4-.9zm-17.1 1.2c-6.3 0-12.2-.4-15-1 2-1.9 6.8-5.9 14.6-8.4 7.8 2.5 12.6 6.4 14.6 8.4-2.7.6-8 1-14.2 1z" fill="#db122a"/><path d="M869.8 719.2H640.7c-12.9 0-23.5-10.5-23.5-23.5v-.2c0-12.9 10.5-23.5 23.5-23.5h229.1c12.9 0 23.5 10.5 23.5 23.5v.2c-.1 13-10.6 23.5-23.5 23.5z" fill="#f7f7f7"/><path class="st10" d="M639.3 694.6c0-3.9 2.7-6.7 6.6-6.7 3.9 0 6.6 2.8 6.6 6.7 0 3.9-2.7 6.7-6.6 6.7-3.9-.1-6.6-2.9-6.6-6.7zm10.9 0c0-2.6-1.6-4.6-4.3-4.6-2.6 0-4.3 2-4.3 4.6s1.6 4.6 4.3 4.6c2.6 0 4.3-2 4.3-4.6zm3.6-6.5c.3-.1.9-.2 1.2-.2 1.4 0 2.5.5 3.2 2.1l4.4 11h-2.2l-2.7-7-2.7 7h-2.1l3.8-9.4-.5-1.1c-.3-.7-.7-.9-1.4-.9-.2 0-.6.1-.8.2l-.2-1.7zm9.6 8.2c0-2.6 1.8-4.8 4.7-4.8 3 0 4.8 2.2 4.8 4.8 0 2.7-1.8 4.9-4.8 4.9-2.9 0-4.7-2.2-4.7-4.9zm7.5 0c0-1.6-1-3.1-2.7-3.1s-2.7 1.4-2.7 3.1 1 3.1 2.7 3.1 2.7-1.5 2.7-3.1zm10.5 4.6l-2.8-3.9-1.3 1.4v2.5h-2v-9.3h2v4.4l4.1-4.4h2.5l-3.9 4.3 4 5.1-2.6-.1zm3.6-12.8c.3-.1.9-.2 1.2-.2 1.4 0 2.5.5 3.2 2.1l4.4 11h-2.1l-2.7-7-2.7 7h-2.1l3.8-9.4-.5-1.1c-.3-.7-.7-.9-1.4-.9-.2 0-.6.1-.8.2l-.3-1.7zm16.6 16.4v-9.4c0-1.4-.8-1.9-1.8-1.9s-1.9.6-2.4 1.3v6.5h-2v-9.3h2v1.3c.6-.8 1.8-1.5 3.3-1.5 2 0 3 1.1 3 3v10h-2.1zm-2.8-14.3l.4-4h1.8l-1.3 4h-.9zm9.6 9.5v4.8h-2v-8.2c0-2.6 1.7-4.8 4.5-4.8s4.5 2.2 4.5 4.8c0 3.1-1.7 4.9-4.2 4.9-1 0-2-.5-2.8-1.5zm5-3.4c0-1.6-.9-3.1-2.5-3.1s-2.5 1.4-2.5 3.1v1.8c.5.7 1.4 1.3 2.4 1.3 1.6 0 2.6-1.3 2.6-3.1zm14.3 4.9c-1.8 0-2.9-1.3-3.4-2.7-.5 1.4-1.5 2.7-3.4 2.7-2.4 0-3.9-2.2-3.9-4.9 0-2.1.8-3.9 1.9-4.8l1.5 1.2c-1.1 1.1-1.4 2.3-1.4 3.7 0 1.6.8 3.1 2.1 3.1 1.4 0 2.1-1.4 2.1-3.1V694h2v2.3c0 1.6.8 3.1 2.1 3.1s2.1-1.4 2.1-3.1c0-1.4-.3-2.7-1.4-3.7l1.5-1.2c1.3 1.1 1.9 2.8 1.9 4.8.2 2.8-1.2 5-3.7 5zm10.3 0c-2.9 0-4.7-2.2-4.7-4.9 0-2.5 1.8-4.6 4.9-4.6h4.9v1.8h-1.9c1 .8 1.4 1.8 1.4 3.3 0 2.4-1.6 4.4-4.6 4.4zm1.1-7.7h-.9c-1.9 0-2.9 1.4-2.9 2.8 0 1.6 1 3.1 2.7 3.1s2.7-1.4 2.7-3c0-1.3-.6-2.4-1.6-2.9zm12.2 11v-9.4c0-1.4-.8-1.9-1.8-1.9s-1.9.6-2.4 1.3v6.5h-2v-9.3h2v1.3c.6-.8 1.8-1.5 3.3-1.5 2 0 3 1.1 3 3v10h-2.1zm16.5-3.6v-7.5h-4.3v7.5h-2v-7.5H760v-1.7h11.4v1.7h-1.5v7.5h-2.1zm15.2.1c-.3.1-.7.1-1 .1-1.3 0-2-.6-2.3-1.6-.7 1-1.8 1.6-3.1 1.6-2.4 0-4.2-1.8-4.2-4.8s1.7-4.9 4.2-4.9c1.2 0 2.2.6 3 1.5v-1.3h2v6.8c0 .6.3 1 .9 1h.4l.1 1.6zm-3.4-2.9v-3.7c-.5-.7-1.4-1.3-2.4-1.3-1.6 0-2.6 1.3-2.6 3.1s1.1 3.1 2.6 3.1c1 .1 1.9-.4 2.4-1.2zm7.1 1.6v4.8h-2v-8.2c0-2.6 1.7-4.8 4.5-4.8s4.5 2.2 4.5 4.8c0 3.1-1.7 4.9-4.2 4.9-1 0-2.1-.5-2.8-1.5zm5-3.4c0-1.6-.9-3.1-2.5-3.1s-2.5 1.4-2.5 3.1v1.8c.5.7 1.4 1.3 2.4 1.3 1.5 0 2.6-1.3 2.6-3.1zm14.1 4.7c-.3.1-.7.1-1 .1-1.3 0-2-.6-2.3-1.6-.7 1-1.8 1.6-3.1 1.6-2.4 0-4.2-1.8-4.2-4.8s1.7-4.9 4.2-4.9c1.2 0 2.2.6 3 1.5v-1.3h2v6.8c0 .6.3 1 .9 1h.4l.1 1.6zm-3.3-2.9v-3.7c-.5-.7-1.4-1.3-2.4-1.3-1.6 0-2.6 1.3-2.6 3.1s1.1 3.1 2.6 3.1c1 .1 1.9-.4 2.4-1.2zm7.6 6.4v-2.3c0-4.2-1.8-8.1-4.1-10.5h2.3c1.5 1.6 2.8 4.7 3.1 7 1.2-1.6 2-4.5 2-7h2c0 3-1.4 6.7-3.4 9.2v3.7l-1.9-.1zm9.8 0v-2.3c0-4.2-1.8-8.1-4.1-10.5h2.3c1.5 1.6 2.8 4.7 3.1 7 1.2-1.6 2-4.5 2-7h2c0 3-1.4 6.7-3.4 9.2v3.7l-1.9-.1zm6.8-6.1c0-1.4 1.5-2.1 2.6-2.2-1.2-.2-2.4-1-2.4-2.2 0-1.5 1.7-2.5 4.4-2.5 1.7 0 3 .6 3.9 1.5l-1 1.3c-.8-.8-1.7-1.2-3-1.2s-2.2.5-2.2 1.2c0 .8.9 1.3 2.3 1.3h2v1.6h-2c-1.4 0-2.4.3-2.4 1.3 0 .8.9 1.3 2.3 1.3 1.3 0 2.4-.4 3.3-1.2l1 1.3c-1 .9-2.4 1.5-4.3 1.5-2.9-.2-4.5-1.3-4.5-3zm10-10.3c.3-.1.9-.2 1.2-.2 1.4 0 2.5.5 3.2 2.1l4.4 11h-2.1l-2.7-7-2.7 7h-2.1l3.8-9.4-.5-1.1c-.3-.7-.7-.9-1.4-.9-.2 0-.6.1-.8.2l-.3-1.7zm10.3 10.7v-7.1h2v6.8c0 .6.3 1 .9 1h.4l.1 1.7c-.3.1-.7.1-1 .1-1.6-.1-2.4-.9-2.4-2.5zm.4-8.6l.4-4h1.8l-1.3 4h-.9zm14.5 10.8c-.3.1-.7.1-1 .1-1.3 0-2-.6-2.3-1.6-.7 1-1.8 1.6-3.1 1.6-2.4 0-4.2-1.8-4.2-4.8s1.7-4.9 4.2-4.9c1.2 0 2.2.6 3 1.5v-1.3h2v6.8c0 .6.3 1 .9 1h.4l.1 1.6zm-3.3-2.9v-3.7c-.5-.7-1.4-1.3-2.4-1.3-1.6 0-2.6 1.3-2.6 3.1s1.1 3.1 2.6 3.1c.9.1 2-.4 2.4-1.2zm4.5-1.8c0-2.8 2-4.8 4.8-4.8 1.8 0 2.9.8 3.6 1.6l-1.4 1.3c-.5-.8-1.3-1.1-2.1-1.1-1.7 0-2.8 1.3-2.8 3.1 0 2 1.4 3.1 3.2 3.1 1.9 0 2.8.6 2.8 1.9 0 .8-.4 1.6-1 2.7h-2.1c.4-.6 1-1.6 1-2.2 0-.4-.3-.6-.9-.6-3-.1-5.1-2-5.1-5z"/><path d="M267.3 529.6c-12.4 0-40.2-3.8-46.7-4.6.7-16.4 13.8-39.3 21.7-53.2 2.5-4.3 4.3-8 5.3-9.6h39.2c1.1 1.5 2.8 5.2 5.3 9.6 7.9 13.9 21.1 36.9 21.7 53.3-6.3.8-34.2 4.5-46.5 4.5zm18.3-71.6s0 .1 0 0v1.1h-36.8v-.2c.1-.3.1-.7.1-.9 0-.7 0-1.4-.1-1.9-.3-4.8-1.5-9.4-3.9-13.6-.6-1-1.1-1.6-1.4-2.1-.9-1.2-1.4-1.7-1.4-8 0-2.5 1.8-5.1 3.3-7.2l.3-.4c3.3-4.8-1.1-18-3-22.9 2.2-.4 4.7-.6 7.5-.8.6 4.7 2.5 18.4 7.5 21.5 1.2.8 5.6 4.8 8.3 7.3.6.6 1.5.6 2.1 0 2.7-2.5 7.1-6.6 8.3-7.3 4.9-3.3 7-16.8 7.5-21.5 2.8.1 5.3.4 7.5.8-1.8 4.9-6.3 18.1-3 22.9l.3.4c1.4 2.1 3.3 4.8 3.3 7.2 0 6-.5 6.7-1.5 8.1-.4.5-.8 1.2-1.3 1.9-2.3 4.2-3.6 8.8-3.9 13.6v.8c.3.3.3.8.3 1.2" fill="#cfefff" stroke="#66442d" stroke-width=".831" stroke-miterlimit="10"/><path class="st12" d="M364.8 421.2h-2.6V418h1.9c-.1-.6-.1-1.2-.1-1.8 0-.7.1-1.3.1-1.9h-2V411h2.6c2.1-7.2 8.7-12 16.7-12 6.8 0 10.8 3.5 13.3 7.4l-4.9 2.5c-1.5-2.7-4.7-4.8-8.4-4.8-4.7 0-8.7 2.6-10.4 6.8h13.5v3.3h-14.4c-.1.6-.1 1.3-.1 1.9 0 .6 0 1.3.1 1.8h14.4v3.3H371c1.7 4.2 5.6 6.9 10.4 6.9 3.6 0 6.8-2 8.4-4.8l4.9 2.5c-2.5 4-6.6 7.4-13.3 7.4-7.9.1-14.5-4.6-16.6-12zm33.2 3c0-4.3 3.5-7.2 7.4-8.6-3.8-1.2-7-3.7-7-7.8 0-6.1 6.3-8.7 12.2-8.7 5.8 0 12.2 2.6 12.2 8.7 0 4.3-3.2 6.7-7 7.8 4.1 1.4 7.4 4.3 7.4 8.6 0 5.9-5.9 9.1-12.7 9.1-6.6 0-12.5-3.2-12.5-9.1zm19.5-.7c0-3.5-4.7-4.9-6.9-5.2-2.1.3-6.9 1.8-6.9 5.2 0 2.9 3.1 4.6 6.9 4.6s6.9-1.7 6.9-4.6zm-.5-14.9c0-2.8-2.7-4.4-6.3-4.4-3.7 0-6.3 1.6-6.3 4.4 0 3.1 4.3 4.3 6.3 4.6 2.1-.3 6.3-1.4 6.3-4.6zm10.6 7.5c0-8.3 4-17.1 13.2-17.1 9.3 0 13.2 8.8 13.2 17.1s-4 17.2-13.2 17.2c-9.3 0-13.2-8.8-13.2-17.2zm20.5 0c0-6.3-1.9-12-7.3-12s-7.3 5.6-7.3 12c0 6.3 1.9 12 7.3 12s7.3-5.6 7.3-12z"/><path class="st13" d="M372 560.3l-2-2.7-1 1v1.7h-1.4v-6.7h1.4v3.2l2.9-3.2h1.7l-2.8 3 2.8 3.6-1.6.1zm10 .1c-1.3 0-2-.9-2.4-1.9-.4 1.1-1.1 1.9-2.4 1.9-1.7 0-2.8-1.5-2.8-3.5 0-1.4.6-2.7 1.4-3.5l1.1.9c-.8.8-1 1.6-1 2.6 0 1.2.6 2.2 1.4 2.2 1 0 1.4-1.1 1.4-2.2v-1.6h1.4v1.6c0 1.2.5 2.2 1.4 2.2s1.4-1.1 1.4-2.2c0-1-.2-1.9-1-2.6l1.1-.9c.9.8 1.4 1.9 1.4 3.5.4 1.9-.7 3.5-2.4 3.5zm3.8-3.3c0-1.4.8-2.2 1.7-2.7-.6-.3-1-.7-1-1.4 0-1.1 1-2 2.6-2 1.2 0 1.9.4 2.6 1l-.6 1.1c-.4-.5-1.2-.8-1.9-.8s-1.3.4-1.3.8c0 1.3 4.6.5 4.6 4.3 0 1.6-1.3 3.3-3.4 3.3-2-.3-3.3-1.9-3.3-3.6zm3.1-2.1c-1.1.4-1.6 1.2-1.6 2.2 0 1 .7 2 1.9 2 1.3 0 1.9-1.1 1.9-1.9.1-1.6-1-2-2.2-2.3zm4.9 4.4c0-.5.5-1 1-1s1 .5 1 1-.5 1-1 1c-.6 0-1-.4-1-1zm11.5.9l-2-2.7-1 1v1.7h-1.4v-6.7h1.4v3.2l2.9-3.2h1.7l-2.8 3 2.8 3.6-1.6.1zm2.4-3.4c0-1.9 1.3-3.5 3.4-3.5 2.1 0 3.4 1.5 3.4 3.5 0 1.9-1.3 3.5-3.4 3.5-2.1 0-3.4-1.6-3.4-3.5zm5.3 0c0-1.2-.7-2.2-1.9-2.2-1.3 0-1.9 1.1-1.9 2.2s.7 2.2 1.9 2.2 1.9-1 1.9-2.2zm3 .4v-3.7h1.4v3.7c0 1.2.6 1.8 1.5 1.8 1.3 0 1.9-1.1 1.9-2.4 0-1-.3-1.9-.9-2.7l1.3-.6c.7 1 1.1 2.1 1.1 3.3 0 2.1-1.3 3.7-3.4 3.7-2 0-2.9-1.3-2.9-3.1zm12.5 3v-5.4h-3.1v5.4H424v-5.4h-1v-1.3h8.1v1.3H430v5.4h-1.5zm3.2-3.4c0-1.9 1.3-3.5 3.4-3.5 2.1 0 3.4 1.5 3.4 3.5 0 1.9-1.3 3.5-3.4 3.5-2 0-3.4-1.6-3.4-3.5zm5.3 0c0-1.2-.7-2.2-1.9-2.2s-1.9 1.1-1.9 2.2.7 2.2 1.9 2.2c1.3 0 1.9-1 1.9-2.2zm4.8 3.4l-2.7-6.7h1.5l2 5.2c1.1-1.4 1.6-3.5 1.6-5.2h1.4c0 2.2-1.1 4.8-2.5 6.7h-1.3zm5.1-1.6v-5.1h1.4v4.8c0 .4.2.7.6.7h.3l.1 1.3c-.2.1-.5.1-.7.1-1.1-.1-1.7-.7-1.7-1.8zm3.1-1.8c0-1.9 1.3-3.5 3.4-3.5 2.1 0 3.4 1.5 3.4 3.5 0 1.9-1.3 3.5-3.4 3.5-2.1 0-3.4-1.6-3.4-3.5zm5.3 0c0-1.2-.7-2.2-1.9-2.2-1.3 0-1.9 1.1-1.9 2.2s.7 2.2 1.9 2.2 1.9-1 1.9-2.2zm3 .4v-3.7h1.4v3.7c0 1.2.6 1.8 1.5 1.8 1.3 0 1.9-1.1 1.9-2.4 0-1-.3-1.9-.9-2.7l1.3-.6c.7 1 1.1 2.1 1.1 3.3 0 2.1-1.3 3.7-3.4 3.7-1.9 0-2.9-1.3-2.9-3.1zm2.5-4.8l.3-2.8h1.3l-.9 2.8h-.7z"/><path d="M367.2 476.4h140.1v6.3H367.2zm0 18.9h125.9v6.3H367.2zm0 18.6h151.9v6.3H367.2z" fill="#fbf7f7"/><path fill="#fff" stroke="#968071" stroke-width=".919" stroke-miterlimit="10" d="M367.8 571.5h99.9v31.7h-99.9z"/><path class="st13" d="M376.8 591.1v-3.8l-3.6-5.7h3.2l1.7 3.2 1.7-3.2h3.2l-3.5 5.7v3.8h-2.7zm5.8-4.7c0-2.9 2.2-4.9 5.2-4.9s5.2 2 5.2 4.9-2.2 4.9-5.2 4.9-5.2-2-5.2-4.9zm7.6 0c0-1.4-.9-2.4-2.2-2.4s-2.2 1.1-2.2 2.4.9 2.4 2.2 2.4 2.2-1.1 2.2-2.4zm3.8.8v-5.6h2.9v5.5c0 .9.6 1.6 1.7 1.6s1.7-.7 1.7-1.6v-5.5h2.9v5.6c0 2.3-1.4 4.1-4.6 4.1-3.1 0-4.6-1.8-4.6-4.1zm11 3.9v-9.5h5.7c1.9 0 2.8 1.4 2.8 2.4 0 1.2-.7 1.9-1.6 2.1 1.1.2 1.8 1.1 1.8 2.3 0 1.4-.9 2.6-2.8 2.6H405v.1zm5.6-6.5c0-.3-.3-.6-.6-.6h-2.2v1.1h2.2c.3 0 .6-.2.6-.5zm.2 3.5c0-.4-.3-.6-.7-.6h-2.3v1.2h2.3c.5.1.7-.2.7-.6zm4 3v-9.5h7.1v2.5h-4.3v1h4.3v2.5h-4.3v1.1h4.3v2.5l-7.1-.1zm14.7 0v-3.6h-3.4v3.6h-2.9v-9.5h2.9v3.4h3.4v-3.4h2.9v9.5h-2.9zm4.4 0v-9.5h7.1v2.5h-4.3v1h4.3v2.5h-4.3v1.1h4.3v2.5l-7.1-.1zm13.7 0l-1.3-3h-1.1v3h-2.9v-9.5h5c2.2 0 3.4 1.4 3.4 3.3 0 1.6-1 2.5-1.7 2.9l1.7 3.4-3.1-.1zm.3-6.2c0-.5-.5-.8-1-.8h-1.7v1.4h1.7c.6.2 1-.1 1-.6zm3.6 1.5c0-2.9 2.2-4.9 5.2-4.9s5.2 2 5.2 4.9-2.2 4.9-5.2 4.9-5.2-2-5.2-4.9zm7.5 0c0-1.4-.9-2.4-2.2-2.4-1.4 0-2.2 1.1-2.2 2.4s.9 2.4 2.2 2.4c1.3 0 2.2-1.1 2.2-2.4z"/><path d="M880.8 627.5H567.3c-2.2 0-4-1.8-4-4V319.8c0-2.2 1.8-4 4-4h313.5c2.2 0 4 1.8 4 4v303.8c-.1 2.1-1.9 3.9-4 3.9z" fill="#fff" stroke="#968071" stroke-width="1.37" stroke-miterlimit="10"/><path d="M846.9 335.9c2.6 2.5 5.1 5.2 7.7 7.7 2.6-2.5 5.1-5.1 7.7-7.7.6.5 1.2 1.1 1.7 1.6-2.6 2.6-5.2 5.1-7.8 7.7 2.6 2.6 5.3 5.1 7.8 7.8-.6.6-1.2 1.1-1.7 1.6-2.6-2.6-5.1-5.2-7.7-7.8-2.6 2.6-5.1 5.2-7.6 7.8l-1.6-1.6c2.4-2.7 5.1-5.2 7.7-7.8-2.5-2.6-5.2-5.1-7.7-7.7.4-.5 1-1 1.5-1.6z" fill="#c1c1c1"/><path class="st18" d="M658.3 348.7l-8.6 22.7h-5.3l2.7-6.5-6.4-16.2h5.4l3.5 10h.1l3.3-10h5.3zm.1 8.6c0-1.1.2-2.1.6-3.2.4-1.1 1-2 1.6-3 .7-.9 1.6-1.5 2.8-2.1s2.5-.9 4.1-.9c1.5 0 3 .4 4.2.9 1.2.6 2.1 1.3 2.8 2.1.7.9 1.3 1.9 1.6 3s.6 2.1.6 3.2-.2 2.1-.6 3.2c-.4 1.1-1 2-1.6 3-.7.9-1.6 1.5-2.8 2.1s-2.5.9-4.1.9c-1.5 0-3-.2-4.1-.9-1.2-.6-2.1-1.3-2.8-2.1-.7-.9-1.3-1.9-1.6-3-.4-1.1-.7-2.1-.7-3.2zm5.1 0c0 .6.1 1.2.4 1.7.2.6.5 1 1 1.4.4.4.9.7 1.3 1 .5.2 1.1.4 1.5.4.5 0 1.1-.1 1.5-.4.5-.2 1-.5 1.3-1 .4-.4.7-.9 1-1.4.2-.6.4-1.1.4-1.7 0-.6-.1-1.2-.4-1.7-.2-.6-.5-1-1-1.4-.4-.4-.9-.7-1.3-1-.5-.2-1.1-.2-1.5-.2-.5 0-1.1.1-1.5.4-.5.2-1 .5-1.3 1-.4.4-.7.9-1 1.4-.3.2-.4.9-.4 1.5zm35.8 8.5v-22.7h3.2v8h.1c.7-1 1.5-1.6 2.6-2.1s2.1-.7 3.3-.7c1.2 0 2.2.2 3.3.7 1.1.5 2 1.1 2.8 1.9.9.9 1.4 1.7 2 2.8.5 1.1.7 2.2.7 3.7 0 1.2-.2 2.3-.7 3.5-.5 1.1-1.1 2-1.9 2.8-.9.9-1.6 1.4-2.7 1.9s-2.2.7-3.5.7c-.4 0-.9 0-1.3-.1-.5-.1-1.1-.2-1.5-.5-.6-.2-1.1-.5-1.6-.9-.6-.4-1.1-.9-1.4-1.4h-.1v2.5l-3.3-.1zm3.2-8.5c0 1 .1 1.7.5 2.6.4.7.9 1.4 1.3 1.9.6.5 1.2 1 1.9 1.2.8.2 1.4.5 2.1.5.7 0 1.5-.1 2.2-.5.7-.4 1.3-.7 1.9-1.3.6-.6 1-1.2 1.3-1.9.4-.7.5-1.5.5-2.3 0-.9-.1-1.5-.5-2.2-.2-.7-.7-1.4-1.2-1.9-.5-.6-1.2-1.1-1.9-1.3-.7-.4-1.5-.5-2.3-.5-.9 0-1.6.1-2.3.5-.7.4-1.3.9-1.7 1.3-.5.6-1 1.2-1.2 1.9-.5.4-.6 1.1-.6 2zm20.4 1.3c.2.9.5 1.5 1 2.1.5.6.9 1.1 1.4 1.4.5.4 1.1.7 1.6.9.6.1 1.2.2 1.6.2 1.2 0 2.2-.2 3.1-.9.9-.6 1.4-1.3 1.7-2h3.2c-.4 1.1-1 2-1.6 2.7-.7.7-1.3 1.3-2.1 1.7-.7.5-1.5.7-2.2 1-.9.2-1.5.2-2.1.2-1.2 0-2.3-.2-3.5-.7-1.1-.5-2-1.2-2.7-2-.9-.9-1.4-1.7-1.9-2.8-.5-1.1-.7-2.2-.7-3.5 0-1.3.2-2.5.7-3.6.5-1.1 1.1-2 1.9-2.8.9-.9 1.6-1.4 2.7-1.9 1.1-.4 2.2-.6 3.5-.6 1.2 0 2.2.2 3.3.7 1.1.5 2 1.1 2.7 1.7.9.9 1.4 1.6 1.9 2.7s.7 2.2.7 3.5v1c0 .4 0 .6-.1.7h-14.1v.3zm10.9-2.4c0-.6-.2-1.2-.5-1.7-.2-.6-.7-1.2-1.2-1.6s-1.1-.9-1.7-1.1c-.7-.2-1.3-.5-2-.5-.9 0-1.5.1-2.1.5-.6.2-1.2.7-1.6 1.1-.5.5-.9 1-1.2 1.6-.2.6-.5 1.2-.5 1.7h10.8zm6.2-13.1h5.1v7.2h.1c.5-.9 1.1-1.3 1.7-1.6.9-.4 1.6-.5 2.6-.5.4 0 .9 0 1.3.1.5.1.9.2 1.3.4.4.1.9.4 1.2.6.4.2.7.5 1 .9.4.5.7.9.9 1.3.1.4.4.9.5 1.3.1.4.2 1.1.2 1.6V366h-5.1v-10.4c0-.4-.1-.9-.2-1.2-.1-.4-.5-.7-.9-1.1-.4-.4-1-.5-1.5-.5-.7 0-1.3.1-1.6.5-.4.2-.7.6-.9 1s-.2.7-.4 1.1v10.4H740v-22.7zm36 17.4c-.4 1-1 1.7-1.5 2.5-.6.7-1.3 1.3-2 1.7-1.4 1.1-3.1 1.5-4.8 1.5-1.2 0-2.3-.2-3.5-.7-1.1-.5-2-1.1-2.8-1.9-.9-.9-1.5-1.7-2-2.8-.5-1.1-.7-2.2-.7-3.6 0-1.2.2-2.3.7-3.5.5-1.1 1.1-2.1 1.9-3 .9-.9 1.7-1.5 2.8-2 1.1-.5 2.2-.7 3.6-.7 1.3 0 2.5.2 3.6.7 1.1.5 2 1.2 2.8 2 .8.9 1.4 1.7 1.9 3 .5 1.2.7 2.3.7 3.7v.9c0 .1 0 .4-.1.6h-12.8c.1 1.1.6 1.7 1.4 2.3.7.6 1.6.9 2.6.9.9 0 1.4-.1 1.9-.5s.9-.7 1.2-1.2c-.2.1 5.1.1 5.1.1zm-4.6-5.1c-.1-.2-.1-.6-.4-.9-.1-.4-.4-.7-.7-1-.4-.4-.7-.6-1.2-.7-.5-.2-1.1-.4-1.6-.4-.7 0-1.2.1-1.6.4-.5.2-.9.5-1.2.7-.4.2-.6.6-.7 1-.1.4-.2.6-.4.9h7.8zm7.9-6.7h4.8v1.7h.1c.1-.2.2-.5.5-.7.3-.2.5-.6.7-.9.4-.2.7-.5 1.2-.6.5-.1 1.1-.2 1.9-.2v5.1c-.6 0-1.2.1-1.6.1-.5.1-1 .2-1.3.5-.4.2-.6.6-.9 1-.2.4-.2 1-.2 1.5v9.4h-5.2v-16.9zm9.8 8.6c0-1.1.2-2.1.6-3.2.4-1.1 1-2 1.6-3 .7-1 1.6-1.5 2.8-2.1s2.5-.9 4.1-.9c1.5 0 3 .2 4.1.9 1.2.6 2.1 1.3 2.8 2.1.7.9 1.3 1.9 1.6 3s.6 2.1.6 3.2-.2 2.1-.6 3.2c-.4 1.1-1 2-1.6 3-.7.9-1.6 1.5-2.8 2.1-1.2.6-2.5.9-4.1.9-1.5 0-3-.2-4.1-.9-1.2-.6-2.1-1.3-2.8-2.1-.7-.9-1.3-1.9-1.6-3-.3-1.1-.6-2.1-.6-3.2zm5.1 0c0 .6.1 1.2.4 1.7.2.6.5 1 1 1.4.4.4.9.7 1.3 1 .5.2 1.1.4 1.5.4.6 0 1.1-.1 1.5-.4.5-.3 1-.5 1.3-1 .4-.4.7-.9 1-1.4.2-.6.4-1.1.4-1.7 0-.6-.1-1.2-.4-1.7-.2-.6-.5-1-1-1.4-.4-.4-.9-.7-1.3-1-.4-.3-1.1-.4-1.5-.4-.6 0-1.1.1-1.5.4-.5.2-1 .5-1.3 1-.4.4-.7.9-1 1.4-.3.4-.4 1.1-.4 1.7z"/><g id="XMLID_30_"><path id="XMLID_31_" class="st18" d="M690.3 356.8v2.4c0 .4-.1.9-.2 1.1-.1.4-.5.6-.9 1-.4.2-1 .4-1.5.4-.7 0-1.2-.1-1.5-.4-.4-.2-.6-.6-.9-1-.1-.4-.2-.7-.2-1.1v-2.4H680v3.6c0 .4.1 1 .2 1.3.1.4.2.9.5 1.2.2.4.5.9.9 1.2.4.5.9.9 1.3 1.2.5.2 1 .5 1.4.7.5.1 1 .2 1.3.2.4 0 .7.1 1.1.1h2.5c.2 0 .6 0 1.1-.1.4 0 .9-.1 1.3-.2.5-.1 1-.4 1.4-.7.5-.2 1-.7 1.3-1.2.3-.5.6-.9.9-1.2.2-.4.4-.7.5-1.2.1-.4.2-.9.2-1.3v-3.6h-5.6z"/><path id="XMLID_32_" class="st18" d="M695.3 352.8v-4.1h-5v4.1z"/><path id="XMLID_33_" class="st18" d="M684.7 352.8v-4.1h-5v4.1z"/></g><path class="st19" d="M645 422.5l-4.5 4.4h7.1v3.5h-11.9v-3.5l4.4-4.4-4.4-4.2v-3.5h11.9v3.5h-6.9l4.3 4.2zm5.1 2.8v-6.2h3.6v6.1c0 1.4.8 2.3 2 2.3 1.5 0 2.5-1.3 2.5-3.3 0-1.4-.4-2.9-1.3-4.1l3.3-1.4c1.2 1.6 1.6 3.7 1.6 5.4 0 3.8-2.3 6.5-6.2 6.5-3.8.2-5.5-2.1-5.5-5.3zm16.7 5.2l-4.4-11.3h3.8l2.7 7.7c1.4-2.1 2-5.3 2-7.7h3.6c0 3.8-1.8 8.5-4.1 11.3h-3.6zm8.8-3.2c0-1.6 1.7-2.6 3.1-2.7-1.5-.3-2.9-1.4-2.9-2.6 0-1.9 1.9-3.2 5.7-3.2 2.1 0 3.8.8 4.9 1.9l-1.7 2c-.9-.8-1.9-1.3-3.4-1.3-1.1 0-1.7.4-1.7.9 0 .6.4 1 1.8 1h2.2v2.7h-2.2c-1.4 0-2 .4-2 1s.6.9 1.8.9c1.2 0 2.7-.4 3.8-1.2l1.6 2.1c-1.1 1.1-3 1.8-5.3 1.8-3.5.1-5.7-1.2-5.7-3.3zm16.2 1.9v5.6h-3.6v-10c0-3.2 2.2-5.9 6-5.9s6 2.7 6 5.9c0 3.9-2.1 6-4.9 6-1.4 0-2.5-.5-3.5-1.6zm4.6-4.4c0-1.5-.8-2.7-2.3-2.7-1.5 0-2.3 1.3-2.3 2.7v1.7c.5.6 1.4 1.1 2.1 1.1 1.5 0 2.5-1 2.5-2.8zm8.8 10v-2.2c0-5.2-2.1-10.3-4.8-13.4h4.1c1.4 1.8 2.8 5.1 3 7.2.9-1.5 1.7-4.7 1.7-7.2h3.6c0 3.8-1.7 8.4-4 11.2v4.4h-3.6zm22.3-4.3c-.4.1-1.1.2-1.5.2-1.6 0-2.9-.7-3.3-1.9-.8 1.3-2.1 1.9-3.6 1.9-2.8 0-5-2.1-5-6 0-3.7 2.2-5.9 5-5.9 1.3 0 2.4.5 3.3 1.6V419h3.6v7.5c0 .6.4.9.9.9.2 0 .3 0 .5-.1l.1 3.2zm-5.3-3.9v-3.5c-.5-.6-1.4-1-2.2-1-1.4 0-2.5 1.1-2.5 2.7s1.1 2.8 2.5 2.8c.9 0 1.8-.5 2.2-1zm12.1 4.2c-3.7 0-6.1-2-6.1-5.2 0-3.1 2-5.9 5.3-7.5h-4.9v-3.2h9.6v2.5c-3.1 1.6-6.3 4.7-6.3 7.8 0 1.6 1.1 2.3 2.8 2.3 2.7 0 3.7 1 3.7 2.7 0 1.1-.5 2.4-1.4 4h-3.8c.5-.7 1.4-2.3 1.4-3 .2-.3.1-.4-.3-.4zm5.5-6c0-3.2 2.3-5.9 6.2-5.9 3.9 0 6.2 2.7 6.2 5.9s-2.3 6-6.2 6c-3.9 0-6.2-2.8-6.2-6zm8.6 0c0-1.5-.9-2.7-2.5-2.7-1.5 0-2.4 1.3-2.4 2.7 0 1.5.9 2.8 2.4 2.8 1.6 0 2.5-1.2 2.5-2.8zm-3.5-7.1l.5-5.1h2.8l-1.7 5.1h-1.6zm13 17.1h-3.6v-15.7h3.6v6.6c0 1.4.7 1.8 1.8 1.8s1.7-.6 2.1-1.1v-7.3h3.6v7.5c0 .6.4.9.9.9.2 0 .3 0 .5-.1l.2 3.1c-.4.1-1.1.2-1.5.2-1.7 0-2.9-.7-3.4-2-.6 1.2-1.6 2-3 2-.6 0-1.1-.2-1.3-.4l.1 4.5zm9.9-7.5c0-1.6 1.7-2.6 3.2-2.7-1.5-.3-2.9-1.4-2.9-2.6 0-1.9 1.9-3.2 5.7-3.2 2.1 0 3.8.8 4.9 1.9l-1.7 2c-.9-.8-1.9-1.3-3.4-1.3-1.1 0-1.7.4-1.7.9 0 .6.4 1 1.8 1h2.2v2.7h-2.2c-1.4 0-2 .4-2 1s.6.9 1.8.9c1.2 0 2.7-.4 3.8-1.2l1.6 2.1c-1.1 1.1-3 1.8-5.3 1.8-3.5.1-5.8-1.2-5.8-3.3zm15.6 3.2l-4.4-11.3h3.8l2.7 7.7c1.4-2.1 2-5.3 2-7.7h3.6c0 3.8-1.8 8.5-4.1 11.3h-3.6zm8.8-5.7c0-3.2 2.3-5.9 6.2-5.9 3.9 0 6.2 2.7 6.2 5.9s-2.3 6-6.2 6c-3.9 0-6.2-2.8-6.2-6zm8.7 0c0-1.5-.9-2.7-2.5-2.7-1.5 0-2.4 1.3-2.4 2.7 0 1.5.9 2.8 2.4 2.8s2.5-1.2 2.5-2.8zm-204 38.1v-10.8c0-1.4-.8-1.8-1.8-1.8-1.1 0-1.7.6-2.2 1.1v7.3h-3.6v-11.3h3.6v1.4c.7-.8 2-1.6 4-1.6 2.6 0 3.8 1.5 3.8 3.6V463l-3.8-.1zm6.2-20c.4-.1 1.3-.2 1.5-.2 2.1.1 3.9.6 4.7 3l5.1 12.9h-3.9l-2.6-7.1-2.5 7.1h-3.8l4.5-11.5-.3-.6c-.2-.5-.7-.7-1.5-.7-.3 0-.7.1-.9.2l-.3-3.1zm12 12.5c0-1.6 1.7-2.6 3.1-2.7-1.5-.3-2.9-1.4-2.9-2.6 0-1.9 1.9-3.2 5.7-3.2 2.1 0 3.8.8 4.9 1.9l-1.7 2c-.9-.8-1.9-1.3-3.4-1.3-1.1 0-1.7.4-1.7.9 0 .6.4 1 1.8 1h2.2v2.7h-2.2c-1.4 0-2 .4-2 1s.6.9 1.8.9c1.2 0 2.7-.4 3.8-1.2l1.6 2.1c-1.1 1.1-3 1.8-5.3 1.8-3.6.1-5.7-1.2-5.7-3.3zm19.7 3.2l-2.5-4-1.1 1.3v2.7h-3.6v-11.3h3.6v4.5l3.5-4.5h4.3l-4.2 5.1 4.3 6.2h-4.3zm8.4-3.1v-5.1h-3.5v-3.2h10.6v3.2h-3.5v4.2c0 .7.4 1.2 1 1.2.4 0 .8-.1 1-.3l.7 2.7c-.5.4-1.4.8-2.7.8-2.3-.1-3.6-1.2-3.6-3.5zm12.7 1.8v5.6h-3.6v-10c0-3.2 2.2-5.9 6-5.9s6 2.7 6 5.9c0 3.9-2.1 6-4.9 6-1.4 0-2.6-.5-3.5-1.6zm4.6-4.4c0-1.5-.8-2.7-2.3-2.7-1.5 0-2.3 1.3-2.3 2.7v1.7c.5.6 1.4 1.1 2.1 1.1 1.4 0 2.5-1 2.5-2.8zm5 0c0-3.2 2.3-5.9 6.2-5.9 3.9 0 6.2 2.7 6.2 5.9s-2.3 6-6.2 6c-3.9 0-6.2-2.8-6.2-6zm8.6 0c0-1.5-.9-2.7-2.5-2.7-1.5 0-2.4 1.3-2.4 2.7 0 1.5.9 2.8 2.4 2.8 1.7 0 2.5-1.2 2.5-2.8zm8.7 5.7l-4.4-11.3h3.8l2.7 7.7c1.4-2.1 2-5.3 2-7.7h3.6c0 3.8-1.8 8.5-4.1 11.3h-3.6zm9.6-3.1v-8.3h3.6v7.5c0 .6.4.9.9.9.2 0 .3 0 .5-.1l.2 3.1c-.4.1-1.1.2-1.5.2-2.5.1-3.7-1-3.7-3.3zm13.9 3.1l-2.5-4-1.1 1.3v2.7h-3.6v-11.3h3.6v4.5l3.5-4.5h4.3l-4.2 5.1 4.3 6.2h-4.3zm4.9-5.7c0-3.2 2.3-5.9 6.2-5.9 3.9 0 6.2 2.7 6.2 5.9s-2.3 6-6.2 6c-3.9 0-6.2-2.8-6.2-6zm8.6 0c0-1.5-.9-2.7-2.5-2.7-1.5 0-2.4 1.3-2.4 2.7 0 1.5.9 2.8 2.4 2.8 1.6 0 2.5-1.2 2.5-2.8zm-3.5-7.1l.5-5.1h2.8l-1.7 5.1h-1.6zm22.6 12.8l-2.5-4-1.1 1.3v2.7h-3.6v-11.3h3.6v4.5l3.5-4.5h4.3l-4.2 5.1 4.3 6.2h-4.3zm18.4 0c-.4.1-1.1.2-1.5.2-1.6 0-2.9-.7-3.3-1.9-.8 1.3-2.1 1.9-3.6 1.9-2.8 0-5-2.1-5-6 0-3.7 2.2-5.9 5-5.9 1.3 0 2.4.5 3.3 1.6v-1.4h3.6v7.5c0 .6.4.9.9.9.2 0 .3 0 .5-.1l.1 3.2zm-5.1-3.9v-3.5c-.5-.6-1.4-1-2.2-1-1.4 0-2.5 1.1-2.5 2.7s1.1 2.8 2.5 2.8c.8 0 1.7-.4 2.2-1zm9.4.8v-5.1h-3.5v-3.2h10.6v3.2h-3.6v4.2c0 .7.4 1.2 1 1.2.4 0 .8-.1 1-.3l.7 2.7c-.5.4-1.4.8-2.7.8-2.3-.1-3.5-1.2-3.5-3.5zm21.7 3.1c-.4.1-1.1.2-1.5.2-1.6 0-2.9-.7-3.3-1.9-.8 1.3-2.1 1.9-3.6 1.9-2.8 0-5-2.1-5-6 0-3.7 2.2-5.9 5-5.9 1.3 0 2.4.5 3.3 1.6v-1.4h3.6v7.5c0 .6.4.9.9.9.2 0 .3 0 .5-.1l.1 3.2zm-5.1-3.9v-3.5c-.5-.6-1.4-1-2.2-1-1.4 0-2.5 1.1-2.5 2.7s1.1 2.8 2.5 2.8c.8 0 1.7-.4 2.2-1zm-2.8-8.9l.5-5.1h2.8l-1.7 5.1h-1.6zm14.9 13.1c-3.9 0-6.2-2.8-6.2-6s2.3-5.6 6.3-5.6h6.3v3.2h-1.8c1 .9 1.4 1.9 1.4 3.2-.1 2.8-2.1 5.2-6 5.2zm1.2-8.4h-1.1c-1.6 0-2.5 1.2-2.5 2.4 0 1.5.9 2.8 2.4 2.8s2.5-1.3 2.5-2.7c.1-1.1-.4-2-1.3-2.5zm9.8 5v-5.1h-3.5v-3.2h10.6v3.2h-3.5v4.2c0 .7.4 1.2 1 1.2.4 0 .8-.1 1-.3l.7 2.7c-.5.4-1.4.8-2.7.8-2.4-.1-3.6-1.2-3.6-3.5zm16.6 7.4v-10.8c0-1.4-.8-1.8-1.8-1.8s-1.7.6-2.2 1.1v7.3h-3.6v-11.3h3.6v1.4c.7-.8 2-1.6 4-1.6 2.6 0 3.8 1.5 3.8 3.6V463l-3.8-.1zm10 0h-3.6v-15.7h3.6v6.6c0 1.4.7 1.8 1.8 1.8s1.7-.6 2.1-1.1v-7.3h3.6v7.5c0 .6.4.9.9.9.2 0 .3 0 .5-.1l.2 3.1c-.4.1-1.1.2-1.5.2-1.7 0-2.9-.7-3.4-2-.6 1.2-1.6 2-3 2-.6 0-1.1-.2-1.3-.4l.1 4.5zm23.6-4.3c-.4.1-1.1.2-1.5.2-1.6 0-2.9-.7-3.3-1.9-.8 1.3-2.1 1.9-3.6 1.9-2.8 0-5-2.1-5-6 0-3.7 2.2-5.9 5-5.9 1.3 0 2.4.5 3.3 1.6v-1.4h3.6v7.5c0 .6.4.9.9.9.2 0 .3 0 .5-.1l.1 3.2zm-5.2-3.9v-3.5c-.5-.6-1.4-1-2.2-1-1.4 0-2.5 1.1-2.5 2.7s1.1 2.8 2.5 2.8c.8 0 1.8-.4 2.2-1zm6.5 2c0-1.2 1-2.2 2.2-2.2 1.2 0 2.2 1 2.2 2.2 0 1.2-1 2.2-2.2 2.2-1.3-.1-2.2-1-2.2-2.2zm.5-3.6l-.6-10.1h4.3l-.6 10.1h-3.1z"/><path class="st7" d="M609.7 483.9h160.2v12H609.7zm203.6 0h24.8v12h-24.8z"/><path d="M610 534.7h228.2v46.5H610v-46.5z" fill="#007bff"/><path class="st21" d="M629.5 563.3v-12.4h8.8v2.3h-6.1v2.6h6v2.3h-6v2.8h6.1v2.3h-8.8zm13.1 0l-3.6-9h2.5l2.4 6.6c1.3-1.8 1.9-4.4 1.9-6.6h2.4c0 3-1.4 6.7-3.3 9h-2.3zm6.6-2.4c0-1.4 1.4-2 2.5-2.1-1.2-.2-2.3-1-2.3-2.1 0-1.5 1.5-2.5 4.3-2.4 1.6 0 2.9.6 3.8 1.4l-1.2 1.4c-.7-.7-1.6-1.1-2.8-1.1-1.1 0-1.8.4-1.8.9 0 .7.6 1 1.8 1h1.8v1.8h-1.8c-1.3 0-2 .3-2 1 0 .6.7 1 1.8 1s2.2-.3 3.1-1.1l1.1 1.4c-.9.9-2.3 1.4-4.2 1.4-2.5.1-4.1-1-4.1-2.5zm12.3 1.2v4.5h-2.3v-7.9c0-2.5 1.6-4.7 4.5-4.7s4.5 2.1 4.5 4.7c0 3-1.6 4.7-4 4.7-1 .1-2-.3-2.7-1.3zm4.2-3.3c0-1.4-.8-2.6-2.1-2.6s-2.1 1.2-2.1 2.6v1.5c.4.6 1.3 1.1 2 1.1 1.3 0 2.2-1 2.2-2.6zm6.6 7.9v-2c0-4.1-1.6-8-3.9-10.3h2.7c1.4 1.5 2.5 4.3 2.7 6.2.9-1.4 1.7-4.1 1.7-6.2h2.4c0 2.9-1.4 6.6-3.2 8.9v3.5h-2.4zm6.6-7.9c0-2.5 1.7-4.7 4.7-4.7s4.7 2.1 4.7 4.7c0 2.5-1.7 4.7-4.7 4.7s-4.7-2.2-4.7-4.7zm7 0c0-1.4-.9-2.6-2.3-2.6s-2.3 1.2-2.3 2.6.8 2.6 2.3 2.6c1.4 0 2.3-1.2 2.3-2.6zm10.6 4.5v-6.9h-3.7v6.9h-2.4v-6.9H689v-2.1h11.4v2H699v6.9l-2.5.1zm4.7-4.5c0-2.5 1.7-4.7 4.7-4.7s4.7 2.1 4.7 4.7c0 2.5-1.7 4.7-4.7 4.7s-4.7-2.2-4.7-4.7zm7 0c0-1.4-.9-2.6-2.3-2.6s-2.3 1.2-2.3 2.6.8 2.6 2.3 2.6c1.5 0 2.3-1.2 2.3-2.6zm4.2 2.2v-6.8h2.3v6.3c0 .5.3.8.8.8h.4l.2 2c-.3.1-.7.1-1.1.1-1.8.1-2.6-.7-2.6-2.4zm.6-8l.4-4h1.9l-1.3 4h-1zm10.4 13.7v-8.8c0-1.3-.7-1.6-1.6-1.6-1 0-1.6.5-2 1.1v6h-2.3v-9h2.3v1.2c.6-.7 1.6-1.4 3.1-1.4 1.9 0 2.9 1.2 2.9 2.9v9.8l-2.4-.2zm8.8-3.2c-2.9 0-4.7-2.1-4.7-4.7 0-2.5 1.7-4.4 4.8-4.4h4.8v2.1h-1.6c.9.7 1.3 1.6 1.3 2.9-.1 2.1-1.6 4.1-4.6 4.1zm1-7.1h-.9c-1.5 0-2.4 1.2-2.4 2.4 0 1.4.8 2.6 2.3 2.6 1.4 0 2.3-1.2 2.3-2.5 0-1.1-.5-2-1.3-2.5zm11.5 10.3v-8.8c0-1.3-.7-1.6-1.6-1.6s-1.6.5-2 1.1v6h-2.3v-9h2.3v1.2c.6-.7 1.6-1.4 3.1-1.4 1.9 0 2.9 1.2 2.9 2.9v9.8l-2.4-.2zm8.8-7.7c0-1.7 1-2.9 2.1-3.6-.7-.4-1.1-1-1.1-1.9 0-1.5 1.3-2.8 3.7-2.8 1.5 0 2.7.5 3.6 1.3l-1 1.6c-.6-.6-1.5-1.1-2.6-1.1-.9 0-1.4.4-1.4.9 0 1.4 6.2.5 6.2 5.6 0 2.3-1.6 4.4-4.6 4.4-3 .1-4.9-2.1-4.9-4.4zm4.4-2.7c-1.3.5-1.9 1.5-1.9 2.7 0 1.3.9 2.4 2.3 2.4 1.5 0 2.4-1.2 2.4-2.3.1-1.7-1.4-2.3-2.8-2.8zm17 7.2c-1.7 0-2.8-1.1-3.4-2.5-.6 1.4-1.5 2.5-3.4 2.5-2.5 0-4-2.1-4-4.7 0-2 .8-3.7 1.9-4.7l1.7 1.4c-1 1-1.3 2.1-1.3 3.4 0 1.4.7 2.6 1.8 2.6s1.8-1.2 1.8-2.6v-2.2h2.4v2.2c0 1.4.7 2.6 1.8 2.6s1.8-1.2 1.8-2.6c0-1.2-.3-2.4-1.3-3.4l1.8-1.4c1.2 1.1 1.9 2.6 1.9 4.7.4 2.5-1.1 4.7-3.5 4.7zm8-1.4v4.5h-2.3v-7.9c0-2.5 1.6-4.7 4.5-4.7s4.5 2.1 4.5 4.7c0 3-1.6 4.7-4 4.7-1 .1-1.9-.3-2.7-1.3zm4.3-3.3c0-1.4-.8-2.6-2.1-2.6s-2.1 1.2-2.1 2.6v1.5c.4.6 1.3 1.1 2 1.1 1.3 0 2.2-1 2.2-2.6zm3.6 2.1c0-1.4 1.4-2 2.5-2.1-1.2-.2-2.3-1-2.3-2.1 0-1.5 1.5-2.5 4.3-2.4 1.6 0 2.9.6 3.8 1.4L798 557c-.7-.7-1.6-1.1-2.8-1.1-1.1 0-1.8.4-1.8.9 0 .7.6 1 1.8 1h1.8v1.8h-1.8c-1.3 0-2 .3-2 1 0 .6.7 1 1.8 1s2.2-.3 3.1-1.1l1.1 1.4c-.9.9-2.3 1.4-4.2 1.4-2.5.2-4.2-.9-4.2-2.4zm19.6 2.5c-.3.1-.7.1-1.1.1-1.3 0-2.1-.6-2.4-1.5-.6 1-1.6 1.5-2.9 1.5-2.2 0-4-1.7-4-4.7 0-2.9 1.6-4.7 4-4.7 1.1 0 2 .5 2.7 1.4v-1.1h2.4v6.3c0 .5.3.8.8.8h.4l.1 1.9zm-3.5-3v-3.2c-.4-.6-1.3-1.1-2-1.1-1.4 0-2.2 1.1-2.2 2.6s1 2.6 2.2 2.6c.7.1 1.6-.3 2-.9zm-2.5-7.4l.4-4h1.9l-1.3 4h-1zm6.8 5.8c0-2.7 2-4.7 4.7-4.7 1.8 0 2.9.8 3.6 1.6l-1.5 1.4c-.4-.7-1.1-1-1.9-1-1.4 0-2.4 1.1-2.4 2.6 0 1.7 1.2 2.6 2.7 2.6 2 0 2.9.7 2.9 1.9 0 .8-.4 1.7-1 2.8h-2.5c.4-.6 1.1-1.7 1.1-2.3 0-.3-.2-.4-.6-.4-3 .2-5.1-1.6-5.1-4.5z"/><path d="M749.7 562c.2-.3.5-.5.9-.4.5 0 .9.4 1.3.7 4.4 4.1 8.9 8 13.2 12.1.4.4.8.9.9 1.4.1.5 0 1.1-.4 1.4-.3.4-.7.6-1.1.8-1.3.6-2.6 1.2-3.9 1.7.9 1.9 1.7 3.8 2.6 5.7.3.7.3 1.4 0 2-.4.8-1.2 1.4-1.9 1.4s-1.6-.3-2.2-.9c-.3-.3-.4-.8-.6-1.1-.8-1.7-1.5-3.5-2.3-5.1-1.3.6-2.5 1.2-3.7 1.6-.5.2-1.2.4-1.7.2-.6-.2-1-.6-1.2-1.2-.2-.6-.1-1.3-.2-1.8v-17.2c-.1-.3 0-.9.3-1.3z" fill="#5b3319"/><path d="M605.6 525.3c.3-.2.7-.2 1 0 .2.1.3.4.4.7l1.2 2.4c.1.3.3.6.2.9-.1.5-.7.7-1.1.6-.3-.1-.4-.3-.5-.6-.5-1-.9-1.9-1.4-2.9-.3-.4-.2-.9.2-1.1zm-5.3 5.6c.2-.2.6-.3.9-.2 1 .4 1.8.7 2.8 1.1.3.1.5.2.7.4.3.4.1.9-.2 1.2-.2.2-.6.2-.8.1-.9-.4-1.8-.7-2.7-1.1-.3-.1-.5-.2-.7-.4-.3-.3-.3-.8 0-1.1zm12.8-5.8c.3-.3.8-.3 1.1-.1.3.2.5.7.3 1l-1.2 3c-.1.4-.6.7-1 .6-.5-.1-.8-.7-.6-1.1.3-.9.7-1.8 1-2.7.2-.3.2-.5.4-.7zm-12.4 13.3c.9-.5 1.8-.9 2.8-1.3.3-.1.5-.3.9-.2.4 0 .7.4.7.8 0 .3-.2.7-.5.8-1 .5-1.9.9-3 1.4-.4.2-1 0-1.2-.4-.1-.5 0-.9.3-1.1zm240.6 51.1c-.3.2-.7.2-1 0-.2-.1-.3-.4-.4-.7-.4-.9-.8-1.6-1.1-2.5-.1-.3-.3-.6-.2-.9.1-.5.7-.7 1.1-.5.3.1.4.3.5.6.4 1 .9 1.9 1.3 2.9.1.4.1.8-.2 1.1zm5.3-5.7c-.2.2-.6.3-.9.2-1-.4-1.8-.7-2.8-1.1-.2-.1-.5-.2-.7-.4-.3-.4-.1-.9.2-1.2.2-.2.6-.2.8-.1.9.4 1.8.7 2.7 1.1.3.1.5.2.7.4.3.4.3.9 0 1.1zm-12.9 5.7c-.3.3-.8.3-1.1.1-.3-.2-.5-.7-.3-1l1.2-3c.1-.4.6-.7 1-.6.5.1.8.7.6 1.1-.4.9-.7 1.8-1.1 2.7 0 .3-.1.6-.3.7zm12.6-13.2c-.9.5-1.8.9-2.8 1.3-.3.1-.6.3-.9.2-.4 0-.7-.4-.7-.8 0-.3.2-.7.5-.8 1-.5 2-.9 3-1.4.4-.2 1 0 1.1.4.2.4.1.9-.2 1.1z" fill="#ffe600"/><text transform="translate(698.263 82.68)" class="st10" font-family="ProximaNova-Semibold" font-size="20.949">Ολοκλήρωση παραγγελίας</text><text transform="translate(396.009 -209.348)" class="st12" font-family="ProximaNova-Semibold" font-size="54.146">€80</text><text transform="translate(402.259 -70.527)" class="st13" font-family="ProximaNova-Semibold" font-size="14.94">κωδ. κουπονιού</text><text transform="translate(694.008 -211.767)" class="st19" font-family="ProximaNova-Extrabld" font-size="25.507">Συνεργαζόμενο</text><text transform="translate(642.908 -181.167)" class="st19" font-family="ProximaNova-Extrabld" font-size="25.507">ηλεκτρονικό κατάστημα!</text><path class="st21" d="M881.4 290.1h-21.9c-1.5 0-2.8-1.2-2.8-2.8v-24.1c0-1.5 1.2-2.8 2.8-2.8h21.9c1.5 0 2.8 1.2 2.8 2.8v24.1c-.1 1.5-1.3 2.8-2.8 2.8z"/><g id="XMLID_1_"><path id="XMLID_4_" class="st18" d="M873.5 274.5v2.8c0 .5-.1 1-.2 1.3-.1.5-.6.7-1 1.1-.5.2-1.1.5-1.8.5-.8 0-1.4-.1-1.8-.5-.5-.2-.7-.7-1-1.1-.1-.5-.2-.8-.2-1.3v-2.8h-6.1v4.3c0 .6.1 1.1.2 1.5.1.5.2 1 .6 1.4.2.5.6 1 1 1.4.5.6 1 1 1.5 1.4.6.2 1.1.6 1.7.8.6.1 1.1.2 1.5.2.5 0 .8.1 1.3.1h3c.2 0 .7 0 1.3-.1.5 0 1-.1 1.5-.2.6-.1 1.1-.5 1.7-.8.6-.2 1.1-.8 1.5-1.4.3-.6.7-1 1-1.4.2-.5.5-.8.6-1.4.1-.5.2-1 .2-1.5v-4.3h-6.5z"/><path id="XMLID_3_" class="st18" d="M879.5 269.8v-4.9h-6v4.9z"/><path id="XMLID_2_" class="st18" d="M867 269.8v-4.9h-5.9v4.9z"/></g></svg>