<svg id="Layer_1" xmlns="http://www.w3.org/2000/svg" viewBox="0 0 186 34"><style>.st0{fill:#2f67b2}</style><g id="XMLID_14_"><path class="st0" d="M101.7 32.2c-2.7 1.4-6 1.8-8.6 1.8-6.6 0-10-3.7-10-9.7 0-7 5.1-14.4 13.5-14.4 4.7 0 8 2.6 8 6.9 0 5.9-5.7 8-15 7.8 0 .7.2 1.7.7 2.4.9 1.2 2.5 1.8 4.4 1.8 2.5 0 4.6-.6 6.5-1.5l.5 4.9zm-6-17.3c-3.2 0-5 2.6-5.4 4.8 5.3 0 7.9-.7 7.9-2.8 0-1.2-.9-2-2.5-2m19.2-13.2l-2.3 12.4h11.6l2.3-12.4h6.8l-6 31.8h-6.8l2.5-13.3h-11.5l-2.6 13.3h-6.8l6-31.8zm33.4 30.5c-2.7 1.4-6 1.8-8.6 1.8-6.6 0-10-3.7-10-9.7 0-7 5.1-14.4 13.5-14.4 4.7 0 8 2.6 8 6.9 0 5.9-5.7 8-15 7.8 0 .7.2 1.7.7 2.4.9 1.2 2.5 1.8 4.4 1.8 2.5 0 4.6-.6 6.5-1.5l.5 4.9zm-6-17.3c-3.2 0-5 2.6-5.4 4.8 5.3 0 7.9-.7 7.9-2.8 0-1.2-.9-2-2.5-2"/><path class="st0" d="M148.4 33.5l2.6-13.7c.7-3.5.9-7.4 1.2-9.3h5.9c-.1 1.6-.3 3.1-.4 4.7h.1c1.6-3.1 4.2-5.2 7.4-5.2h1.3l-1.3 6.6h-1.1c-4.3 0-6.4 3.9-7.2 8.4l-1.6 8.6h-6.9z"/><path class="st0" d="M186 19.4c0 8.4-5.8 14.6-13.8 14.6-5.9 0-9.8-3.8-9.8-9.5 0-8 5.6-14.6 13.8-14.6 6.2 0 9.8 4.3 9.8 9.5m-16.5 5c0 2.7 1.3 4.5 3.7 4.5 3.7 0 5.8-5.4 5.8-9.4 0-2.1-.9-4.4-3.6-4.4-4 0-6 5.7-5.9 9.3M15 17.7l11.7-16h-8.1l-4.8 8c-1.4 2.3-2.3 4.1-3.3 5.8h-.1c-.3-1.6-.7-3.1-1.2-5.8l-2-8.1H0l5.2 16H15zm-8.9 2.6l.1.2-2.5 13h6.8L13 20.4l.1-.1zm19.3-2.6c1-1.5 2.3-2.6 4-2.6 2 0 3 1.2 3.4 2.6h7.1c-.7-4.4-4.1-7.7-9.6-7.7-5.7 0-10.1 3.1-12.3 7.7h7.4zm7.6 2.6c-.3 3.8-2.3 8.5-5.8 8.5-2.4 0-3.7-1.8-3.7-4.5 0-1.2.2-2.6.6-4H17c-.3 1.3-.5 2.7-.5 4.2 0 5.7 3.9 9.5 9.8 9.5C34 34 39.6 28.3 40 20.3h-7zm28.5-2.6l1.4-7.3h-6.8l-1.4 7.3zm-14 0l1.3-7.3H42l-1.3 7.3z"/><path class="st0" d="M54.2 20.3l-.2.8c-.9 4.6-3.3 7.4-5.6 7.4-1.7 0-2.3-1.2-2.3-2.7 0-.8.1-2 .3-3l.5-2.5h-6.8l-.6 3c-.3 1.6-.5 3-.5 4.2 0 4.4 2.2 6.5 5.9 6.5 2.8 0 5.6-1.3 8-4.3h.1l-.4 3.8h6c.3-2.1.7-4.6 1.2-7.5l1.1-5.7h-6.7zM77.6 9.9c-2.8 0-5.4 1.2-7.1 3.3h-.1L73.1 0h-6.8l-3.5 17.7h2v-1.4l3.7 2.8-3.7 2.8v-1.4h-2.5l-.6 3c-.3 1.4-.5 2.8-.5 4.2 0 4.1 2.7 6.5 8.2 6.5 10.4 0 15.3-8.6 15.3-16.1-.1-4.3-2.3-8.2-7.1-8.2m-6.9 19c-1.6 0-2.5-.9-2.6-2.5 0-1 .1-1.8.2-2.5l.4-1.9c.8-4 3.2-6.5 5.7-6.5 2.1 0 3 1.7 3 4 .1 3.9-2.8 9.4-6.7 9.4"/></g></svg>