<svg xmlns="http://www.w3.org/2000/svg" viewBox="0 0 24 24"><g data-name="Layer 1"><path d="M21.5 18.5v-14l2 2m-4.97-4H4.5l2-2m-1 21h14l-2 2m-15-18v14l-2-2" fill="none" stroke="#000" stroke-linecap="round" stroke-linejoin="round"/><path d="M4.5 4.5h14a1 1 0 0 1 1 1v13a1 1 0 0 1-1 1h-13a1 1 0 0 1-1-1v-14h0z" stroke-miterlimit="10" fill="none" stroke="#000" stroke-linecap="round"/><path d="M16.83 7.16L7.17 16.9a.64.64 0 0 0 .46 1.1h9.73a.65.65 0 0 0 .64-.65v-9.7a.68.68 0 0 0-1.17-.49z" fill="#7c1f8a"/></g></svg>