<svg width="42" height="39" xmlns="http://www.w3.org/2000/svg"><g fill-rule="evenodd"><path d="M37.366 10.87H4.514c-2.312 0-4.192 1.93-4.192 4.305v18.83c0 2.372 1.879 4.302 4.192 4.302h32.852c2.312 0 4.194-1.931 4.194-4.301v-18.83c.001-2.376-1.881-4.305-4.194-4.305zm1.397 23.136c0 .791-.628 1.434-1.396 1.434H4.514c-.77 0-1.397-.643-1.397-1.434V15.177c0-.792.627-1.436 1.397-1.436h32.852c.769 0 1.396.644 1.396 1.436v18.829h.001z" fill-rule="nonzero"/><path d="M4.863 8.133h31.59v1.29h2.796v-1.36c0-1.545-1.072-2.8-2.385-2.8H4.863c-1.405 0-2.545 1.26-2.545 2.8v1.36h2.794l-.249-1.29zm2.631-5.042c.284-.097.765-.2 1.398-.2h24.269c.633 0 1.115.103 1.397.2v.575h2.797V2.559c0-1.516-1.688-2.538-4.194-2.538H8.892c-2.506 0-4.194 1.02-4.194 2.538v1.107h2.796v-.575z"/></g></svg>