<svg version="1.1" id="Layer_1" xmlns="http://www.w3.org/2000/svg" xmlns:xlink="http://www.w3.org/1999/xlink" x="0" y="0" viewBox="0 0 13.3 13.3" xml:space="preserve"><style>.st2{clip-path:url(#SVGID_6_)}</style><defs><path id="SVGID_1_" d="M7.3 2.7v3.7h3.3v1H7.3v3.3h-1V7.4H2.6v-1h3.7V2.7h1zm-.6-2c-3.3 0-6 2.7-6 6s2.7 6 6 6 6-2.7 6-6-2.7-6-6-6zm0-.7a6.7 6.7 0 0 1 0 13.4C3 13.3 0 10.3 0 6.7 0 3 3 0 6.7 0z"/></defs><clipPath id="SVGID_2_"><use xlink:href="#SVGID_1_" overflow="visible"/></clipPath><g clip-path="url(#SVGID_2_)"><defs><path id="SVGID_3_" d="M-333.3-383.3h1920v1080h-1920z"/></defs><clipPath id="SVGID_4_"><use xlink:href="#SVGID_3_" overflow="visible"/></clipPath><g clip-path="url(#SVGID_4_)"><defs><path id="SVGID_5_" d="M-5.3-5.3h24v24h-24z"/></defs><clipPath id="SVGID_6_"><use xlink:href="#SVGID_5_" overflow="visible"/></clipPath><g class="st2"><defs><path id="SVGID_7_" d="M-.3-.3h14v14h-14z"/></defs><clipPath id="SVGID_8_"><use xlink:href="#SVGID_7_" overflow="visible"/></clipPath><path clip-path="url(#SVGID_8_)" d="M-5-5h23.3v23.3H-5z"/></g><g class="st2"><defs><path id="SVGID_9_" d="M-.3-1.3h14c.6 0 1 .4 1 1v14c0 .6-.4 1-1 1h-14c-.6 0-1-.4-1-1v-14c0-.6.4-1 1-1z"/></defs><clipPath id="SVGID_10_"><use xlink:href="#SVGID_9_" overflow="visible"/></clipPath><g clip-path="url(#SVGID_10_)"><defs><path id="SVGID_11_" d="M-.3-.3h14v14h-14z"/></defs><clipPath id="SVGID_12_"><use xlink:href="#SVGID_11_" overflow="visible"/></clipPath><path clip-path="url(#SVGID_12_)" fill="#670877" d="M-6.3-6.3h26v26h-26z"/></g></g></g></g></svg>