<svg width="35" height="22" xmlns="http://www.w3.org/2000/svg"><path d="M9.57 0C7.605 0 5.996 1.592 5.996 3.536c0 1.682 1.206 3.099 2.805 3.45a.74.74 0 0 0 .024.012c.008.001.017-.002.025 0 .011.005 1.28.657 6.156 3.376-.388.292-.388.96 0 1.252-4.906 2.737-6.168 3.364-6.168 3.364a.768.768 0 0 0-.062.037h-.013c-1.58.365-2.767 1.768-2.767 3.437C5.996 20.408 7.606 22 9.57 22c1.965 0 3.575-1.592 3.575-3.536a3.532 3.532 0 0 0-1.75-3.032 391.03 391.03 0 0 0 6.367-3.523c2.413 1.36 5.423 3.057 9.283 5.266.361.208.881.071 1.09-.286.208-.358.067-.872-.295-1.076-3.09-1.768-5.534-3.143-7.683-4.359a.8.8 0 0 0 0-.908c2.149-1.216 4.593-2.603 7.683-4.37a.807.807 0 0 0 .38-.917.82.82 0 0 0-.827-.557.804.804 0 0 0-.348.11c-3.86 2.21-6.87 3.92-9.283 5.28a412.235 412.235 0 0 0-6.355-3.524 3.538 3.538 0 0 0 1.738-3.032C13.145 1.592 11.535 0 9.57 0zm0 1.571a1.963 1.963 0 1 1 0 3.929 1.963 1.963 0 1 1 0-3.929zM.758 10.214c-.416.02-.777.411-.757.823.02.411.416.768.831.749h1.986c.42.006.806-.37.806-.786 0-.415-.386-.792-.806-.786H.758zm6.355 0c-.416.02-.777.411-.758.823.02.411.416.768.832.749h3.972c.42.006.805-.37.805-.786 0-.415-.386-.792-.805-.786H7.113zm17.053 0c-.416.032-.765.436-.732.847.032.412.44.757.856.725 0 0 .374-.01 3.55 0 .42.006.805-.37.805-.786 0-.415-.386-.792-.805-.786-1.22-.004-2.46-.008-3.674 0zm7.968 0c-.416.02-.777.411-.757.823.02.411.416.768.832.749h1.985c.42.006.806-.37.806-.786 0-.415-.386-.792-.806-.786h-2.06zM9.57 16.5a1.963 1.963 0 1 1 0 3.929 1.963 1.963 0 1 1 0-3.929z" fill="#202124"/></svg>