<svg xmlns="http://www.w3.org/2000/svg" viewBox="0 0 24 24"><defs><style>.cls-3{fill:none;stroke-miterlimit:10;stroke:#7c1f8a}</style></defs><g id="Layer_1" data-name="Layer 1"><path d="M18.49 22.53l-13-.12a1.1 1.1 0 0 1-1-1.19V4.71a1.1 1.1 0 0 1 1-1.18l13 .12a1.1 1.1 0 0 1 1 1.18v16.51a1.11 1.11 0 0 1-1 1.19z" stroke="#000" fill="none" stroke-miterlimit="10"/><path d="M2.5 21.53v-10m19 10v-10m-6.29-8a3.53 3.53 0 0 0-6.42 0z" stroke="#000" stroke-linecap="round" fill="none" stroke-miterlimit="10"/><rect class="cls-3" x="6.5" y="6.53" width="11" height="3" rx="1.5"/><rect class="cls-3" x="6.5" y="11.53" width="11" height="3" rx="1.5"/><rect class="cls-3" x="6.5" y="16.53" width="11" height="3" rx="1.5"/></g></svg>