<svg width="24" height="24" xmlns="http://www.w3.org/2000/svg"><g fill="#202124"><path d="M12 17.989a.58.58 0 0 1-.224-.047.572.572 0 0 1-.356-.533V1.182a.58.58 0 0 1 1.16 0V16.01L17 11.59a.58.58 0 0 1 .819.82l-5.41 5.409a.595.595 0 0 1-.409.17z"/><path d="M12 17.989a.572.572 0 0 1-.41-.17l-5.409-5.41a.58.58 0 0 1 .82-.819L12.41 17a.58.58 0 0 1-.41.989z"/><path d="M20.57 23.398H3.43A2.828 2.828 0 0 1 .602 20.57V12a.58.58 0 0 1 1.16 0v8.57a1.67 1.67 0 0 0 1.668 1.669h17.14a1.67 1.67 0 0 0 1.669-1.67V12a.58.58 0 1 1 1.159 0v8.57a2.828 2.828 0 0 1-2.828 2.828z"/></g></svg>