<svg width="21" height="16" xmlns="http://www.w3.org/2000/svg"><path d="M2.355 0A2.36 2.36 0 0 0 0 2.36v11.274a2.36 2.36 0 0 0 2.355 2.36h16.282c1.3 0 2.356-1.056 2.356-2.36V2.36A2.36 2.36 0 0 0 18.637 0H2.355zm0 .735h16.282a1.62 1.62 0 0 1 1.622 1.62V13.63c0 .896-.73 1.625-1.626 1.625h-1.742l-3.977-6.522a.367.367 0 0 0-.31-.179h-.005a.372.372 0 0 0-.314.183l-1.564 2.69-2.984-5.111c-.067-.114-.177-.163-.326-.179a.362.362 0 0 0-.314.19l-4.839 8.92A1.621 1.621 0 0 1 .733 13.63V2.355c0-.895.726-1.62 1.622-1.62zm11.863 1.663a2.242 2.242 0 0 0-2.235 2.239 2.238 2.238 0 0 0 2.235 2.235 2.237 2.237 0 0 0 0-4.474zm0 .735a1.503 1.503 0 0 1 0 3.004 1.503 1.503 0 0 1 0-3.004zM7.43 7.249l2.976 5.095a.367.367 0 0 0 .633-.004l1.571-2.697 3.423 5.616H3.089l4.342-8.01z" fill="#2C2789"/></svg>