<svg width="30" height="30" xmlns="http://www.w3.org/2000/svg"><path d="M14.994 0C6.719 0 0 6.731 0 15.006S6.719 30 14.994 30C23.269 30 30 23.281 30 15.006 30 6.731 23.269 0 14.994 0zm0 1.43c7.503 0 13.576 6.073 13.576 13.576S22.497 28.57 14.994 28.57A13.549 13.549 0 0 1 1.43 15.006C1.43 7.503 7.49 1.43 14.994 1.43zM11.78 6.795a2.144 2.144 0 0 0-2.138 2.138c0 1.177.961 2.138 2.138 2.138s2.15-.961 2.15-2.138-.973-2.138-2.15-2.138zm6.516 1.075l-4.707 8.313-3.34-4.757a.714.714 0 0 0-.67-.304.725.725 0 0 0-.507.329l-5.15 8.54v1.443h22.143v-1.442c-2.189-3.999-4.365-8.073-6.542-12.11a.703.703 0 0 0-.645-.354c-.253-.012-.455.216-.582.342z" fill="#AAB6C0" opacity=".5"/></svg>