<svg width="13" height="14" xmlns="http://www.w3.org/2000/svg"><g fill="#AAB6C0" fill-rule="evenodd"><path d="M6.067 11.53C2.717 11.53 0 8.947 0 5.764 0 2.58 2.716 0 6.067 0c3.35 0 6.066 2.58 6.066 5.765 0 3.183-2.716 5.764-6.066 5.764zm0-9.883c-2.394 0-4.334 1.844-4.334 4.118s1.94 4.117 4.334 4.117c2.393 0 4.333-1.843 4.333-4.117 0-1.092-.457-2.14-1.27-2.912a4.451 4.451 0 0 0-3.063-1.206z" fill-rule="nonzero"/><path d="M12.133 14a.888.888 0 0 1-.632-.264l-3.198-3.294a.796.796 0 0 1-.233-.824.851.851 0 0 1 .662-.578.892.892 0 0 1 .845.29l3.189 3.295a.79.79 0 0 1 .15.881.869.869 0 0 1-.783.494z"/></g></svg>