<svg width="31" height="31" xmlns="http://www.w3.org/2000/svg"><g fill="none" fill-rule="evenodd" opacity=".8"><path d="M25.918 16.56v-2.12l-1.474-.853a8.697 8.697 0 0 0-.237-.853l1.048-1.561a10.434 10.434 0 0 0-1.11-1.84l-1.938.093a9.286 9.286 0 0 0-.64-.616l.097-1.862c-.6-.417-1.242-.775-1.915-1.066l-1.624 1.007a9.578 9.578 0 0 0-.888-.228L16.349 5h-2.206l-.888 1.661a9.702 9.702 0 0 0-.888.228L10.743 5.88c-.673.292-1.314.65-1.915 1.067l.098 1.862a9.26 9.26 0 0 0-.641.616l-1.938-.093c-.433.574-.805 1.19-1.11 1.84l1.048 1.56c-.093.28-.172.566-.237.854l-1.474.853v2.12l1.474.853c.065.288.144.573.237.853l-1.048 1.561c.305.65.677 1.266 1.11 1.84l1.938-.093c.203.215.417.42.64.616l-.097 1.862c.6.417 1.242.774 1.915 1.066l1.624-1.007c.29.09.586.166.888.228L14.143 26h2.206l.888-1.661c.301-.063.597-.138.887-.228l1.625 1.008c.673-.292 1.314-.65 1.914-1.067l-.097-1.862a9.33 9.33 0 0 0 .641-.616l1.938.093c.433-.574.805-1.19 1.11-1.84l-1.048-1.56c.093-.28.172-.566.237-.854l1.474-.853zM15.246 22.5c-3.93 0-7.115-3.134-7.115-7s3.186-7 7.115-7c3.93 0 7.115 3.134 7.115 7 0 1.857-.75 3.637-2.084 4.95a7.174 7.174 0 0 1-5.031 2.05z" fill="#4A4A4A" fill-rule="nonzero"/><path d="M26.934 6V2.5h-1.016v3h-3.05v1h3.558a.512.512 0 0 0 .36-.146.496.496 0 0 0 .148-.354zM3.557 25v3.5h1.017v-3h3.049v-1H4.066a.512.512 0 0 0-.36.146.496.496 0 0 0-.149.354zm-.087-1.64C-.362 17.803.358 10.35 5.185 5.602c4.825-4.75 12.4-5.458 18.05-1.689l.572-.827C17.754-.954 9.637-.194 4.466 4.894c-5.172 5.089-5.943 13.074-1.837 19.03l.84-.563zM27.116 7.776c3.747 5.577 2.965 12.982-1.868 17.68-4.833 4.7-12.368 5.383-17.991 1.63l-.572.828c6.025 4.02 14.099 3.29 19.277-1.746 5.178-5.035 6.016-12.97 2.001-18.944l-.847.552z" fill="#9B9B9B"/></g></svg>