<svg xmlns="http://www.w3.org/2000/svg" viewBox="0 0 24 24"><defs><style>.cls-1{fill:none;stroke-miterlimit:10;stroke:#7c1f8a}</style></defs><g id="Layer_1" data-name="Layer 1"><path class="cls-1" d="M6.5 2.5v3a1 1 0 0 0 1 1h5a1 1 0 0 0 1-1v-3"/><path class="cls-1" d="M16.09 2.5H3.5v18a1 1 0 0 0 1 1h15a1 1 0 0 0 1-1V6.91a1 1 0 0 0-.29-.7l-3.42-3.42a1 1 0 0 0-.7-.29z"/><path stroke="#70007c" stroke-linecap="round" fill="none" stroke-miterlimit="10" d="M6.5 19.5h11"/><circle class="cls-1" cx="12" cy="12.5" r="3"/></g></svg>