<svg xmlns="http://www.w3.org/2000/svg" viewBox="0 0 16 16"><g data-name="Layer 1"><path d="M12.5 3.74h-9a2.5 2.5 0 0 0 0 5H4v-1h-.5a1.5 1.5 0 0 1 0-3h9a1.5 1.5 0 0 1 0 3H12v1h.5a2.5 2.5 0 0 0 0-5z"/><path d="M10.35 9.1l.65-.46-.09-.35-.79-.07-.12-.28.33-.72L10 7l-.72.33L9 7.14v-.79l-.35-.09-.46.64h-.35l-.46-.64-.38.09v.79l-.27.16L6 7l-.26.25.26.69-.16.28-.79.07-.05.35.65.46v.32L5 9.87l.09.35.79.08.16.27-.33.72.26.26.72-.33.27.16.07.78.35.1.46-.65h.32l.46.65.35-.1.03-.78.27-.16.72.33.26-.26-.25-.72.16-.27.79-.08.05-.35-.65-.45zM8 10.31a1 1 0 1 1 1.05-1.05A1 1 0 0 1 8 10.31z"/><circle cx="8" cy="9.26" r="1.05" fill="none"/></g></svg>