<svg width="19" height="20" xmlns="http://www.w3.org/2000/svg"><g transform="translate(-26 -25)" fill="none" fill-rule="evenodd"><path d="M33.133 25.63a2.318 2.318 0 0 0-1.685.732 2.57 2.57 0 0 0-.698 1.773v13.73c0 .665.25 1.303.698 1.773a2.32 2.32 0 0 0 1.685.732c.485-.001.958-.16 1.354-.457l9.317-6.865A2.541 2.541 0 0 0 44.817 35a2.54 2.54 0 0 0-1.013-2.048l-9.317-6.865a2.266 2.266 0 0 0-1.354-.456z" fill="#0088F1" fill-rule="nonzero"/><rect fill="#7FB5FE" x="26" y="25" width="3.167" height="20" rx="1.583"/></g></svg>