<svg width="28" height="28" xmlns="http://www.w3.org/2000/svg"><g fill="#FFF" fill-rule="evenodd"><path d="M21.27 27.552l-1.717-2.502a11.988 11.988 0 0 0 5.033-7.743 11.991 11.991 0 0 0-1.918-9.034 11.986 11.986 0 0 0-7.745-5.032A11.979 11.979 0 0 0 5.89 5.158a11.976 11.976 0 0 0-3.334 3.44L0 6.964a14.991 14.991 0 0 1 4.173-4.307A14.993 14.993 0 0 1 15.477.258a14.995 14.995 0 0 1 9.691 6.297 15.005 15.005 0 0 1 2.4 11.306 15 15 0 0 1-6.298 9.69"/><path d="M12.714 19.548a4.404 4.404 0 0 1-2.935-1.115 4.41 4.41 0 0 1-1.493-3.057 4.412 4.412 0 0 1 1.106-3.215l1.624 1.435a2.259 2.259 0 0 0-.567 1.647c.037.607.308 1.163.764 1.566a2.241 2.241 0 0 0 1.648.567 2.26 2.26 0 0 0 1.567-.764 2.27 2.27 0 0 0 .453-.783l2.054.692a4.432 4.432 0 0 1-.884 1.526 4.414 4.414 0 0 1-3.337 1.501" fill-opacity=".8"/><path d="M8.136 23.335a9.349 9.349 0 0 1-2.84-2.436 9.357 9.357 0 0 1-1.923-6.946 9.365 9.365 0 0 1 3.55-6.273 9.355 9.355 0 0 1 6.95-1.924 9.357 9.357 0 0 1 6.274 3.552l-2.05 1.6a6.77 6.77 0 0 0-4.542-2.571A6.76 6.76 0 0 0 8.524 9.73a6.778 6.778 0 0 0-2.57 4.541 6.776 6.776 0 0 0 1.392 5.028 6.754 6.754 0 0 0 2.055 1.763l-1.265 2.273z" fill-opacity=".5"/></g></svg>