<svg xmlns="http://www.w3.org/2000/svg" viewBox="0 0 24 24"><defs><style>.cls-1{fill:#7c1f8a}.cls-2{fill:none;stroke:#7c1f8a;stroke-miterlimit:10}</style></defs><g id="Layer_1" data-name="Layer 1"><path class="cls-1" d="M12 3a9 9 0 1 1-9 9 9 9 0 0 1 9-9m0-1a10 10 0 1 0 10 10A10 10 0 0 0 12 2z"/><path class="cls-2" d="M2.31 12h19.38M12 2.5v19"/><path class="cls-1" d="M12 3.66c.89 0 2.62 3 2.62 8.37S12.89 20.4 12 20.4s-2.62-3-2.62-8.37S11.11 3.66 12 3.66m0-1c-2 0-3.62 4.19-3.62 9.37S10 21.4 12 21.4s3.62-4.2 3.62-9.37S14 2.66 12 2.66z"/><path class="cls-1" d="M12 3.66c3.31 0 6 3.75 6 8.37s-2.7 8.37-6 8.37-6-3.76-6-8.4 2.7-8.37 6-8.37m0-1C8.11 2.66 5 6.85 5 12s3.14 9.37 7 9.37 7-4.2 7-9.37-3.14-9.37-7-9.37z"/><path class="cls-2" d="M3.17 8.28h17.46m-17.46 7h17.65"/><circle cx="17.36" cy="18.47" r="4" stroke="#000" fill="#fff" stroke-miterlimit="10"/><path stroke-linejoin="round" stroke="#000" fill="none" d="M16.22 16.79h2.5v2.5"/><path stroke="#000" stroke-miterlimit="10" fill="none" d="M18.27 17.18l-2.99 3.11"/><circle cx="17.36" cy="18.47" r="4" fill="#ff3830" stroke="#fff" stroke-width="1.5" stroke-miterlimit="10"/></g></svg>