<svg width="28" height="18" xmlns="http://www.w3.org/2000/svg"><path d="M18.725.413a.402.402 0 0 0-.328.237.419.419 0 0 0 .037.41c.084.12.223.185.366.17h2.4v4.09H.4a.391.391 0 0 0-.075 0A.407.407 0 0 0 0 5.73v6.544c0 .226.18.409.4.409h20.8v4.09h-2.4a.402.402 0 0 0-.403.238.419.419 0 0 0 .038.409c.083.12.222.185.365.17h5.6a.398.398 0 0 0 .35-.202.417.417 0 0 0 0-.412.398.398 0 0 0-.35-.203H22v-4.09h5.6c.22 0 .4-.183.4-.41V5.73a.405.405 0 0 0-.4-.41H22V1.23h2.4a.398.398 0 0 0 .351-.202.417.417 0 0 0 0-.413.398.398 0 0 0-.351-.202h-5.6a.391.391 0 0 0-.075 0zM.8 6.139h20.4v5.726H.8V6.139zm21.2 0h5.2v5.726H22V6.139z"/></svg>