<svg id="Layer_1" xmlns="http://www.w3.org/2000/svg" viewBox="5.5 262.9 617 316"><style/><path d="M5.5 262.9h617v316H5.5z"/><path d="M158.3 439.4h307.4c7 0 7-8.1 0-8.1H158.3c-3.5 0-3.5 8.1 0 8.1z" fill="#28a6de" stroke="#000" stroke-width=".659"/><g stroke="#000" stroke-width=".659"><path fill="none" d="M158.3 406.4h307.5"/><path d="M158.3 410.4h307.4c8.7 0 8.7-8.1 0-8.1H158.3c-3.5.1-3.5 8.1 0 8.1z" fill="#de1f27"/></g><path d="M162.3 417.7h133.4c6.8 0 6.8-8.1 0-8.1H162.3c-3.4 0-3.4 8.1 0 8.1z" fill="#ed9c21" stroke="#000" stroke-width=".434"/><path d="M162.9 433h132c5 0 5-8.1 0-8.1h-132c-3.6 0-3.6 8.1 0 8.1z" fill="#88c540" stroke="#000" stroke-width=".432"/><path d="M165.4 425.2h121c6.4 0 6.4-8.1 0-8.1h-121c-2.8.1-2.8 8.1 0 8.1z" fill="#f4eb27" stroke="#000" stroke-width=".521"/><path d="M306.3 411.7v4.4c.7-.5 1.4-.7 2-.7 1 0 1.8.3 2.4 1.1.6.7.9 1.7.9 3v6.6h-3.9v-5.6c0-.5-.1-.7-.1-.9s-.3-.2-.5-.2c-.5 0-.7.3-.7.9v5.7h-3.9v-14.4l3.8.1zm13.5 10.5v4.1c-.3.1-.6.1-.9.1-1.6 0-2.9-.5-3.9-1.6-1.1-1-1.6-2.4-1.6-3.9s.5-2.8 1.6-3.9 2.4-1.6 3.9-1.6c1.7 0 3.1.5 4 1.5.9 1 1.5 2.4 1.5 4.1v5.2h-3.9v-4.9c0-.5-.1-1-.4-1.4s-.6-.5-1.1-.5c-.4 0-.7.1-1.1.5-.3.3-.5.7-.5 1.1s.1.8.4 1.1.6.4 1 .4c.3-.1.7-.1 1-.3zm10.5 7.8h-3.9v-8.7c0-1.6.4-2.9 1.3-3.9.5-.6 1.1-1 1.8-1.4.7-.3 1.5-.5 2.3-.5 1.6 0 2.9.5 3.9 1.6 1.1 1.1 1.6 2.4 1.6 3.9s-.5 2.8-1.6 3.9-2.3 1.6-3.8 1.6c-.3 0-.6 0-1.1-.1v-4.3c.3.3.7.4.9.4.4 0 .7-.1 1-.5.3-.3.4-.7.4-1.1s-.1-.7-.5-1.1-.7-.4-1.1-.4c-1 0-1.5.7-1.5 2.1v8.7h.3zm12.5 0h-3.9v-8.7c0-1.6.4-2.9 1.3-3.9.5-.6 1.1-1 1.8-1.4.7-.3 1.5-.5 2.3-.5 1.6 0 2.9.5 3.9 1.6 1.1 1.1 1.6 2.4 1.6 3.9s-.5 2.8-1.6 3.9-2.3 1.6-3.8 1.6c-.3 0-.6 0-1.1-.1v-4.3c.3.3.7.4.9.4.4 0 .7-.1 1-.5.3-.3.4-.7.4-1.1s-.1-.7-.5-1.1-.7-.4-1.1-.4c-1 0-1.5.7-1.5 2.1v8.7h.3zm10.2.7v-3.4c.5.2 1 .3 1.4.3 1.3 0 2.1-.7 2.5-2.2-.7.4-1.4.6-2 .6-.9 0-1.8-.3-2.4-1.1-.6-.7-.9-1.6-.9-2.8v-6.6h3.9v5.6c0 .6.3.9.7.9.5 0 .7-.3.7-1v-5.6h3.9v9.4c0 1.8-.5 3.2-1.5 4.2-1.2 1.3-2.6 1.9-4.3 1.9-.6.2-1.3.1-2-.2zm22-9.4l3.9-.1c-.1 1.5-.7 2.8-1.7 3.7s-2.2 1.5-3.7 1.5c-1.6 0-2.8-.5-3.9-1.6s-1.6-2.4-1.6-3.9.5-2.8 1.6-3.8c1.1-1.1 2.4-1.6 3.9-1.6 1.3 0 2.4.4 3.5 1.2s1.6 1.9 1.9 3.2l-4 .1c-.3-.5-.8-.7-1.3-.7s-.8.1-1.1.5c-.3.3-.4.7-.4 1.1 0 .5.1.8.5 1.2s.7.5 1.2.5c.5-.2.9-.6 1.2-1.3zm11.4-5.8v4.2c-.3-.1-.5-.2-.7-.2-.7 0-1.1.5-1.1 1.6v5h-3.9v-5.8c0-1.5.4-2.7 1.2-3.7.8-.9 2-1.4 3.3-1.4.3.2.7.2 1.2.3zm11.5 6h-6c-.1-.3-.1-.6-.1-.8 0-.3.1-.7.2-1h2c-.1-.7-.6-1.2-1.3-1.2-.5 0-.9.2-1.2.6s-.5.9-.5 1.6.1 1.2.5 1.6c.3.4.7.6 1.2.6.4 0 .7-.2 1.2-.6l2.2 2.7c-1 .8-2.2 1.2-3.5 1.2-1.6 0-2.8-.5-3.9-1.6s-1.6-2.4-1.6-3.9c0-1.6.5-2.8 1.6-3.9 1.1-1 2.4-1.6 3.9-1.6s2.8.5 3.9 1.6c1 1 1.6 2.3 1.6 3.8-.2.3-.2.6-.2.9zm7.4.7v4.1c-.3.1-.6.1-.9.1-1.6 0-2.9-.5-3.9-1.6-1.1-1-1.6-2.4-1.6-3.9s.5-2.8 1.6-3.9 2.4-1.6 3.9-1.6c1.7 0 3.1.5 4 1.5.9 1 1.5 2.4 1.5 4.1v5.2H406v-4.9c0-.5-.1-1-.4-1.4s-.6-.5-1.1-.5c-.4 0-.7.1-1.1.5-.3.3-.5.7-.5 1.1s.1.8.4 1.1.6.4 1 .4c.4-.1.8-.1 1-.3zm10.4-10.5v4h1.8v4.1h-1.8c0 .8.1 1.4.4 1.7.3.3.7.5 1.4.5v4.1h-.5c-.9 0-1.8-.2-2.5-.6-.8-.4-1.4-.9-1.9-1.7-.6-.9-.9-2.1-.9-3.6v-8.6l4 .1zm7.7 3.9v10.5h-3.9v-10.5h3.9zm-2-4.7c.5 0 1 .2 1.4.5.4.4.6.8.6 1.4 0 .5-.2 1-.5 1.4s-.8.5-1.4.5c-.5 0-1-.2-1.4-.5-.3-.3-.5-.8-.5-1.4 0-.5.2-.9.6-1.4.2-.3.7-.5 1.2-.5zm9.2 4.5c1.5 0 2.8.5 3.8 1.6 1.1 1.1 1.6 2.4 1.6 3.9s-.5 2.8-1.6 3.9-2.4 1.6-3.9 1.6-2.8-.5-3.9-1.6-1.6-2.4-1.6-3.9c0-1.6.5-2.8 1.6-3.9s2.5-1.6 4-1.6zm0 3.9c-.4 0-.8.1-1.1.5-.3.3-.5.7-.5 1.2 0 .4.1.8.5 1.1.3.3.7.5 1.1.5s.8-.1 1.1-.5.5-.7.5-1.1c0-.5-.1-.8-.5-1.2s-.7-.5-1.1-.5zm16.5 6.8h-3.9v-5.9c0-.6-.3-.9-.7-.9s-.7.3-.7.9v5.9h-3.9v-5.8c0-1.4.5-2.5 1.4-3.5s2-1.4 3.3-1.4c1.5 0 2.7.5 3.6 1.6.7.9 1.1 2 1.1 3.5v5.6zm8.9-10.4v4.1c-.5 0-.9.1-1.2.3-.2.2-.3.6-.4 1.2-.2 2-.9 3.5-2.4 4.3-.7.4-1.8.7-3.1.7h-.5v-4.2h.2c.6 0 1.1-.1 1.4-.4.3-.3.4-.7.5-1.4.1-1.1.1-1.8.3-2.2s.4-.9.9-1.3c.7-.7 1.8-1.2 3.2-1.2h1.1v.1zm4.2 5.7c.7 0 1.3.3 1.8.7.5.5.7 1.1.7 1.8s-.3 1.3-.7 1.8c-.5.5-1.1.7-1.8.7s-1.3-.2-1.8-.7c-.5-.5-.7-1.1-.7-1.8s.3-1.3.7-1.8c.5-.5 1-.7 1.8-.7z" fill="#fff"/><path d="M296.2 419.2c.3-.1.6-.1.8-.1.8 0 1.6.4 2.4 1.2l-2.4 1.4c.4.5.5 1.2.5 1.8 0 .5-.1 1.1-.5 1.7l-2-1.8c-.6.7-1.4 1-2.2 1-.2 0-.5 0-.9-.1l1.2-2.6c-1.2-.4-2-1.4-2.2-2.8l2.8.3c.1-1.2.7-2.2 2-2.8l.5 2.8z" fill="#fff" stroke="#000" stroke-width=".539"/></svg>