<svg id="Layer_1" xmlns="http://www.w3.org/2000/svg" xmlns:xlink="http://www.w3.org/1999/xlink" viewBox="0 0 221.1 309"><style>.st1{clip-path:url(#SVGID_2_)}.st5{fill:#fff}.st7,.st8{clip-path:url(#SVGID_6_)}.st8{fill:none;stroke:#000;stroke-width:2.268}.st12{fill:#9da5b2}.st12,.st14,.st15,.st16,.st17,.st18,.st19,.st20,.st21,.st22{clip-path:url(#SVGID_17_);fill-rule:evenodd;clip-rule:evenodd}.st14{fill:#bbc4d1}.st15{fill:#68707e}.st16{fill:#ccd5e3}.st17{fill:#d3dae8}.st18{fill:#dee5ef}.st19{fill:#e2e8f1}.st20{fill:#e3e9f3}.st21{fill:#ebf0f7}.st22{fill:#484f59}.st23{fill:#d0d5dc}.st23,.st24,.st25,.st26,.st27,.st28,.st29,.st30,.st31,.st32,.st33{clip-path:url(#SVGID_17_);fill-rule:evenodd;clip-rule:evenodd}.st24{fill:#747a83}.st25{fill:#f1f4fa}.st26{fill:#f4f7fc}.st27{fill:#fafbfe}.st28{fill:#f7f9fd}.st29{fill:#d8dadf}.st30{fill:#e7edf5}.st31{fill:#c5cad6}.st32{fill:#e6ebf3}.st33{fill:#d9e1ed}.st34{fill:#dce3ee}.st34,.st35,.st36,.st37,.st38,.st39,.st40,.st41,.st42,.st43,.st44{clip-path:url(#SVGID_17_);fill-rule:evenodd;clip-rule:evenodd}.st35{fill:#d6dfeb}.st36{fill:#d0dae8}.st37{fill:#d4dce9}.st38{fill:#cdd6e6}.st39{fill:#cbd4e4}.st40{fill:#cbd4e3}.st41{fill:#c2cbdc}.st42{fill:#cad3e2}.st43{fill:#cfd7e6}.st44{fill:#dfe6f0}.st45{fill:#edf2fa}.st45,.st46,.st47,.st48,.st49,.st52,.st53,.st54,.st56,.st57{clip-path:url(#SVGID_17_);fill-rule:evenodd;clip-rule:evenodd}.st46{fill:#fbfeff}.st47{fill:#d6deeb}.st48{fill:#828a97}.st49{fill:#dfdfe1}.st52{fill:#b2bccd}.st53{fill:#fff}.st54{fill:#57606e}.st56{fill:#474e5a}.st57{fill:#4a515c}.st70{fill:#636c7c}.st70,.st71,.st72{clip-path:url(#SVGID_50_)}.st71{fill:#7c8697}.st72{fill:#7f899b}.st77,.st78{clip-path:url(#SVGID_58_)}.st78{fill:#fff}</style><defs><path id="SVGID_1_" d="M0 0h221.1v309H0z"/></defs><clipPath id="SVGID_2_"><use xlink:href="#SVGID_1_" overflow="visible"/></clipPath><path clip-path="url(#SVGID_2_)" fill="#a2caec" d="M.1 0h221.1v309H.1z"/><path class="st1" d="M.1 0h221.1v65.8H.1z"/><g class="st1"><defs><path id="SVGID_3_" d="M.1 0h221v309H.1z"/></defs><clipPath id="SVGID_4_"><use xlink:href="#SVGID_3_" overflow="visible"/></clipPath><path d="M233.9 271.2c-8.5-8.5-19.6-14.4-33.4-17.7-5.8-32.7-30.4-58-69.2-55.4-30.3 2.1-47.9 20.2-57.7 43.9-16.4-7.2-32.3 3.8-33.4 19.6-24.9-2.9-46 6.1-53 22.4-1.3 3.2-1.9 7.1-1.9 10.5 0 30.2 42 41.5 69.7 28.2 4.6 11.4 15.9 22 31.5 22 10.6 0 18-5.4 24.8-11 12.4 7.4 36 4.6 44.9-3.8 16.2 20 55.1 19.1 74 1.4 2.5-2.3 5-7.7 8.1-8.6 2.5-.7 5.8.4 8.1 0 11.5-2.3 20.7-11.5 21.5-24.3.9-16.7-12.9-30.7-34-27.2" clip-path="url(#SVGID_4_)" fill-rule="evenodd" clip-rule="evenodd" fill="#fff"/><path d="M233.9 271.2c-8.5-8.5-19.6-14.4-33.4-17.7-5.8-32.7-30.4-58-69.2-55.4-30.3 2.1-47.9 20.2-57.7 43.9-16.4-7.2-32.3 3.8-33.4 19.6-24.9-2.9-46 6.1-53 22.4-1.3 3.2-1.9 7.1-1.9 10.5 0 30.2 42 41.5 69.7 28.2 4.6 11.4 15.9 22 31.5 22 10.6 0 18-5.4 24.8-11 12.4 7.4 36 4.6 44.9-3.8 16.2 20 55.1 19.1 74 1.4 2.5-2.3 5-7.7 8.1-8.6 2.5-.7 5.8.4 8.1 0 11.5-2.3 20.7-11.5 21.5-24.3.9-16.7-12.9-30.7-34-27.2z" clip-path="url(#SVGID_4_)" fill="none" stroke="#000" stroke-width="2.835"/></g><path clip-path="url(#SVGID_2_)" fill="#fff" d="M127 309h91.9l-46.3-51z"/><g class="st1"><path class="st5" d="M60.7 40.7c-3.5 3.7-6.6 5.6-9.5 5.6-1.7 0-3-.8-4-2.5-.9-1.7-1.4-3.9-1.4-6.7 0-2.2.4-5.1 1.3-8.9.9-3.8 2-7 3.4-9.6l1.3-2.4c-1.8 1.9-3.3 4-4.5 6.3-1.2 2.3-2.6 5.5-4.2 9.6s-2.9 6.9-3.7 8.4-1.6 2.7-2.4 3.6c-.8.9-1.4 1.5-2 1.8s-1.6.4-3.1.4c-.6 0-.9-.2-.9-.5l.3-1.5c.2-.9.4-2.5.6-4.5.2-2.1.4-5.6.5-10.6.1-5 .8-9.3 2.2-12.8-1.5 1.7-2.9 5.5-4.5 11.6l-.6 2.3C27.9 36.6 26.1 40.8 24 43c-2.1 2.2-4.1 3.3-6.1 3.3-1.2 0-2.3-.4-3.2-1.2s-1.4-1.7-1.4-2.7c0-.8.6-1.6 1.7-2.6s1.8-1.4 2.1-1.4c.3 0 .6.1.7.3s.2.9.4 1.9c.2 1 .4 1.7.8 2s.8.5 1.3.5c1.2 0 2.5-1.2 4-3.6 1.4-2.4 2.8-6.1 4-11.1l.7-2.8c.5-2.3 1.1-4.1 1.6-5.5.5-1.4 1.2-2.7 2.1-4.1 1.3-1.9 2-3 2.3-3.1s.8-.2 1.6-.3 1.6-.1 2.4-.1c.3 0 .5.2.5.5 0 .2 0 .5-.1 1-.3 2.2-.5 4.3-.4 6.5v6.2c0 5.4-.4 9.8-1.3 13.1.8-1 2-3.5 3.6-7.7 2.3-5.8 4.3-10.2 6.2-13.1.9-1.4 1.9-2.8 3.2-4s2.1-2 2.6-2.1c1.6-.3 3-.5 4.2-.5.4 0 .6.1.6.3 0 .3-.3 1.1-.8 2.2-1.2 2.7-2.3 6.4-3.4 11-1 4.6-1.6 8.3-1.6 11.1 0 3.1 1 4.7 2.9 4.7 1.5 0 3.4-1.3 5.5-3.9v2.9z"/><path class="st5" d="M81.5 40.7c-.8.7-1.6 1.2-2.3 1.5s-1.3.4-1.8.4c-1.1 0-2.2-.4-3.3-1.3-2.2 3.4-4.8 5.1-7.7 5.1-1.8 0-3.2-.7-4.4-2s-1.7-3.1-1.7-5.4c0-3.5 1.3-6.6 3.8-9.1s5.5-3.8 9-3.8c1.3 0 2.3.1 2.9.4s1 .6 1.1 1c.1.4.2.9.2 1.5 0 2.9-.8 6.4-2.4 10.6.8.7 1.6 1.1 2.5 1.1 1 0 2.4-.9 4-2.7v2.7zm-7.7-13c-.2-.1-.6-.1-1-.1-2 0-3.6 1.1-4.7 3.2s-1.7 4.6-1.7 7.4c0 1.6.2 2.8.7 3.6.5.9 1.2 1.3 2.1 1.3 1.1 0 2.3-1 3.6-3-1.5-1.8-2.2-3.8-2.2-5.9 0-2.5 1.1-4.7 3.2-6.5z"/><path class="st5" d="M102.3 40.7c-1.1 1.1-2.4 1.7-3.9 1.7-1.2 0-2.5-.6-3.9-1.7-1.7 1.9-3.1 3.3-4.4 4.2-1.3.9-2.7 1.4-4.2 1.4-1.3 0-2.5-.6-3.4-1.7-.9-1.1-1.4-2.5-1.4-4.2 0-3.2.9-7.6 2.8-13.1s3.7-9.6 5.5-12.4c2-.6 3.8-1.2 5.4-1.6 1.6-.4 2.4-.6 2.7-.6.4 0 .8.3 1.2.9s.5 1.3.5 2.1c0 1.7-.7 3.8-2.2 6.1-1.4 2.3-3.3 4.6-5.6 6.9l-3 3c-1 3.4-1.4 5.9-1.4 7.4 0 .9.2 1.6.6 2.1.4.5.9.8 1.6.8.8 0 1.4-.2 2.1-.7.6-.5 1.3-1.2 2.1-2.2-.8-1.3-1.2-2.7-1.2-4.1 0-2.2.6-4.3 1.8-6.2s2.5-2.9 3.9-2.9c.5 0 1 .2 1.3.7.3.5.5 1.1.5 1.9 0 2.5-1.4 6-4.3 10.4.9 1.1 1.8 1.6 2.9 1.6.7 0 1.3-.2 1.8-.5s1.2-1 2.1-2.2v2.9zM89.7 28.3c2.5-2.5 4.4-4.7 5.7-6.8s1.9-3.6 1.9-4.7c0-.4-.1-.8-.3-1.1-.2-.3-.4-.4-.7-.4-1.8 0-4 4.3-6.6 13z"/><path class="st5" d="M123.1 40.7c-.8.7-1.6 1.2-2.3 1.5s-1.3.4-1.8.4c-1.1 0-2.2-.4-3.3-1.3-2.2 3.4-4.8 5.1-7.7 5.1-1.8 0-3.2-.7-4.4-2S102 41.2 102 39c0-3.5 1.3-6.6 3.8-9.1s5.5-3.8 9-3.8c1.3 0 2.3.1 2.9.4.6.3 1 .6 1.1 1 .1.4.2.9.2 1.5 0 2.9-.8 6.4-2.4 10.6.8.7 1.6 1.1 2.5 1.1 1 0 2.4-.9 4-2.7v2.7zm-7.7-13c-.2-.1-.6-.1-1-.1-2 0-3.6 1.1-4.7 3.2s-1.7 4.6-1.7 7.4c0 1.6.2 2.8.7 3.6.5.9 1.2 1.3 2.1 1.3 1.1 0 2.3-1 3.6-3-1.5-1.8-2.2-3.8-2.2-5.9 0-2.5 1.1-4.7 3.2-6.5z"/><path class="st5" d="M155.2 40.7c-.7.6-1.5 1.1-2.2 1.3-.7.3-1.3.4-1.7.4-1.1 0-2.2-.4-3.3-1.3-2.8 3.5-5.7 5.2-8.7 5.2-2.2 0-3.8-1.2-4.7-3.6-2.1 2.4-4.3 3.6-6.7 3.6-1.6 0-2.8-.5-3.7-1.5-.9-1-1.3-2.4-1.3-4.3s.3-3.9.8-5.9c.5-2 1.4-4.5 2.5-7.4l6.1-1.1-1.7 5.2c-1.5 4.5-2.2 7.6-2.2 9.3 0 .8.2 1.5.6 2 .4.5.9.8 1.5.8 1.2 0 2.5-1 3.7-2.9 0-2.4.4-4.9 1.3-7.6l1.9-5.6 6.2-1.1-2.6 8c-.8 2.6-1.3 4.6-1.3 6.1 0 .9.2 1.6.6 2.2.4.5.9.8 1.6.8.8 0 1.6-.3 2.3-.9s1.5-1.5 2.5-2.7c-.8-1.5-1.2-3.1-1.2-4.7 0-2.3.6-4.4 1.7-6.2 1.2-1.8 2.5-2.7 3.9-2.7 1 0 1.5.8 1.5 2.3 0 3.3-1.3 7-3.8 11.1.8.7 1.6 1.1 2.5 1.1 1 0 2.3-.8 3.9-2.5v2.6z"/><path class="st5" d="M162.3 27.1c1.1-.3 2.1-.5 3.2-.7 1.1-.2 1.7-.3 1.9-.3.2 0 .2.1.2.2 0 .2-.1.5-.2.7-.2.7-.4 1.4-.4 2 0 .8.5 1.9 1.4 3.3.9 1.4 1.4 2.7 1.4 3.9 0 2.4-1.1 4.6-3.4 6.8s-4.6 3.3-7 3.3c-1.1 0-2-.3-2.9-.8-.9-.6-1.3-1.2-1.3-1.8 0-.4.4-1.1 1.3-2.1s1.5-1.6 1.8-1.6c.5 0 .9.6 1.3 1.9.4 1.3 1.1 1.9 2 1.9s1.8-.4 2.7-1.3c.8-.9 1.2-1.8 1.2-2.8 0-1-.5-2.3-1.6-3.9s-1.7-3-2.1-4.1c-1.8 2.9-4.1 5.9-6.8 8.9h-.5v-2.1c4-3.9 6.5-7.8 7.8-11.4zm34.9 13.6c-3.5 3.8-6.4 5.8-8.7 5.8-1.1 0-2-.4-2.8-1.2-.8-.8-1.1-1.7-1.1-2.9 0-.5.1-1.4.3-2.4.2-1.1.3-1.7.3-1.8 0-.7-.4-1.1-1.2-1.1-.8 0-1.2-.3-1.2-.9 0-.5.1-.9.3-1.1.2-.2.6-.3 1.3-.3 1.7 0 3-.4 3.8-1.1s1.3-1.4 1.3-2.3c0-.6-.2-1.2-.7-1.6s-1-.6-1.8-.6c-.4 0-.8 0-1.1.1-.4.1-.7.2-1.1.4-.4.2-.7.5-1.1.8-.4.3-.8.7-1.2 1.2-.4.4-.8 1-1.3 1.6-.2.3-.6 1.8-.9 4.6-.2 1.4-.3 2.7-.4 3.9-.1 1.1-.1 2.4 0 3.8l-5.3.9c-.2-1.2-.3-2.6-.3-4.3 0-4.6.6-9.1 1.9-13.3 1.3-4.2 3.3-8.6 6.1-13 2.2-.9 4.1-1.6 5.7-2.1 1.6-.5 2.5-.8 2.7-.8.4 0 .7.4 1.1 1.1s.5 1.5.5 2.3c0 1.4-.5 2.9-1.4 4.5-.9 1.6-2.3 3.6-4.2 5.9 1.3-.4 2.4-.6 3.3-.6 1.4 0 2.6.4 3.5 1.1.9.7 1.4 1.7 1.4 2.8 0 2.6-2.3 4.5-6.9 5.7 1.8.4 2.7 1.5 2.7 3.2l-.1 2.1c0 .9.4 1.4 1.3 1.4.6 0 1.3-.3 2.1-.9.8-.6 1.9-1.8 3.3-3.5v2.6zM182 29.5l1.5-1.7c4.5-5.1 6.8-8.7 6.8-10.8 0-1-.4-1.4-1.3-1.4-1 0-2.1 1.1-3.3 3.4-1.1 2.2-2.4 5.7-3.7 10.5z"/><path class="st5" d="M208.6 40.7c-3.6 3.8-6.3 5.7-8.1 5.7-1 0-1.8-.5-2.5-1.5s-1-2.3-1-3.8c0-3.3 1.1-7.9 3.3-13.7l5.9-1.2h.3l-2.3 7.3c-1 3-1.4 5.1-1.4 6.4 0 .5.1.9.3 1.2.2.3.5.5.8.5.6 0 1.2-.2 1.8-.7.6-.4 1.6-1.4 2.9-2.9v2.7zm-.4-23.6c0 3.7-1.4 5.6-4.1 5.6-1.3 0-2.5-.4-3.4-1.2.9-1.4 1.6-2.9 2.1-4.6 1.2.8 2.2 1.1 2.9 1.1.8 0 1.7-.3 2.5-.9z"/></g><path class="st1" d="M0 277.9v30.9l34.1.2H127l46.3-51.8zm172.6-19.8l46.3 50.9h1.5l-47.1-51.8z"/><path clip-path="url(#SVGID_2_)" fill="#7a0708" d="M128.2 309h86.4l-43-48.4z"/><g class="st1"><defs><path id="SVGID_5_" d="M0 0h221.1v309H0z"/></defs><clipPath id="SVGID_6_"><use xlink:href="#SVGID_5_" overflow="visible"/></clipPath><path class="st7" d="M120.3 265.8c0 7.6-6.2 13.7-13.7 13.7-7.6 0-13.7-6.1-13.7-13.7s6.2-13.7 13.7-13.7c7.6 0 13.7 6.1 13.7 13.7"/><path class="st8" d="M106.6 253.5v-97.1"/><path class="st7" d="M58.8 201.2l5.2 4.4-2.5 5.8 13.3-6.6-.6-4.6z"/><path class="st8" d="M73.1 203l74.3-15.1m-71.7 30.4l61.9-43.7"/><path class="st7" d="M141 182l21.4 2.5-18.6 11.3 3.4-7.9zm-60.9 36.4c-.1 2.5-2.2 4.4-4.6 4.3-2.5-.1-4.4-2.2-4.3-4.6.1-2.5 2.2-4.4 4.6-4.3 2.5.1 4.4 2.2 4.3 4.6m60.4-42.8c-.1 2.5-2.2 4.4-4.6 4.3-2.5-.1-4.4-2.2-4.3-4.6.1-2.5 2.2-4.4 4.6-4.3 2.5.1 4.4 2.1 4.3 4.6"/></g><g class="st1"><defs><path id="SVGID_7_" d="M88.1 79.3c-2.8 0-5.1 2.3-5.1 5.1v82.4c0 2.8 2.3 5.1 5.1 5.1h37.5c2.8 0 5.1-2.3 5.1-5.1V84.4c0-2.8-2.3-5.1-5.1-5.1H88.1z"/></defs><clipPath id="SVGID_8_"><use xlink:href="#SVGID_7_" overflow="visible"/></clipPath><linearGradient id="SVGID_9_" gradientUnits="userSpaceOnUse" y1="308.98" x2="1" y2="308.98" gradientTransform="scale(73.521 -73.521) rotate(20 881.975 156.34)"><stop offset="0" stop-color="#bfc1c3"/><stop offset=".159" stop-color="#fff"/><stop offset=".549" stop-color="#c2c4c6"/><stop offset="1" stop-color="#d9dadb"/></linearGradient><path clip-path="url(#SVGID_8_)" fill="url(#SVGID_9_)" d="M53.3 90.1L125.1 64l35.3 97-71.8 26.1z"/></g><g class="st1"><defs><path id="SVGID_10_" d="M88.3 79.9c-2.7 0-4.8 2.2-4.8 4.8v81.6c0 2.7 2.2 4.8 4.8 4.8h37c2.7 0 4.8-2.2 4.8-4.8V84.7c0-2.7-2.2-4.8-4.8-4.8h-37z"/></defs><clipPath id="SVGID_11_"><use xlink:href="#SVGID_10_" overflow="visible"/></clipPath><linearGradient id="SVGID_12_" gradientUnits="userSpaceOnUse" y1="308.98" x2="1" y2="308.98" gradientTransform="matrix(46.7212 0 0 -46.7212 83.5 14561.48)"><stop offset="0" stop-color="#414142"/><stop offset=".236"/><stop offset=".582" stop-color="#8a8c8f"/><stop offset="1"/></linearGradient><path clip-path="url(#SVGID_11_)" fill="url(#SVGID_12_)" d="M83.5 79.9h46.7v91.3H83.5z"/></g><g class="st1"><defs><path id="SVGID_13_" d="M89 80.3c-2.8 0-5.1 2.3-5.1 5v80.5c0 2.8 2.3 5 5.1 5h35.6c2.8 0 5.1-2.3 5.1-5V85.3c0-2.8-2.3-5-5.1-5H89z"/></defs><clipPath id="SVGID_14_"><use xlink:href="#SVGID_13_" overflow="visible"/></clipPath><linearGradient id="SVGID_15_" gradientUnits="userSpaceOnUse" y1="308.98" x2="1" y2="308.98" gradientTransform="matrix(0 -90.519 -90.519 0 28075.435 170.815)"><stop offset="0"/><stop offset="1" stop-color="#222223"/></linearGradient><path clip-path="url(#SVGID_14_)" fill="url(#SVGID_15_)" d="M83.9 80.3h45.9v90.5H83.9z"/></g><g class="st1"><defs><path id="SVGID_16_" d="M0 0h221.1v309H0z"/></defs><clipPath id="SVGID_17_"><use xlink:href="#SVGID_16_" overflow="visible"/></clipPath><path class="st12" d="M83.1 87.8v-.1.1z"/><path class="st14" d="M82.9 87.9c0-.1.1-.1 0 0z"/><path class="st15" d="M83.1 87.8v.5-.3z"/><path class="st16" d="M82.9 87.9h.2-.2z"/><path class="st14" d="M83.1 88v.1-.1z"/><path class="st17" d="M82.8 88h-.2.2"/><path class="st18" d="M82.6 88.2h.4c-.2-.1-.4 0-.4 0"/><path class="st19" d="M83.1 88.2c-.1 0-.1 0 0 0-.1 0 0 0 0 0"/><path class="st20" d="M82.6 88.2h.4-.4z"/><path class="st21" d="M82.6 88.2h.5c-.2.1-.3.1-.5 0 0 .1 0 .1 0 0z"/><path class="st22" d="M83.1 88.3v2.1z"/><path class="st23" d="M83.1 88.3v.1-.1z"/><path class="st24" d="M83.1 88.3v2.1-2z"/><path class="st25" d="M82.6 88.3c.2.1.3 0 .5 0-.2.1-.3.1-.5 0 0 .1 0 .1 0 0z"/><path class="st26" d="M82.6 88.4h.5-.5z"/><path class="st28" d="M82.8 89.5c0 .1 0 .1 0 0 0 .1 0 .1 0 0 0 .1 0 .1 0 0"/><path class="st29" d="M83.1 89.5v.5-.4z"/><path class="st28" d="M82.6 89.8c.1 0 .1 0 0 0 .1 0 0 0 0 0"/><path class="st23" d="M83.1 90v.4-.3z"/><path class="st30" d="M82.6 90.4c.1 0 0 0 0 0"/><path class="st31" d="M83.1 90.5v.5-.4z"/><path class="st14" d="M83.1 91v.5-.4z"/><path class="st34" d="M82.6 91.1v.2z"/><path class="st35" d="M82.8 91.2c.1 0 0 0 0 0"/><path class="st17" d="M82.9 91.4c-.1 0 0 0 0 0"/><path class="st35" d="M82.6 91.4v.1z"/><path class="st17" d="M82.9 91.4s0 .1 0 0c0 .1 0 .1 0 0"/><path class="st37" d="M82.6 91.6v.1z"/><path class="st39" d="M82.9 91.8s-.1 0 0 0"/><path class="st40" d="M83 91.8c.1 0 0 0 0 0m0 .1c0-.1.1-.1 0 0 0-.1 0 0 0 0 .1 0 0 0 0 0"/><path class="st39" d="M82.7 91.9c0-.1 0-.1 0 0 .1-.1 0-.1 0 0 .1 0 .1-.1 0 0zm.4-.1c-.1.1-.1 0 0 0m-.2.1c0-.1 0 0 0 0z"/><path class="st40" d="M83 91.9s0-.1 0 0z"/><path class="st12" d="M83.1 97.4c-.1.1 0 0 0 0"/><path class="st15" d="M83.1 97.5v.3-.2z"/><path class="st41" d="M82.9 97.5h.1z"/><path class="st42" d="M82.9 97.5c.1 0 0 0 0 0z"/><path class="st39" d="M82.9 97.5zm0 0s.1 0 0 0c.1 0 .1 0 0 0 .1 0 0 0 0 0m.1 0z"/><path class="st43" d="M82.7 97.5c0 .1 0 .1 0 0 0 .1 0 0 0 0m.2 0c0 .1-.1.1 0 0-.1 0-.1 0 0 0zm.1 0h-.1.1m-.2 0c0 .1 0 .1 0 0"/><path class="st36" d="M83 97.5s.1.1 0 0c0 .1 0 .1 0 0 0 .1 0 .1 0 0 0 .1-.1.1 0 0h-.1s.1.1.1 0"/><path class="st14" d="M83.1 97.6v.1-.1z"/><path class="st17" d="M82.7 97.6s.1 0 0 0c.1 0 0 0 0 0m.1 0s.1 0 0 0c.1 0 .1 0 0 0m.2 0z"/><path class="st35" d="M82.7 97.6s.1 0 0 0c.1 0 0 0 0 0m.2 0"/><path class="st34" d="M82.7 97.7c.1-.1.1 0 0 0 .1 0 .1 0 0 0m.2 0c0-.1 0-.1 0 0zm.1 0"/><path class="st44" d="M82.6 97.7h.5-.5"/><path class="st19" d="M82.6 97.7c.1 0 0 0 0 0m.4 0"/><path class="st32" d="M82.6 97.7h.5-.5"/><path class="st22" d="M83.1 97.7v1.4-1.3z"/><path class="st21" d="M82.6 97.7h.5c-.2.1-.4.1-.5 0z"/><path class="st23" d="M83.1 97.7v.1z"/><path class="st45" d="M82.6 97.8c.1.1.3 0 .5 0h-.5z"/><path class="st24" d="M83.1 97.8v1.3-1.3z"/><path class="st25" d="M82.6 97.8h.5c-.2 0-.4.1-.5 0z"/><path class="st26" d="M82.6 97.8c.2.1.3 0 .5 0-.2.1-.3.1-.5 0z"/><path class="st29" d="M83.1 97.8v.1-.1z"/><path class="st46" d="M82.6 97.9h.5c-.2 0-.4.1-.5 0z"/><path class="st27" d="M82.7 98.5c0-.1 0 0 0 0"/><path class="st46" d="M82.8 98.5c-.1.1-.1 0 0 0"/><path class="st29" d="M83.1 98.6v.3-.3z"/><path class="st27" d="M83.1 98.6c-.1 0-.1 0 0 0z"/><path class="st32" d="M82.6 99.3c0 .1 0 .1 0 0z"/><path class="st34" d="M82.9 99.5c0-.1.1-.1 0 0"/><path class="st14" d="M83.1 99.5v.4-.3z"/><path class="st34" d="M82.6 99.6v.1z"/><path class="st35" d="M83.1 99.6c-.1.1-.1.1 0 0-.1 0-.1 0 0 0m-.5.2z"/><path class="st47" d="M82.6 99.8v.1z"/><path class="st37" d="M82.6 99.9v.1z"/><path class="st40" d="M82.9 100c0 .1 0 .1 0 0 0 .1 0 .1 0 0 0 0 0 .1 0 0 0 .1 0 0 0 0m.1 0c0 .1 0 .1 0 0m-.4.1s0-.1 0 0c0-.1 0 0 0 0"/><path class="st39" d="M82.7 100.1c0-.1 0 0 0 0m.3 0c.1 0 0 0 0 0z"/><path class="st12" d="M83.1 103.9s0-.1 0 0z"/><path class="st14" d="M82.9 103.9s.1 0 0 0z"/><path class="st41" d="M83 103.9s.1 0 0 0z"/><path class="st15" d="M83.1 103.9v.3-.2z"/><path class="st42" d="M82.9 104h.1-.1"/><path class="st40" d="M82.8 104c.1 0 .1 0 0 0z"/><path class="st39" d="M82.9 104c.1 0 .1 0 0 0 .1 0 0 0 0 0"/><path class="st16" d="M82.9 104s.1 0 0 0"/><path class="st14" d="M83.1 104v.1-.1z"/><path class="st17" d="M83 104c0 .1 0 .1 0 0 0 .1 0 0 0 0z"/><path class="st47" d="M82.6 104.1h.3-.3"/><path class="st34" d="M83 104.1s-.1 0 0 0c-.1 0 0 0 0 0m.1 0c-.1 0-.1 0 0 0-.1 0-.1 0 0 0"/><path class="st18" d="M82.9 104.1s.1 0 0 0h.1s-.1.1-.1 0z"/><path class="st19" d="M82.8 104.2c.1 0 .1 0 0 0 .1 0 .1 0 0 0zm.2 0s0-.1 0 0m-.4 0c.1 0 0 0 0 0m.1 0"/><path class="st32" d="M83.1 104.2h-.5.5z"/><path class="st21" d="M82.6 104.2h.5c-.2 0-.4.1-.5 0z"/><path class="st23" d="M83.1 104.2v.1-.1z"/><path class="st45" d="M82.6 104.2h.5c-.3.1-.4.1-.5 0z"/><path class="st24" d="M83.1 104.2v1.4-1.3z"/><path class="st25" d="M82.6 104.3h.5-.5z"/><path class="st26" d="M82.6 104.3c.1.1.3 0 .5 0h-.5z"/><path class="st29" d="M83.1 104.3v.1-.1z"/><path class="st28" d="M82.6 104.3h.5c-.3.1-.3.1-.5 0 0 .1 0 .1 0 0z"/><path class="st27" d="M82.6 104.3c0 .1 0 .1 0 0h.5c-.2.1-.4.1-.5 0z"/><path class="st49" d="M83.1 104.4v.6-.6z"/><path class="st46" d="M82.6 104.4h.5-.5z"/><path class="st29" d="M83.1 105v.4-.2z"/><path class="st23" d="M83.1 105.4v.2-.2z"/><path class="st42" d="M83.1 105.6v.1z"/><path class="st31" d="M83.1 105.7v.3-.3z"/><path class="st19" d="M83.1 105.8c-.1 0 0 0 0 0z"/><path class="st20" d="M82.6 105.8v.1z"/><path class="st18" d="M82.6 106v.1z"/><path class="st34" d="M82.6 106.1v.1z"/><path class="st35" d="M82.7 106.1c-.1 0 0-.1 0 0m-.1.1v.1z"/><path class="st40" d="M82.9 106.5s0 .1 0 0"/><path class="st39" d="M83 106.6c0-.1 0-.1 0 0 0-.1 0 0 0 0"/><path class="st12" d="M82.9 106.7h.1z"/><path class="st24" d="M83 106.7c.1 0 0 0 0 0"/><path class="st52" d="M82.7 87.9c0-.1.1-.1.1-.1h.3v.2h-.4c.1-.1.1-.1 0-.1.1 0 .1 0 0 0z"/><path class="st14" d="M82.8 87.8s.1 0 0 0c.1 0 0 0 0 0"/><path class="st40" d="M82.9 87.9s.1 0 0 0c.1 0 .1 0 0 0"/><path class="st36" d="M82.7 87.9h.4-.2c-.1.1-.2.1-.2 0-.1.1 0 .1 0 0 0 .1 0 0 0 0z"/><path class="st17" d="M82.9 88h.2s-.1 0 0 0h-.2"/><path class="st37" d="M82.6 88h.4c-.1 0-.3.1-.4 0 .1 0 0 0 0 0"/><path class="st35" d="M83 88.1s0-.1 0 0m-.1 0"/><path class="st33" d="M82.8 88.1c0-.1 0 0 0 0 0 .1-.1.1-.1 0h-.1V88h.2c-.1.1-.1.1 0 .1-.1-.1 0 0 0 0"/><path class="st35" d="M82.7 88.1c.1 0 .1 0 0 0 .1 0 0-.1 0 0m0 0c-.1 0-.1 0 0 0-.1 0-.1 0 0 0h-.1c0-.1.1 0 .1 0"/><path class="st44" d="M82.6 88.2h.4-.4"/><path class="st19" d="M82.7 88.2h.3-.3m-.1 0"/><path class="st32" d="M83.1 88.2h-.5.5z"/><path class="st30" d="M82.6 88.2c.1.1.4 0 .5.1-.2-.1-.4 0-.5-.1z"/><path class="st45" d="M82.6 88.3h.5c-.2 0-.4.1-.5 0z"/><path class="st27" d="M82.6 88.5h.2-.2c.1 0 0 .1 0 0 0 .1 0 0 0 0z"/><path class="st46" d="M82.6 88.5s0 .1 0 0c0 .1.1 0 0 0h.4c0 .1-.3.1-.4 0zm.1.7"/><path class="st53" d="M82.6 88.6h.5v.7h-.5v-.7zm.1.6"/><path class="st27" d="M82.6 89.5c0-.1 0-.1 0 0v-.1.1c0-.1 0-.1 0 0 .1-.1.1 0 .1 0 0-.1 0-.1-.1 0 0 0 0-.1 0 0l.1-.1h.1v.1h.1s0-.1.1-.1l-.1.1h.1v-.1.1h.1v.1c0 .1 0 0 0 0v.1H83v-.1h-.1s-.1 0 0 0c0 0-.1 0 0 0-.2 0-.2-.1-.3-.1 0 .1 0 .1 0 0l.1.1c-.1 0-.1 0-.1-.1 0 .1 0 .1 0 0 0 .1 0 .1 0 0v.1-.1zm.3.1c.1-.1 0 0 0 0m.1 0c-.1 0-.1 0 0 0-.1 0-.1 0 0 0"/><path class="st46" d="M83.1 89.3v.2s0-.1 0 0c0 0 0-.1-.1 0v-.1c0 .1-.1.1 0 .1h-.1l.1-.1-.1.1h-.1v-.1h-.1.1c-.1 0-.1 0-.1-.1v-.2c0 .2.2.2.4.2m-.2.1s-.1 0 0 0c-.1 0 0 0 0 0m-.1 0z"/><path class="st27" d="M82.8 89.4s.1 0 0 0c.1 0 0 0 0 0"/><path class="st28" d="M82.9 89.6s.1-.1 0 0m-.3 0l.1-.1c0 .1.1 0 0 0h.1v.1c0 .1.1 0 .1 0v-.1s0 .1 0 0v.2h-.5v.1-.2zm.4 0c-.1 0-.1 0 0 0-.1 0-.1 0 0 0"/><path class="st25" d="M83.1 89.9v.2h-.4s0 .1 0 0v.1-.3c0 .1.1 0 .4 0"/><path class="st45" d="M82.6 90.2v-.1.1c.1-.1 0-.1 0-.1h.4c0-.1 0 0 0 0v.2s-.1 0-.1-.1h-.1v.1s-.2 0-.2-.1v.2-.2zm.3 0c0-.1-.1-.1 0 0 0-.1-.1 0 0 0m-.2 0s-.1 0 0 0"/><path class="st21" d="M82.6 90.4v-.1h.3v-.1h.1c0 .1.1 0 .1.1v.1h-.3s0 .1 0 0h-.2s0 .1 0 0zm0 0s.1 0 0 0"/><path class="st25" d="M82.8 90.1s.1.1 0 0c.1.1.1.1 0 0 0 .1.1.1 0 0m-.1.1c-.1 0 0 0 0 0"/><path class="st20" d="M82.6 90.6c.1 0 0 0 0 0 .1 0 .1 0 .2-.1v-.1s0-.1 0 0h.1v.2h-.2c.1.1.1 0-.1 0l.1.1-.1-.1c0 .1 0 .1 0 0 0 0 0 .1 0 0m.1 0s-.1 0 0 0"/><path class="st32" d="M83.1 90.5v.1c-.1 0-.1 0 0-.1-.1.1 0 .1 0 .1-.1 0-.1 0 0-.1l-.1.1h-.1s0-.1 0 0v.1h-.1v.1-.1c-.1-.2.1-.2.3-.2"/><path class="st19" d="M82.9 90.7c0-.1.1 0 0 0 .1 0 .1 0 0 0 .1 0 .1-.1.1 0h-.1m-.3 0c0-.1 0-.1 0 0 0 0 0 .1 0 0"/><path class="st32" d="M82.7 90.6c-.1 0 0 0 0 0"/><path class="st44" d="M82.6 90.8s0-.1 0 0c0-.1 0-.1 0 0 .1 0 .1-.1 0 0 .1-.1.1 0 .1 0s.1-.1.1 0c0-.1.2 0 .2 0h.1v.1c-.2-.1-.4-.1-.5-.1z"/><path class="st34" d="M82.6 90.9c.1 0 .1-.1.2 0 0 0 0 .1 0 0 0 0 0-.1.1-.1 0 0 .1-.1.1 0h.1v.1s0-.1.1-.1c.1-.1 0 0 .1 0v.3c0-.1-.1 0-.1 0h.1s-.1.1-.1 0h-.1l-.1.1c0-.1 0 0 0 0v.1h-.1v-.4h-.3zm.3 0s-.1 0 0 0m-.3 0s.1 0 0 0m0 .1"/><path class="st18" d="M83.1 90.8v.1H83l.1-.1c-.1.1-.1.1-.2.1v-.1h-.1c0-.1-.1 0-.1 0l-.1.1s.1 0 0 0c0 0 0-.1 0 0h-.1c.2-.1.4-.1.6-.1m-.5.1"/><path class="st33" d="M82.6 91c.1 0 .1 0 .1-.1l.1-.1h.2v-.1.2s0 .1-.1.1v-.1h-.1v-.1c-.1.3-.2.3-.2.2 0 .1 0 .1 0 0l.1.1c-.1 0-.1 0-.1-.1 0 .1 0 .1 0 0 0 .1 0 .1 0 0v.1-.1zm.1 0s.1 0 0 0c.1 0 .1 0 0 0 .1 0 .1 0 0 0m.2 0z"/><path class="st18" d="M82.9 90.9c-.1 0 0 0 0 0m-.3 0c.1 0 0 0 0 0"/><path class="st34" d="M82.8 91s-.1 0 0 0c-.1 0-.1 0 0 0"/><path class="st35" d="M82.9 91.2c0-.1 0 0 0 0 0-.1 0-.1 0 0 0-.1.1-.1 0 0 .1 0 .1-.1.1-.1v.1s0-.1.1-.1H83s0 .1-.1.1c0-.1 0-.1 0 0 0-.1 0-.1 0 0 0-.1 0-.1 0 0-.1 0 0 0 0 0m-.3 0s-.1-.1 0 0c0-.1 0-.1 0 0 0-.1 0-.1 0 0 0-.1 0-.1 0 0 0-.1 0-.1 0 0 0-.1 0-.1 0 0 .1 0 .1-.1.1 0v.3h-.1v-.3z"/><path class="st47" d="M82.6 91.2c.1 0 .1 0 .1-.1h.1v-.2s0 .1 0 0h.1s-.1 0 0 0h.1v.1c-.1.3-.3.2-.4.2zm.2 0s.1 0 0 0m.3 0c-.1 0-.1 0 0 0-.1 0-.1 0 0 0"/><path class="st33" d="M82.9 91.2c0-.1 0-.1 0 0 0-.1 0-.1 0 0 0-.1 0-.1 0 0z"/><path class="st37" d="M83.1 91.3c-.1 0-.1.1 0 0 0 .1-.1.1 0 .1-.1 0-.1 0 0-.1-.1.1-.1 0 0 0-.1 0-.1.1-.1.1-.1 0-.1 0 .1-.1l-.1.1v.1s-.1 0 0-.1h-.4s0 .1-.1 0c0 0 .1 0 0 0 0-.1 0 0-.1 0v-.1c.3-.1.5 0 .7 0m-.2 0c0 .1-.1.1 0 0 0 .1 0 .1 0 0m-.1.1c0-.1-.1-.1 0 0-.1 0 0 0 0 0"/><path class="st17" d="M82.6 91.4s.1-.1 0 0c.1 0 0 0 0 0s.1 0 0 0c.1 0 .1-.1.1-.1h.3s.1 0 0 0h.1v.2c0-.1 0 0-.1 0h-.1.1c-.1 0-.1 0-.1-.1v.1c-.2 0-.2-.1-.3-.1 0 0 .1 0 0 0"/><path class="st17" d="M82.7 91.3s.1 0 0 0c.1.1 0 .1 0 0"/><path class="st43" d="M82.6 91.6c.1-.1.3-.1.4-.1h.1v.1h-.5z"/><path class="st36" d="M82.6 91.5c0-.1 0-.1 0 0 0-.1 0-.1 0 0l.1-.1s0 .1.1.1h-.1.2v-.1.1s0-.1-.1 0h-.2c0 .1 0 .1 0 0zm.3 0s0-.1 0 0c0-.1 0-.1 0 0m-.1 0c.1 0 .1 0 0 0"/><path class="st43" d="M82.8 91.5c.1 0 .1 0 0 0"/><path class="st52" d="M83.1 91.5v.5H83c.1 0 .1-.1.1-.1v-.4z"/><path class="st38" d="M82.6 91.7c0-.1 0-.1 0 0 .1-.1.1 0 .1-.1h.4v.1h-.2v-.1.1h-.3v.1-.1z"/><path class="st16" d="M82.7 91.6c0 .1 0 0 0 0m-.1.2c0-.1 0-.1 0 0l.1-.1s0 .1 0 0h.1v-.1.1h.2v.1h-.2v-.1.1h-.2c.1 0 .1 0 0 0 0-.1 0 0 0 0zm.3 0c0-.1 0 0 0 0 0-.1 0-.1 0 0 0-.1 0 0 0 0"/><path class="st39" d="M82.9 91.8c.1 0 .1-.1 0 0 .1 0 .1 0 0 0 .1 0 .1.1 0 0 .1 0 .1 0 0 0 .1 0 .1 0 0 0 0 0 .1 0 0 0 0 .1.1 0 0 0 0 0 .1 0 0 0 .1 0 0 0 0 0m.1 0s.1 0 0 0m-.2 0c0-.1 0-.1 0 0 0 0 0-.1 0 0 .1 0 0 0 0 0s.1 0 0 0c0 .1 0 0 0 0m-.2 0s0-.1 0 0c.1 0 .1 0 0 0 .1 0 .1 0 .1.1 0-.1 0-.1-.1-.1.1 0 0 0 0 0 .1.1 0 0 0 0m.3-.1c0 .1 0 0 0 0 0 .1 0 0 0 0"/><path class="st40" d="M82.8 91.8s0 .1 0 0c0 .1 0 .1 0 0 0 0 0 .1 0 0-.1 0 0 0 0 0-.1 0-.1 0 0 0-.1 0-.1 0 0 0-.1.1-.1.1 0 0l-.1.1-.1-.1s.1.1.2 0c-.2 0-.1 0 0 0-.1 0-.1 0 0 0-.1 0-.1 0 0 0-.1 0-.1 0 0 0zm.1 0s.1 0 0 0c.1 0 0 0 0 0 .1 0 0 .1 0 0 .1 0 0 0 0 0 .1 0 .1 0 0 0 .1 0 .1 0 0 0 0 .1 0 0 0 0 0 .1 0 .1 0 0 0 .1 0 .1 0 0-.1.1-.1.1-.1 0h.1s0-.1 0 0c-.1 0 0 0 0 0"/><path class="st39" d="M82.7 91.9c0-.1 0-.1 0 0"/><path class="st46" d="M82.7 91.9c-.1 0-.1 0 0 0-.1 0-.1 0 0 0z"/><path class="st27" d="M82.7 92c0 .1 0 0 0 0z"/><path class="st42" d="M82.7 91.9h.2c0 .1 0 .2-.1.1h-.2c.2 0 .2 0 .1-.1.1.1 0 .1 0 .1v-.1s-.1 0 0 0z"/><path class="st54" d="M83 92s.1.1 0 0l.1.1c-.1 0-.2 0-.2-.1 0 0 0-.1-.1-.1h.1c0 .1 0 .1.1.1"/><path d="M82.8 92.1c-.1-.1-.1-.1 0 0-.1-.1 0-.1 0 0z" fill="#5e6674" clip-path="url(#SVGID_17_)" fill-rule="evenodd" clip-rule="evenodd"/><path class="st24" d="M82.7 92c0 .1 0 0 0 0"/><path d="M82.7 92.1c0-.1 0-.1 0 0 0-.1 0 0 0 0z" clip-path="url(#SVGID_17_)" fill-rule="evenodd" clip-rule="evenodd" fill="#e6e7e9"/><path class="st14" d="M83 97.4s.1 0 0 0c.1 0 .1 0 0 0h-.2.2z"/><path class="st52" d="M82.8 97.4h.2v.2c0-.1-.1-.2-.2-.2.1.1.1.1 0 0 0 .1 0 .1 0 0l-.1.1c.1 0 .1-.1.1-.1"/><path class="st17" d="M82.6 97.6c.1 0 .1 0 0 0 .1 0 .1 0 0 0m.3 0s.1 0 0 0c.1 0 .1 0 0 0"/><path class="st37" d="M82.6 97.6c.1 0 .1 0 0 0h.2-.2"/><path class="st47" d="M82.6 97.6c.1 0 0 0 0 0"/><path class="st35" d="M83 97.6s0 .1 0 0m-.4 0s.1 0 0 0c.1 0 0 0 0 0"/><path class="st34" d="M82.6 97.7c0-.1 0-.1 0 0 0-.1 0 0 0 0s0-.1 0 0m.1 0s0-.1 0 0"/><path class="st20" d="M82.6 97.7s.1 0 0 0h.4-.4z"/><path class="st27" d="M82.6 97.9h.5-.5m0 .7s0-.1 0 0c0 0 .1-.1.1 0v-.1c-.1 0-.1 0-.1.1 0-.1 0-.1 0 0l.1-.1c0 .1.1.1.2 0h.2s0 .1 0 0v.2c0 .1 0 0-.1 0h-.3c0-.1 0-.1-.1-.1zm.2-.1c-.1 0-.1.1 0 0m.1.1s.1 0 0 0"/><path class="st46" d="M83.1 98.4v.1c-.1 0-.1 0 0-.1-.1.1-.1 0 0 0 0 .1-.1.1-.1.1l.1-.1v.1c-.1 0-.1 0 0-.1l-.1.1s-.1-.1-.1 0h-.3.1v.1h-.1v.1-.2c.2-.1.3-.1.5-.1m-.2.1c.1 0 .1 0 0 0m0 0s-.1 0 0 0c-.1 0-.1 0 0 0m-.2 0s0-.1 0 0m.1 0s-.1 0 0 0"/><path class="st27" d="M82.9 98.5c.1 0 .1 0 0 0m0 0c-.1 0-.1 0 0 0-.1 0 0 0 0 0"/><path class="st28" d="M82.6 98.6h.2s0-.1.1 0c0 0 0 .1 0 0h.1s0 .1 0 0h.1c0 .1 0 0 0 0v.1h-.3s-.2-.1-.2 0v-.1.2-.2z"/><path class="st27" d="M82.8 98.5c-.1 0 0 0 0 0"/><path class="st28" d="M82.9 98.6c.1 0 0 0 0 0"/><path class="st25" d="M82.6 98.9c.2-.1.3-.1.5-.1v.2H83c-.1-.1-.2-.1-.4-.1.1.1 0 .1 0 0 0 .1 0 .1 0 0 0 .1 0 .1 0 0v.1-.1z"/><path class="st21" d="M82.6 99.1l.1-.1s.1 0 0 0h.3v.1h-.4c0 .1 0 0 0 0z"/><path class="st30" d="M82.6 99.2c0-.1.1-.1.1 0h.4v.1c-.2-.1-.4-.1-.5-.1v.1-.1z"/><path class="st20" d="M82.6 99.3s0-.1 0 0c0-.1 0-.1 0 0 0-.1 0-.1 0 0 0 0 0-.1 0 0 0-.1.1-.1 0 0h.5-.5"/><path class="st19" d="M82.9 99.3h-.2c0-.1.1 0 .1 0h.1zm-.3 0c0 .1 0 0 0 0s0 .1 0 0z"/><path class="st18" d="M83.1 99.4c-.1.1-.1 0 0 0-.1.1-.1.1 0 0-.1 0-.1.1-.1.1s-.1-.1 0 0h-.2s0 .1 0 0v.1-.2s.1 0 0 0h.3m-.2.1c.1-.1 0-.1 0 0"/><path class="st34" d="M82.6 99.6c0-.1 0-.1 0 0 0 0 0-.1.1-.1h.2s0 .1 0 0c-.1 0 0 0 0 0h.1v.1h-.1c.1-.1-.1 0-.1 0h-.1c0-.1 0-.1-.1 0 0 0 .1-.1 0 0 0-.1 0-.1 0 0 0-.1 0-.1 0 0z"/><path class="st33" d="M82.6 99.6c0-.1 0-.1 0 0 0-.1 0-.1 0 0 .1-.1 0 0 0 0h.2s.2-.1.1 0h.1v.1h-.3c0 .1-.1 0-.1 0 .1-.1.1-.1 0-.1 0 0 .1 0 0 0z"/><path class="st35" d="M83.1 99.6c-.1 0-.1 0 0 0-.1.1-.1 0 0 0-.1.1-.1.1 0 0-.1 0-.1.1-.1.1 0-.1 0-.1.1-.1-.1 0-.1 0 0 0m-.2 0s.1 0 0 0c.1 0 0 0 0 0 0 .1 0 .1 0 0 0 .1 0 .1 0 0m0 0c0 .1 0 0 0 0zm-.3 0c.1 0 0 0 0 0 .1 0 .1 0 0 0 .1 0 .1 0 0 0 .1-.1.1 0 .2 0 0 0 0-.1 0 0h-.2c.1.1.1 0 0 0 .1.1.1.1 0 0 .1 0 .1.1 0 0 .1.1.1 0 0 0 0 .1 0 0 0 0m0 0c0 .1 0 0 0 0s0 .1 0 0z"/><path class="st47" d="M82.6 99.6s0 .1 0 0c.1 0 .1.1 0 0 .1.1.1 0 0 0 .1.1.1.1 0 0 .1 0 .1.1 0 0h.1c0-.1 0 0 0 0s.1 0 0 0h.1c.1.1-.1.1-.2 0-.1.1 0 .1-.1.1l.1-.1c0 .1 0 0 0 0s0 .1 0 0z"/><path class="st37" d="M82.6 99.7c.1-.1.4 0 .5 0v.1h-.2c0-.1-.1 0-.1 0-.1 0-.1-.1-.2-.1h.1c-.1.1-.1.1-.1 0 0 .1 0 0 0 0 0 .1 0 .1 0 0z"/><path class="st17" d="M83.1 99.8c-.1 0-.1 0 0 0-.1 0-.1 0 0 0-.1 0-.1 0 0 0-.1 0-.1 0 0 0-.1 0-.2.1-.2 0 0 0 0 .1-.1 0h-.1s0 .1 0 0h.2s.1-.1.1 0c0 0 0-.1.1 0-.2 0-.2 0 0 0-.1 0-.1-.1 0 0-.1 0-.1-.1 0 0"/><path class="st36" d="M82.6 99.9s0-.1 0 0c0 0 0-.1 0 0 0-.1 0-.1 0 0l.1-.1h.2c0 .1.1 0 .1 0h.1v.1H83c-.2 0-.4-.1-.4 0z"/><path class="st43" d="M82.6 99.9c0-.1.3 0 .3-.1h.1c0 .1-.3.1-.4.1 0 0 0 .1 0 0z"/><path class="st38" d="M82.6 100s0-.1 0 0c.1-.1.4 0 .5-.1v.1s-.1 0 0 0h-.3c-.1 0 0-.1-.2 0h.1c0-.1 0-.1-.1 0 0-.1.1-.1 0 0 0 .1 0 .1 0 0z"/><path class="st16" d="M82.6 100c.1-.1 0-.1 0 0 .1-.1.1-.1 0 0 .1 0 .1 0 0 0 .2-.1.1 0 .2-.1h.3-.3l-.2.1m.4 0"/><path class="st39" d="M83 100c.1 0 0 0 0 0m-.1 0h.1c0 .1 0 .1-.1 0h.1s0 .1-.1 0c0 .1 0 .1 0 0m0 0c.1.1.1.1 0 0 .1 0 .1 0 0 0m-.2 0c.1 0 0 0 0 0 .1 0 .1 0 0 0h.2c-.1.1-.1.1-.2 0 .1 0 .1.1 0 0 .1 0 .1.1 0 0 0 .1 0 0 0 0m-.1 0h.1c0 .1 0 .1-.1 0 0 .1 0 .1 0 0 0 .1 0 .1 0 0zm0 0s0 .1 0 0c0 .1 0 0 0 0m.4 0"/><path class="st40" d="M83 100c0 .1 0 .1 0 0 0 .1 0 0 0 0 0 .1 0 .1 0 0 0 .1 0 .1 0 0m-.3 0s0 .1 0 0c.1.1.1 0 0 0 .1.1.1 0 0 0 .1 0 .1 0 .1.1 0 0-.1 0-.1-.1 0 .1 0 0 0 0 0 .1 0 .1 0 0 0 .1 0 .1 0 0zm.1.1s0-.1 0 0c.1 0 .1 0 0 0m.3 0c-.1 0 0 0 0 0-.1 0-.1 0 0 0-.1 0 0 0 0 0z"/><path class="st24" d="M82.7 100.1c0 .1 0 .1 0 0 0 .1 0 .1 0 0"/><path class="st52" d="M83 103.8c.1 0 .1 0 0 0 .1 0 .1.1 0 0v.2-.2c.1.1 0 .1 0 0l-.1.1h-.2v-.1h.1s.1 0 0 0c.1.1.2.1.2 0 0 .1 0 .1 0 0"/><path class="st14" d="M82.7 103.9c0 .1 0 .1 0 0 0 .1 0 .1 0 0 0 .1 0 0 0 0"/><path class="st43" d="M83 104h-.3.3"/><path class="st17" d="M82.7 104h.2c0 .1-.1.1-.2 0"/><path class="st36" d="M82.7 104h.3-.3s0 .1 0 0c0 0-.1.1 0 0-.1 0-.1 0 0 0"/><path class="st17" d="M82.7 104c0 .1-.1.1 0 0-.1.1 0 0 0 0"/><path class="st37" d="M82.6 104.1c0-.1 0-.1 0 0h.4-.4z"/><path class="st35" d="M82.9 104.1c.1 0 .1 0 0 0 .1 0 .1 0 0 0"/><path class="st33" d="M82.8 104.1c.1 0 .1 0 0 0 .1 0 0 0 0 0h-.2.2"/><path class="st35" d="M82.7 104.1s.1 0 0 0c.1 0 0 0 0 0"/><path class="st18" d="M82.9 104.1h-.3.3"/><path class="st44" d="M82.6 104.1c.1.1.2.1.3 0h.1-.4c0 .1 0 .1 0 0z"/><path class="st20" d="M82.6 104.2s.1 0 0 0h.5-.5z"/><path class="st30" d="M82.6 104.2c.1.1.3 0 .5 0h-.5z"/><path class="st46" d="M82.6 104.9h.5v.1s-.1 0-.1-.1c-.1 0-.1 0-.1.1v-.1h-.1l-.1.1v-.1s0 .1-.1.1h.1c0-.1 0 0-.1-.1l.1.1c-.1 0-.1 0-.1-.1 0 .1.1.1.1.1v-.1zm.2.1z"/><path class="st53" d="M82.6 104.9v-.5h.5v.5h-.5m.1 0c0-.1 0-.1 0 0 0-.1 0-.1 0 0"/><path class="st27" d="M82.6 105c.1 0 0-.1 0 0l.1-.1c0 .1-.1 0-.1.1.1 0 .1 0 0 0 .2 0 .1-.1.2-.1v.1c.1 0 .1 0 .1-.1 0 .1.1 0 .1 0s-.1 0 0 .1c0 0 .1 0 .1-.1 0 0 0 .1.1.1h-.1s0-.1 0 0H83c-.3.1-.4 0-.4 0zm.1-.1c0 .1 0 .1 0 0 0 .1.1.1 0 0 0 .1.1 0 0 0m.2.1c.1 0 .1 0 0 0 .1 0 .1 0 0 0 .1 0 .1 0 0 0 .1 0 .1-.1 0 0"/><path class="st46" d="M82.7 105c.1 0 0 0 0 0 .1-.1 0 0 0 0m.3-.1s0 .1 0 0c0 .1 0 .1 0 0 0 .1 0 .1 0 0 0 .1 0 .1 0 0-.1.1-.1.1 0 0"/><path class="st28" d="M82.6 105.1c0-.1.1 0 .1 0h.1c0-.1 0 0 0 0h.1s0 .1 0 0v.1h-.1c-.1-.1-.2 0-.3 0-.1 0-.2-.1-.1.1v-.2zm0 0s.1 0 0 0m.1 0s.1 0 0 0c.1 0 0 0 0 0"/><path class="st27" d="M82.8 105.1s-.1 0 0 0c-.1 0 0 0 0 0"/><path class="st25" d="M82.6 105.4s0-.1 0 0c.1-.1.2 0 .2-.1h.3v.2h-.2c-.1-.1-.1 0-.1 0-.1-.1-.2-.1-.2-.1.1 0 0 0 0 0v.1-.1z"/><path class="st26" d="M82.6 105.3c0-.1.1-.1.1-.1.1 0 .2-.1.3 0h.1v.1h-.5v.1-.1z"/><path class="st21" d="M82.6 105.6v-.1c.1 0 .2.1.3 0h.2c0 .1 0 0 .1 0v.1h-.6z"/><path class="st30" d="M83.1 105.6c-.1.1-.4 0-.5.1v.1-.1c0-.1.1-.1.1 0 0-.1.2 0 .1 0 .1-.1.2-.1.3-.1-.1 0-.1 0 0 0"/><path class="st20" d="M83.1 105.7c0 .1-.1.1 0 0-.1.1-.3 0-.3.1h-.2.3c0 .1 0 0 0 0 .1-.1.1-.1.2-.1-.1 0-.1 0 0 0-.1 0-.1 0 0 0z"/><path class="st19" d="M82.6 105.8c.1-.1.1 0 .1 0h-.1z"/><path class="st18" d="M82.6 105.9h.5v.1h-.3c-.1-.1-.2-.1-.2-.1z"/><path class="st34" d="M82.6 105.9c.1 0 .2-.1.2 0h.3v.1h-.2c0 .1 0 0 0 0-.2 0-.3 0-.3-.1 0 .1 0 .1 0 0z"/><path class="st33" d="M82.6 106h.1c.1 0 0 0 0 0 0-.1.1 0 .1 0s0 .1 0 0h.1v.1h-.1c0 .1-.1 0-.1 0h-.1c.1 0 .1 0 0-.1 0 .1 0 .1 0 0 0 .1 0 .1 0 0 0 .1 0 .1 0 0 0 .1 0 .1 0 0 0 .1 0 .1 0 0 0 .1 0 .1 0 0zm.1.1c0-.1-.1 0 0 0m.2-.1"/><path class="st35" d="M83.1 106.1c-.1 0 0 0 0 0-.1 0-.1 0 0 0-.1 0-.1 0 0 0-.1 0-.1 0 0 0-.1.1-.1 0 0 0h-.2s-.1 0 0 0h-.1l-.1.1v-.1h.4c-.1 0-.1 0 0 0-.1 0-.1 0 0 0 0 0-.1 0 0 0"/><path class="st47" d="M82.6 106.2c0-.1 0-.1 0 0 0-.1 0-.1 0 0 .1-.1 0-.1 0 0h.1c0-.1 0-.1-.1 0l.1-.1h.1s0 .1 0 0v.1c.1 0-.1-.1-.2 0z"/><path class="st37" d="M83.1 106.2c-.1 0-.1 0 0 0-.1 0-.1.1 0 0l-.1.1h-.3c-.1 0-.1.1-.1 0-.1 0 0 .1 0 0 .1-.2.3-.1.5-.1"/><path class="st17" d="M82.6 106.3s-.1-.1 0 0c0-.1 0-.1 0 0 0-.1 0-.1 0 0h.3s-.1 0 0 0h.1s0-.1.1 0c0 0-.1 0 0 0h-.2s0 .1-.1 0h-.2z"/><path class="st36" d="M82.6 106.3h.1c0 .1 0 0 .1 0h.1c0-.1 0 0 0 0h.1s.1 0 0 0h.2v.1H83c-.2 0-.3 0-.4-.1zm.2 0z"/><path class="st43" d="M83.1 106.3c-.1.1-.4 0-.5 0v-.1s.1 0 .1-.1h.2c-.1.3.1.2.2.2"/><path class="st52" d="M83.1 106.3v.3c.1 0 .1-.1.1-.1v-.2h-.1z"/><path class="st16" d="M82.6 106.4h.5-.1s-.1.1-.1 0h-.3c.1.1.1.1 0 0 .1.1.1.1 0 0z"/><path class="st39" d="M82.7 106.5h.1s-.1 0 0 0c0 .1 0 0-.1 0zm.2 0c0 .1 0 0 0 0m-.2 0c0 .1-.1 0 0 0-.1 0 0 0 0 0-.1 0-.1 0 0 0-.1.1-.1 0 0 0"/><path class="st40" d="M82.6 106.6c0-.1.1 0 0 0 .1 0 .1 0 0 0 .1 0 0 0 0 0m.1-.1c.1 0 .1.1.1.1 0-.1 0 0 0 0v.1c0-.1 0-.1-.1-.2zm.3 0c0 .1 0 .1 0 0 0 .1 0 .1-.1.1 0-.1-.1-.1.1-.1-.1 0-.1 0 0 0-.1 0-.1 0 0 0-.1 0-.1 0 0 0-.1 0 0 0 0 0m0 0c0 .1 0 0 0 0"/><path class="st39" d="M83 106.5s.1 0 0 0m0 0s0 .1 0 0"/><path class="st42" d="M82.6 106.6s.1 0 0 0c.1 0 .1 0 0 0h.4c0 .1 0 .1-.1.1h-.2c0-.1 0-.1-.1-.1.1 0 .1 0 0 0 .1 0 0 0 0 0z"/><path class="st54" d="M83 106.7s.1 0 0 0c.1 0 .1 0 0 0s-.1.1-.1.1-.1 0-.1-.1h.2z"/><path class="st14" d="M83 87.7c-.1 0 0 0 0 0"/><path class="st42" d="M83.1 87.9c-.1 0-.1 0 0 0H83h.1z"/><path class="st41" d="M82.8 87.9s.1 0 0 0"/><path class="st42" d="M82.9 87.9s-.1 0 0 0c-.1 0-.1 0 0 0"/><path class="st38" d="M82.7 87.9h.4-.4z"/><path class="st56" d="M83.1 88.3v-.6.6z"/><path class="st34" d="M82.6 88.1h.4c-.1 0-.3.1-.4 0"/><path class="st20" d="M82.6 88.2v-.1.1z"/><path class="st31" d="M83.1 88.2v-.1.2z"/><path class="st29" d="M83.1 88.5v-.1.1z"/><path class="st49" d="M83.1 89.5v-1 1z"/><path class="st26" d="M82.6 90.1v-.3h.5v.2h-.5v.1m.1-.3c-.1 0 0 0 0 0"/><path class="st42" d="M83.1 90.4v.1-.1z"/><path class="st15" d="M83.1 90.5v-.1V92v-1z"/><path class="st19" d="M82.6 90.8v.1-.1z"/><path class="st18" d="M82.6 91.1V91v.1z"/><path class="st33" d="M82.6 91.4v-.1.1z"/><path class="st47" d="M82.6 91.6v-.1.1z"/><path class="st56" d="M83.1 92v-.8.8z"/><path class="st15" d="M82.7 92c0-.1 0-.1 0 0"/><path class="st48" d="M82.8 92c.1 0 .1 0 0 0 .1 0 0 0 0 0"/><path class="st24" d="M83 92c.1.1 0 0 0 0z"/><path class="st57" d="M83.1 92.2v-.1.1"/><path class="st34" d="M83 97.4c.1 0 0 0 0 0z"/><path class="st32" d="M82.9 97.4s.1 0 0 0c.1 0 .1 0 0 0"/><path class="st42" d="M82.8 97.5c-.1 0-.1 0 0 0"/><path class="st41" d="M82.8 97.5c.1 0 .1 0 0 0z"/><path class="st40" d="M83.1 97.5c-.1 0-.1 0 0 0H83h.1c-.1 0-.1 0 0 0m-.4 0h.1-.1z"/><path class="st38" d="M83.1 97.5c0 .1-.1 0 0 0h-.4.4z"/><path class="st36" d="M82.8 97.6h-.2.2s.1 0 0 0c.1 0 .1 0 0 0 .1 0 0 0 0 0"/><path class="st56" d="M83.1 97.7v-.3.3z"/><path class="st19" d="M82.6 97.7v-.1.1z"/><path class="st53" d="M82.6 98.4v-.5h.5v.5h-.5"/><path class="st49" d="M83.1 97.9v.7-.7z"/><path class="st45" d="M83.1 99c-.1 0-.1.1-.2 0h-.2c0 .1 0 0 0 0h-.1v.1-.2c.2 0 .3 0 .5.1 0-.1-.1 0 0 0-.1-.1-.1 0 0 0"/><path class="st23" d="M83.1 99.1v.1-.3z"/><path class="st19" d="M83.1 99.3H83h.1c-.1 0-.1 0 0 0"/><path class="st56" d="M83.1 100.2v-1.1 1.1"/><path class="st19" d="M82.6 99.4s0 .1 0 0z"/><path class="st33" d="M82.6 99.8v-.1.1z"/><path class="st42" d="M83.1 100.1l-.1.1h-.2.1c.1-.1.1-.1.2-.1 0 0-.1 0 0 0"/><path class="st14" d="M82.7 100.2c0-.1 0-.1 0 0 0-.1 0-.1 0 0z"/><path class="st54" d="M82.7 100.2c.1 0 .1 0 0 0h.4v.1h-.2l-.2-.1c.1 0 .1 0 0 0 .1 0 .1 0 0 0"/><path class="st24" d="M82.8 100.2c.1 0 0 0 0 0"/><path class="st52" d="M82.9 100.2h.2v-.3.3h-.2z"/><path class="st15" d="M82.9 100.2c.1 0 0 0 0 0m.2 0v-1.1 1.1z"/><path class="st48" d="M82.8 100.2c.1 0 .1 0 0 0 .1.1.1.1 0 0"/><path class="st57" d="M83.1 100.2c0 .1 0 .1 0 0z"/><path class="st48" d="M82.9 100.3s.1 0 0 0"/><path class="st14" d="M83 100.3s.1 0 0 0"/><path class="st40" d="M83 103.8c.1 0 .1 0 0 0z"/><path class="st41" d="M82.9 103.9c0-.1.1 0 0 0z"/><path class="st14" d="M82.9 103.9c.1 0 0 0 0 0m-.1 0s.1 0 0 0c.1 0 0 0 0 0"/><path class="st41" d="M82.7 104c.1 0 .1 0 0 0"/><path class="st42" d="M82.8 104s0-.1 0 0z"/><path class="st56" d="M83.1 104.2v-.4.4z"/><path class="st31" d="M83.1 104.2v-.1.1z"/><path class="st22" d="M83.1 105.7v-1.5 1.5z"/><path class="st32" d="M83.1 105.7c-.1 0-.1 0 0 0-.1 0-.1 0 0 0-.1.1-.1 0-.1 0 0-.1-.1 0 0 0h-.3v-.1s.2.1.4.1z"/><path class="st15" d="M83.1 106v-.4 1.1-.4z"/><path class="st19" d="M82.6 105.9v.1-.1z"/><path class="st56" d="M83.1 106.7v-.9.9z"/><path class="st14" d="M83.1 106.3v-.3.3z"/><path class="st47" d="M82.6 106.4v-.1.1z"/><path class="st38" d="M82.6 106.4c.1-.1.4 0 .5 0v.1h-.4c0-.1-.1-.1-.1-.1m0 .1"/><path class="st40" d="M82.6 106.6c0-.1 0-.1 0 0 .1-.1 0-.1 0 0"/><path class="st24" d="M82.8 106.6s0 .1 0 0h.1c0 .1-.1.1-.1 0"/><path class="st48" d="M82.8 106.7s.1 0 0 0c.1 0 .1 0 0 0"/><path class="st57" d="M83.1 106.7c0 .1 0 .1 0 0"/><path class="st24" d="M82.9 106.7s.1 0 0 0c0 0 0 .1 0 0m.1 0"/><path class="st12" d="M83 106.7c0 .1 0 .1 0 0"/><path class="st19" d="M82.6 90.7c.1 0 .1 0 0 0 .1 0 .1 0 0 0 .1-.1.2 0 .2 0h-.2c.1 0 .1 0 0 0 .1 0 .1.1 0 0zm.4 15.1h-.2c0-.1.1 0 .2 0z"/><path class="st44" d="M82.6 99.4s0-.1 0 0c0-.1 0 0 0 0h.4v.1h-.3c0-.1-.1-.1-.1-.1m0 6.4h.4v.1c-.1 0-.2 0-.4-.1z"/><path class="st43" d="M82.7 87.9h.4c-.2.1-.3.1-.4 0z"/><path class="st33" d="M82.6 97.6s.1 0 0 0h.1s0 .1-.1 0c.1.1.1 0 0 0 0 .1 0 0 0 0"/><path class="st30" d="M82.6 90.5s0-.1 0 0c0-.1 0-.1 0 0 .1-.1.1 0 .1-.1 0 .1 0 0 0 0 0-.1.1 0 .1 0h.2v.1h-.4zm0 7.2c.1.1.3 0 .5 0-.2 0-.4.1-.5 0z"/><path class="st18" d="M82.6 97.7c0-.1 0 0 0 0h.5-.5"/><path class="st26" d="M82.6 98.8s0-.1 0 0c.1-.1.1 0 .1 0 0-.1.1 0 .2 0h.3v.1c-.3-.1-.4-.1-.6-.1v.1-.1z"/><path class="st45" d="M82.6 105.5s0-.1 0 0c0-.1.1-.1 0 0 .1 0 .2-.1.1 0 .1 0 .1-.1.1 0h.2v.1h-.3c.1-.1-.1-.1-.1-.1v.1-.1z"/><path class="st32" d="M83.1 99.2c-.1.1-.1 0 0 0-.1 0-.1 0 0 0-.1 0-.1.1 0 0-.1 0-.1.1-.1 0h-.2v-.1c-.1.1.1.1.3.1"/><path class="st28" d="M82.6 88.4h.5c-.2.1-.4.1-.5 0zm0 9.4h.5c-.2.1-.4.1-.5 0z"/><path class="st47" d="M82.6 88.1h.2c-.1 0-.2-.1-.2 0"/><path class="st41" d="M83 87.9c0-.1 0-.1 0 0 0-.1.1-.1 0 0zm-.1 0c0-.1 0 0 0 0 .1 0 .1 0 0 0zm-.1 16.1c0-.1.1-.1 0 0z"/><path class="st14" d="M82.9 106.6h.1-.1c0 .1 0 .1 0 0"/><path class="st31" d="M83.1 99.2v.3-.3z"/><path class="st14" d="M82.8 100.2h.1-.1"/></g><g class="st1"><defs><path id="SVGID_18_" d="M102.4 164.3c0 2.5 2 4.4 4.4 4.4 2.4 0 4.4-2 4.4-4.4 0-2.4-2-4.4-4.4-4.4-2.4-.1-4.4 1.9-4.4 4.4"/></defs><clipPath id="SVGID_19_"><use xlink:href="#SVGID_18_" overflow="visible"/></clipPath><linearGradient id="SVGID_20_" gradientUnits="userSpaceOnUse" y1="308.98" x2="1" y2="308.98" gradientTransform="matrix(8.8672 0 0 -8.8672 102.425 2904.037)"><stop offset="0" stop-color="#515254"/><stop offset=".302" stop-color="#272728"/><stop offset=".338" stop-color="#252425"/><stop offset=".418" stop-color="#211f20"/><stop offset=".501" stop-color="#1b1919"/><stop offset=".587" stop-color="#141112"/><stop offset=".676" stop-color="#0d0a0a"/><stop offset=".771" stop-color="#060505"/><stop offset=".874" stop-color="#020202"/><stop offset="1" stop-color="#010101"/></linearGradient><path clip-path="url(#SVGID_19_)" fill="url(#SVGID_20_)" d="M102.4 159.8h8.9v8.9h-8.9z"/></g><g class="st1"><defs><path id="SVGID_21_" d="M0 0h221.1v309H0z"/></defs><clipPath id="SVGID_22_"><use xlink:href="#SVGID_21_" overflow="visible"/></clipPath><circle cx="106.9" cy="164.3" r="4.4" clip-path="url(#SVGID_22_)" fill="none" stroke="#010101"/><path d="M100.4 87.1c0 .7-.6 1.3-1.3 1.3s-1.3-.6-1.3-1.3c0-.7.6-1.3 1.3-1.3s1.3.6 1.3 1.3" clip-path="url(#SVGID_22_)" fill="#15191c"/></g><g class="st1"><defs><path id="SVGID_23_" d="M97.9 87.1c0 .6.5 1.1 1.1 1.1.6 0 1.1-.5 1.1-1.1 0-.6-.5-1.1-1.1-1.1-.6 0-1.1.5-1.1 1.1"/></defs><clipPath id="SVGID_24_"><use xlink:href="#SVGID_23_" overflow="visible"/></clipPath><linearGradient id="SVGID_25_" gradientUnits="userSpaceOnUse" y1="308.98" x2="1" y2="308.98" gradientTransform="matrix(2.1953 0 0 -2.1953 97.918 765.449)"><stop offset="0" stop-color="#1f2227"/><stop offset="1" stop-color="#4a515c"/></linearGradient><path clip-path="url(#SVGID_24_)" fill="url(#SVGID_25_)" d="M97.9 86h2.2v2.2h-2.2z"/></g><g class="st1"><defs><path id="SVGID_26_" d="M98.4 86.5c-.3.3-.3.9 0 1.2.3.3.9.3 1.2 0 .3-.3.3-.9 0-1.2-.2-.2-.4-.3-.6-.3l-.6.3"/></defs><clipPath id="SVGID_27_"><use xlink:href="#SVGID_26_" overflow="visible"/></clipPath><linearGradient id="SVGID_28_" gradientUnits="userSpaceOnUse" y1="309.004" x2="1" y2="309.004" gradientTransform="scale(-1.708 1.708) rotate(-5.001 -2982.1 849.369)"><stop offset="0" stop-color="#1f2227"/><stop offset="1" stop-color="#4a515c"/></linearGradient><path clip-path="url(#SVGID_27_)" fill="url(#SVGID_28_)" d="M99.9 88.2l-2-.1.2-2 2 .2z"/></g><g class="st1"><defs><path id="SVGID_29_" d="M98.4 87.1c0 .3.3.6.6.6s.6-.3.6-.6-.3-.6-.6-.6c-.3.1-.6.3-.6.6"/></defs><clipPath id="SVGID_30_"><use xlink:href="#SVGID_29_" overflow="visible"/></clipPath><linearGradient id="SVGID_31_" gradientUnits="userSpaceOnUse" y1="308.98" x2="1" y2="308.98" gradientTransform="matrix(1.166 0 0 -1.166 98.433 447.418)"><stop offset="0" stop-color="#1f2227"/><stop offset="1" stop-color="#4a515c"/></linearGradient><path clip-path="url(#SVGID_30_)" fill="url(#SVGID_31_)" d="M98.4 86.6h1.2v1.2h-1.2z"/></g><g class="st1"><defs><path id="SVGID_32_" d="M98.5 87.1c0 .3.2.5.5.5s.5-.2.5-.5-.2-.5-.5-.5c-.2.1-.5.3-.5.5"/></defs><clipPath id="SVGID_33_"><use xlink:href="#SVGID_32_" overflow="visible"/></clipPath><radialGradient id="SVGID_34_" cx="0" cy="308.98" r="1" gradientTransform="matrix(.309 0 0 -.309 98.82 182.416)" gradientUnits="userSpaceOnUse"><stop offset="0" stop-color="#88b7e2"/><stop offset=".06" stop-color="#81b0de"/><stop offset=".158" stop-color="#6d9dd3"/><stop offset=".278" stop-color="#4d81c2"/><stop offset=".385" stop-color="#226ab4"/><stop offset="1" stop-color="#0b2644"/></radialGradient><path clip-path="url(#SVGID_33_)" fill="url(#SVGID_34_)" d="M98.5 86.7h1v1h-1z"/></g><g class="st1"><defs><path id="SVGID_35_" d="M0 0h221.1v309H0z"/></defs><clipPath id="SVGID_36_"><use xlink:href="#SVGID_35_" overflow="visible"/></clipPath><path d="M106.6 162.6h.7c.5 0 .9.1 1 .4.1.2.1.8.1 1.2v.6c0 .2 0 .4-.1.6-.2.5-.9.5-1.6.5h-.6c-.2 0-.4 0-.5-.1-.4-.1-.4-.4-.4-.9v-1.2c0-.2 0-.4.1-.6.2-.5.7-.4 1.3-.5m-.8.3c-.3.1-.3.4-.3.8v.5c0 .3 0 .8.1 1 .1.3.4.3.8.3h1.6c.4-.1.4-.8.4-1.4 0-.3 0-.8-.1-1-.1-.4-.5-.3-1-.4h-.8c-.3.2-.5.2-.7.2" clip-path="url(#SVGID_36_)" fill="#6d7888"/></g><g class="st1"><defs><path id="SVGID_37_" d="M107.1 80.3l22.6 80.5V85.3c0-2.8-2.3-5-5.1-5h-17.5z"/></defs><clipPath id="SVGID_38_"><use xlink:href="#SVGID_37_" overflow="visible"/></clipPath><linearGradient id="SVGID_39_" gradientUnits="userSpaceOnUse" y1="308.98" x2="1" y2="308.98" gradientTransform="matrix(0 81.9068 81.9068 0 -25189.13 79.77)"><stop offset="0"/><stop offset="1" stop-color="#222223"/></linearGradient><path clip-path="url(#SVGID_38_)" fill="url(#SVGID_39_)" d="M107.1 80.3h22.6v80.5h-22.6z"/></g><g class="st1"><defs><path id="SVGID_40_" d="M103.5 86c-.6 0-1.1.5-1.1 1.1v.1c0 .6.5 1.1 1.1 1.1h7.4c.6 0 1.1-.5 1.1-1.1v-.1c0-.6-.5-1.1-1.1-1.1h-7.4z"/></defs><clipPath id="SVGID_41_"><use xlink:href="#SVGID_40_" overflow="visible"/></clipPath><linearGradient id="SVGID_42_" gradientUnits="userSpaceOnUse" y1="308.98" x2="1" y2="308.98" gradientTransform="scale(9.081 -9.081) rotate(20 909.523 181.726)"><stop offset="0" stop-color="#14191c"/><stop offset=".3" stop-color="#161a1d"/><stop offset=".408" stop-color="#191e22"/><stop offset=".485" stop-color="#1f2328"/><stop offset=".547" stop-color="#262b30"/><stop offset=".6" stop-color="#2e343b"/><stop offset=".647" stop-color="#383f48"/><stop offset=".648" stop-color="#393f48"/><stop offset=".748" stop-color="#2c3136"/><stop offset=".918" stop-color="#131516"/><stop offset="1" stop-color="#010101"/></linearGradient><path clip-path="url(#SVGID_41_)" fill="url(#SVGID_42_)" d="M101.6 86.3l9.2-3.4 1.8 5.2-9.1 3.3z"/></g><g class="st1"><defs><path id="SVGID_43_" d="M0 0h221.1v309H0z"/></defs><clipPath id="SVGID_44_"><use xlink:href="#SVGID_43_" overflow="visible"/></clipPath><g opacity=".75" clip-path="url(#SVGID_44_)"><defs><path id="SVGID_45_" d="M97.1 80.5h38.4v31.7H97.1z"/></defs><clipPath id="SVGID_46_"><use xlink:href="#SVGID_45_" overflow="visible"/></clipPath><g clip-path="url(#SVGID_46_)"><defs><path id="SVGID_47_" d="M97.1 80.5h38.4v31.7H97.1z"/></defs><clipPath id="SVGID_48_"><use xlink:href="#SVGID_47_" overflow="visible"/></clipPath><g clip-path="url(#SVGID_48_)"><image width="80" height="66" xlink:href="B39806E2.png" transform="matrix(.48 0 0 .48 97.142 80.498)" overflow="visible"/></g></g></g></g><g class="st1"><defs><path id="SVGID_49_" d="M107.2 86.6h-3.1c-.5 0-.9.2-.9.6 0 .3.3.6.8.6h6.2c.5 0 .8-.2.8-.6 0-.3-.3-.6-.9-.6h-2.9z"/></defs><clipPath id="SVGID_50_"><use xlink:href="#SVGID_49_" overflow="visible"/></clipPath><path class="st70" d="M103.1 86.5h.2v1.3h-.2zm.8 0h.2v1.3h-.2zm.3 0h.1v1.3h-.1zm-.6 0h.1v1.3h-.1z"/><path class="st71" d="M103.7 86.5h.1v1.3h-.1z"/><path class="st70" d="M104.5 86.5h.1v1.3h-.1zm.3 0h.1v1.3h-.1z"/><path class="st71" d="M104.4 86.5h.1v1.3h-.1zm.2 0h.1v1.3h-.1z"/><path class="st72" d="M103.4 86.5h.2v1.3h-.2zm.6 0h.2v1.3h-.2zm.8 0h.2v1.3h-.2zm.2 0h.1v1.3h-.1z"/><path class="st70" d="M105 86.5h.1v1.3h-.1zm.1 0h.1v1.3h-.1zm.1 0h.3v1.3h-.3zm.7 0h.2v1.3h-.2zm.4 0h.1v1.3h-.1zm-.7 0h.1v1.3h-.1z"/><path class="st71" d="M105.8 86.5h.1v1.3h-.1z"/><path class="st70" d="M106.5 86.5h.1v1.3h-.1zm.3 0h.1v1.3h-.1z"/><path class="st71" d="M106.4 86.5h.1v1.3h-.1zm.3 0h.1v1.3h-.1z"/><path class="st72" d="M105.4 86.5h.2v1.3h-.2zm.7 0h.2v1.3h-.2zm.8 0h.2v1.3h-.2z"/><path class="st72" d="M107.1 86.5h.1v1.3h-.1z"/><path class="st70" d="M107 86.5h.1v1.3h-.1zm.2 0h.1v1.3h-.1z"/><path class="st70" d="M107.2 86.5h.3v1.3h-.3zm.7 0h.2v1.3h-.2zm.4 0h.1v1.3h-.1zm-.6 0h.1v1.3h-.1z"/><path class="st71" d="M107.8 86.5h.1v1.3h-.1z"/><path class="st70" d="M108.6 86.5h.1v1.3h-.1zm.2 0h.1v1.3h-.1z"/><path class="st71" d="M108.4 86.5h.1v1.3h-.1zm.3 0h.1v1.3h-.1z"/><path class="st72" d="M107.4 86.5h.2v1.3h-.2zm.7 0h.2v1.3h-.2zm.8 0h.2v1.3h-.2z"/><path class="st72" d="M109.1 86.5h.1v1.3h-.1z"/><path class="st70" d="M109.1 86.5h.1v1.3h-.1zm.1 0h.1v1.3h-.1z"/><path class="st70" d="M109.2 86.5h.3v1.3h-.3zm.8 0h.2v1.3h-.2zm.3 0h.1v1.3h-.1zm-.6 0h.1v1.3h-.1z"/><path class="st71" d="M109.8 86.5h.1v1.3h-.1z"/><path class="st70" d="M110.6 86.5h.1v1.3h-.1zm.3 0h.1v1.3h-.1z"/><path class="st71" d="M110.5 86.5h.1v1.3h-.1zm.2 0h.1v1.3h-.1z"/><path class="st72" d="M109.5 86.5h.2v1.3h-.2zm.6 0h.2v1.3h-.2zm.8 0h.2v1.3h-.2zm.2 0h.1v1.3h-.1z"/><path class="st70" d="M111.1 86.5h.1v1.3h-.1zm.1 0h.1v1.3h-.1z"/></g><g class="st1"><defs><path id="SVGID_51_" d="M83 161.1h.5v.7H83z"/></defs><clipPath id="SVGID_52_"><use xlink:href="#SVGID_51_" overflow="visible"/></clipPath><linearGradient id="SVGID_53_" gradientUnits="userSpaceOnUse" y1="308.98" x2=".999" y2="308.98" gradientTransform="scale(.7031 -.7031) rotate(20.002 1586.7 373.929)"><stop offset="0" stop-color="#14191c"/><stop offset=".566" stop-color="#14181b"/><stop offset=".77" stop-color="#101417"/><stop offset=".914" stop-color="#0a0c0d"/><stop offset="1" stop-color="#010101"/></linearGradient><path clip-path="url(#SVGID_52_)" fill="url(#SVGID_53_)" d="M82.8 161.2l.6-.2.3.8-.6.2z"/></g><g class="st1"><defs><path id="SVGID_54_" d="M130.2 161.1h.5v.7h-.5z"/></defs><clipPath id="SVGID_55_"><use xlink:href="#SVGID_54_" overflow="visible"/></clipPath><linearGradient id="SVGID_56_" gradientUnits="userSpaceOnUse" y1="308.982" x2="1" y2="308.982" gradientTransform="matrix(.6612 -.2406 -.2406 -.6612 204.428 365.885)"><stop offset="0" stop-color="#14191c"/><stop offset=".566" stop-color="#14181b"/><stop offset=".77" stop-color="#101417"/><stop offset=".914" stop-color="#0a0c0d"/><stop offset="1" stop-color="#010101"/></linearGradient><path clip-path="url(#SVGID_55_)" fill="url(#SVGID_56_)" d="M129.9 161.2l.7-.2.3.8-.7.2z"/></g><g class="st1"><defs><path id="SVGID_57_" d="M0 0h221.1v309H0z"/></defs><clipPath id="SVGID_58_"><use xlink:href="#SVGID_57_" overflow="visible"/></clipPath><path clip-path="url(#SVGID_58_)" fill="#222223" d="M86.6 95.4h40.5v60.8H86.6z"/><path clip-path="url(#SVGID_58_)" fill-rule="evenodd" clip-rule="evenodd" fill="#fff" d="M203.3 76.5l2.8-1.6-2.8-1.7 2.4-2.2-3.1-1 2-2.6-3.2-.5 1.4-2.9-3.3.2.9-3.2-3.2.9.2-3.3-2.9 1.5-.5-3.3-2.6 2-1-3.1-2.2 2.4-1.6-2.8-1.7 2.8-2.2-2.4-1 3.1-2.6-2-.5 3.3-2.9-1.5.2 3.3-3.2-.9.9 3.2-3.3-.2 1.4 2.9-3.2.5 2 2.6-3.1 1 2.4 2.2-2.8 1.7 2.8 1.6-2.4 2.2 3.1 1-2 2.6 3.2.5-1.4 2.9 3.3-.2-.9 3.2 3.2-.9-.2 3.3 2.9-1.4.5 3.2 2.6-2 1 3.1 2.2-2.4 1.7 2.8 1.6-2.8 2.2 2.4 1-3.1 2.6 2 .5-3.2 2.9 1.4-.2-3.3 3.2.9-.9-3.2 3.3.2-1.4-2.9 3.2-.5-2-2.6 3.1-1z"/><path class="st77" d="M177.2 68.5c.2-.1.5-.1.7-.2.2 0 .4-.1.4-.1h.1v.2c-.1.2-.1.3-.1.4 0 .2.1.4.3.7.2.3.3.6.3.9 0 .5-.3 1-.7 1.5-.5.5-1 .7-1.5.7-.2 0-.4-.1-.6-.2-.2-.1-.3-.3-.3-.4 0-.1.1-.2.3-.5.2-.2.3-.3.4-.3.1 0 .2.1.3.4.1.3.2.4.4.4s.4-.1.6-.3c.2-.2.3-.4.3-.6 0-.2-.1-.5-.3-.9-.2-.4-.4-.7-.5-.9-.4.6-.9 1.3-1.5 2h-.1v-.5c.6-.6 1.2-1.5 1.5-2.3m5.6 3c-.4.4-.8.7-1.1.9-.3.2-.6.3-.9.3-.3 0-.5-.1-.7-.4-.2-.2-.3-.6-.3-1s.1-.8.3-1.4l.2-.8h-.4l.2-.8h.5l.5-1.6 1.4-.3-.5 1.8h.7l-.2.8-.8.1-.3 1.1c-.1.4-.2.7-.2.9 0 .2 0 .3.1.4.1.1.2.2.3.2.2 0 .3-.1.5-.2s.4-.3.8-.7v.7z"/><path class="st77" d="M188.2 71.5c-.5.5-.9.9-1.2 1-.2.2-.5.2-.7.2-.5 0-.8-.5-.8-1.4-.3.5-.7.8-.9 1.1-.3.2-.6.3-.9.3-.3 0-.6-.1-.8-.4-.2-.3-.3-.6-.3-1 0-.5.1-1 .4-1.5.3-.5.6-.8 1.1-1.1.4-.3.8-.4 1.2-.4.4 0 .7.2.9.6l1-.6h.3l-.5 1.5c-.2.8-.3 1.3-.3 1.5 0 .3.1.4.3.4.1 0 .3-.1.4-.2.2-.1.4-.4.7-.6v.6zm-3.7.3c.3 0 .7-.3 1-.9.3-.6.5-1.1.5-1.6 0-.2 0-.3-.1-.4-.1-.1-.2-.2-.3-.2-.3 0-.7.3-1 .9-.3.6-.5 1.1-.5 1.6 0 .2 0 .3.1.4 0 .1.1.2.3.2m7.5-.3c-.9.8-1.5 1.3-2 1.3-.2 0-.4-.1-.5-.3-.1-.2-.2-.4-.2-.6 0-.5.3-1.1.8-1.9-.3.1-.5.2-.8.3-.2.4-.6.8-1 1.3h-.1v-.5c.3-.3.5-.6.7-.9-.3-.1-.4-.3-.4-.6s.1-.5.3-.8c.2-.3.4-.4.7-.4.3 0 .4.1.4.4 0 .2-.1.5-.2.9.6-.1 1.1-.5 1.5-1.3h.5l-.5 1.3c-.2.6-.3.9-.4 1.1-.1.2-.1.4-.1.5 0 .1 0 .3.1.3.1.1.2.1.3.1.1 0 .2 0 .3-.1.1-.1.4-.3.8-.7v.6z"/><path class="st77" d="M195 71.5c-.4.4-.8.7-1.1.9-.3.2-.6.3-.9.3-.3 0-.5-.1-.7-.4-.2-.2-.3-.6-.3-1s.1-.8.3-1.4l.2-.8h-.4l.2-.8h.5l.5-1.6 1.4-.3-.5 1.8h.7l-.2.8-.8.1-.3 1.1c-.1.4-.2.7-.2.9 0 .2 0 .3.1.4.1.1.2.2.3.2.2 0 .3-.1.5-.2s.4-.3.8-.7v.7zm-17.6 7.9c-.5.5-.9.9-1.2 1-.2.2-.5.2-.7.2-.5 0-.8-.5-.8-1.4-.3.5-.7.8-.9 1.1-.3.2-.6.3-.9.3-.3 0-.6-.1-.8-.4-.2-.3-.3-.6-.3-1 0-.5.1-1 .4-1.5.3-.5.6-.8 1.1-1.1.4-.3.8-.4 1.2-.4.4 0 .7.2.9.6l1-.6h.3l-.4 1.5c-.2.8-.3 1.3-.3 1.5 0 .3.1.4.3.4.1 0 .3-.1.4-.2.2-.1.4-.4.7-.6v.6zm-3.7.2c.3 0 .7-.3 1-.9.3-.6.5-1.1.5-1.6 0-.2 0-.3-.1-.4-.1-.1-.2-.2-.3-.2-.3 0-.7.3-1 .9-.3.6-.5 1.1-.5 1.6 0 .2 0 .3.1.4 0 .2.1.2.3.2"/><path class="st77" d="M179.8 77c.2-.3.5-.5.7-.7.2-.1.5-.2.7-.2.3 0 .6.1.8.4.2.3.3.6.3 1 0 .8-.3 1.4-.8 2.1-.5.6-1.1.9-1.7.9-.2 0-.3 0-.4-.1-.1 0-.2-.1-.4-.3-.2 1.1-.4 1.9-.5 2.6l-1.3.2c.2-1.6.6-3.2.9-4.8-.4.6-.8.9-.9 1.1h-.1v-.5c.6-.7 1.2-1.5 1.6-2.5l1.2-.2-.1 1zm-.6 2.8c.2.3.4.4.6.4.3 0 .6-.3.9-.8.3-.5.4-1 .4-1.5 0-.3-.1-.5-.2-.6-.1-.2-.2-.2-.4-.2-.1 0-.3.1-.4.2-.1.1-.3.3-.3.4-.1.2-.2.4-.3.8l-.3 1.3zm6.1-2.8c.2-.3.5-.5.7-.7.2-.1.5-.2.7-.2.3 0 .6.1.8.4.2.3.3.6.3 1 0 .8-.3 1.4-.8 2.1-.5.6-1.1.9-1.7.9-.2 0-.3 0-.4-.1-.1 0-.2-.1-.4-.3-.2 1.1-.4 1.9-.5 2.6l-1.3.2c.2-1.6.5-3.2.9-4.8-.4.6-.8.9-.9 1.1h-.1v-.5c.6-.7 1.2-1.5 1.6-2.5l1.2-.2-.1 1zm-.6 2.8c.2.3.4.4.6.4.3 0 .6-.3.9-.8.3-.5.4-1 .4-1.5 0-.3-.1-.5-.2-.6-.1-.2-.2-.2-.4-.2-.1 0-.3.1-.4.2-.1.1-.3.3-.3.4-.1.2-.2.4-.3.8l-.3 1.3zm6.5-.4c-.8.8-1.4 1.3-1.8 1.3-.2 0-.4-.1-.6-.3-.1-.2-.2-.5-.2-.8 0-.7.2-1.7.7-3l1.3-.3h.1l-.5 1.6c-.2.7-.3 1.1-.3 1.4 0 .1 0 .2.1.3 0 .1.1.1.2.1s.3-.1.4-.1l.6-.6v.4zm-.1-5.2c0 .8-.3 1.2-.9 1.2-.3 0-.5-.1-.8-.3.2-.3.3-.6.5-1 .3.2.5.3.6.3.3 0 .4-.1.6-.2"/><path class="st77" d="M196.2 79.4c-.8.8-1.5 1.2-2 1.2-.2 0-.4-.1-.6-.2-.1-.2-.2-.4-.2-.6 0-.4.1-.9.4-1.7.2-.4.2-.7.2-.8 0-.1 0-.2-.1-.2 0 0-.1 0-.2.1-.1 0-.2.1-.3.2l-.3.3-.3.3-.3.3c-.1.2-.2.3-.2.5-.1.3-.1.6-.1.8v.7l-1.1.3c0-.5-.1-.8-.1-1 0-.5.1-1.1.2-1.6s.3-1 .6-1.6l1.2-.2c-.3.7-.4 1.3-.5 1.7.6-.6 1-1.1 1.3-1.3.3-.2.6-.4.9-.4.2 0 .3.1.4.2.1.1.2.3.2.5 0 .3-.1.9-.4 1.6-.2.5-.3.8-.3 1 0 .2.1.3.3.3.2 0 .6-.3 1.2-1v.6zm5 0c-.4.5-.9.8-1.5 1-.3.9-.6 1.6-1.1 2-.4.5-.9.7-1.4.7-.3 0-.5-.1-.6-.2-.2-.2-.2-.4-.2-.7 0-.4.2-.7.5-1 .3-.3.9-.6 1.7-.8l.2-1c-.3.4-.6.6-.8.8-.2.2-.5.3-.7.3-.3 0-.5-.1-.7-.4-.2-.3-.3-.6-.3-1 0-.7.3-1.3.8-1.9.5-.6 1.1-.9 1.7-.9.3 0 .6.1.9.4.2-.1.4-.1.6-.2l.4-.2h.1l-.3 1.2-.5 2.6c.5-.2.9-.5 1.4-1.1v.4zm-2.8 1.4c-1.1.4-1.6.9-1.6 1.4 0 .2 0 .3.1.4.1.1.2.1.4.1s.5-.2.6-.5c.1-.2.3-.7.5-1.4m-.5-1.3c.2 0 .5-.1.6-.4.2-.3.3-.6.4-1.1.1-.4.2-.7.2-.9 0-.2 0-.3-.1-.4-.1-.1-.2-.2-.3-.2-.4 0-.7.2-.9.7-.3.5-.4 1-.4 1.5 0 .2 0 .4.1.6.2.2.3.2.4.2"/><path class="st78" d="M88 110.9h2.3l1.1 2.1 1-2.1h2.4l-2.4 4.1v2.2h-2.1V115zm10.8-.2c.5 0 1 .1 1.4.3.4.2.8.4 1.1.8.3.3.5.7.7 1.1.2.4.2.8.3 1.2 0 .4-.1.9-.2 1.3s-.4.8-.6 1.1c-.3.3-.6.6-1.1.8-.4.2-.9.3-1.5.3s-1-.1-1.5-.3c-.4-.2-.8-.4-1.1-.7-.3-.3-.5-.7-.7-1.1-.1-.4-.2-.8-.2-1.2 0-.4.1-.8.2-1.2.1-.4.4-.8.6-1.1.3-.3.6-.6 1.1-.8.5-.4 1-.5 1.5-.5m1.3 3.3c0-.4-.1-.7-.2-.9-.1-.2-.3-.4-.4-.6-.2-.1-.4-.2-.6-.2-.4 0-.7.2-.9.5-.2.3-.3.7-.3 1.3 0 .4 0 .7.1 1 .1.3.2.5.4.6.2.1.4.2.7.2.4 0 .7-.2.9-.5.2-.3.3-.8.3-1.4m2.9-3.1h2.1v4c0 .3.1.5.3.7.2.2.4.3.7.3.2 0 .3 0 .5-.1.1-.1.3-.2.4-.3.1-.1.1-.3.1-.5v-4h2.1v4c0 .5-.1 1-.4 1.4-.2.4-.6.7-1.1.9-.5.2-1 .3-1.7.3-.5 0-.9-.1-1.3-.2s-.7-.3-1-.5c-.3-.2-.5-.5-.6-.8-.1-.3-.2-.7-.2-1.2v-4zm7.2-.1h1.6v1.4c0 .4-.1.8-.3 1.2-.2.4-.7.6-1.3.6v-.8c.2 0 .4-.1.5-.3.1-.1.2-.3.2-.6h-.7v-1.5zm2.7 6.4v-6.3h3.3c.9 0 1.6.2 2 .5.4.3.6.8.6 1.3 0 .2 0 .5-.1.7-.1.2-.2.4-.4.6-.2.2-.3.2-.5.3.3.1.5.3.6.4.1.2.2.3.3.5 0 .2.1.4.1.8v.8c0 .1.1.2.2.2v.2h-2.2c0-.2-.1-.5-.1-.7v-.6c0-.2 0-.3-.1-.4-.1-.1-.1-.2-.3-.2-.1-.1-.3-.1-.6-.1h-.8v2.1h-2zm2.1-4.7v1.1h1.2c.2 0 .3-.1.4-.2.1-.1.2-.2.2-.4s-.1-.3-.2-.4c-.1-.1-.3-.2-.5-.2H115zm4.9-1.5h5.2v1.5h-3v.8h2.6v1.5h-2.6v.9h3.2v1.5h-5.4zM88 117.4h3.9c.7 0 1.2.1 1.7.3.5.2.8.5 1 .8.2.3.3.7.3 1.1 0 .3-.1.6-.3.9-.2.3-.4.5-.7.6.4.1.8.4 1 .7.2.4.4.7.4 1.2 0 .4-.1.7-.3 1.1-.2.3-.5.6-1 .8-.4.2-1 .3-1.6.3H88v-7.8zm3.6 3.2c.3 0 .5-.1.7-.2.2-.1.2-.3.2-.4 0-.2-.1-.3-.2-.4-.1-.1-.3-.2-.6-.2h-1.1v1.2h1zm.5 2.8c.3 0 .4-.1.6-.2.1-.1.2-.3.2-.4 0-.2-.1-.3-.2-.5-.1-.1-.3-.2-.5-.2h-1.5v1.3h1.4z"/><path class="st78" d="M96.5 117.5h6.4v1.9h-3.8v1h3.2v1.9h-3.2v1.1h3.9v1.9h-6.5zm7.8-.1h2.7v7.9h-2.7zm4.3 0h2.4l2.6 4v-4h2.6v7.9h-2.5l-2.7-4.2.1 1.3v2.9h-2.5zm13.1 5.2v-1.7h3.6v4.4h-1.6l-.2-.7c-.2.2-.4.3-.5.4-.1.1-.3.2-.6.3-.3.1-.7.1-1.2.1-.6 0-1.2-.1-1.7-.3-.5-.2-.9-.5-1.2-.9-.3-.4-.6-.8-.8-1.3-.2-.5-.3-1-.3-1.5s.1-1 .3-1.5c.2-.5.4-.9.8-1.3.3-.4.8-.7 1.3-.9.5-.2 1.1-.3 1.8-.4.7 0 1.2.1 1.7.3.5.2.9.4 1.2.7.3.3.5.6.7.9.2.3.2.7.2 1h-2.5c-.1-.3-.3-.6-.5-.7-.2-.1-.5-.2-.9-.2-.3 0-.5.1-.8.3-.2.2-.4.5-.5.8-.1.3-.2.7-.2 1.1 0 .4.1.7.2 1 .1.3.3.6.5.8.2.2.5.3.8.3.7 0 1.2-.3 1.5-.8h-1.1z"/><path class="st78" d="M88 125.3h3.1l1.4 5.5 1.5-5.5h2.8l-2.9 8.6h-2.8zm10 .1h7.1v2h-4.2v1.2h3.5v2h-3.5v1.2h4.3v2.1H98zm8.6 8.5v-8.6h4.5c1.2 0 2.1.2 2.7.7.6.5.8 1 .8 1.7 0 .3-.1.7-.2 1-.1.3-.3.6-.5.8-.2.2-.4.3-.7.4.4.2.7.4.9.6.2.2.3.5.4.7.1.3.1.6.1 1v.5c0 .3 0 .5.1.7 0 .1.1.2.3.3v.3h-3c-.1-.3-.1-.7-.1-1v-.9c0-.3-.1-.5-.1-.6-.1-.1-.2-.2-.4-.3-.2-.1-.4-.1-.8-.1h-1v2.9h-3zm2.8-6.5v1.5h1.7c.2 0 .4-.1.6-.2.1-.2.2-.3.2-.5s-.1-.4-.2-.5c-.2-.1-.4-.2-.7-.2h-1.6zm6.3-2.1h3.2l1.4 2.8 1.4-2.8h3.3l-3.3 5.5v3.1h-2.8v-3.1z"/><path class="st78" d="M87.9 133.9h1.7v3.4c0 .2.1.4.3.6.2.1.4.2.6.2.1 0 .3 0 .4-.1l.3-.3c.1-.1.1-.3.1-.4v-3.4h1.8v3.4c0 .5-.1.8-.3 1.2-.2.3-.5.6-.9.7-.4.2-.9.2-1.4.2-.4 0-.8 0-1.1-.1-.3-.1-.6-.2-.8-.4-.2-.2-.4-.4-.5-.7-.1-.3-.2-.6-.2-1v-3.3zm6.1 0h1.6l1.8 2.7v-2.7h1.8v5.3h-1.7l-1.9-2.8.1.8v2H94zm6.1 2.7h2v1.4h-2zm3-2.7h2.2c.3 0 .6 0 .9.1.3.1.6.2.9.4.3.2.5.5.7.8.2.3.3.7.3 1.2v.1c0 .5-.1.9-.2 1.2-.1.3-.3.6-.6.8-.2.2-.5.4-.9.5-.3.1-.7.1-1.1.1H103v-5.2zm3.3 2.6c0-.5-.1-.9-.3-1.1-.2-.2-.5-.3-1-.3h-.2v2.8h.2c.4 0 .8-.1 1-.3.2-.2.3-.6.3-1.1m2.4-2.6h1.7v3.4c0 .2.1.4.3.6.2.1.4.2.6.2.1 0 .3 0 .4-.1l.3-.3c.1-.1.1-.3.1-.4v-3.4h1.8v3.4c0 .5-.1.8-.3 1.2-.2.3-.5.6-.9.7-.4.2-.9.2-1.4.2-.4 0-.8 0-1.1-.1-.3-.1-.6-.2-.8-.4-.2-.2-.4-.4-.5-.7-.1-.3-.2-.6-.2-1v-3.3zm6.2 0h2.2c.3 0 .6 0 .9.1.3.1.6.2.9.4.3.2.5.5.7.8.2.3.3.7.3 1.2v.1c0 .5-.1.9-.2 1.2-.1.3-.3.6-.6.8-.2.2-.5.4-.9.5-.3.1-.7.1-1.1.1H115v-5.2zm3.3 2.6c0-.5-.1-.9-.3-1.1-.2-.2-.5-.3-1-.3h-.2v2.8h.2c.4 0 .8-.1 1-.3.1-.2.3-.6.3-1.1m2.5-2.6h4.4v1.3h-2.6v.7h2.2v1.3h-2.2v.7h2.7v1.3h-4.5z"/></g></svg>