<svg id="Layer_1" xmlns="http://www.w3.org/2000/svg" xmlns:xlink="http://www.w3.org/1999/xlink" viewBox="0 0 595.3 841.9"><style>.st0{fill:#fff}</style><path id="XMLID_177_" d="M0 0h595.3v841.9H0z"/><g id="XMLID_355_"><path id="XMLID_176_" class="st0" d="M210.7 521c-3.8-2.3-6-8.3-6.8-12.8-.8-3.8 0-6.8 2.3-9.8 1.5-3 6-3 8.3-2.3 2.3 1.5 3.8 3 3 5.3-.7 3.8-4.5 6-4.5 10.6 0 3.8 5.3 6 8.3 6.8 7.5 2.3 14.3 1.5 21.1-3 24.1-20.4 19.6-56.6 49-70.9l3.8-.7c-9 9.8-10.5 19.6-14.3 30.9 0 .8 3 0 4.5 0 11.3-4.5 18.1-14.3 17.3-25.6 0-7.6-6-14.4-12.8-16.6-19.6-6.8-40-3-53.5 12-8.3 9.8-12.1 18.9-9.1 30.9.8 3 3.8 6 7.5 6.8 3.8 1.5 7.5 2.3 11.3 0 6-1.5-6.8-13.6 8.3-13.6 1.5 0 3 2.3 3 4.5.7 3.8-1.5 9-4.5 11.3-6.8 4.5-15.8 6.8-24.1 4.5-5.3-1.5-10.6-5.3-13.6-10.6-3.8-6.8-2.3-19.6 2.3-25.6 11.3-18.9 32.4-28.7 53.5-29.4 16.6-.8 33.2 3.8 42.2 17.3 3.8 6 3.8 18.1-.7 24.1-7.5 10.6-21.1 15.8-33.9 16.6-3 18.1-17.3 34.7-34.7 40.7-9.8 3.1-24.2 4.6-33.2-1.4z"/><path id="XMLID_361_" class="st0" d="M389.2 507.6c0-2.3-4.3 3.8-3.5 2.3-3.8 3-8.3 6.8-14.3 5.3-1.5-1.5-2.3-3.8-1.5-6-3 .7-5.3 3.8-7.5 5.3-3 .8-6 1.5-9 .8-4.5-5.3-.7-12.1 2.3-16.6l3-3.8c-2.3-.7-5.3 1.5-7.5-.7l-1.5-3.8c-7.5 6.8-8.3 15.1-12.8 24.1h-8.3c0-3 .8-2.3 2.3-5.3l1-2.8c6.3-15.2 5-15.3 10.3-24.4h8.3c0 2.3-2.2 4.5-1.5 6 3.8-3 7.5-8.3 12.1-7.5 1.5 3.8-4.5 6.8-2.3 10.6 5.3-.8 9.1-6 13.6-7.5 5.3-3 12.1-3.8 17.3-1.5-3 8.3-7.5 15.8-11.3 24.1 0 1.5 0 2.3 1.5 2.3 5.3-1.5 6-6 9.8-9m-27.4 8.1c9.8-3.8 12.1-12.8 16.6-20.4-8.3-1.5-15.1 9.8-18.1 17.3-.8 1.6 0 3.9 1.5 3.1z"/><path id="XMLID_359_" class="st0" d="M321.4 482.1c-2.3 0-3.8-.7-5.3-.7-1.5-5.3 5.3-2.3 6.8-3l6.8-13.6h7.5l-5.3 13.6c1.5.7 3.8 0 6 0 0 1.5 0 3.8-1.5 4.5h.8c-1.5 0-3.8 0-7.5-.8l-9.8 21.9c0 2.3-1.5 5.3 1.5 6.8 6 .8 9-5.3 12.1-9.8h5.3c-6 10.6-10.6 15.1-18.1 15.1-3 0-9-2.3-9.8-5.3V507"/><path id="XMLID_356_" class="st0" d="M310.7 510.4c-5.3 3.8-9.8 7.5-16.6 4.5-1.5-1.5-.7-3.8-1.5-5.3-4.5 3.8-9.8 8.3-16.6 5.3-2.3-1.5-3-4.5-1.5-7.5 3-11.3 13.6-21.9 24.9-25.6 4.5-.8 9.8-.8 13.6 1.5l-11.3 22.6c0 1.5 0 4.6 1.5 3.8 9.3-4.9 6-4.5 10.9-5.1m-28.3 4.3c9-4.5 12.1-13.6 16.6-21.1-8.3-2.3-17.3 10.6-19.6 19.6 0 .8 1.5 2.2 3 1.5z"/></g><g id="XMLID_178_"><g id="XMLID_318_"><g id="XMLID_347_"><path id="XMLID_170_" class="st0" d="M457.2 390.1v-4.3H133.4v4.3h323.8z"/><path id="XMLID_169_" class="st0" d="M207 334.4l3.4-4.6.4-1.7 2.6-3 3.8-4.7 3-2.9 2.9-3 1.8-1.7 1.6-1.7 1.7-1.7.9-.4.8.4-.4 1.3-2.5 3.4-2.6 4.6-2.5 3-4.7 6.8-2.5 2.5-2.6 1.7-1.7 1.7-2.5 3-4.3 4.6-1.7 2.2-2.5 3.4-3 3.4 10.6-16.6z"/><path id="XMLID_168_" class="st0" d="M229.5 356l.9-2.5 1.2-1.7 1.3-3 1.3-2.1.8-2.1.4-2.6v-2.1l.9-2.1 1.3-2.5 1.2-3.4.5-2.1 1.2-1.7.9-2.2.4-1.2-.8-.9-.5-.8 1.3-2.6 1.3-2.1 1.7-2.6 1.2-2.5 1.3-1.3 2.1-3.8 2.2-3.8 2.5-1.7 2.1-2.5 2.2-2.2 2.5-3.4.4-.8 2.1-2.1-.4 1.7-.4 2.9-1.7 3.4-.4 2.2-.5 1.7-.8 2.1v1.7l-.4.8v.9l.4.8v4.3l-.8 2.5-1.7 2.5-1.7 3-1.7 2.6-1.3 2.5-1.7 2.6-2.1 1.6-.9.5-1.7 2.1-2.1 3-1.7 2.5-1.7 1.3-.8 1.7-.9 1.2-.4 1.7-.9 2.2-1.2 1.7-1.7 1.2-1.3 1.7-1.3 1.7-.4.9-.8 1.2-.9 1.3V356z"/><path id="XMLID_167_" class="st0" d="M308.4 276.7l.4 1.7v.9l.4 1.7-1.2 2.5-.9 1.7.9 3.4 2.1 6.4 1.3 5.5 1.2 5.1 1.7 4.2 3.4 3.8 2.2 1.7 2.5 1.3 1.3 1.3 1.7 2.9 2.1 3.9 1.7 2.9 1.7 4.3 2.1 2.9 2.1 3.9.9 3.3 1.7 3 1.2 3 1.7 3.8.9 2.1 1.2 3.4 1.3 2.6 1.3 2.1.4 1.7.9 1.2.8 1.7.9.9.8 1.3.4-.9.5-1.7-.5-1.3.5-1.2-.5-1.3-.4-.8-.4-.9-.4-1.7-.9-1.3-.8-1.7-.5-2.1v-1.2l-.4-.9v-1.3l.4-1.2.9-.5v-1.2l-.4-1.7-.9-2.2-.8-1.7-1.7-1.6-1.3-1.7-1.3-2.6-.8-2.5-.9-2.2-.8-1.2-1.3-3.4-.8-3.4-1.3-2.1-.4-1.3-.5-1.3.9-1.2.8-.9v-1.7l-.8-2.1-.4-1.7-1.3-1.7-.9-1.3-.4-1.7-.8-1.3-1.3-2.1-.8-1.7-.9-2.1-1.7-2.5-.8-2.2-2.6-2.9-1.7-2.1-.4-.9-1.7-2.1-1.3-2.6-1.2-1.7-1.3-2.5-.9-1.3-1.7-2.9-2.1-3-1.3-2.1-1.2-2.1-1.7-2.2-2.1-2.9 4.2 13.5z"/><path id="XMLID_166_" class="st0" d="M332.1 283.5l1.7 1.7 2.2 2.6 2.1 2.1 2.5 2.5 2.6 2.6 2.5 2.9 1.7 2.2 2.6 2.5.8 1.7.9.8.4 1.3.4 3 .4 1.7 1.3 1.3 2.1 2.1 3 3.4 2.5 2.1 2.6 2.1 4.6 4.3 1.3 1.7.9 1.7.8 1.6 1.3 1.7 1.3 1.7 1.7 2.6.8 2.1 1.3 2.1 1.7 2.1.8 2.6 1.3 1.3.8 2.1.9 1.3.8 2.1 1.3 2.1 1.7 2.5 1.3 3-2.6-3.4-2.5-3.4-4.7-5.5-3.4-3.4-2.5-2.5-2.1-3-2.6-2.1-2.1-2.6-1.7-1.2-2.1-.5-1.3-.4-1.3-1.3-.8-1.6-1.3-1.3-2.1-2.6-2.1-2.1-1.7-1.7-1.3-1.3-1.3-2.1-1.2-2.5-1.3-2.1-1.3-3-1.7-3-2.5-5.1-1.7-2.9-1.7-3.9-1.3-2.5-1.7-3-.8-2.1-1.3-2.1-.9-.4v-.9l-.8-1.3-.8-2.5 1.6 2.1z"/><path id="XMLID_165_" class="st0" d="M369.5 308.1l1.7 2.1 1.7 2.6.8 1.3.4 1.6v2.6l.9 1.3 1.3 1.2 1.2 2.2 2.2 1.7 1.7 2.5 1.6 1.3 1.3 1.7 3.8 4.2 1.7 2.1 1.7 1.7 1.3 1.3 1.7 1.7-2.5-4.2-3-3.9-1.7-2.9-.9-1.3-.8-1.3v-2.9l-.4-1.3-.9-1.3-2.5-3-2.6-2.9-2.5-2.6-2.6-2.1-2.1-2.1-1.7-2.1-2.1-1.3 1.3 2.1z"/><path id="XMLID_164_" class="st0" d="M155.8 288.6c0 25.4 6.8 49.6 18.7 70.4l13.2-14 12.7-16.5 14.8-16.1 30.1-34.8 3.4-4.2 4.2-.9 2.5-1.7 14.8-14 5.9-5.1 18.2-14.4 3.4-1.7 4.2.8 5.1 5.1 8.9 8.5 6.8 1.7 10.6 8.9 13.6 12.7 8.5 3.4 11.4 8.1 9.3 11 13.1 18.2 10.2 11 8.1 11.5 5.9 5.9 5.5 7.2 3.8 5.9c11.9-19.5 15.3-44.5 15.3-67 0-78-63.2-141.2-141.2-141.2-77.8 0-141 63.2-141 141.3z"/></g><g id="XMLID_324_"><path id="XMLID_163_" class="st0" d="M174.9 115.1l-2.8 11.6 10.5 6.6-12.2 1.1-2.7 11.7-5-11.1-12.2.5 9.4-7.7-4.9-11 10.5 6 9.4-7.7z"/><path id="XMLID_162_" class="st0" d="M331.2 80.9l-11 6 2.7 12.2-8.8-8.3-10.5 6.6v-.5l5-11.1-9.4-8.3 12.1 1.1 5-11 2.8 12.1 12.1 1.2z"/><path id="XMLID_161_" class="st0" d="M249.4 82.5l-7.1 10 7.1 9.9v.5l-11.6-4.4-7.2 10V96.3l-11.5-4.4 11.5-3.3V76.4h.6l6.6 10 11.6-3.9z"/><path id="XMLID_160_" class="st0" d="M289.2 77.5l-8.8 8.3 5 11.1h-.6l-9.9-6.1-9.4 8.3 2.7-12.2-10.5-6v-.6l12.2-1.1 2.2-11.6 5 11 12.1-1.1z"/><path id="XMLID_159_" class="st0" d="M210.2 95.8l-5.5 11 8.8 8.3-11.6-1.6-5.5 11-2.2-12.2-12.2-1.6 11.1-5.5-2.2-12.2 8.3 8.3 11-5.5z"/><path id="XMLID_158_" class="st0" d="M100.8 206.8l3.3 12.2h12.2l-10 6.6 3.9 11.6-9.9-7.2-10 6.7 3.9-11.1-9.4-7.2v-.5l11.6.5 4.4-11.6z"/><path id="XMLID_157_" class="st0" d="M119.1 171.5l1.6 12.1 12.2 2.2-11.1 5 1.7 12.2-8.3-8.9-11.6 5 6-10.5-8.2-8.9L113 182l6.1-10.5z"/><path id="XMLID_156_" class="st0" d="M144.5 140l-.6 12.1 11.1 4.4v.6l-11.6 2.8-.6 11.6v.5l-6.6-10.5-12.2 2.8 7.8-9.4-6.1-10v-.5l11 5 7.8-9.4z"/><path id="XMLID_155_" class="st0" d="M88.1 243.8h.6l5.5 11.1 12.1-2.2-8.8 8.8 6.1 10.5h-.6l-10.5-5.5-8.8 8.8 1.7-12.1-10.5-5.6 11.5-1.6 1.7-12.2z"/><path id="XMLID_154_" class="st0" d="M95.8 365.4h.6l10.5 5.5 8.8-8.3-2.2 12.2 10.5 5.5-12.1 1.7-2.3 12.1-5.5-11-11.6 1.1 8.9-7.8-5.6-11z"/><path id="XMLID_153_" class="st0" d="M86.4 325.6l8.9 7.7 11-5.5-5.5 11.1 9.4 7.7-12.1-1.1-5.6 11.1-2.2-12.2-12.1-1.1 10.5-6.1-2.3-11.6z"/><path id="XMLID_152_" class="st0" d="M83.1 284.2l7.8 9.4 11.6-3.9-7.2 9.9 7.7 10h-.5l-11.6-3.9-7.2 10v-12.2l-11.6-3.3 11.6-3.9-.6-12.1z"/><path id="XMLID_151_" class="st0" d="M506.4 220.6l-9.4 7.2 3.8 11.6h-.5l-9.4-7.2-10 7.2 3.9-11.6-9.9-7.2H487l3.9-11.6 3.3 11.6h12.2z"/><path id="XMLID_150_" class="st0" d="M486.5 199.6l-11.1-4.9-8.3 8.8 1.7-12.1-11.1-5 12.2-2.2 1.7-12.2 5.5 10.5 12.1-2.2-8.3 8.9 5.6 10.4z"/><path id="XMLID_149_" class="st0" d="M467.1 165.4v.5l-12.1-3.3-6.7 10.5-.5-12.1-11.6-2.8 11-4.4-.5-12.7 7.7 9.4 11.1-4.4h.5l-6.6 9.9 7.7 9.4z"/><path id="XMLID_148_" class="st0" d="M441.2 136.7l-12.2-1.2-5 11.1-2.7-11.6-12.2-1.1 10.5-6.1-2.7-12.1 9.4 7.7 10.4-6.1-4.9 11.1 9.4 8.3z"/><path id="XMLID_147_" class="st0" d="M409.1 111.8l-12.1 1.1-2.8 12.1-5-11-12.1 1.1 9.4-8.3-5-11 10.5 6 8.8-8.2-2.2 11.6 10.5 6.6z"/><path id="XMLID_146_" class="st0" d="M371.5 92.5l-11 3.8V109l-7.2-9.9-11.6 4.4v-.6l7.2-9.9-7.2-9.4v-.5l11.6 3.8 6.6-9.9v11.6l11.6 3.9z"/><path id="XMLID_145_" class="st0" d="M511.3 345l-12.1 1-2.8 11.7-4.4-11.1-12.2 1.1 9.4-8.3-4.4-11 10 6.1 9.4-7.8-2.8 11.6 9.9 6.7z"/><path id="XMLID_144_" class="st0" d="M498.1 384.7l-12.2-1.6-5 11-2.2-11.6-12.1-1.6 10.5-6.1-2.2-12.2 8.8 8.3 10.5-5.5h.6l-5.6 10.5 8.9 8.8z"/><path id="XMLID_143_" class="st0" d="M518.5 304.1h-.5l-11.6 3.3-1.1 12.1-6.1-10.5-11.6 2.8h-.6l8.3-9.4-6.1-10.5 11.1 4.4 7.7-8.8-1.1 12.1 11.6 4.5z"/><path id="XMLID_142_" class="st0" d="M516.3 263.2l-11 4.9 1.1 12.2-7.8-9.4-11 5h-.6l6.6-10.5-8.2-9.4 12.1 2.8 6.1-10.5 1.1 12.1 11.6 2.8z"/></g><g id="XMLID_319_"><defs><path id="SVGID_1_" d="M460.8 270.3l18.9-10.5c-.3-2.6-.8-5.2-1.3-7.8l-21.5-2.9c-.6-2.4-1.2-4.7-2-7l17.1-13.5c-.9-2.5-1.7-5-2.8-7.5l-22.1.3c-.9-2.1-1.9-4.3-3-6.3l14.6-16.6-3.9-6.9-21.7 4.5c-1.4-1.9-2.8-3.8-4.1-5.8l11.8-18.7c-1.6-2.1-3.2-4-4.9-5.9l-21.2 7.8c-1.7-1.7-3.2-3.1-4.8-4.7l8.5-20.8c-1.9-1.6-3.8-3.2-5.7-4.9l-19.6 11.6c-1.8-1.3-3.6-2.6-5.5-3.8l4.4-22.4c-1.9-1.2-3.9-2.4-5.9-3.5l-16.8 15.3c-2.1-1.1-4.4-2.1-6.5-3.1l.7-23.1c-2.2-.9-4.5-1.8-6.8-2.5l-14.4 17.9c-2.2-.7-4.6-1.2-6.9-1.9l-.7-4.5-2.8-18.5c-1.1-.2-2.1-.3-3.1-.5-.6-.1-.9-.2-1.5-.3-.6-.1-1.1-.2-1.6-.3l-11.1 20.3c-2.4-.3-4.8-.5-7.2-.7l-7.5-22.2h-7.1L285 123l-7.5.6-10.7-20.6c-2.1.3-4.3.7-6.4 1.1l-3.5 23c-2.2.5-4.5 1.1-6.7 1.7l-14.5-18.2c-2.1.7-4.2 1.4-6.2 2.1l.5 23.3c-2.3 1-4.4 1.9-6.6 2.9l-17.6-15.4c-1.9 1-3.7 2-5.5 3.1l4.4 22.7c-2.1 1.4-4.1 2.8-6.2 4.2L179 141.2c-1.8 1.4-3.4 2.7-5.1 4.2l8 21.7c-1.9 1.8-3.7 3.6-5.5 5.4l-21.6-8.3c-1.4 1.5-2.7 3.1-4.1 4.8l11.8 19.8c-1.6 2.2-3.2 4.4-4.6 6.6l-22.4-5c-1 1.7-2 3.4-3 5l15 17.5c-1.3 2.4-2.5 5-3.6 7.6l-22.8-.6c-.7 1.9-1.4 3.7-2.1 5.7l17.8 14.2c-.9 2.8-1.6 5.6-2.2 8.5l-22.4 3c-.2 1.1-.6 2.1-.7 3.2-.2 1-.3 2-.4 3l19.8 10.6c-.3 2.9-.6 5.8-.7 8.7l-21.5 7.2c-.1 2-.2 4 0 6l21.4 7.3c.2 2.8.5 5.7.8 8.5L111 316.4c.3 1.9.6 3.7 1 5.7l22.4 3.5c.7 2.9 1.4 5.6 2.3 8.4l-17.6 14.2c.8 1.9 1.4 3.9 2.1 5.7l22.5-.9c1.1 2.7 2.3 5.3 3.7 7.8l-14.7 17.3c.9 1.7 2 3.5 3.1 5.3l21.9-4.7c1.6 2.5 3.3 4.9 5 7.3l-11.5 19.4c1.4 1.6 2.7 3.2 4 4.7l20.9-8.4c2 2.1 3.9 4 5.9 5.9l-8 21.1c1.5 1.2 3 2.5 4.6 3.7l19.1-11.7c2.3 1.6 4.5 3.3 6.8 4.7l-4.3 22.1c1.7 1.1 3.5 2.1 5.1 3.1l16.7-15c2.6 1.3 5.2 2.5 7.8 3.7l-.1 22.6c2 .8 4.1 1.5 6.1 2.2l14.4-17.5c2.5.8 5.1 1.5 7.8 2.2l3.2 22.1c.6.1 1.1.2 1.8.3.5.1 1 .2 1.4.2 1.1.2 2.1.4 3.2.5l8.8-16.7 1.8-3c2.7.3 5.4.5 8.1.7l7.4 21.1c2.2 0 4.5.1 6.6 0l7.1-21.1c2.6-.3 5.4-.5 8.1-.8l10.4 19.5 6.3-1.2 3.4-21.8c2.7-.7 5.3-1.5 7.9-2.2l14 17.1c2.1-.7 4.3-1.5 6.3-2.4l-.9-21.8c2.4-1.1 4.7-2.2 7.1-3.3l16.3 14.4c2.2-1.3 4.4-2.5 6.4-3.8l-4.5-21.2c.2-.2.4-.4.7-.5l5.1-2.8 21 7.9s2.1-1.1 2.3-1.2c.6-.5 1.1-1 1.7-1.5l-7.9-20.2c1.8-1.7 3.6-3.6 5.5-5.4l19.8 8c1.6-1.9 3.3-3.9 4.9-5.8L430 385.6c1.6-2.1 3-4.2 4.4-6.4l21.1 4.2c1.3-2.1 2.6-4.3 3.7-6.6l-14.3-16c1-2.1 2-4.2 3-6.4l21.4.6c1-2.4 1.9-4.9 2.7-7.5l-16.7-13.4c.7-2.3 1.2-4.7 1.8-7l21.1-3.1c.3-1.2.5-2.5.7-3.7.2-1.3.5-2.6.6-3.9L461 306.3c.2-2.5.4-4.9.6-7.3l20.4-6.8v-8l-20.5-6.9c-.3-2.4-.6-4.7-.7-7zm-26.4 42.8c-13 76-85.8 126.9-161.8 113.4-75.9-13.4-127.2-86.3-114.1-162.2 13-76 85.7-126.9 161.6-113.5 76 13.5 127.4 86.4 114.3 162.3z"/></defs><clipPath id="SVGID_2_"><use xlink:href="#SVGID_1_" overflow="visible"/></clipPath><path id="XMLID_141_" clip-path="url(#SVGID_2_)" fill="#fff" d="M702.9-45.5v418.2H34.7V-45.5h668.2z"/></g></g><g id="XMLID_179_"><path id="XMLID_180_" d="M334.3 152.2c.1 1.1.4 1.4.1 2.3 1.4.8 2.6 1.7 3.9 2.7.3-.1.3-.1.7-.1 5.8 3.8 7.9 15.4 9.4 25.3.4 2.8 1.4 6.6 1.2 8.3-.1.9 0 2.5 0 3.7.3.6 1.1.6 1.3 1.4.1.4-.4.2-.4.5.2 1.6 1.7 2.3 2.4 1 1 .3 1.7.2 2.4-.5.4-.1.4.5.9.3.5.1.3-.4.6-.5.8-.3 1.8.7 2.5-.3.6-.2.5.5 1.1.4.5-.1.5-.6 1.2-.5.7.8 1.5 0 2.2 0 .4-.1.3.5.7.4.6 0 .6-.4 1.2-.3.9 1.1 2.1-.4 3 .7.5.3.3-.4 1-.3.3 0 .6.6.9.7.9.3 1.7-.7 2.2.5.6 0 .6-.4 1.1-.2.4.7 1.3.9 2 .6.6.7 1.1.9 2 .7.3.3.5.8.9.9.4 0 .5-.2.9-.2.5.1.5.9 1 1.1.5-.2.7-.1 1.1 0 0 .8.9 1 1.8 1 .2.3.3.8.6 1 .4.2.6-.2 1 0 .3.9 1 1.2 2 1.3.2.4.2.9.6 1.1.4 0 .4-.3.7-.1.5.6.7 1.6 1.9 1.4.2 1.5 1.9 1.2 2.1 2.7.4.1.8.2 1.1.5.1.4-.1.6.1.8.6.4 1.5.8 1.4 1.7.1.4.6.2.8.4.1.4.4.6.2 1 1.3.7 1.2 2.2 2.5 2.9 0 .3-.2.4-.2.6.5.6 1.4 1.2 1.1 2.1.1.4.7.4.9.7.1.5-.1.7 0 1.1.1.3.4.4.6.5 0 1.5 1.3 2 .9 3.5.4.3 1 1.1.5 1.6.1.7.7.8.8 1.4 0 .4-.4.4-.3 1 1 .6-.1 2.2 1 2.7.1.6-.2 1-.2 1.5.1.4.5.6.4 1 0 .6-.4 1.1.2 1.9-.8.9.4 2.2-.4 3-.1.6.4.6.4 1.2-.9.9.3 2.3-.7 3.2.6.6.2 1.3-.3 1.8.6 1.6-.8 2-.2 3.4-.4.2-1.1 1.1-.6 1.4 0 .7-.4 1-.8 1.3 0 .5.3.7.1 1.1-1.2.6-.5 2.2-1.7 2.8 0 .5.2.5.1.9-.3.4-.9.5-1 1 .4.9-.5 1.3-1 1.7 0 .4.1.7-.1 1.2-1.3.2-.8 1.2-1.3 1.9-.7 0-1 .7-.9 1.4-.2.4-.6.3-.9.4-.4 1.5-1.7 1.6-2.1 3.1-1-.3-1 .8-1.4 1.3-.7.1-1.3.4-1.5 1.4-.3.2-.8.1-1 .3-.4 1.3-2 .9-2.3 2.3-.3.2-.5.1-.9.1-.5.8-1.2 1.2-2.2 1.4-.2.2-.1.6-.4.7-1.4-.1-1.7 1.2-3.1 1.1-.4.7-1.1 1-1.9.9-.5 1.2-2.1.2-2.5 1.4-1.2-.5-2.1.7-3.1.9-1.1.2-2.2-.1-3.5.1-1.2.2-2.3.6-3.6.6-.3 0 .3.4-.1.5-.7-.2-1.2-.1-1.8.3-.7-.5-1.5-.3-2.4 0-.4.1-.4-.5-.8-.4-.5-.1-.3.4-.7.4-.7.1-1.4-1-2-.3-.9-.9-2.9-.4-3.8-1.1-.6.5-1.6.2-1.9-.4-.7.2-1.6.3-2-.5-.7.2-1.7 0-2.2-.7-.4 0-.5.2-.9.2-.4-.2-.6-.7-1-.9-.5.3-.9 0-1.4-.1-.2-1.3-1.9-.1-2.1-1.5-.5-.1-1.1-.1-1.5-.3-.2-.2-.2-.6-.4-.8-.4-.1-.9 0-1.3-.2-.1-.9-.9-1-1.6-1.1-.4-.5-.5-1.2-1.5-1.1-.4-.9-1.2-1.3-1.9-1.5-.2-.2-.2-.6-.3-.9-.2-.2-.7-.1-.9-.2-.2-.3-.3-.9-.6-1.1-1.4-.3-1.2-1.8-2.5-2.2.3-1.7-1.8-.9-1.4-2.4-.1-.5-.6-.5-1-.7.3-1.5-1.7-1.3-1.3-2.9-.1-.5-.7-.4-.9-.8.2-.9-.4-1.5-1-1.7.3-1.4-1.2-1.7-.9-3.1-.2-.4-.7-.5-.9-1-.1-.4.4-.3.3-.7-.1-.6-.6-.7-.8-1.2.3-.5.1-1.5-.5-1.6-.4-.7.2-.7.1-1.4-1-.5.1-2.3-1-2.7 0-1.1.4-1.5-.2-2.4-.1-.4.3-.5.2-.9-.5-.8-.7-1.3-.1-2.1-.2-.7-.6-1.6 0-2 .1-.8-.6-.6-.5-1.3.1-.4.5-.6.6-1 0-.5-.5-.4-.4-1 .1-.4.5-.6.6-1-.6-.8-.4-1.5.3-2 0-.6-.3-.7-.2-1.2.2-.3.6-.6.7-1-1.2-1.2 1.1-1.5.3-3 .2-.3.7-.5.8-.9-.1-.5-.5-.6-.2-1.1.1-.2.4-.4.8-.4.1-1 0-1.8.9-2.3-.4-1 .1-1.5.9-1.8.1-.3.1-.6 0-1 .9-.4 1.1-1.2 1-2.2.9-.1 1.2-.7 1.2-1.6.4-.2.7-.3 1.1-.7.1-.4-.3-.6-.1-.8.4-.6.8-.4 1.3-.8.1-.4 0-1 .3-1.2 1.1.1.9-1.1 1.3-1.6 1 .2 1.2-.9 1.6-1.5.9.3 1.1-.7 1.3-1.3.9 0 1.5-.4 1.7-1.3.7-.1 1.4-.2 1.4-1.2.9-.3 1.8-.4 2.1-1.4.6 0 .8 0 1.2-.2-1.2-3.4-2.9-6.3-4.3-9.5-.1-.3-.6-.1-.8-.3-.6-1.5-1.8-2.2-3-3.1-.6 0-1.1.2-1.5.4-.6-.6-.9-1.5-1.3-2.4.2 0 .4-.1.4-.3-.9-.6-.5-2.8-1.8-2.8-.7 0-2.5 2.4-3.1 3.1-2.8 3.3-4.8 7.6-7.1 11.2-6.3 10.3-12.1 20-18.4 30.3-2.2 3.6-4.5 7.4-6.8 11.4-.6 1.1-2.2 3-2.1 3.8.1.7.8.9 1.2 1.7.2.4.7.5.8.6.1.2 0 .6.1.8.1.3.5.5.6.7.3.7.4 1.7.5 2.3 2.2.3 5.5.3 8.2.2 2-.1 4.2-.6 5.2 1 .2-.7 2.2 1.3 2.6-.4.5-.2.3.5.7.5.7.1.7-.3 1.1-.5.5.6.4 1.1.6 2-.7.9-1.4 1.9-2 2.9-2.1 0-4.6.9-6.5.2-.4-.1-.1.5-.4.5-.3.1-.3-.3-.4-.5-.6 0-2-.2-1.9.6-.4.1-.3-.4-.5-.5-.6.2-.8.1-1.4.4-.5-.4-.6-1.4-.4-1.9-1.4-.2-3-.1-4.6 0-.3.4-.7.8-.5 1.7-.6.4-.9.9-.8 1.6-.9.8-1.6 1.8-2.2 2.8-.8 0-.9.5-1.2.9-.9 0-1.1.5-1.5.8-.8-.1-1.2.1-1.6.6-1-.3-1.4.7-2.4.4-1.1.7-2.7.6-3.9 1.3-2 0-3.8 1.2-5.5 1.1-2.2 1-5.2 1.4-7.5 2 .3 1.4-1.3 1.6-1 3-.5.4-1.4.7-1 1.7-.2.4-.8.6-1.1.9 0 .4 0 .8-.2 1.2-1.2.1-.9.9-1.1 1.6-.7.2-1.2.5-1.1 1.3-.9.4-1.3 1.2-1.6 2-.9-.1-1 .4-1 1-.7.4-1.5.6-1.7 1.7-1.4 0-1.5 1.5-2.9 1.8.2.7-.7.9-1.3.9-.4.4-.9 1.3-1.6 1.1-.7.4-.7 1.4-1.9 1.1-.5.6-1.2 1-2.2 1.2-.3-.1.1.5-.2.5-.3.3-.7.3-1.2.2-1.5.6-2.2 1.2-4.1 1.5-1.6 1.4-5.1 1.7-7.6 2.1-.3 0-.1.2-.3.3-1 0-1.8-.2-2.6.3-.5.2-.4-.3-.8-.3-.6-.1-.4.5-1 .4-.5-.1-1.4-.9-2 0-.1-.2-.3-.3-.3-.6-1.4 0-2.8 0-3.6-.8-.4 0-.3.5-.9.4-.6-.1-.7-.7-1.2-.8-1.2.8-1.7-1-2.7-.1-.8-.7-1.6-.9-2.7-.9 0-.8-.8-.7-1.2-.3-.6-.2-.9-.9-1.5-1.1-.4-.1-.1.4-.4.3-.8-.2-.9-1.4-2-.8-.7-1.3-2.2-.8-2.9-2.1-1.3.7-1.3-1.7-2.5-1.1-.5-.4-.4-.8-.9-1.2-.4 0-.5.3-.7.1-.5-1-1.1-1.3-2-1.6.1-.9-1-.9-1.5-1.3.1-.7-.3-.7-.5-1.1-1.3.3-.7-1.6-2.1-1.5-.3-.9-.7-1.7-1.5-1.8 0-1-.7-1.2-1.3-1.7.2-.9-.6-1.3-1.2-1.8.5-1.3-1.6-1.2-.9-2.3-1.1-.6-.8-2.3-1.9-2.8.4-1.4-1.1-1.8-.8-3-.1-.5-.6-.5-.8-1 .3-.8 0-1.4-.5-1.9.1-.8.2-1.5-.5-1.8-.1-.5 0-.9.2-1.1-.9-.9-.1-2.4-1-3.1.1-1.6.2-3-.3-4.5-.1-.4.4-.3.4-.6-.1-.8-.4-1.7.1-2.4-.1-.6-.6-.5-.3-1.1.9-.6-.2-2.2.7-2.8.1-.6-.4-.5-.3-1 1-.7.2-2.3 1.2-3.1-.6-.7-.1-1.4.5-1.8-.4-1 .2-1.5.7-2.2 0-.5-.4-.5-.2-.9 1.1-.5.7-2.3 1.8-2.8-.5-1 .2-1.4.9-1.7-.2-1.5 1.5-1.6 1.1-2.9.3-.2.3-.5.9-.4.3-.9.6-1.7 1.5-2.1-.2-.5-.1-.6.1-.9 1.4-.2 1.1-1.8 2.4-2.1.2-.4-.2-.6.1-.8.8-.3 1.5-.7 1.8-1.7.3-.2.6 0 .8-.2.4-.4.4-1.5 1.4-1.2.8-.5.9-1.6 2-1.5.3-.5.5-1.2 1.4-.9.5-.2.7-.9 1.1-1.1.3-.1.4.1.7 0 .7-1.4 2.3-.7 3-2 .4-.2.4.2.7.1.5-.2.4-.8.9-.9 1.4.7 1.7-1.3 2.9-.7.5-.1.6-.7 1.2-.8 1.1.8 1.9-1.1 3-.3.7-1.2 2 .1 2.9-.9.7-.3.6.3 1.2.2 1-1.1 2.3.4 3-.5.9 0 1.3.6 2.1-.1.9.4 1.7.4 2.4.1.4 0 .5.5.9.5.5 0 .5-.4 1-.3.6 0 .8.5 1.3.6.5-.2.6-.3 1.2-.3.1.2.2.5.4.5 1.4-.6 2.1 1 3.5.3.3.1.4.6.8.7.4 0 .5-.2.9-.2.8 1.2 2.5.4 3.2 1.6.4 0 .4-.3.8-.2.4.2.6.6 1 .8.4-.3.6-.8.9-1.2-.3-.3-.6-.1-.8-.7 1.2-.1 1.6-1.6 2.8-1.6 2.8-3.7 7.5-5.9 10.8-9.2-.1-.4-.3-.8-.5-1.2-.7.3-1.5.6-2.5.7.1-.5 0-1-.5-1.2.4-.8 1.4-1.1 2.4-1.4-3-7.7-6.1-15.2-9.1-22.7-.4 0 0 .3-.3.6-.4 0-.7.1-1 .2-.4-.3 0-.7-.6-.5.1-.4 1-.2.7-.9-.4-.2-1.3 0-1.2.5-.5-.4-.8-1.1-1.1-1.6.2 0 .3-.1.4-.2-1.2-.4-2.4.6-3.6.5-2-.1-3.3-2.5-5.3-2.6-.3 0-.6.1-.9.1-1.6-.7-3.3-1.5-4.7-2.4 0-1.2.4-2.1.7-3.1.1 0 .2 0 .2-.1 4.2-.4 8.8-.3 13.5-1 3.2-.5 6.3-1.2 9.2-1.6 4.7-.8 10.8-.7 12 3.4-.1 0-.1.2-.1.2-1 .7-3.3.6-5 .9-2.2.4-3.8 1.5-5.5 1.8-.1-.6.6-.4.6-.9-.1-.2-.5-.2-.6-.4-2.3 1.3-3.8 3.3-7 3.8-.2.4.1.3.2.7.8-.2 1.3.9 1.8 1.5.7 0 .8-.4 1.4-.3 3 7.4 6 14.9 9 22.4.4 0 1.3 0 2.2-.1.1.2.3.3.3.7-.3.7-1.7.9-1.3 1.7 3-.9 6.3-2.4 9.5-3.5.2-.1.2.2.4.2 13.5-6.1 26-12.2 39.5-18.8.2 0 0-.4.1-.6 3.5-1.2 6.3-3 9.3-4.6-.3-.4-.5-.8-.7-1.3.1-.2.2-.4.4-.5-.3-.9-.6-1.6-1-2.3-1 .1-1.8-.2-1.9-1.2-.1-.5.5-1 .4-1.4-.2-.8-2-.9-2.1-2 0-.3.6-1.5.9-1.7 1.1-1.1 3.6-1.9 4.6-.9 1.1-.2 1.5-1 2.4-1.4-.3-1.4-.6-3.4 1.2-3.6-.1-.3 0-.4.1-.6-.6-1.1-.6-2.6.2-3.4.2 0 .5 0 .7-.1 1.2-1.3 2.7.5 4.6-.1.5 0 1.1.1 1.6.3zm6.3 7.6c-.2.5-.5.9-.9 1.2-.4-.1-.5-.5-1-.6-.3.5.6.3.5.9-.3.4-.4 1.1-1.2.8-.1 6.1-4.3 8.7-8.8 11.2 1.3 2.1 2.2 3.9 3.2 6.3 0 .2-.3.1-.2.4.8 2 2.2 4 2.9 5.7 1 .2 2.2.5 3.8.1.1.2.3.3.4.5 0 .4-.7.3-.6.7 1.3.8 1.7 2.8 2.4 4.4.2.4-.4.2-.3.6.9 1.5 1.4 3.5 2.4 4.7.3-.4.5-.8.8-1.1.9-.2 1.4-.1 2.4-.2.8.9 1 2.6 1.5 4 .6-.4 1.2-1 1.2-1.5.3-.1 0 .5.4.3 0-1.2-.9-1.3-1-2.4h.5c.1-.4-.5-.1-.4-.5s.7.2.6-.3c-.2-5.9-1.3-13.5-2.6-19.6-1.4-6.7-3.1-13.5-6.8-16.8-.1 0-.2 0-.2.1 0 .5.8.5 1 1.1zm-9.9 1.3c-1.2 1.6-5.5 2.6-5.3 4.9.1 1 .8 1.4 1 2.4.5-.4.8.2 1.2.4 3.3-2.5 6.4-5.1 9.4-7.8-.3-.6-.9-.8-1.6-1 0 2.5-3.5 2.6-4.7 1.1zm-80.5 10.4c1.9.3 3.8-1.2 4.8-2.2-1.7.6-3.5 1.2-4.8 2.2zm79.7-4c-.8.6-1.9 1.3-2.2 2.3 3.8-2.2 6.9-5 9.5-8.1 0-.1.2-.3-.1-.2-2.2 2.2-4.9 4.1-7.2 6zm7.9-5.3c0-.1-.1-.1-.3-.1-2.6 3.2-5.8 5.9-9.5 8.1.2 1 .7 1.8 1.1 2.6 4.5-2.1 8.4-4.9 8.7-10.6zm-18.6 18.4c-8.3 4.1-17.1 8.3-26 12.5-8.8 4.2-17.8 8.2-26.1 12.5-.5 1.3.3 2.4.9 3.8 2.6 6.5 5.4 13.3 8 19.3.4.1.8-.4 1-.1.4.6-.4.6-.6 1.2.9 2 1.7 4.1 2.6 6.1.4.4 1-.3 1.2.3s-.8.3-.6 1c.8 1.1 1 4.1 2.1 4.6.6.3.9-.2 1.5-.2.2 0 .5.4.9.4.3 0 .6-.2.9-.2.7.1 1.3.6 2 .4 2.8-5 5.6-9.9 8.1-15-1.1-.3-.6-1.5.6-1 1-2 2.1-4 3.2-6-.8-.7-.8-1.3.7-1.2 6-11.1 11.8-22.6 18.2-33.4.9-1.5 2.1-3 2.4-4.7-.2-.4-.7-.4-1-.3zm-63.7 26.8c-.6 1.6-1.8 2.9-2.5 4.5-.4.8-.7 1.6-1.2 2.3-.4.7-1.3 1.4-1 2.3 1 .3 1.3-1 1.7-1.6.5-.7 1-1.3 1.5-1.9 1.7-.9 2.7-2.2 4.1-4 1.3-1.8 3.7-3.4 2.9-5.6-2.3 1-4 2.4-5.5 4zm-5.7 3.9c.1.4.5.4.5 1.1-.8.1-1.2 1.2-1.4 2 .4.1.3-.3.7-.3-.1.7-.6.9-1.1 1.5.1 0 .2.1.1.2.2.2.5 0 .8-.1.3.3.7.3.7.9 1.5-2.4 2.7-5.5 4.2-7.8.5-.8 1.6-1.6 1.4-2.2-2.1 1.5-4.2 2.9-5.9 4.7zm12-3.1c-1.8 2.4-3.7 4.7-5.1 7.4-.2 1.5-1.4 2.2-2.1 3.3.5.4.6 1.3 1.1 1.6.6-.3 1.2.3 1 .9.8.4 1.7.6 1.9 1.8.9-.1 1.2.6 1.2 1.3.3.4.9.3 1.2.6.2.7.4 1.4 1.2 1.4.6.5.1.9.6 1.6 1 0 .9.8.9 1.4.3.4 1 .4 1.1 1 0 .2-.3.2-.2.5 1.4.7.9 2.2 2.1 3-.4 1.2 1.3 1.6.9 2.9.2.3.7.3.8.8-.5 1 .6 1.7.8 2.1-1 .9 1.2 1.7.3 2.5.1.7.7.8.8 1.5 1.5 0 3.5-.5 5.1-1 .1-.2-.2-.6.1-.6 0 .3.1.6.5.5-.1-.8 0-2 0-2.3.3-.1.3.2.5.2-2.9-7.2-6-14-8.9-21.1-.4.1-.4.5-1 .5-.9-.4-.5-1.4-.8-2.2-1.1-2.6-3.1-5.5-3.2-9.5-.1-.1-.5 0-.8-.1zm3.1 6.6c.6 1.3 1.1 2.9 2.2 3.6-1.2-3.3-2.4-6.5-3.9-9.4.3 2.4 1 4.1 1.7 5.8zm91.3-9.7c.8 5.5 1.9 12.6 2.6 18.7.2 2.2.3 4.7.9 6.4.4 1 1.7 2 2.2 2.9.4-1.3 1.7-2.5 1.9-3.8.3-1.7-.2-4.1-.3-6.2-.3-6.2-.6-12.8-1-18.7-1.8-.2-4.6 0-6.3.7zm6.9-.7c0 7.8.7 16.3 1 24.4.7-.7 1.1-1.8 1.7-2.8.5-1 1.3-2 1.7-3.1.4-1.3.3-2.9.5-4.4.5-4.5 1.1-9.2 1.4-13.5-2-.5-4.3-.9-6.3-.6zM223 219.1c.6 5.9 1.2 13.1 1.9 19.5.2 2.1.1 4.5 1.4 5.9 1.9-1.1 3.8-2.4 5.3-3.9-.9-7.4-1.3-14.9-2.3-22-2-.2-4.3 0-6.3.5zm-6.3 1.8c1.5 4.7 3.3 9.9 4.9 14.6.9 2.8 1.5 5.6 3.4 6.9-.5-3.8-.7-7.8-1.1-11.8-.4-3.9-.5-8-1.5-11.5-2.1.4-4.1.9-5.7 1.8zm13-2.2c.5 7.1 1.4 14.5 2.1 21.8 2.2-1.1 2-3.9 2.3-6.6.6-4.9 1.3-10.1 1.7-14.7-1.7-.3-4.3-1-6.1-.5zm138 3.3c2.8-5 5.6-9.9 8-15.2-1.9-.8-3.8-1.5-6.1-1.8-.7 5.7-1.3 11.4-1.9 17zM218 225.4c-.4-1.3-1.2-4.6-2.2-4.3-1.7.6-3.7 1.8-5 2.8 3.4 4.6 7.1 9.4 10.5 13.9.5.6.8 1.4 1.6 1.7-1.5-4-3.3-9.6-4.9-14.1zm15.9 12.1c2.5-4.2 4.6-8.7 6.8-13-.7-.1-.5-1-.8-1.4.5-.5 1.3-.7 1.5-1.4.3-.2.5.1.8-.2-1.7-1.1-3.8-1.6-6-2-.8 5.8-1.6 11.9-2.3 18zm122.2-29.2c-.4.7-1.8.9-2.6 1.4-.4.1-.2-.4-.4-.4-.5.6-1.3.9-2.1 1.3 1.1 4.4 2.8 7.6 4.5 11.1 1.3 2.8 2.5 5.7 3.9 8.1-1.1-7.2-1.8-15.1-3.2-21.8-.5-.2 0 .2-.1.3zm-17.2 5.8c-.1.2-.1.4 0 .5 0-.1 0-.1.1-.1 3.2 3.2 7 6.4 10.3 9.3.5.4 1.2 1 1.5.9-2.5-4.7-4.4-10.2-7.2-14.4-1.7 1.1-3.3 2.4-4.7 3.8zM376 207c-2.2 3.8-4.3 8.1-6.4 12.1-.7 1.3-1.8 2.6-2.1 3.9-.6 2.1-.2 4.4-.7 6.6 4.9-6.2 10.1-13 14.7-19.7-1.6-1.2-3.4-2.2-5.5-2.9zm-155.9 29.4c-3.2-4.2-6.3-8.3-9.5-12.4h-.2c-1.6 1.2-3.5 2.3-4.6 3.9 5.3 4.9 11.5 9.6 17 14.1.2.2.6.9 1.1.6-.8-2.7-2.3-4.2-3.8-6.2zm-18.8-3c-1.3 1.5-2.3 3.3-2.9 5.4 4.5 2.3 9.1 4.7 13.6 6.9 2.3 1.1 4.3 2.4 7.1 2.6-5.6-4.9-11.8-10.1-17.8-14.9zm-3 5.7c-1 1.6-1.7 4-1.8 6 6.3 1 13.1 2 19.3 2.6-5.9-2.8-11.5-5.9-17.5-8.6zm13.4 8.4c-4.9-.7-10.8-1.4-15.2-2.1-.8 1.6-.9 4.3-.7 6.3 7.7-.5 15.6-1.2 23.6-1.9-1.8-1.8-4.5-1.9-7.7-2.3zm5.7-1.1c.8.6 1.8 1.9 2.4 2.1 1.6.5 2.3-.7 3.2-1.5.7-.6 1.5-1 1.9-1.7-.5-1.9-1.5-2.6-2.9-3.7-4.1-3.3-8-6.4-11.8-9.5-1.6-1.3-3-2.8-4.8-3.8-1.5 1.5-3 2.9-3.9 4.9 4.8 4 10.7 9 15.9 13.2zM348.3 223c-3.1-2.8-6.9-6.1-9.7-8.3-1.7 1.3-2.9 3-4 4.8 5.9 4.9 12.4 9.6 18.4 14.3.8.6 1.7 1.7 2.9 1.5-.7-1.5-1.4-3.1-2.2-4.5-.6.2-1 .5-1.7.6-.2-.4-.5-.7-.5-1.3.4-.3.9-.6 1.4-.8-.8-3.3-2.6-4.5-4.6-6.3zm28.6 7.8c1.2-.6 2.3-1.9 3.4-2.8 3.6-2.8 6.9-5.6 10.5-8.3.2 0 .1-.3.2-.4-.7-1.8-2.3-3.7-3.9-4.8-5.8 6-11.5 12.1-16.9 18.5 2.2-1.1 4.6-1.1 6.7-2.2zm15.9-8.7c-.5-.9-1.1-2.5-2-2.5-2.1 1.9-4.5 3.7-6.8 5.5-1.7 1.3-3.3 2.7-4.9 4-.5.4-1.2.7-1.4 1.4 5.3-2 11.2-3.4 16.4-5.5-.1-.8-.7-1.8-1.3-2.9zm-23.3 11.1c5.8-6.4 11.8-12.5 17.3-19.1-1.5-1.4-3-3-4.9-3.9-3.8 4.9-7.7 10-11.5 15.1-1.1 1.5-3.2 3.6-3.7 5.2-.4 1.1-.2 2.5-.5 3.5 1.3-.1 2.2-.6 3.3-.8zm-135.8 5.7c1.3-.6 1.1-2 2.2-2.6-.2.5 0 .8-.6 1.3.3-.1.1.6.5.4.5-.3.8-.7.6-1.6 1.7-1.9 3.8-4.9 5.7-7.3.5-.6 1.8-2 1.7-2.7-.1-.6-1.2-.7-1.2-1.3-.2.1-.1.5-.4.5-.6-.2-.7-.9-1.5-.9-2.1 4.9-4.8 9.3-7 14.2zm15.7-13.4c-4.3 6.4-10.4 12.2-14.2 18.8-.5.9-1.5 1.8-1.1 3 1-.1 2.8-.3 4-.9.6-.3 1.2-1.4 1.9-2.2 4.5-5.1 9.1-10.6 13.3-15.4-1.2-1.3-2.3-2.6-3.9-3.3zm84.9-5.7c-1.2 1.7-2.3 3.4-2.9 5.6 4.6 2.3 9.2 4.6 13.9 6.9 2.7 1.3 5.3 2.9 8.9 2.8-6.2-5.1-13.2-10.4-19.9-15.3zm-81.1 9.2c-2.4 2.9-5 5.8-7.5 8.7-2.2 2.5-4.2 5-6.3 7.3-.2.2-.8.5-.6 1 1.5-.7 3.2-.5 4.7-1.3 1.2-.6 2.3-1.9 3.4-2.8 3.6-2.8 7.3-5.3 10.5-8.3-1.3-1.6-2.3-3.6-4.2-4.6zm78-3.2c-.9 1.7-1.6 3.7-1.8 5.9 6.3 1 12.8 1.8 19.3 2.6-5.6-3-11.5-5.9-17.5-8.5zm-75.1 15.3c1.3-.4 2.9-.6 3.8-1.1-.1 0-.1 0-.1-.1.4 0 .5-.2.8-.3-.9-2-1.6-4.1-3.1-5.3-4.4 3.3-8.9 6.6-13 10.2 3.6-1 8-2.4 11.6-3.4zm108.2-8c.8-.4 1.4-2 2.3-2.8-.1-2 .8-4.5.7-6.3 0-.1-.1-.3-.3-.2-1.1 3-3.7 4.7-2.7 9.3zm-130.9 7.7c.6-.7 2-1.9 1.7-2.6-.7.8-1.8 1.2-1.7 2.6zm-8.2 3.2c-.1-1.4-.8-2-1.5-2.6.4 1 .6 2.3 1.5 2.6zm6-1.7c-.2 0-.2-.2-.3-.3-1.5.9-3 1.8-4.2 3 .5.6 1-.2 1.2-.5.4.1.4.6.9.5.5 0 .2-.5.6-.5.4 0 .3.6.8.6.5-.8.9-1.6 1-2.8zm97.5-4c7.8-.4 16.1-1.3 24.1-1.9-1.9-1.7-4.8-1.8-8.1-2.3-4.9-.7-10.9-1.5-15.3-2-.7 1.6-.7 3.9-.7 6.2zm52.5-8.6c-1.4.5-3.1.7-4.2 1.2-.9.4-1.7 1.4-2.5 2-.9.7-1.8 1.3-2.4 2.1 7.9-1.2 16.6-2.2 24-3.5-.5-2.3-.7-4.8-2.1-6-4 1.3-8.7 2.9-12.8 4.2zm-133.5 14.1c-1.4.4-3.1.6-4.2 1.1-1.6.8-3.2 2.8-4.6 3.7 5.2-.4 9-1.2 13-1.5.3-.1.4-.3.8-.4.3.1.4.3.8.2 2.8-.7 5.9-.8 8.8-1.6-.5-1.9-1-3.7-1.7-5.2-4 1-8.8 2.5-12.9 3.7zm-22.7 1.6c.8-.3 0-1.6-.5-1.6.2.6.4 1 .5 1.6zm137.1-12.1c.4.5.7 1.1 1.2 1.4 1.1-.6.8-3.5.4-4.7-.4 1.2-1.2 2.1-1.6 3.3zm-.7.8c0-.4.4-.5.4-.8-.7-.8-1.1-1.9-2-2.4.3 1.3 1 2.2 1.6 3.2zm2.9.6c.6-.1 1.2-.3 1.7-.5 0-1 .5-2.3.2-3.2-.5 1.3-2.1 1.8-1.9 3.7zM225.9 247c.4.2 1.1.1 1-.6-.4 0-1.1.1-1 .6zm143.2-13.4c-1.1.1-1.7.6-2.8.7-.1.5-.2 1-.2 1.6 1.7-.2 2.1-1.5 3-2.3zm-1.5 2.1c4.6 0 6.2-2.5 8.6-4.3-3.5 1-7.4 1.5-8.6 4.3zm-143 12.1c.4-.1.8-.3 1-.6-.3.1 0-.5-.4-.3-.2.3-.8.3-.6.9zm11.7 1.2c.3-.1 1.3-.3 2.2-.3 1.4-1.2 3-2.2 4.3-3.4-3 .4-6 1.5-6.5 3.7zm-15.9.6c.1-1.1-2-1.3-2.9-1.2.9.3 1.9 1.2 2.9 1.2zm141-15.3c.5.2 1 1.1 1.7.8-.4-.8-1.2-2.2-1.7-.8zm-5.8 1.9c-.8-1.4-3.2-.8-4.8-1.4 1.3.9 2.5 1.8 4.8 1.4zm-131.8 12.7c.3 0 .3-.2.5-.3 0-.3 0-.7-.3-.7-.2.3-.6.8-.2.7 0 .1-.1.2 0 .3zm11.1-1.3c0 .3.1.6.1.9 1.5.5 2-1.1 2.7-1.9-.9.4-2.1.5-2.8 1zm-39.2 4.6c0 1.7.3 4.1.6 5.8 6.5-.2 13.6-1.1 20.4-1.6.2-2 1.3-3.8 2.2-5.2.3-.4.9-.9.8-1.3-7.9.6-16 1.4-23.8 2-.1 0-.2.1-.2.3zm160.5-16.1c0-.5-.3-.7-.8-.6.2.4.5.4.8.6zm8.2-1.1c0 .4.1.8.1 1.1.4 0 .8-.1 1.3-.1.2-.4.2-.9.2-1.5-.6.1-1.1.3-1.6.5zm-94.1 9.9c.9.7-.1 1.2.2 2.1.1.4.5 0 .5.6.1.6-.6.5-.3 1.2 1.3.1 1.3-1.6 1.8-2.4.6-.9 1.6-1.3 1.9-2.4-1.2.5-2.8.4-4.1.9zm83-8.4c-.6-.1-1.4.2-2.1.2-6.9.4-15.4 1.3-22.4 1.8-.5 1.5.1 4.5.4 6.3 6.1-.6 15.2-1.5 22-2.5 1.1-.2 2.3 0 3.3-.3 1.3-.4 2.6-2 3.4-3-1.1.2-1.8.7-2.8 1-.1-.5-.3-.9-.5-1.3.4-.4 1.1-.5 1.4-1-.9-.2-1.7-1.1-2.7-1.2zm18.2-1.2c-1.2.9-2.4 1.9-3.6 2.8 1.7 1.5 3.2 1.6 6.3 1.5 7.5-.5 15.4-.9 22.5-1.4.2-1.8 0-4.3-.5-6.2-8.2.7-16.4 2.2-24.7 3.3zM220.4 250c-1.5 1.8-2.9 3.7-3.3 6.3 2.3.1 4.1-.6 4.4-2.2-.1-.3-.3-.5-.6-.6.6-.2.4-1.5-.2-1.6.7 0 .5-.8.7-1.2-.4-.1-.5-.6-1-.7zm136.4-12.4c.2-1.2-1.2-1.5-2.6-1.1.7.5 1.7 1.2 2.6 1.1zm-99.2 9.5c-4.1.2-8.1 1.3-12.2 1.5-1.9.6-3.7.4-5.7.9-.7-.1-2.1 0-2.6.5 6.6.1 13.4.1 20.3-.1.5-.9 1.3-1.7 2-2.5 1.1.3 2.3-.1 3.3.2 0-.5-.1-.9-.2-1.4-2 .5-3.6.3-4.9.9zM371 235.5c0-.1-.1-.3-.3-.2-1.8.4-4.4.3-4.6 2 .6.2 1 .6 1.6.8 1.1-.9 2.1-1.8 3.3-2.6zm-97.2 10.7c.2 1-1.4 1.4-1.5 2.6.4-.1.8-.1 1.2 0-.1-.3-.3-.5 0-.6.4.2.6-.1.9-.3.1-.6-.6-.8-.1-1.1.4.2.7.1 1-.2-.1-.5-.1-1.1-.5-1.1-.2.2-.4 1-1 .7zm4.3.7c.4-.1.5-.4.5-.9-.2 0-.2-.3-.5-.2-.1.4-.1.8 0 1.1zm-2.1 1.7c.6.2.3-.3.5-.5.7.1 1.1-.2 1.2-.9-.3.1-.2-.3-.4-.3-.5.5-1.3.8-1.3 1.7zm13.3-2.5c0 .5.1.7.4.8.3 0 .8-.6.3-.9-.3-.1-.5-.1-.7.1zm66.8-4.2c1.5-.1 2.8-.3 3.8-.9.1-3.4-3.3-.5-3.8.9zm11.2-3.2c.6.7 1.6 1.5 3 .9-1-.2-2.3-1.8-3-.9zM366 240c.7 0 1.6-.3 2.2-.1-.4-1.1-2.1-1.4-2.2.1zm-76.6 7.9c.4.3.9.4 1.4.5-.1-.8-.3-1.4-1.1-1.3-.1.3-.2.5-.3.8zm-1.7.1v.3c.4 0 .2 0 .6-.1 0-.5-.3-.4-.6-.2zm78.3-6.8c1.5.4 3.2.4 4.8.7-1.1-1.3-2.3-2.4-4.9-1.7.1.4.1.7.1 1zm-5.4.1c.3 0 .5-.1.8-.1 0-.5-.9-.4-.8.1zm11 .8c1.4 0 2.7.3 4.1.4-2-1-3.6-3-6.6-2.3.8.5 1.6 1.2 2.5 1.9zm5.2.6c6.5.6 12.7 1.5 19.1 2.1.5-1.8.9-4.2.6-6.3-8.2.3-16.9 1-25.1 1.3 1.6 1.2 3.7 1.8 5.4 2.9zm-154.3 12.9c-.3.2-.1.9-.6 1-.3 0 .1-.2-.2-.3-2.3 0-3.3 1-4.3 2.2 1.8-.3 3.6-1.5 5-1.4-2.2 1-3.1 3.1-4.6 4.7 1 1.6 2.7 2.8 4.9 2.6.6-.8 1.6-1 1.8-2.1.3-1.3-.1-2.9.2-4.3-.1-.2-.4-.2-.5-.3-.1-.5 0-.7.4-.8.2.1.2.5.5.2-.1-.4-.3-.6-.4-.9-.4.4-.7.3-1.5.5.1-.4-.1-.4-.3-.5-.4-.1-.4.7-.5.4.2-.4.6-1 .1-1zm132.7-12.8c.5-.3 1.9-.4 1.7-.9-.5.3-1.6.2-1.7.9zm-19.9 13.6c4.5-3.6 9.6-7.1 14.2-10.4.6-.5 1.4-.8 1.7-1.6-6.5 2.5-13.4 4.6-19.8 7.1.6 2.2 1.7 3.8 2.7 5.5.5-.1 1-.4 1.2-.6zm20.5-4.8c1.1-1.3 3.3-3.5 3.8-4.8.6-1.6.4-3.4.4-5.2-1.7.4-3.6.5-5 1.4-.6.4-1.3 1.5-2 2.3-4.6 5.5-9.4 11.1-13.8 16.1 4.9-6.1 10.2-11.9 15.1-18-2.7.8-4.3 2.3-6.3 3.9-4.6 3.5-9.2 6.6-13.5 10.1 1.1 1.8 2.3 3.5 3.9 4.7.3-.1.4-.4.6-.5-1 1.1.9 2.3 1.8 3 1 .8 2 1.5 2.7 1.7 3.8-4.5 8.3-9.8 12.3-14.7zm-12 15c1.6 1.2 3.4 2.2 5.5 2.9 2.4-5 4.9-10.1 7.3-15.1 1.1-2.3 2.4-4.3 2.8-6.9-5.3 6.3-10.6 12.6-15.6 19.1zm18.3-22.6c.2-.6.9-.8 1-1.5-.2 0-.1-.4-.4-.3-.2.5-.8 1.3-.6 1.8zm.4-2.3c-.7 0-1-.5-2-.1-.3 1.2-.2 2.7-.1 4.2 1.2-1 1.7-2.5 2.1-4.1zm-165.9 16.8c.1 2.1.9 4.4 1.8 5.8 5.9-1.5 12.1-3.8 18.1-5.5.1-.6.1-1.7 0-2.1-6.7.6-13.2 1-19.9 1.8zm132.8-13.3c.3 2.3.9 4.3 1.8 5.9 3.5-1 6.9-2.3 10.5-3.6 4.2-1.5 9.7-2.8 12.4-5.2-8.2 1-16.9 2-24.7 2.9zm23.9-1.7c.9-.2 1.7-.5 2-1.2-1 .1-1.6.5-2 1.2zm10.4-1.2c.7.8 1.6 1.5 2.4 2.2-.2-1-.1-2.2-.4-3-.8-.4-1.8-.1-2 .8zM217 258.2c.8-.6 1.7-1 2.2-1.8-.7.1-1.4.1-2.2.2 0 .5-.2 1 0 1.6zm163.7-8.8c-1.4-1.1-3.1-2.3-4.8-3.7-1.4-1.1-3.4-3.2-4.8-3.7-1.7-.5-3.5-.1-5.1-.5.3 1.6 1 2.7 1.3 4.1 6.1 5.2 12.6 10.6 18.3 15.9-6.1-5.1-11.9-10.5-18.1-15.5.8 3.5 2.6 5.6 4.3 7.9 3 4 6.1 7.7 8.9 11.8-4-4.7-7.4-10-11.4-14.6 2 6.1 4.2 12.6 6.1 18.3 2.2-.7 3.7-1.8 5.5-2.7.3-.4-.3-.6-.1-.8.2.1.2.5.6.4 1.8-1.1 3.5-2.3 4.7-3.9 0-.4-.4-.2-.4-.6.3.1.4.5.8.4 1.5-1.5 3.3-3.2 4-5-3-2.4-6.3-4.9-9.8-7.8zm4-2.6c-1.3-.6-2.7-1.3-4-2-1.4-.7-2.8-1.6-4.1-2-1.5-.4-3-.2-4.6-.6 4.5 4 9.5 7.4 14.1 11.1 1.5 1.2 3.1 2.7 4.9 3.5 1.1-1.7 2.3-3.4 2.9-5.5-2.8-1.4-5.9-2.9-9.2-4.5zm9.4 4.3c.8-1.8 1.6-3.7 1.8-6.1-6-.7-12-1.4-18.1-2.1 5.2 3 10.7 5.6 16.3 8.2zm-158.5 4.6c.5.3 1.3.4 2.1.5-.4-.7-1.6-1.8-2.1-.5zm9.3 1.2c-1.4-.3-2.4-1.9-3.9-2.1-1.3-.2-2.6.3-4.1.2 1.4 2 5.3 1.7 8 1.9zm1.5.5c4 2.8 9.1 5 13 7.5-3.5-1.8-7-3.8-10.4-5.8-1.1-.6-2.4-1.7-3.5-1.9-2.1-.5-4.2-.1-6.6-.7 3.5 2.8 8.8 7.3 13.1 10.4 1 .7 3.5 3.1 4.6 3.3 2.3.5 2.9-3.6 3.7-4.7 0-.5-.6-.2-.7-.7.3.1.5.3.8.3.9-1.7 1.5-3.6 1.8-5.7-.1-.4-.7 0-.8-.4.1-.2.8.1 1-.2.2-1.3.5-2.5.5-4-7-.1-14.2-.1-21.2-.1 1.1.6 2.8 2.3 4.2 2.5 4.6.6 10.7 1 15.4 1.8.1 0 .1 0 .1.1-4.7-.4-10-1.1-15-1.7zm120-10.9c0-2.6-1.7-3-3-4 .9 1.5 1.9 2.8 3 4zm-145.3 11.2c0-.1-.1-.3-.3-.2-1.2.5-2.4.9-3.8 1.2 0 1.1.3 1.8.6 2.6 1.3-.7 2.2-2.6 3.5-3.6zm139.4-10.8c.7 8.3 1.1 17.4 2.1 25.2 1.9.3 4.1.1 6.2-.6-.4-4.7-1.1-12.1-1.7-18.1-.2-2.2-.1-4.7-.6-6.3-.4-1.1-2.8-3.4-3.2-4.2-1.3 1.1-2.1 2.5-2.8 4zm-117.7 12.9c-2-1.5-4.5-4.5-7.5-3.2-.1.7 0 .9-.4 1.3.4 1.3 1.3 1.9 1.7 3.2 2.9 2.3 6.2 5.6 9.3 8.3.5.5 2.6 2.6 3.3 2.7.8.1 2.3-.6 2.8-.7 1.6-.4 3-.3 4.4-.8-4.3-3.3-9.1-7.3-13.6-10.8zm-27.1-.6c-2.8.9-5.8 1.8-8.7 2.7-2.9.9-5.9 1.6-8.5 2.9.6 1.8 1.7 4 3 5.3 4.9-3.5 9.6-7.2 14.2-10.9zm-1.1 5.9c1-1.2 2.2-2.1 2.7-3.5-.3-.8-.7-1.5-.7-2.6-3.9 2.8-7.7 5.8-11.4 8.7-1.2 1-2.6 1.8-3.6 3 1.2 1.8 2.3 3.5 3.9 4.7 3.2-3.3 6.2-7 9.1-10.3zm7.9-.3c-2.2-.3-3.8-1.1-4.8-2.8-3.2 3.3-6.1 6.8-9.1 10.2-1 1.1-2.1 2.3-2.7 3.6 1.4 1.5 2.9 3 4.9 3.9 3.9-5 8.1-9.7 11.7-14.9zm.2 6.3c1.1-2 2.2-3.6 2.1-6.1-1 .2-1.5.3-2.1-.1-3.8 5.1-8 9.8-11.7 14.9a20 20 0 0 0 5.4 2.9c2-3.3 4.3-7.8 6.3-11.6zm-2.2 4.4c-1.3 2.4-2.7 4.8-3.6 7.5 1.8.7 3.6 1.4 5.7 1.7.4-.1.1-.6.4-.7 0 .3 0 .8.2.9 1.8.3 4 .9 6.1.5-.1-7.1-1.1-14.9-1.2-22 .8 7.1.9 15 1.7 22.1 2.5.1 3.7 0 5.9-.5 0-2.6-.7-6.3-1.1-9.2-2.4.5-3.4-1.6-5.5-1.7 0-.2-.1-.4-.2-.5.2-.4.7-.6 1.4-.6.8-3.2 1.9-5.8 2.8-8.7-.1-.7-.1-1.4-.2-2-.5-.3-.4.5-1 .3-.5-.7-1.1-.3-1.8-.6-.2.3-.1.8-.6.9s-.5-.8-.8-.4c-.5.1-.7.4-.7.9-.2 0-.1-.4-.2-.5-.6.4-1.2.9-1.1 1.8-.2.1-.6-.1-.4.3-1.5 1.8-1.7 3.9-2 6.8-.4 4-.8 8.6-1.5 12.3.6-5.1 1-10.4 1.6-15.5-1.3 2.1-2.6 4.5-3.9 6.9zm50.3-20.6c.5.6.5 1.4-.2 1.9.2 1 .5 1.5-.3 2 0 .6.2.8.3 1.4-1.1.6-.1 2.4-1.2 3 .6.9-.2 1.3-.6 1.9.5 1.1-.2 1.4-.7 2 0 .4.2.4.2.8 4.2-1.1 8.5-2.4 12.8-3.3.5-.4.7-.6 1.5-.5-.1-.3-.2-.7-.4-.9-.7-.1-.8.4-1.2.6 0-.6-.3-.8-.6-1-.6 0-.5.4-1 .4-.2-.2 0-.6-.2-.9-.5-.2-.8.1-1.4.1.1-.3.2-.7-.1-.9-.3-.4-.9.1-1.2 0-.1-.4.2-.5 0-.9-.3-.5-.8 0-1.3-.2.2-.3.2-.8 0-1.2-.2-.2-.8.1-1.1-.1.2-.3.4-.5.2-1.1-.2-.3-.9 0-1.1-.4.1-.3.6-.4.4-1-.1-.4-.6-.3-.9-.5 0-.5.6-.5.3-1.2-.4-.1-1.4-.4-2.2 0zm97.7-5.6c-.6-1.5-.7-3.6-2.1-4.2 0 2.3 1.1 3.2 2.1 4.2zm-92.6 6.2c.2-.5-.1-1.1-.8-.8.1.5.5.7.8.8zm2.2.2c.4-.2.7-.5.6-1.1-.4.1-.8.1-1 0-.3.4.2.8.4 1.1zm81.4-7.4c.5-.3 1-1.2.6-1.8-.4.4-.5 1.1-.6 1.8zm-1.1 6.6c-.8 5.4-2 11.5-2.5 16.5 1.8.5 3.9.6 6.1.7-.2-7.8-1.1-16.7-1.8-24.5-1.2 1.9-1.3 4.6-1.8 7.3zm10.8 16.5c2-.1 4.1-1 5.9-1.8-.9-3-1.9-6.4-3.1-9.7-1.5-4.3-2.8-9.8-5.4-12.4 1.1 8 1.3 16.3 2.6 23.9zm-87.1-14.5c.5.5 2.4.5 2.9-.2-.4-.8-2.4-.5-2.9.2zm-58.2 6.7c.5-.2.7.1 1.1.1.1-.4.2-.7.1-1.2-.6-.1-.9.8-1.2 1.1zm13 1.4c.8 2.8 1.7 3.7 3.2 5.6 1 1.1 1.8 2.3 2.7 2.9 1.9-.7 3.9-.8 5.6-1.3-3.9-3.7-7.9-7.4-12.1-10.8-.2 1.2.3 2.3.6 3.6zm40.5-5.8c.2.9.6 1.5 1.6 1.3-.3-1-.8-2.1-1.7-1.9-.1-.3.2-.3.2-.5-.5-.3-1-.6-1.6-.8-.5 1.1.8 1.6 1.5 1.9zm3.3-1c0 .3.4.2.4.5.7-.3 1.6.4 2.5.3 1.1 0 2.2-.5 2.9-.8-.1-.4-.4-.6-.7-.7.1.3 0 .6-.1.7-.3-.1-.3-.6-.8-.5h-.4c-.2.2-.1.7-.4.9-.3 0-.2-.7-.5-.8-.9-.2-.8.8-1.3.6.1-.4 0-.4-.1-.8-.7-.1-1.5.3-1.5.6zm-43.5 8.6c-.4-1.4-.6-3-1.3-4-1.1 1.6.3 3.1 1.3 4zm51.8-8.4c-.1.3.6.4.3.5-.3.1-.3-.3-.7-.2-.1.5-.6.6-.4 1.3.2.2.7 0 1 0-.2-1.5 2.1-1.1 1.8-2.7-.7.2-1.4.5-2 1.1zm60.7 11.2c1.7 1 3.7 1.5 5.8 1.8 1.4-6.7 2.2-13.9 3.4-20.8 0-.1-.1-.1-.2-.1-2.9 6.5-6.3 12.5-9 19.1zm-73-9.5c.5 0 .6-.2.5-.7-.6-.4-1 .3-.5.7zm-51.9 6.8c.5-.6 1-1.3 1.2-2.2-.3 0-.6.1-.9.1-.2.7-.2 1.4-.3 2.1zm65-7c.4 0 .7-.2.6-.5-.3-.7-1.2 0-.6.5zm-8.3 1.1c0-.3 0-.7-.2-.8-.2 0-.4 0-.6.1.2.3.4.6.8.7zm-45.7 10c0 .4.2 1.2.6 1.4-.4.3-.6.7-.3 1.4-.1.2-.7 0-.5.4 1 .7 2.8 0 3.8-.4-1.1-3.2-1.5-7.2-4-8.7.1 2-2 5.2.4 5.9zm46-9.7c.9.2 1.9.2 3.1 0-.1-.3-.3-.5-.4-.8-.9-.1-.8.5-1.3.7-.2-.2 0-.3-.1-.6-.5-.3-1.3 0-1.3.7zm3.2-.1c.5-.1.9-.4 1.1-.8-.2-.1-.5-.1-.8 0 0 .3-.2.5-.3.8zm-53.2 9.3c1.8.4 1.6-2.8 1.4-3.7-.6 1.2-.7 2.6-1.4 3.7zm51.1-6.6c.5-.1.5-.3 1-.2 0-.7-1.3-.4-1 .2zM239.6 274c1-.5 1.7-.2 2.6-.6-1.3-1.9-2.8-3.6-4.2-5.2.4 2 1.1 3.9 1.6 5.8zm-5.4-.6c-.6 0-1-.3-1.4-.4-.1.8 1.1.9 1.4.4zm15.4-.7c1.2 1.2 2.3 2.4 3.7 3.3 1.5-1.5 2.9-2.9 3.9-4.8-2.8.4-4.9 1.1-7.6 1.5zm-.5 0c0 .1-.1.2-.2.3-2.2.1-3.5.8-5.8.9 1.6 2.2 3.2 4.4 5.1 6.2 1.4-1.1 3.6-2.2 4.6-3.9-1.1-1.4-2.4-2.4-3.7-3.5zm-9.3 1.9c.4 1.5 1.1 3.3 1.3 4.6-.7-1.2-.9-3-1.5-4.4-2 .1-2.9.6-4.7.7.2 2.8.7 6.5 1.2 9.3 2.1-.1 4.3-.9 6-1.7-.1-1.4-1-2.4-.8-3.6.5 1 .8 2.7 1.2 3.5 2.1-.8 4.1-1.5 5.4-3-1.6-2.1-3.2-4.2-5-6.1-1.1.4-1.9.6-3.1.7z"/></g></g><path id="XMLID_1_" fill="none" stroke="#fff" stroke-width="4.338" d="M10.3 11.9H585v818H10.3z"/></svg>