<svg id="Layer_1" xmlns="http://www.w3.org/2000/svg" xmlns:xlink="http://www.w3.org/1999/xlink" viewBox="-99 223.7 395.2 395.2"><style>.st1{fill:#e71c23}.st2{fill:#231f20}.st3{fill:#fff}.st16{fill:#f58e7f}</style><path class="st1" d="M-99 223.7h395.2v395.2H-99z"/><path class="st2" d="M70.7 436.6c1.2 4.4.1 8.7 9.6 8.3 2.5-.1 6-2.4 6.5-2.8.2-.2 3.8-3.6 4-3.8 3.6-3.6 7.6-7.6 9.9-9.3 1.4-1.1 2.8-1.2 6.4 0 .2.1 2.4.9 3.9 1.4.1.1 3.6 2.4 6.7 2 1.6-.2 3.1-1.1 4.3-2 1.2-.8 4.9-.4 5.4-.2 2.1.7 3.5-.5 3.5-3.8 0-2.3-.7-9.9-.5-14.3.1-1.4-4.2.6-2.8.2 6.8-2 24.3-10.1 34.5-23.9 6.8-9.3 11.9-21.9 8.9-37.4-3.3-17.2-16.1-30.2-32.3-37.1 4.9-2.3 5.9-8.5 5.1-10.3-.2-.4-.4-.5-.8-.3-.9.4-2.5 1-4.3 1.1-7.1.3-9-6.9-18.4-9.5-4.6-1.3-10.9-.7-16.1 2.9 1.2-2.8 3.8-4.5 6.3-5.4 3-1.1 4.9-.9 5.7-1.2 1.4-.4.1-2-2.2-2.6-2.5-.7-6.6-1.1-11.2.5-5.5 2-11.3 6-13.3 15.7-10.1-6.9-19.3-10.6-27.4-11.2-11.9-.7-17.8 5.7-19.3 9.7-1.2.4-2.4.8-3.5 1.2-12.9 5.4-11.3 16.6-10.9 18.3-3.8 3.4-5 8.3-4.3 13.5-13 12.5-21.4 29.3-21.5 45.2 0 30.8 27.1 48.5 65 47.8 0 0 .6 4.7-.1 5.9.9.4 2.9.3 3.2 1.4z"/><path class="st3" d="M66.7 410.4c.5-.6 1.2-.9 2-1.2.7-.3 1.6-.4 2.6-.4 2.8 0 6.7.9 13.5 3 3.5 1.1 12.4 3.9 12.5 4 2.1.5 2.7.5 4.1-.4 3.5-2.3 15.5-10.6 19.5-13.3 2.5-1.7 4.5-2.9 6.1-2.9 1.4 0 2.2.4 2.7 1 .8.9.9 2.2.8 3.3 0 .4-.1 3.3-.1 4.1 0-.1 8.6-4.2 15.5-9.7 13.5-10.8 24-26.1 20.3-46.6-4.8-26.6-32.8-43.2-72.1-40.6-2.2.1-4.4.4-6.7.7-18.8 2.2-34.5 8.6-46.9 17.2.7 1.5 3 5.6 4.1 7.2 1 1.4.5 2-.4 2-4.6-.1-8.4-2.8-9.8-4.4C16 348.7 7 369.3 9.4 386.7c3 20.8 18.9 33.7 42.9 37.8 4.9.8 10.9 1.4 14.8 1.4-.4-5.2-.9-9.3-1.2-11.2-.2-2 0-3.4.8-4.3z"/><path class="st1" d="M123.9 405.9c-4.4 2.9-13.6 8.8-18.2 11.3s-3.7 2.7-10.7 1c-3-.7-16.6-3.7-18.3-4-3.1-.4-4.1-.1-3.8 1.2.1 1.2.4 3 .6 5.2.2 2 .5 6.3.7 10.4.1 1.6.1 3.3.1 4.6 0 2.2-.1 4.2.7 5.2.3.4.7.6 1.2.7 2.2.4 5.6-2.8 7.9-4.8 3.6-3.2 8.6-7.5 11.4-9.8 3.9-3.2 5.8-4.3 7.2-4.6.1 0 1.1-.3 4.3.5 1.8.4 4.1 1.1 6.4 1.7 5.7 1.6 10 2.9 11.7 2.5 2-.5 1.4-3.2 1.2-5.4-.1-1.7-.4-4.1-.5-6.5-.1-4 .1-8.3.1-8.7-.1-1.4-.8-1.2-2-.5z"/><linearGradient id="SVGID_1_" gradientUnits="userSpaceOnUse" x1="93.629" y1="116.312" x2="155.127" y2="116.312" gradientTransform="matrix(.6691 0 0 -.6691 -16.458 381.558)"><stop offset=".01" stop-color="#ffec00"/><stop offset=".49" stop-color="#ffec00"/><stop offset=".578" stop-color="#ffe500"/><stop offset=".696" stop-color="#ffdf00"/><stop offset=".853" stop-color="#ffcd03"/><stop offset=".99" stop-color="#ffd600"/></linearGradient><path d="M46.2 307.9l.4 2.2s-.1-6.2 6.4-8.3c2.8-.9 6.6-.6 10.6-.1 1.5.2 6.7 1.4 10.8 3.3 3.5 1.6 6.2 3.2 7 3.7.6-.1 3.5-.6 5.8-.9-8.8-7.1-19.1-10.4-27.2-10.4-8.1 0-14.2 3.7-13.8 10.5z" fill="url(#SVGID_1_)"/><linearGradient id="SVGID_2_" gradientUnits="userSpaceOnUse" x1="31.43" y1="523.351" x2="78.72" y2="523.351" gradientTransform="matrix(1 0 0 -1 0 843.27)"><stop offset=".07" stop-color="#ffec00"/><stop offset=".491" stop-color="#ffec00"/><stop offset=".569" stop-color="#ffe500"/><stop offset=".672" stop-color="#ffdf00"/><stop offset=".81" stop-color="#ffcd03"/><stop offset=".93" stop-color="#ffd600"/></linearGradient><path d="M41.3 307.9C26.7 315 31.2 327 36.4 332c1.8 1.7 4 3.1 6.4 3.9-1.5-1.6-3-3.5-4.2-5.5-5-8.4-1.9-15.6 2.8-17.7-4.1 3.6-4.3 9.4-2.7 12.5 7.8-5.4 20-10.7 28.5-13.1.5-.1.9-.2 1.3-.3.1 0-3.7-1.6-5.5-2.2-3.2-1-7.5-1.7-7.3-1.7 1.5-.1 5.4.1 8.8.8 2.4.4 4.7 1.2 5.4 1.4.7.3 1.7.7 1.8.7.7-.1 1.2-.3 1.7-.4 4.4-1 5.3-1.2 5.3-1.2-6.3-3.4-13.4-5.3-20.5-5.3-5.7.1-11.5 1.3-16.9 4z" fill="url(#SVGID_2_)"/><linearGradient id="SVGID_3_" gradientUnits="userSpaceOnUse" x1="164.543" y1="123.996" x2="194.184" y2="123.996" gradientTransform="matrix(.6691 0 0 -.6691 -16.458 381.558)"><stop offset=".01" stop-color="#ffec00"/><stop offset=".49" stop-color="#ffec00"/><stop offset=".578" stop-color="#ffe500"/><stop offset=".696" stop-color="#ffdf00"/><stop offset=".853" stop-color="#ffcd03"/><stop offset=".99" stop-color="#ffd600"/></linearGradient><path d="M93.6 307.2c.9-.1 4.3-.2 4.3-.2 0-.1.1-.6.1-.7.1-3.3 1.3-6.5 2.7-8.8 4.3-6.9 11.5-7.2 12.4-7.3.3 0 .7-.1 0-.1-.5-.1-.9-.1-1.4-.1-8.4 0-17.1 5.9-18.1 17.2z" fill="url(#SVGID_3_)"/><linearGradient id="SVGID_4_" gradientUnits="userSpaceOnUse" x1="173.959" y1="114.364" x2="236.409" y2="114.364" gradientTransform="matrix(.6691 0 0 -.6691 -16.458 381.558)"><stop offset=".01" stop-color="#ffec00"/><stop offset=".49" stop-color="#ffec00"/><stop offset=".578" stop-color="#ffe500"/><stop offset=".696" stop-color="#ffdf00"/><stop offset=".853" stop-color="#ffcd03"/><stop offset=".99" stop-color="#ffd600"/></linearGradient><path d="M111.9 297.6c-3.5.5-7.2 2-9.7 5.1-1.6 2-2.2 4.1-2.2 4.3 0 0 3.3.1 3.4 0 5.9-6.8 16.7-5.4 19.5-3.3-9.2-2-13.9 1.4-16 3.4 1.7.1 4.1.3 6.7.5 3.3.4 6.8.9 11.2 1.9.7.1 2.2.5 3.7.9 3.5 1 7.5 2.4 7.5 2.4s.8-.2 1.7-.8c1.5-.9 3.7-2.8 4.2-5.8-.1.1-1.3 1.1-4.5.9-3.9-.3-5.5-1.6-7.1-3.2-2.3-2.2-8-6.4-15.5-6.4h-.1c-.9-.1-1.9-.1-2.8.1z" fill="url(#SVGID_4_)"/><linearGradient id="SVGID_5_" gradientUnits="userSpaceOnUse" x1="64.807" y1="76.744" x2="72.448" y2="76.744" gradientTransform="matrix(.6691 0 0 -.6691 -16.458 381.558)"><stop offset=".01" stop-color="#ffec00"/><stop offset=".49" stop-color="#ffec00"/><stop offset=".578" stop-color="#ffe500"/><stop offset=".696" stop-color="#ffdf00"/><stop offset=".853" stop-color="#ffcd03"/><stop offset=".99" stop-color="#ffd600"/></linearGradient><path d="M26.9 334c0 .2 3-2.5 5.1-4.2-.8-.8-1.7-2.3-2-3.4-2.4 2-3.2 4.9-3.1 7.6z" fill="url(#SVGID_5_)"/><linearGradient id="SVGID_6_" gradientUnits="userSpaceOnUse" x1="31.456" y1="524.993" x2="59.679" y2="524.993" gradientTransform="matrix(1 0 0 -1 0 843.27)"><stop offset=".01" stop-color="#ffec00"/><stop offset=".49" stop-color="#ffec00"/><stop offset=".578" stop-color="#ffe500"/><stop offset=".696" stop-color="#ffdf00"/><stop offset=".853" stop-color="#ffcd03"/><stop offset=".99" stop-color="#ffd600"/></linearGradient><path d="M43.7 308.3c5.7-3 13.6-4.1 15.9-4.3-5.8-.2-11.5.9-16.1 2.9-2.4 1-4.7 2.2-6.5 3.6-9.9 7.6-4.3 18.5.1 22.2-6-7.7-6.5-17.5 6.6-24.4z" fill="url(#SVGID_6_)"/><linearGradient id="SVGID_7_" gradientUnits="userSpaceOnUse" x1="99.938" y1="541.115" x2="124.041" y2="541.115" gradientTransform="matrix(1 0 0 -1 0 843.27)"><stop offset=".05" stop-color="#ffec00"/><stop offset=".491" stop-color="#ffec00"/><stop offset=".572" stop-color="#ffe500"/><stop offset=".68" stop-color="#ffdf00"/><stop offset=".824" stop-color="#ffcd03"/><stop offset=".95" stop-color="#ffd600"/></linearGradient><path d="M113.6 299.1c4.6-.7 8.3.1 10.4.5-2.7-1.3-6.4-2.5-10.7-2.2-4.5.3-9.1 2.1-11.7 5.9-.6.9-1 1.8-1.4 2.9 0 .1-.1.6-.2.7h1.8c.5-1.1 3.4-6.5 11.8-7.8z" fill="url(#SVGID_7_)"/><linearGradient id="SVGID_8_" gradientUnits="userSpaceOnUse" x1="127.438" y1="533.851" x2="141.75" y2="533.851" gradientTransform="matrix(1 0 0 -1 0 843.27)"><stop offset=".05" stop-color="#ffec00"/><stop offset=".491" stop-color="#ffec00"/><stop offset=".572" stop-color="#ffe500"/><stop offset=".68" stop-color="#ffdf00"/><stop offset=".824" stop-color="#ffcd03"/><stop offset=".95" stop-color="#ffd600"/></linearGradient><path d="M132.1 311.5c1.8.6 3.7 1.2 3.8 1.2 2.4-.7 5.5-3.5 5.9-6.6 0 0-3.8 5.4-14.3 4 0 0 .6.1 1.2.3.1.1 1.7.5 3.4 1.1z" fill="url(#SVGID_8_)"/><path class="st2" d="M75.5 331.6c.6 4.3-1.4 8-4.4 8-3 .1-6.2-3.4-6.7-7.8-.6-4.4 1.6-7.9 4.6-8 3.1.1 6 3.5 6.5 7.8zm46.3-5.3c.3 3.8-1.6 6.7-4.2 6.5-2.7-.2-5.2-3.6-5.5-7.5-.3-3.8 1.7-6.7 4.3-6.4 2.7.2 5.1 3.5 5.4 7.4z"/><path class="st3" d="M72.6 330c.3 1.3-.2 2.4-1.2 2.4-.9.1-1.9-1-2.2-2.3-.3-1.3.2-2.4 1.2-2.5.9 0 1.9 1.1 2.2 2.4zm46.5-6.4c.1 1.2-.4 2.1-1.2 2-.8 0-1.6-1-1.7-2.2-.1-1.2.4-2.1 1.2-2 .7 0 1.5 1 1.7 2.2z"/><linearGradient id="SVGID_9_" gradientUnits="userSpaceOnUse" x1="150.778" y1="-73.337" x2="170.549" y2="-65.747" gradientTransform="matrix(.6691 0 0 -.6691 -16.458 381.558)"><stop offset=".13" stop-color="#e71c23"/><stop offset=".87" stop-color="#b31217"/></linearGradient><path d="M82.8 431.8c-2.5 3.1-1.5 3.8.3 1.9 2.6-2.8 12.7-10.4 18-11.4 0-.1-11 .6-18.3 9.5z" fill="url(#SVGID_9_)"/><linearGradient id="SVGID_10_" gradientUnits="userSpaceOnUse" x1="159.397" y1="-60.597" x2="174.924" y2="-58.691" gradientTransform="matrix(.6691 0 0 -.6691 -16.458 381.558)"><stop offset=".1" stop-color="#e71c23"/><stop offset=".9" stop-color="#b31217"/></linearGradient><path d="M92.3 420.8c-2.4.2-3.2 1.6-.4 1.2 4-.7 8.7 0 8.7 0-2.4-.9-4.9-1.2-6.8-1.2-.5-.1-1.1-.1-1.5 0z" fill="url(#SVGID_10_)"/><linearGradient id="SVGID_11_" gradientUnits="userSpaceOnUse" x1="181.644" y1="-62.507" x2="211.301" y2="-62.507" gradientTransform="matrix(.6691 0 0 -.6691 -16.458 381.558)"><stop offset="0" stop-color="#e71c23"/><stop offset="1" stop-color="#b31217"/></linearGradient><path d="M105.1 421.8zm0 0zm0 0c.1 0 3-.5 11.9 2.3 3.8 1.2 8 2.6 7.9-1.4 0 0-1.9 1.2-7.7-.4-2.9-.8-5.4-1-7.3-1-2.1.1-3.7.3-4.8.5z" fill="url(#SVGID_11_)"/><linearGradient id="SVGID_12_" gradientUnits="userSpaceOnUse" x1="134.557" y1="-70.398" x2="147.194" y2="-70.398" gradientTransform="matrix(.6691 0 0 -.6691 -16.458 381.558)"><stop offset="0" stop-color="#f26841"/><stop offset="1" stop-color="#e71c23"/></linearGradient><path d="M74.9 429.1c.4 6.6-.7 10.4 1.4 11.2 1.9.8 3.8-1.6 5.7-2.9-3.3.9-4.8-2.3-5.4-9.8-.6-7.2-3.1-10.7-3.1-10.7s.9 2.7 1.4 12.2z" fill="url(#SVGID_12_)"/><circle class="st16" cx="144.3" cy="339.3" r="8.6"/><circle class="st16" cx="59.7" cy="362.6" r="8.6"/><path d="M124.4 371.1c-2.6 3.8-7.6 8.6-16.3 9.6-.4.1-.9.1-1.2.1-11.8.8-22.2-6.2-26.3-13.4-2.2-4-2.5-7.9-.5-10.6 3.3-4.8 16.6-8.7 27.4-9.9 5.6-.7 18.9-1.4 20.6 5.1 1.6 5.9.2 13.4-3.7 19.1z" fill="#fddfc0"/><path class="st16" d="M106.7 378.5c-10.8.7-20.5-5.8-24.2-12.3-1.1-1.9-2.5-5.5-.6-8.3 2.5-3.6 14-7.6 25.8-8.9 10.2-1.2 17.3.2 18.2 3.4 1.4 5.4.1 12.2-3.3 17.3-2.5 3.7-7.4 8.3-15.9 8.8z"/><path d="M107.7 349.1c10.2-1.2 17.3.2 18.2 3.4.5 2 .7 4.1.5 6.2-5.4-2.6-11.4-4-17.5-3.6-9.7.6-19.2 5.8-24.4 14-.8-.9-1.4-1.9-2-2.8-1.1-1.9-2.5-5.5-.6-8.3 2.5-3.6 14.1-7.6 25.8-8.9z" fill="#f27769"/><path d="M124.4 371.1c3.8-5.6 5.3-13.2 3.6-19.2-1.7-6.4-15-5.7-20.6-5.1-10.8 1.2-24 5.1-27.4 9.9-2 2.8-1.7 6.7.5 10.6 4.1 7.2 14.5 14.2 26.3 13.4.4 0 .9-.1 1.2-.1 8.8-.9 13.8-5.7 16.4-9.5zm-1.9-1.3c-2.5 3.6-7.3 8.2-15.9 8.8-10.8.7-20.5-5.8-24.2-12.3-1.1-1.9-2.5-5.5-.6-8.3 2.5-3.6 14-7.6 25.8-8.9 10.2-1.2 17.3.2 18.2 3.4 1.5 5.4.2 12.2-3.3 17.3z" fill="#604c44"/><path d="M215.2 444.8c-.5-.4-1.1-.8-1.7-1.2-.8-.5-1.4-.9-2-1.1-.4-.2-.9-.4-1.4-.6l-5.8-.4-6.5.6c-.1 0-.1.1-.2.1-.4.1-.9.4-1.3.7-.2.1-.4.2-.7.4-.3.1-.6.4-.9.5-.1.1-.4.2-.5.4-.6.4-1.1.9-1.6 1.4-1.5-2.8-4.3-4.1-7-4.1-2.9 0-5.4 1.3-7.2 3.5-.7 1-1.7 2.6-3.3 7.1-2.4 6.5-5.1 11.6-8.3 15.1-.8.9-1.4 1.5-2 2.1.3-3.4 1.3-7.5 3-12.1 1.4-3.9 2.2-6.9 2.2-9.3 0-2.1-.8-4.1-2.2-5.9-1.7-2-4.1-3-6.7-3-3.7 0-6.7 2-8.4 5.4l-.6 1.2v.9c-.4-.5-.7-.9-1.1-1.4-3.5-4.3-8.3-6.6-13.9-6.6-7.9 0-14.6 3.9-19.9 11.7-1.5 2.2-2.8 4.3-3.8 6.5.1-3.4.3-6.4.4-8.7l-.4-5.2c-.2-.4-.4-.7-.7-.9 1.6-2.1 2.6-4.7 3-7.1.6-4.3-.9-6.6-2.3-7.7-2.1-1.7-4.6-1.3-5.9-.9-.7.2-1.4.5-2.1.9-1.2.7-2.4 1.5-3.8 2.6-1.7 1.3-3 1.7-3.7 1.9-.2.1-.4.1-.5.1h-.3c.3.1.7.3 1.2.6l-4.5 5.1c.1.1.1.1.3.2.4.3.7.9 1.2 1.7.2.4.5.9.8 1.4.2.4.4.7.7 1 1.2 1.7 2.5 2.8 4.1 3.6-.4.3-.8.6-1.2.8-1.3.9-1.4 2.1-1.4 3.8-.1.8-.1 2-.1 3.5 0 .4-.1.9-.1 1.4-.7-2.2-1.7-4.3-3.1-6.2-3.5-4.8-7.4-5.6-10.1-5.4-6.4.5-12.4 5.7-18.1 15.9-1.1 1.9-2 3.8-2.8 5.6-.5-4.9-1.3-7.8-2.9-10.1-1.8-2.8-4.9-4.6-8.8-5.1-.2 0-.4-.1-.7-.1-.1 0-.3 0-.4-.1-2.2-.2-4.5.2-6.7 1.2-.1.1-.2.1-.4.1l-.1.1c-.2.1-.4.1-.6.3-.3.1-.6.4-.7.4l-.2.1c-.2.1-.5.4-.9.6-.3.2-.6.4-.8.7l-.1.1c-.3.3-.6.6-.9.8l-.1.1-3.2 2.3-2-1.8-4.6 1.1c-.1.1-.3.1-.4.3l-.1.1c-.1.1-.1.1-.2.1-.2.1-.4.3-.7.5-.1.1-.2.1-.4.3-.1.1-.2.1-.3.3l-.1.1c-.2.1-.4.4-.6.5l-.1.1c-.1.1-.4.4-.5.6l-.8.4-.4-.4-2.1 1.7-.1.1-.2.2c-1.8 1.3-3.7 2.7-5.6 4.1-.1-1-.3-2-.6-2.9-1.7-6.9-5.8-9.6-8.8-10.6-1.4-.6-3.1-.9-4.8-.9-5.1 0-10 2.8-12.5 4.3-3.3 2.2-6.7 5.2-10.1 9-.4.4-.7.9-1.1 1.2-.7.9-1.2 2.3-.4 3.9.1.2.4 1.7.2 6.9-.2 4.6-.5 10.3-.7 16.5-.8 17.2-1.7 38.5-2.2 46.7v2.1c0 .1 0 .4.1.5 0 .1 0 .2.1.4s.1.4.1.7v.1c.1.5.4 1.3.9 2 .9 1.2 2.2 1.8 3.7 1.8.7 0 1.4-.1 2.2-.5 1.2-.6 2.4-1.4 3.7-2.5l.4-.3c2.2-1.7 5.2-4.1 5.2-4.1l1.3-1V536c0-1 0-4.3.1-5.5.1-3.5.5-9 .9-14.3.1-1.7.2-3.4.4-5 6.4-4.6 12.8-11.6 17.2-20.3l-1.2 24.8-.1 1.6 1.3 1.3 3 2 2-1.4c2.8-2 5.6-4.1 8.5-6l1.4-.9.1-1.7c.4-7.5.7-14.9 1.2-22.4.2-4 1.4-7.5 2.8-10.1v.4c-.1.7-.1 1.3-.1 1.9v1.7c0 2.7.1 5 .3 7.2v.2c.4 2.8.8 5.1.9 5.9l.1.4.1.5c1.5 4.6 2.3 6.9 3.5 7.9.4.5.9 1.1 1.4 1.6.7.8 1.5 1.6 2.2 2.3 3.5 3.2 8.4 4.2 13 2.8 3.2-1 7.2-3.6 9.8-5.9l4.8-3.6c2.6 1.7 5.7 2.6 9.2 2.6.5 0 1.1 0 1.6-.1 5.5-.4 10.9-2.8 16.1-7 1.9-1.5 3.4-3 4.6-4.3.4.4.9.7 1.4 1 .9.5 2 .7 3 .7.6 0 1.2-.1 1.8-.2 1-.2 2-.6 3-1.2 2.8-1.6 5.2-4.6 6.5-7.2 3.2 3.5 7.4 5.4 12.2 5.4 7 0 13.8-3.3 19.8-10 .7-.7 1.2-1.4 1.8-2.1.7 2.2 1.7 4.2 3 5.8 2.8 3.1 5.9 4.7 9.1 4.7 4.2 0 8.5-2 12.9-5.7.7-.5 1.2-1.2 1.8-1.7.1.4.3.8.4 1.2 1.7 4.1 4.1 5.9 6.2 6.7l.1.1c.9.6 2 .8 3.9 1.1.5.1 1.2.2 1.6.3l.4.1c.1.1.3.1.4.2 2.6 1.4 5.6 1.4 8.2 1.4 1 0 1.9.1 2.7.1.9.1 1.7.1 2.6.1 3.9 0 7.2-1.1 9.6-3.3 2.2-2 3.5-4.8 3.9-8.1.7-6.2-2.8-12.3-5.5-17.2-1.2-2.2-2.4-4.2-2.9-5.8-.5-1.6-.5-2.5-.4-2.8.1-.1.1-.2.2-.3.8-.4 2.5.1 3.6.8l3.4 2.1 1.8-4.4c.5-1.2 1.4-3.5 1.7-4.1l.1-.3.1-.3c.7-2.7-1-3.9-2.3-4.9zm-74.6 15.6c0 3.8-1.4 7.2-4.3 10.3-2.8 3-5.6 4.6-8.2 4.6-.7 0-1.4-.1-2.2-1.3-.7-1.1-1.1-2.5-1.1-4.3 0-3.4 1.2-7.1 3.4-10.9 3.2-5.4 6.2-5.4 7.3-5.4 1.5 0 2.7.6 3.5 1.7 1.1 1.4 1.6 3.1 1.6 5.3zm50.5 2.6c.1.1.1.2.1.4.1.1.1.2.1.3l.3.6c.5.9 1.2 2 1.9 3.3l.7 1c1.9 3 4 6.4 4.4 8.5v.2c0 .1.1.4.1.4v.5c0 .1 0 .1-.1.2 0 .1-.1.1-.1.2s-.1.1-.1.1l-.1.1h-.4c-.4 0-.9 0-1.4-.1-.4-.1-1.4-.4-3-1.4-.7-1-1.5-1.8-1.9-2.2-.1-.2-1-1.7-1-7 .1-1.6.3-3.4.5-5.1zM55.4 489.6c-2.8 3.3-4.6 4.3-5.4 4.7h-.4c-.3-.2-1.3-1.6-1.4-5.6 3.5-.6 6.6-1.2 10.1-2.2l-2.9 3.1zm4.2-3.7c0 .4.1.8.1 1.2l-.7-1c.2-.1.5-.1.6-.2zm37.7-20.2c-.2 3.9-.4 7.9-.6 11.4h-1c-2 .1-4.1 1.2-6.7 3.5-5.1 4.5-8.4 5.6-10.4 5.7-1.4.1-2.2-.1-2.5-.4-.1-.1-.4-.5-.4-1.7-.3-4 1-9.3 3.8-15.7 1.4-3.1 2.5-5.1 3.3-6.3 2.1 7.2 6.2 8 8.5 7.9 1.9 0 4.3-.9 6-4.4zM-3.5 485c.1-3.8.3-7.6.4-10.8.1-2.3.1-4.3.2-5.7.5-.5 1-.9 1.4-1.2.7 3.2.3 10.5-2 17.7z" fill="#231f20" stroke="#231f20" stroke-width="2.897" stroke-miterlimit="10"/><defs><path id="SVGID_13_" d="M100.4 438.4c1.1 1.6 3.2 3.6 6.5 3 3.4-.7 5.9-4.9 6.3-8.3.8-5.6-2.9-5.1-3.6-4.9-.5.1-1 .3-1.7.7-.9.5-2.1 1.4-3.3 2.3-2.1 1.6-3.8 2.2-5.1 2.5-.4.1-.7.1-.9.1h-.1c-.9 0-1.4-.1-1.4-.1 1.2 1 1.8 2.5 2.8 3.9.1.3.3.5.5.8z"/></defs><clipPath id="SVGID_14_"><use xlink:href="#SVGID_13_" overflow="visible"/></clipPath><linearGradient id="SVGID_15_" gradientUnits="userSpaceOnUse" x1="-29.4" y1="368.812" x2="227.176" y2="368.812" gradientTransform="matrix(1 0 0 -1 0 843.27)"><stop offset=".01" stop-color="#ffec00"/><stop offset=".49" stop-color="#ffec00"/><stop offset=".578" stop-color="#ffe500"/><stop offset=".696" stop-color="#ffdf00"/><stop offset=".853" stop-color="#ffcd03"/><stop offset=".99" stop-color="#ffd600"/></linearGradient><path clip-path="url(#SVGID_14_)" fill="url(#SVGID_15_)" d="M-29.4 403.5h256.6v141.9H-29.4z"/><defs><path id="SVGID_16_" d="M113.3 476c-.3.2-.7.4-.7.6l-.1.1-.1.1c-.2.1-.4.3-.4.4-.5.4-1.2.9-1.6 1.1-.1.1-.3.1-.4.1-.1-.5-.1-1.2-.1-1.7.1-4.1 1.6-33.3 1.6-33.3s-.4-.7-.7-.6c-.1.1-.3.1-.4.3-1.4.8-6.1 3.5-7.7 4.6-.1.1-1.2 26.6-1.8 36.2v1.5c.1 1.4.7 3.1 2 3.8.7.4 1.5.4 2.6.2.7-.1 1.3-.4 2-.8 3.3-2 5.6-6.2 5.7-7.5.1-1.7.2-4.4.2-4.9 0-.3.1-.3-.1-.2z"/></defs><clipPath id="SVGID_17_"><use xlink:href="#SVGID_16_" overflow="visible"/></clipPath><linearGradient id="SVGID_18_" gradientUnits="userSpaceOnUse" x1="-29.4" y1="368.812" x2="227.176" y2="368.812" gradientTransform="matrix(1 0 0 -1 0 843.27)"><stop offset=".01" stop-color="#ffec00"/><stop offset=".49" stop-color="#ffec00"/><stop offset=".578" stop-color="#ffe500"/><stop offset=".696" stop-color="#ffdf00"/><stop offset=".853" stop-color="#ffcd03"/><stop offset=".99" stop-color="#ffd600"/></linearGradient><path clip-path="url(#SVGID_17_)" fill="url(#SVGID_18_)" d="M-29.4 403.5h256.6v141.9H-29.4z"/><defs><path id="SVGID_19_" d="M34.9 456.7c-.1-.1-.2-.1-.3-.1-.3 0-1 .2-1.9.7-.1.1-.2.1-.3.2-.1 0-.1.1-.1.1-.1.1-.3.2-.4.4-.1.1-.1.1-.3.2l-.2.2-.4.4c-.2.2-.4.4-.6.7-.1.1-.1.2-.2.3-.4.6-.8 1.2-1.2 1.7 0 .1-.1.1-.1.1 0 .1-.1.1-.1.1-.3.5-.6 1-.8 1.6-.1.1-.1.2-.1.3-.2.5-.4.9-.6 1.5-.1.1-.1.3-.1.4-.1.5-.3 1.1-.4 1.7.1-1.7.3-3.4.4-5.1-.2-.1-.5-.4-.7-.5-2.8 2-5.5 4-8.3 6.1-.1 3.5-.4 8-.5 10.4-.6 12.1-1.2 24.3-1.7 36.4.2.1.5.4.7.5 2.8-2.1 5.7-4.1 8.5-6.1.4-7.5.7-14.9 1.2-22.4.5-9.4 5.6-16.6 8.4-18.4 0 0 .1-.8.1-2.1.1-2.2.7-7.2.8-8.9-.2.1-.6-.2-.8-.4z"/></defs><clipPath id="SVGID_20_"><use xlink:href="#SVGID_19_" overflow="visible"/></clipPath><linearGradient id="SVGID_21_" gradientUnits="userSpaceOnUse" x1="-29.4" y1="368.812" x2="227.176" y2="368.812" gradientTransform="matrix(1 0 0 -1 0 843.27)"><stop offset=".01" stop-color="#ffec00"/><stop offset=".49" stop-color="#ffec00"/><stop offset=".578" stop-color="#ffe500"/><stop offset=".696" stop-color="#ffdf00"/><stop offset=".853" stop-color="#ffcd03"/><stop offset=".99" stop-color="#ffd600"/></linearGradient><path clip-path="url(#SVGID_20_)" fill="url(#SVGID_21_)" d="M-29.4 403.5h256.6v141.9H-29.4z"/><defs><path id="SVGID_22_" d="M8 452.8c-1.2-.4-2.4-.7-3.6-.7-4.1 0-8.2 2.2-10.6 3.8-3.6 2.4-7 5.6-9.5 8.5-.4.4-.7.8-1 1.2-.1.1 1 .4.6 8.7-.8 17.5-2.3 52.1-3 63.3v2.2c0 .1.1.2.1.3.1.3.1.6.4.8.4.4.9.7 1.7.4.9-.4 2-1.3 3.4-2.4 2.2-1.7 5.2-4.1 5.2-4.1 0-.7 0-4.3.1-5.7.2-5.1.9-14.1 1.4-21 11.9-8 22.4-22.9 22.4-40.8 0-2.2-.2-4.3-.7-6.2-1.4-4.6-3.7-7.3-6.9-8.3zm-8.1 35.1c-.2.7-.5 1.2-.8 1.8-.1.3-.3.6-.4.9-.1.2-.2.5-.4.7-.1.3-.3.5-.4.7-.1.2-.3.5-.4.7-.1.2-.3.4-.4.6-.1.2-.3.4-.5.7-.1.1-.1.1-.1.2-.2.3-.4.5-.7.8-.1.1-.2.2-.3.4-.1.1-.3.3-.4.5l-.4.4-.1.1c-.2.2-.5.5-.8.7.4-6.4 1-26.7 1.2-31.1 1.9-2.1 4.1-3.6 5.7-3.6.4 0 .7.1.9.2 3 3.3 2 16-1.7 25.3z"/></defs><clipPath id="SVGID_23_"><use xlink:href="#SVGID_22_" overflow="visible"/></clipPath><linearGradient id="SVGID_24_" gradientUnits="userSpaceOnUse" x1="-29.4" y1="368.812" x2="227.176" y2="368.812" gradientTransform="matrix(1 0 0 -1 0 843.27)"><stop offset=".01" stop-color="#ffec00"/><stop offset=".49" stop-color="#ffec00"/><stop offset=".578" stop-color="#ffe500"/><stop offset=".696" stop-color="#ffdf00"/><stop offset=".853" stop-color="#ffcd03"/><stop offset=".99" stop-color="#ffd600"/></linearGradient><path clip-path="url(#SVGID_23_)" fill="url(#SVGID_24_)" d="M-29.4 403.5h256.6v141.9H-29.4z"/><defs><path id="SVGID_25_" d="M59.2 490.7c-.8.9-4 4.8-7.2 5.9-.5.1-1.1.2-1.8.1-2.2-.3-4.3-3-4.4-9.5v-2.5c5.6-.7 9.6-1.7 14.4-3.1.7-2.8 2-10.5 1.3-17.2-.4-4.4-1.1-7.1-2.4-9.1-1.6-2.5-4.3-3.3-6.4-3.6h-.5c-.1 0-.3-.1-.4-.1-1.4-.1-3.3.1-5.1.9-.1.1-.2.1-.3.1-.1.1-.4.1-.5.2-.2.1-.4.3-.6.4-.2.1-.5.3-.7.5-.2.1-.4.4-.7.6l-.7.7-.6.6c-.2.3-.5.6-.7.9-.1.2-.3.4-.4.6-.4.5-.7 1.1-1 1.7l-.3.6c-.2.4-.4.9-.7 1.4-.1.2-.2.5-.3.7-.2.5-.4.9-.6 1.4-.1.2-.1.4-.2.7-.3.7-.5 1.4-.7 2.2v.1c-.2.7-.4 1.5-.6 2.2-.1.2-.1.5-.1.7-.1.6-.2 1.2-.4 1.7-.1.3-.1.5-.1.8-.1.7-.2 1.3-.3 2 0 .2-.1.4-.1.6-.1.9-.2 1.7-.3 2.5 0 .3 0 .5-.1.8-.1.6-.1 1.2-.1 1.8v1.6c0 2.6.1 4.9.2 6.9.5 3.3.9 6.1.9 6.2 0 0 2.2 6.8 2.5 6.3.4.7 1 1.3 1.7 2s1.4 1.5 2 2.1c2.5 2.2 6.1 3.2 9.7 2 2.8-.9 6.8-3.5 9.1-5.6.1.1 1.5-2 1.5-1.9l-4-7.9zm-11.7-23.8c1.2-3.6 3-5.1 4.2-4.5.1.1.1.2.2.4 0 .1.1.1.1.2.1.1.1.4.1.6 0 .1.1.2.1.4.1.2.1.4.1.6 0 .1.1.2.1.4.3 2.8.2 6.6-.6 10.9 0 .1-.1.3-.1.4 0 0-3.1 1.3-6.5 1.5.3-3.2 1.1-7.6 2.3-10.9z"/></defs><clipPath id="SVGID_26_"><use xlink:href="#SVGID_25_" overflow="visible"/></clipPath><linearGradient id="SVGID_27_" gradientUnits="userSpaceOnUse" x1="-29.4" y1="368.812" x2="227.176" y2="368.812" gradientTransform="matrix(1 0 0 -1 0 843.27)"><stop offset=".01" stop-color="#ffec00"/><stop offset=".49" stop-color="#ffec00"/><stop offset=".578" stop-color="#ffe500"/><stop offset=".696" stop-color="#ffdf00"/><stop offset=".853" stop-color="#ffcd03"/><stop offset=".99" stop-color="#ffd600"/></linearGradient><path clip-path="url(#SVGID_26_)" fill="url(#SVGID_27_)" d="M-29.4 403.5h256.6v141.9H-29.4z"/><defs><path id="SVGID_28_" d="M206.4 451.5c3-1.7 6.8.7 7 .9.1-.3 1.7-4.1 2-4.8 0 0-.5-.5-1.3-1.1-.4-.3-.9-.7-1.4-1s-1.1-.7-1.6-.9c-1.7-.7-3.6-1.3-5.9-1.4-2 0-3.8.3-5.3.9h.1s-.1 0-.1.1c-.4.1-.7.4-1.1.5-.1.1-.4.2-.5.3-.2.1-.4.3-.7.4-.1.1-.3.1-.4.2-.9.7-1.6 1.4-2.2 2.2-.1.1-.3.4-.4.5-.1.3-.3.6-.4.8-.1.3-.3.5-.4.8-.1.2-.1.5-.2.8-.1.4-.2.7-.2 1-.1.2-.1.5-.1.7 0 .4-.1.8-.1 1.2 0 .2.1.5.1.7.1.4.1.9.2 1.4.1.2.1.4.1.7.1.5.3 1 .4 1.5.1.2.1.4.3.7.1.3.1.5.3.8.1.3.3.7.5.9.1.1.1.2.1.3.1.1.1.3.2.4.1.1.1.3.2.4.6 1 1.2 2 1.8 3.1 2.2 3.7 4.9 7.7 5.5 10.6 0 .1.1.1.1.2v.2c.1.3.1.6.1.9v1.1c-.1.3-.1.6-.2.9v.1c-.1.4-.3.7-.4.9-.1.1-.2.3-.4.4l-.1.1-.1.1c-.3.2-.7.5-1.2.7h-.1c-.1.1-.3.1-.5.1-.1 0-.1.1-.3.1-.1 0-.4 0-.5.1-.7 0-1.4 0-2.4-.2-2-.5-4.5-2-6.4-3.5-1.5-1.2-2.5-2.2-2.6-2.2 0 0-.1 0-.1.1-.5-.4-.8-.7-.8-.7l-2 10.7c.7.4 4.3.7 5.1 1.1.1.1.2.1.4.2.1.1.4.2.5.3 2.8 1.4 6.8.9 9.6 1.2 4.3.5 7.7-.5 9.6-2.2 1.7-1.6 2.5-3.8 2.8-5.9.9-7.6-6.4-15.9-8.3-21.5-.7-2.1-.9-4.1-.1-5.5.6-.4 1.1-1 1.8-1.4z"/></defs><clipPath id="SVGID_29_"><use xlink:href="#SVGID_28_" overflow="visible"/></clipPath><linearGradient id="SVGID_30_" gradientUnits="userSpaceOnUse" x1="-35.121" y1="368.015" x2="228.262" y2="368.015" gradientTransform="matrix(1 0 0 -1 0 843.27)"><stop offset=".01" stop-color="#ffec00"/><stop offset=".49" stop-color="#ffec00"/><stop offset=".578" stop-color="#ffe500"/><stop offset=".696" stop-color="#ffdf00"/><stop offset=".853" stop-color="#ffcd03"/><stop offset=".99" stop-color="#ffd600"/></linearGradient><path clip-path="url(#SVGID_29_)" fill="url(#SVGID_30_)" d="M-35.1 402.4h263.4V548H-35.1z"/><defs><path id="SVGID_31_" d="M78.9 499c-4.3.3-7.8-.8-10.4-3.4-2.5-2.5-4.1-6.3-4.4-11.1-.6-7.7 1.7-16.1 6.6-25 5.1-9.2 10.1-13.8 15.4-14.2 2.6-.2 5 1.2 7 3.9 1.9 2.6 3 5.5 3.2 8.6.1 2-.1 3.7-.8 5.2-.8 1.8-1.9 2.8-3.1 2.8-2.3.1-4.1-1.8-5.1-5.9-.9-3.3-1.7-4-2-4-1.2.1-3.8 1.5-7.7 10.4-3 7-4.4 12.8-4.1 17.4.2 2.6 1.1 5.6 6.5 5.2 3.5-.3 7.7-2.5 12.3-6.5 2-1.8 3.5-2.7 4.7-2.8 1.7-.1 2.9 1.1 3 3 .2 2.8-2 6-7 10.1-4.6 3.9-9.4 6-14.1 6.3z"/></defs><clipPath id="SVGID_32_"><use xlink:href="#SVGID_31_" overflow="visible"/></clipPath><linearGradient id="SVGID_33_" gradientUnits="userSpaceOnUse" x1="-19.551" y1="366.397" x2="237.096" y2="366.397" gradientTransform="matrix(.9972 -.07425 -.07425 -.9972 17.77 847.218)"><stop offset=".01" stop-color="#ffec00"/><stop offset=".49" stop-color="#ffec00"/><stop offset=".578" stop-color="#ffe500"/><stop offset=".696" stop-color="#ffdf00"/><stop offset=".853" stop-color="#ffcd03"/><stop offset=".99" stop-color="#ffd600"/></linearGradient><path clip-path="url(#SVGID_32_)" fill="url(#SVGID_33_)" d="M233 544.5l-256 19-11.9-160.4L221 384z"/><defs><path id="SVGID_34_" d="M186.3 485.6c-1.9 0-4.4-.9-6.2-5.2-.8-2-1.3-4.4-1.6-7.5-2 2.7-4.1 5-6.1 6.8-3.7 3.3-7.2 4.9-10.6 4.9-2.2 0-4.5-1.2-6.6-3.5-2-2.3-3.1-5.7-3.1-10.2 0-3.4.8-8.3 2.4-14.8 1.6-6.3 1.9-9.1 1.9-10.5v-.5l.2-.4c1.1-2.2 3-3.5 5.4-3.5 1.7 0 3.1.7 4.1 1.9.9 1.2 1.4 2.4 1.4 3.7 0 2-.7 4.6-2 8.1-2.2 5.9-3.3 10.9-3.3 15.1 0 3.3.7 3.8.7 3.8.9-.1 3.1-.7 7.4-5.4 3.5-3.8 6.5-9.3 9.1-16.2 1.5-4.2 2.3-5.6 2.8-6.2 1.1-1.4 2.6-2.2 4.4-2.2 2.2 0 4.7 1.4 4.7 5.5 0 .4-.1.9-.8 3.3-1.4 5.1-2.1 10-2.1 14.6 0 6.7 1.3 8.8 2.1 9.5.9.9 2.2 2.2 2.2 3.8 0 1.1-.4 2.6-2.6 3.8-1.3.9-2.6 1.3-3.8 1.3z"/></defs><clipPath id="SVGID_35_"><use xlink:href="#SVGID_34_" overflow="visible"/></clipPath><linearGradient id="SVGID_36_" gradientUnits="userSpaceOnUse" x1="-29.4" y1="368.812" x2="227.176" y2="368.812" gradientTransform="matrix(1 0 0 -1 0 843.27)"><stop offset=".01" stop-color="#ffec00"/><stop offset=".49" stop-color="#ffec00"/><stop offset=".578" stop-color="#ffe500"/><stop offset=".696" stop-color="#ffdf00"/><stop offset=".853" stop-color="#ffcd03"/><stop offset=".99" stop-color="#ffd600"/></linearGradient><path clip-path="url(#SVGID_35_)" fill="url(#SVGID_36_)" d="M-29.4 403.5h256.6v141.9H-29.4z"/><defs><path id="SVGID_37_" d="M149.3 445.9c-2.9-3.5-6.7-5.4-11.3-5.4-6.7 0-12.5 3.4-17.1 10.1-4.5 6.5-6.8 13.3-6.8 20 0 4.3 1.3 8 3.8 10.9 2.6 3 6 4.6 10 4.6 6.1 0 11.9-3 17.4-8.9 5.4-5.9 8.2-12.3 8.2-19.3-.1-4.5-1.5-8.6-4.2-12zm-9.5 26.2c-3.5 3.8-7.1 5.7-10.7 5.7-2.1 0-3.8-1-5.1-2.8-1.1-1.7-1.7-3.7-1.7-6.2 0-4.1 1.3-8.3 3.8-12.7 2.8-4.7 6.2-7.1 10.2-7.1 2.6 0 4.8 1.1 6.3 3.1 1.4 1.9 2.2 4.4 2.2 7.3.3 4.7-1.5 8.9-5 12.7z"/></defs><clipPath id="SVGID_38_"><use xlink:href="#SVGID_37_" overflow="visible"/></clipPath><linearGradient id="SVGID_39_" gradientUnits="userSpaceOnUse" x1="-29.4" y1="368.812" x2="227.176" y2="368.812" gradientTransform="matrix(1 0 0 -1 0 843.27)"><stop offset=".01" stop-color="#ffec00"/><stop offset=".49" stop-color="#ffec00"/><stop offset=".578" stop-color="#ffe500"/><stop offset=".696" stop-color="#ffdf00"/><stop offset=".853" stop-color="#ffcd03"/><stop offset=".99" stop-color="#ffd600"/></linearGradient><path clip-path="url(#SVGID_38_)" fill="url(#SVGID_39_)" d="M-29.4 403.5h256.6v141.9H-29.4z"/><path class="st2" d="M215.4 496.4c0-2.3 1.7-4.1 4-4.1s4 1.7 4 4.1c0 2.4-1.7 4.1-4 4.1-2.2 0-4-1.7-4-4.1zm4 4.9c2.7 0 5-2.1 5-4.9 0-2.8-2.3-4.9-5-4.9s-5 2.1-5 4.9c0 2.8 2.3 4.9 5 4.9zm-1-4.5h1l1.5 2.5h.9l-1.6-2.5c.8-.1 1.4-.6 1.4-1.6 0-1.1-.7-1.6-2-1.6h-2.2v5.6h.9v-2.4h.1zm0-.8v-1.7h1.2c.6 0 1.2.1 1.2.8 0 .9-.7.9-1.4.9h-1z"/><linearGradient id="SVGID_40_" gradientUnits="userSpaceOnUse" x1="77.054" y1="544.955" x2="100.662" y2="544.955" gradientTransform="matrix(1 0 0 -1 0 843.27)"><stop offset=".01" stop-color="#ffec00"/><stop offset=".49" stop-color="#ffec00"/><stop offset=".578" stop-color="#ffe500"/><stop offset=".696" stop-color="#ffdf00"/><stop offset=".853" stop-color="#ffcd03"/><stop offset=".99" stop-color="#ffd600"/></linearGradient><path d="M93.6 302.4s3.4 3.8 7 5.5l-7.6.4-1.7 1.2-2.5.1-5.2-.1s-1.7.5-6.6 1.2c5.5-5.4 10.1-13.1 6.9-19.6-2.5-4.9-6.1-5.1-6.1-5.1s7.6-.9 9.7 5.6c2.1 6.6 3.8 7.4 6.1 10.8z" fill="url(#SVGID_40_)" stroke="#231f20" stroke-width="2.172" stroke-miterlimit="10"/><path d="M88 293.7s1.6-5.2 6.1-7.3c4.4-2.2 9.2 11.4 7 14.5-2.2 3-9.9-.8-11.6-2-1.7-1.2-1.5-5.2-1.5-5.2zm-2.2.8s-7.7-5.6-14-4c-4.6 1.2 3.6 15.5 8 14.8 4.4-.7 6.2-5.6 6.2-5.6l-.2-5.2z" fill="#f4aeae" stroke="#231f20" stroke-width="2.172" stroke-miterlimit="10"/><path d="M83.7 294.5c.4-2.4 5.2-2 6.5-.3 1.3 1.8 2.4 5.4-2 7-4.2 1.4-4.9-3.4-4.5-6.7z" fill="#ffc2c2" stroke="#231f20" stroke-width="2.172" stroke-miterlimit="10"/><path d="M65.8 359.9c0 5.1-4.1 9.1-9.1 9.1h-.5c1.2.9 2.8 1.4 4.5 1.4 4.2 0 7.6-3.4 7.6-7.6 0-2.5-1.2-4.7-3-6.1.2 1.1.5 2.1.5 3.2zm84.3-23.3c-.1 5.3-4.5 9.6-9.8 9.4-.1 0-.4 0-.5-.1 1.3 1 2.9 1.6 4.7 1.7 4.4.1 8.1-3.4 8.2-7.9.1-2.6-1.2-5-3-6.4.3 1.1.5 2.2.4 3.3z" fill="#e57e73"/></svg>