<?xml version="1.0" encoding="utf-8"?>
<!-- Generator: Adobe Illustrator 25.0.0, SVG Export Plug-In . SVG Version: 6.00 Build 0)  -->
<svg version="1.1" id="Layer_1" xmlns="http://www.w3.org/2000/svg" xmlns:xlink="http://www.w3.org/1999/xlink" x="0px" y="0px"
	 viewBox="0 0 31 28" style="enable-background:new 0 0 31 28;" xml:space="preserve">
<style type="text/css">
	.st0{fill:#FFFFFF;}
</style>
<path class="st0" d="M6.8,0.9L15.5,0l8.7,0.9l6.8,9.1L15.5,28L0,10L6.8,0.9z"/>
<path class="st0" d="M6.3,10l9.2,18L0,10H6.3z"/>
<path class="st0" d="M24.7,10l-9.2,18l15.5-18H24.7z"/>
<path class="st0" d="M6.3,10h18.4l-9.2,18L6.3,10z"/>
<path class="st0" d="M15.5,0L6.8,0.9L6.3,10L15.5,0z"/>
<path class="st0" d="M15.5,0l8.7,0.9l0.5,9.1L15.5,0z"/>
<path class="st0" d="M30.9,10l-6.8-9.1l0.5,9.1H30.9z M0,10l6.8-9.1L6.3,10H0z"/>
<path class="st0" d="M15.5,0L6.3,10h18.4L15.5,0z"/>
</svg>
