<svg width="5" height="16" viewBox="0 0 5 16" fill="none" xmlns="http://www.w3.org/2000/svg">
<path d="M4.21053 6.19718V7.32394C4.21053 8.56338 3.55263 9.23944 2.5 9.23944C1.44737 9.23944 0.789474 8.56338 0.789474 7.32394V0H0V7.32394C0 8.90141 0.921054 9.80282 2.23684 9.91549V14.6479C1.97369 14.7606 1.71053 14.9859 1.71053 15.3239C1.71053 15.7746 2.10526 16 2.5 16C3.02632 16 3.28947 15.662 3.28947 15.3239C3.28947 14.9859 3.02632 14.7606 2.76316 14.6479V10.0282C4.07895 9.91549 5 9.01408 5 7.43662V0H4.21053V6.19718Z" fill="white"/>
</svg>
