<svg width="1505" height="1000" viewBox="0 0 1505 1000" fill="none" xmlns="http://www.w3.org/2000/svg">
<path fill-rule="evenodd" clip-rule="evenodd" d="M772.83 211C860.15 92.94 956.6 0 1079.99 0C1312.99 0 1504.81 296.55 1504.94 649.66C1504.94 865.08 1412.23 1000 1245.63 1000C1100.47 1000 1020.37 918.48 876.63 677.93L813.846 572.321L813.8 572.39L802.74 553.79C785.216 524.278 768.607 496.826 752.802 471.31C707.672 551.108 642.1 666.9 642.1 666.9C484.7 942 396.18 1000 273.1 1000C102.09 1000 0 866.86 0 655.86C0 318.625 187.575 0.00868428 432.4 0C432.403 0 432.407 0 432.41 0C552.49 0 652.83 58.23 772.83 211ZM430.33 163.45C284.814 163.461 162.75 413.796 162.75 658.62C162.75 773.06 206.2 837.24 279.31 837.24C350.34 837.24 394.48 792.41 522.06 592.41H522.05C522.05 592.41 580.065 500.278 675.848 353.378C574.971 208.963 509.137 163.45 430.33 163.45ZM915.36 420.09L1003.59 567.24H1003.58C1141.56 789.25 1176.28 837.24 1248.95 837.27C1324.77 837.27 1361.36 772.44 1361.36 660.72C1361.36 367.62 1231.71 129 1069.64 129C991.63 129 925.99 190.12 846.52 312.86C868.547 345.52 891.493 381.263 915.36 420.09Z" fill="white"/>
</svg>
