<svg width="336" height="470" viewBox="0 0 336 470" fill="none" xmlns="http://www.w3.org/2000/svg">
<rect width="336" height="470" fill="white"/>
<path d="M0 0H336V470H0V0Z" fill="#F0F0F0"/>
<path d="M0 0V304.381H70.112C91.168 304.381 112.112 307.514 132.048 314.341C143.248 318.145 155.232 320.272 167.664 320.272C180.096 320.272 192.08 318.145 203.28 314.341C223.216 307.514 244.16 304.381 265.216 304.381H336V0H0Z" fill="#212121"/>
<path d="M0 440.905H336V470H0V440.905Z" fill="black"/>
<path d="M321.44 454.557L320.096 453.326C319.984 453.214 319.872 453.214 319.76 453.326L318.528 454.557V449.41H311.36V448.514C311.36 448.067 311.808 447.619 312.256 447.619H323.792C324.128 447.619 324.352 447.395 324.352 447.06C324.352 446.724 324.128 446.5 323.904 446.5H312.256C311.136 446.5 310.24 447.395 310.24 448.514V462.95C310.24 463.174 310.352 463.286 310.464 463.286H322.336C323.456 463.286 324.352 462.39 324.352 461.271V449.41H321.44V454.557ZM313.264 461.495C313.264 461.831 313.04 462.055 312.704 462.055C312.368 462.055 312.144 461.831 312.144 461.495V450.976C312.144 450.64 312.368 450.417 312.704 450.417C313.04 450.417 313.264 450.64 313.264 450.976V461.495Z" fill="#F0F0F0"/>
<path d="M144.48 372.519V362.696H150.798V364.117H146.22V366.807H150.526V368.242H146.22V372.519H144.48Z" fill="#212121"/>
<path d="M156.417 372.643C155.484 372.643 154.669 372.441 153.972 372.036C153.283 371.622 152.749 371.038 152.368 370.284C151.997 369.521 151.811 368.624 151.811 367.594C151.811 366.573 151.997 365.685 152.368 364.931C152.74 364.168 153.27 363.584 153.958 363.179C154.655 362.774 155.475 362.572 156.417 362.572C157.359 362.572 158.174 362.774 158.863 363.179C159.56 363.584 160.09 364.168 160.452 364.931C160.824 365.685 161.009 366.573 161.009 367.594C161.009 368.624 160.824 369.521 160.452 370.284C160.081 371.038 159.551 371.622 158.863 372.036C158.174 372.441 157.359 372.643 156.417 372.643ZM156.417 371.222C157.314 371.222 158.011 370.909 158.509 370.284C159.007 369.659 159.257 368.762 159.257 367.594C159.257 366.435 159.007 365.547 158.509 364.931C158.011 364.306 157.314 363.993 156.417 363.993C155.52 363.993 154.823 364.301 154.325 364.917C153.827 365.533 153.578 366.426 153.578 367.594C153.578 368.762 153.827 369.659 154.325 370.284C154.823 370.909 155.52 371.222 156.417 371.222Z" fill="#212121"/>
<path d="M167.191 372.643C166.24 372.643 165.406 372.436 164.691 372.022C163.984 371.608 163.441 371.024 163.061 370.27C162.68 369.507 162.49 368.615 162.49 367.594C162.49 366.582 162.68 365.699 163.061 364.945C163.441 364.181 163.984 363.597 164.691 363.193C165.406 362.779 166.24 362.572 167.191 362.572C167.843 362.572 168.454 362.678 169.025 362.889C169.605 363.091 170.085 363.377 170.465 363.744L169.894 365.041C169.46 364.683 169.025 364.425 168.59 364.269C168.164 364.103 167.707 364.02 167.218 364.02C166.285 364.02 165.56 364.329 165.044 364.945C164.537 365.561 164.283 366.444 164.283 367.594C164.283 368.753 164.537 369.645 165.044 370.27C165.551 370.886 166.276 371.195 167.218 371.195C167.707 371.195 168.164 371.116 168.59 370.96C169.025 370.794 169.46 370.532 169.894 370.174L170.465 371.471C170.085 371.838 169.605 372.128 169.025 372.34C168.454 372.542 167.843 372.643 167.191 372.643Z" fill="#212121"/>
<path d="M176.1 372.643C174.768 372.643 173.758 372.298 173.07 371.608C172.391 370.909 172.051 369.889 172.051 368.546V362.696H173.776V368.642C173.776 369.488 173.971 370.132 174.361 370.574C174.75 371.006 175.33 371.222 176.1 371.222C176.851 371.222 177.422 371.001 177.811 370.56C178.21 370.118 178.409 369.479 178.409 368.642V362.696H180.135V368.546C180.135 369.879 179.791 370.896 179.102 371.595C178.414 372.294 177.413 372.643 176.1 372.643Z" fill="#212121"/>
<path d="M185.436 372.643C184.693 372.643 183.995 372.542 183.343 372.34C182.7 372.137 182.152 371.848 181.699 371.471L182.297 370.174C182.768 370.532 183.257 370.799 183.764 370.974C184.281 371.139 184.842 371.222 185.449 371.222C186.119 371.222 186.636 371.103 186.998 370.863C187.369 370.624 187.555 370.289 187.555 369.856C187.555 369.488 187.383 369.208 187.039 369.015C186.704 368.812 186.147 368.624 185.368 368.449C184.154 368.182 183.271 367.837 182.718 367.414C182.166 366.991 181.89 366.375 181.89 365.566C181.89 364.986 182.043 364.471 182.351 364.02C182.659 363.57 183.094 363.216 183.656 362.958C184.226 362.701 184.883 362.572 185.626 362.572C186.305 362.572 186.948 362.678 187.555 362.889C188.171 363.091 188.674 363.377 189.063 363.744L188.479 365.041C187.618 364.342 186.667 363.993 185.626 363.993C185.001 363.993 184.507 364.126 184.145 364.393C183.783 364.65 183.601 365.005 183.601 365.455C183.601 365.842 183.76 366.136 184.077 366.338C184.403 366.541 184.955 366.729 185.734 366.904C186.541 367.097 187.197 367.309 187.704 367.539C188.212 367.759 188.601 368.049 188.873 368.408C189.145 368.757 189.28 369.199 189.28 369.732C189.28 370.321 189.126 370.836 188.819 371.277C188.511 371.71 188.067 372.045 187.487 372.284C186.907 372.524 186.224 372.643 185.436 372.643Z" fill="#212121"/>
<path d="M125.467 270.201H129.62C130.65 270.201 131.452 270.452 132.026 270.953C132.599 271.445 132.886 272.121 132.886 272.981C132.886 273.84 132.594 274.52 132.012 275.022C131.439 275.523 130.641 275.774 129.62 275.774H127.201V279.762H125.467V270.201ZM129.418 274.431C130.018 274.431 130.471 274.31 130.776 274.068C131.089 273.818 131.246 273.46 131.246 272.994C131.246 272.52 131.094 272.162 130.789 271.92C130.484 271.669 130.027 271.544 129.418 271.544H127.201V274.431H129.418Z" fill="#949494"/>
<path d="M142.294 279.762H140.466L139.243 276.58C139.135 276.284 138.97 276.078 138.746 275.962C138.522 275.845 138.231 275.787 137.872 275.787H136.138V279.762H134.418V270.201H138.517C139.601 270.201 140.426 270.438 140.99 270.913C141.555 271.387 141.837 272.068 141.837 272.954C141.837 273.589 141.667 274.131 141.326 274.579C140.995 275.017 140.52 275.331 139.902 275.519C140.466 275.635 140.874 276.029 141.125 276.7L142.294 279.762ZM138.275 274.444C138.929 274.444 139.413 274.324 139.727 274.082C140.04 273.84 140.197 273.473 140.197 272.981C140.197 272.497 140.04 272.139 139.727 271.906C139.422 271.665 138.938 271.544 138.275 271.544H136.111V274.444H138.275Z" fill="#949494"/>
<path d="M148.036 279.883C147.113 279.883 146.307 279.686 145.617 279.292C144.936 278.889 144.408 278.321 144.031 277.587C143.664 276.844 143.48 275.971 143.48 274.968C143.48 273.974 143.664 273.11 144.031 272.376C144.399 271.633 144.923 271.065 145.604 270.671C146.294 270.277 147.104 270.08 148.036 270.08C148.968 270.08 149.775 270.277 150.456 270.671C151.145 271.065 151.67 271.633 152.028 272.376C152.395 273.11 152.579 273.974 152.579 274.968C152.579 275.971 152.395 276.844 152.028 277.587C151.661 278.321 151.136 278.889 150.456 279.292C149.775 279.686 148.968 279.883 148.036 279.883ZM148.036 278.5C148.923 278.5 149.613 278.195 150.106 277.587C150.599 276.978 150.845 276.105 150.845 274.968C150.845 273.84 150.599 272.976 150.106 272.376C149.613 271.768 148.923 271.463 148.036 271.463C147.149 271.463 146.459 271.763 145.967 272.363C145.474 272.963 145.227 273.831 145.227 274.968C145.227 276.105 145.474 276.978 145.967 277.587C146.459 278.195 147.149 278.5 148.036 278.5Z" fill="#949494"/>
<path d="M158.697 279.883C157.756 279.883 156.932 279.682 156.224 279.279C155.525 278.876 154.988 278.307 154.611 277.573C154.235 276.83 154.047 275.962 154.047 274.968C154.047 273.983 154.235 273.124 154.611 272.39C154.988 271.647 155.525 271.078 156.224 270.684C156.932 270.282 157.756 270.08 158.697 270.08C159.342 270.08 159.947 270.183 160.511 270.389C161.085 270.586 161.56 270.863 161.936 271.222L161.372 272.484C160.942 272.135 160.511 271.884 160.081 271.732C159.66 271.571 159.208 271.49 158.724 271.49C157.801 271.49 157.084 271.79 156.574 272.39C156.072 272.99 155.821 273.849 155.821 274.968C155.821 276.096 156.072 276.964 156.574 277.573C157.075 278.173 157.792 278.473 158.724 278.473C159.208 278.473 159.66 278.397 160.081 278.245C160.511 278.084 160.942 277.828 161.372 277.479L161.936 278.742C161.56 279.1 161.085 279.382 160.511 279.588C159.947 279.784 159.342 279.883 158.697 279.883Z" fill="#949494"/>
<path d="M163.557 279.762V270.201H169.954V271.571H165.25V274.216H169.672V275.586H165.25V278.392H169.954V279.762H163.557Z" fill="#949494"/>
<path d="M174.657 279.883C173.923 279.883 173.233 279.784 172.588 279.588C171.952 279.391 171.409 279.109 170.961 278.742L171.553 277.479C172.019 277.828 172.503 278.088 173.004 278.258C173.515 278.419 174.071 278.5 174.671 278.5C175.334 278.5 175.845 278.383 176.203 278.151C176.57 277.918 176.754 277.591 176.754 277.17C176.754 276.812 176.584 276.539 176.243 276.351C175.912 276.154 175.361 275.971 174.59 275.801C173.39 275.541 172.516 275.205 171.969 274.794C171.423 274.382 171.15 273.782 171.15 272.994C171.15 272.43 171.302 271.929 171.607 271.49C171.911 271.051 172.341 270.707 172.897 270.456C173.461 270.205 174.111 270.08 174.846 270.08C175.518 270.08 176.154 270.183 176.754 270.389C177.363 270.586 177.861 270.863 178.246 271.222L177.668 272.484C176.817 271.803 175.876 271.463 174.846 271.463C174.227 271.463 173.739 271.593 173.381 271.853C173.022 272.103 172.843 272.448 172.843 272.887C172.843 273.263 173 273.549 173.313 273.746C173.636 273.943 174.183 274.127 174.953 274.297C175.751 274.485 176.4 274.691 176.902 274.914C177.404 275.129 177.789 275.411 178.058 275.76C178.327 276.101 178.461 276.53 178.461 277.05C178.461 277.622 178.309 278.124 178.004 278.554C177.699 278.974 177.26 279.301 176.687 279.534C176.113 279.767 175.437 279.883 174.657 279.883Z" fill="#949494"/>
<path d="M183.305 279.883C182.57 279.883 181.88 279.784 181.235 279.588C180.599 279.391 180.057 279.109 179.609 278.742L180.2 277.479C180.666 277.828 181.15 278.088 181.652 278.258C182.162 278.419 182.718 278.5 183.318 278.5C183.981 278.5 184.492 278.383 184.85 278.151C185.218 277.918 185.401 277.591 185.401 277.17C185.401 276.812 185.231 276.539 184.891 276.351C184.559 276.154 184.008 275.971 183.238 275.801C182.037 275.541 181.163 275.205 180.617 274.794C180.07 274.382 179.797 273.782 179.797 272.994C179.797 272.43 179.949 271.929 180.254 271.49C180.559 271.051 180.989 270.707 181.544 270.456C182.109 270.205 182.758 270.08 183.493 270.08C184.165 270.08 184.801 270.183 185.401 270.389C186.011 270.586 186.508 270.863 186.893 271.222L186.315 272.484C185.464 271.803 184.523 271.463 183.493 271.463C182.875 271.463 182.386 271.593 182.028 271.853C181.67 272.103 181.49 272.448 181.49 272.887C181.49 273.263 181.647 273.549 181.961 273.746C182.283 273.943 182.83 274.127 183.601 274.297C184.398 274.485 185.048 274.691 185.549 274.914C186.051 275.129 186.436 275.411 186.705 275.76C186.974 276.101 187.108 276.53 187.108 277.05C187.108 277.622 186.956 278.124 186.651 278.554C186.347 278.974 185.908 279.301 185.334 279.534C184.761 279.767 184.084 279.883 183.305 279.883Z" fill="#949494"/>
<path d="M188.717 279.762V270.201H190.451V279.762H188.717Z" fill="#949494"/>
<path d="M198.959 270.201H200.585V279.762H199.295L194.134 273.061V279.762H192.521V270.201H193.812L198.959 276.888V270.201Z" fill="#949494"/>
<path d="M210.651 274.592V279.185C210.212 279.4 209.684 279.57 209.065 279.695C208.447 279.82 207.816 279.883 207.17 279.883C206.185 279.883 205.329 279.686 204.603 279.292C203.878 278.898 203.322 278.334 202.937 277.6C202.552 276.866 202.359 275.989 202.359 274.968C202.359 273.965 202.552 273.097 202.937 272.363C203.322 271.629 203.869 271.065 204.577 270.671C205.293 270.277 206.131 270.08 207.09 270.08C207.762 270.08 208.389 270.179 208.971 270.376C209.563 270.572 210.056 270.85 210.45 271.208L209.858 272.47C209.41 272.121 208.971 271.871 208.541 271.718C208.111 271.566 207.641 271.49 207.13 271.49C206.145 271.49 205.396 271.786 204.886 272.376C204.384 272.967 204.133 273.831 204.133 274.968C204.133 276.141 204.393 277.027 204.913 277.627C205.432 278.218 206.207 278.513 207.238 278.513C207.865 278.513 208.483 278.428 209.092 278.258V275.841H207.023V274.592H210.651Z" fill="#949494"/>
<path d="M148.836 299.796H152.174V294.347C152.029 294.577 150.917 296.393 148.836 299.796ZM152.134 305.5V301.753H146.061V299.894L151.809 291.18H154.625V299.796H156.879V301.753H154.674V305.5H152.134Z" fill="#F0F0F0"/>
<path d="M163.788 305.727C162.193 305.727 160.953 305.048 160.067 303.691C159.188 302.327 158.748 300.501 158.748 298.212C158.748 295.898 159.181 294.104 160.048 292.832C160.92 291.554 162.174 290.915 163.808 290.915C165.416 290.915 166.653 291.567 167.519 292.872C168.392 294.177 168.828 295.957 168.828 298.212C168.828 299.714 168.641 301.025 168.267 302.147C167.893 303.261 167.322 304.137 166.554 304.773C165.793 305.409 164.871 305.727 163.788 305.727ZM163.828 303.592C165.462 303.592 166.279 301.802 166.279 298.222C166.279 297.527 166.236 296.885 166.151 296.295C166.065 295.704 165.931 295.16 165.747 294.662C165.57 294.157 165.317 293.764 164.989 293.482C164.668 293.193 164.284 293.049 163.837 293.049C163.371 293.049 162.968 293.193 162.627 293.482C162.285 293.764 162.023 294.157 161.839 294.662C161.655 295.16 161.521 295.704 161.435 296.295C161.35 296.885 161.308 297.53 161.308 298.232C161.308 299.045 161.35 299.763 161.435 300.386C161.521 301.009 161.655 301.57 161.839 302.068C162.029 302.56 162.292 302.937 162.627 303.199C162.961 303.461 163.362 303.592 163.828 303.592Z" fill="#F0F0F0"/>
<path d="M184.167 305.697C183.077 305.697 182.201 305.346 181.538 304.645C180.876 303.943 180.544 303.051 180.544 301.97C180.544 300.907 180.876 300.019 181.538 299.304C182.201 298.583 183.074 298.222 184.157 298.222C185.24 298.222 186.116 298.583 186.785 299.304C187.455 300.025 187.789 300.914 187.789 301.97C187.789 303.058 187.458 303.953 186.795 304.655C186.132 305.35 185.256 305.697 184.167 305.697ZM184.157 304.163C184.675 304.163 185.062 303.989 185.318 303.642C185.581 303.294 185.712 302.737 185.712 301.97C185.712 301.235 185.587 300.684 185.338 300.317C185.089 299.95 184.695 299.766 184.157 299.766C183.625 299.766 183.235 299.947 182.985 300.307C182.736 300.668 182.611 301.219 182.611 301.96C182.611 302.727 182.739 303.287 182.995 303.642C183.251 303.989 183.638 304.163 184.157 304.163ZM173.85 305.5L183.015 291.18H185.013L175.849 305.5H173.85ZM174.628 298.468C173.512 298.468 172.63 298.14 171.98 297.485C171.33 296.822 171.006 295.908 171.006 294.741C171.006 293.593 171.33 292.685 171.98 292.016C172.63 291.341 173.512 291.003 174.628 291.003C175.737 291.003 176.617 291.341 177.266 292.016C177.922 292.691 178.251 293.6 178.251 294.741C178.251 295.914 177.926 296.829 177.276 297.485C176.626 298.14 175.744 298.468 174.628 298.468ZM174.628 296.934C175.147 296.934 175.534 296.763 175.79 296.422C176.046 296.075 176.174 295.518 176.174 294.75C176.174 294.009 176.049 293.455 175.8 293.088C175.557 292.721 175.166 292.537 174.628 292.537C174.09 292.537 173.696 292.721 173.447 293.088C173.204 293.449 173.083 294 173.083 294.741C173.083 295.508 173.211 296.065 173.467 296.413C173.722 296.76 174.11 296.934 174.628 296.934Z" fill="#F0F0F0"/>
<path d="M59.3601 50.3575H43.6801C40.5441 50.3575 38.0801 47.8956 38.0801 44.7622C38.0801 41.6289 40.5441 39.167 43.6801 39.167H59.3601C62.4961 39.167 64.9601 41.6289 64.9601 44.7622C64.9601 47.8956 62.3841 50.3575 59.3601 50.3575Z" fill="#373737"/>
<path d="M59.3609 49.238C61.8249 49.238 63.8409 47.2237 63.8409 44.7618C63.8409 42.2999 61.8249 40.2856 59.3609 40.2856C56.8969 40.2856 54.8809 42.2999 54.8809 44.7618C54.8809 47.2237 56.8969 49.238 59.3609 49.238Z" fill="#724DFF"/>
<path d="M17.8417 49.3395C17.0727 49.3395 16.4007 49.1753 15.8257 48.8471C15.2583 48.5114 14.8177 48.0376 14.5041 47.4259C14.198 46.8067 14.0449 46.0793 14.0449 45.2437C14.0449 44.4156 14.198 43.6957 14.5041 43.084C14.8103 42.4648 15.2471 41.991 15.8145 41.6628C16.3895 41.3345 17.0652 41.1704 17.8417 41.1704C18.6183 41.1704 19.2903 41.3345 19.8577 41.6628C20.4327 41.991 20.8695 42.4648 21.1681 43.084C21.4743 43.6957 21.6273 44.4156 21.6273 45.2437C21.6273 46.0793 21.4743 46.8067 21.1681 47.4259C20.862 48.0376 20.4252 48.5114 19.8577 48.8471C19.2903 49.1753 18.6183 49.3395 17.8417 49.3395ZM17.8417 48.1868C18.5809 48.1868 19.1559 47.9332 19.5665 47.4259C19.9772 46.9186 20.1825 46.1912 20.1825 45.2437C20.1825 44.3037 19.9772 43.5838 19.5665 43.084C19.1559 42.5767 18.5809 42.323 17.8417 42.323C17.1025 42.323 16.5276 42.5729 16.1169 43.0728C15.7063 43.5726 15.5009 44.2963 15.5009 45.2437C15.5009 46.1912 15.7063 46.9186 16.1169 47.4259C16.5276 47.9332 17.1025 48.1868 17.8417 48.1868Z" fill="#424242"/>
<path d="M23.1074 49.2386V41.271H28.3154V42.4236H24.541V44.6058H28.0914V45.7696H24.541V49.2386H23.1074Z" fill="#424242"/>
<path d="M29.5156 49.2386V41.271H34.7236V42.4236H30.9492V44.6058H34.4996V45.7696H30.9492V49.2386H29.5156Z" fill="#424242"/>
<path d="M72.7226 49.3395C71.9535 49.3395 71.2815 49.1753 70.7066 48.8471C70.1391 48.5114 69.6986 48.0376 69.385 47.4259C69.0788 46.8067 68.9258 46.0793 68.9258 45.2437C68.9258 44.4156 69.0788 43.6957 69.385 43.084C69.6911 42.4648 70.1279 41.991 70.6954 41.6628C71.2703 41.3345 71.946 41.1704 72.7226 41.1704C73.4991 41.1704 74.1711 41.3345 74.7386 41.6628C75.3135 41.991 75.7503 42.4648 76.049 43.084C76.3551 43.6957 76.5082 44.4156 76.5082 45.2437C76.5082 46.0793 76.3551 46.8067 76.049 47.4259C75.7428 48.0376 75.306 48.5114 74.7386 48.8471C74.1711 49.1753 73.4991 49.3395 72.7226 49.3395ZM72.7226 48.1868C73.4618 48.1868 74.0367 47.9332 74.4474 47.4259C74.858 46.9186 75.0634 46.1912 75.0634 45.2437C75.0634 44.3037 74.858 43.5838 74.4474 43.084C74.0367 42.5767 73.4618 42.323 72.7226 42.323C71.9834 42.323 71.4084 42.5729 70.9978 43.0728C70.5871 43.5726 70.3818 44.2963 70.3818 45.2437C70.3818 46.1912 70.5871 46.9186 70.9978 47.4259C71.4084 47.9332 71.9834 48.1868 72.7226 48.1868Z" fill="#724DFF"/>
<path d="M83.3532 41.271H84.7082V49.2386H83.6332L79.3322 43.6546V49.2386H77.9883V41.271H79.0632L83.3532 46.8439V41.271Z" fill="#724DFF"/>
<path d="M260.076 49.2381L259.281 47.3693H255.383L254.577 49.2381H253.121L256.727 41.2705H257.903L261.521 49.2381H260.076ZM255.865 46.2503H258.799L257.332 42.8372L255.865 46.2503Z" fill="#724DFF"/>
<path d="M268.576 49.8987H267.4L270.301 40.812H271.5L268.576 49.8987Z" fill="#949494"/>
<path d="M282.41 45.121C282.872 45.2553 283.227 45.4903 283.474 45.826C283.727 46.1617 283.854 46.5758 283.854 47.0682C283.854 47.747 283.612 48.2805 283.126 48.6684C282.648 49.0489 281.98 49.2391 281.122 49.2391H277.504V41.2715H281.01C281.831 41.2715 282.477 41.458 282.947 41.831C283.418 42.1966 283.653 42.7039 283.653 43.3529C283.653 43.7707 283.541 44.1362 283.317 44.4496C283.1 44.7555 282.798 44.9793 282.41 45.121ZM278.915 44.6286H280.774C281.775 44.6286 282.275 44.2556 282.275 43.5096C282.275 43.1366 282.152 42.8568 281.906 42.6703C281.659 42.4838 281.282 42.3905 280.774 42.3905H278.915V44.6286ZM280.965 48.1201C281.487 48.1201 281.868 48.0268 282.107 47.8403C282.354 47.6538 282.477 47.3591 282.477 46.9562C282.477 46.5459 282.354 46.2438 282.107 46.0498C281.868 45.8559 281.487 45.7589 280.965 45.7589H278.915V48.1201H280.965Z" fill="#949494"/>
<path d="M14.5605 289.833C14.5605 286.125 17.0678 283.119 20.1605 283.119H58.2405C61.3333 283.119 63.8405 286.125 63.8405 289.833C63.8405 293.542 61.3333 296.548 58.2405 296.548H20.1605C17.0678 296.548 14.5605 293.542 14.5605 289.833Z" fill="#724DFF"/>
<path d="M32.3767 292.931L31.7405 291.436H28.6224L27.9773 292.931H26.8125L29.6976 286.557H30.6384L33.5325 292.931H32.3767ZM29.0077 290.54H31.3552L30.1815 287.81L29.0077 290.54Z" fill="#F0F0F0"/>
<path d="M36.8127 293.011C35.9346 293.011 35.2686 292.788 34.8146 292.34C34.3666 291.886 34.1426 291.224 34.1426 290.352V286.557H35.2806V290.415C35.2806 290.964 35.409 291.382 35.6658 291.668C35.9227 291.949 36.305 292.089 36.8127 292.089C37.3085 292.089 37.6848 291.946 37.9417 291.66C38.2045 291.373 38.3359 290.958 38.3359 290.415V286.557H39.4738V290.352C39.4738 291.218 39.2468 291.877 38.7929 292.331C38.3389 292.785 37.6788 293.011 36.8127 293.011Z" fill="#F0F0F0"/>
<path d="M42.3072 292.931V287.506H40.2285V286.557H45.5597V287.506H43.472V292.931H42.3072Z" fill="#F0F0F0"/>
<path d="M48.8129 293.011C48.1976 293.011 47.66 292.88 47.2001 292.617C46.7461 292.349 46.3937 291.97 46.1428 291.48C45.8979 290.985 45.7754 290.403 45.7754 289.735C45.7754 289.072 45.8979 288.496 46.1428 288.007C46.3877 287.512 46.7371 287.133 47.1911 286.87C47.6511 286.607 48.1917 286.476 48.8129 286.476C49.4341 286.476 49.9717 286.607 50.4257 286.87C50.8856 287.133 51.2351 287.512 51.474 288.007C51.7189 288.496 51.8414 289.072 51.8414 289.735C51.8414 290.403 51.7189 290.985 51.474 291.48C51.2291 291.97 50.8797 292.349 50.4257 292.617C49.9717 292.88 49.4341 293.011 48.8129 293.011ZM48.8129 292.089C49.4042 292.089 49.8642 291.886 50.1927 291.48C50.5213 291.075 50.6855 290.493 50.6855 289.735C50.6855 288.983 50.5213 288.407 50.1927 288.007C49.8642 287.601 49.4042 287.398 48.8129 287.398C48.2215 287.398 47.7616 287.598 47.433 287.998C47.1045 288.398 46.9402 288.977 46.9402 289.735C46.9402 290.493 47.1045 291.075 47.433 291.48C47.7616 291.886 48.2215 292.089 48.8129 292.089Z" fill="#F0F0F0"/>
<path d="M16.5071 22.1212V18.6432H21.1327V17.2802H16.5071V13.9119H21.5247V12.5332H15.0488V23.4999H21.6031V22.1212H16.5071Z" fill="#F0F0F0"/>
<path d="M35.515 23.4999H37.1301L34.5429 19.1132C35.86 18.6432 36.8165 17.3742 36.8165 15.9329C36.8165 14.0529 35.2798 12.5332 33.3982 12.5332H29.0078V23.4999H30.4661V19.3012H33.0533L35.515 23.4999ZM30.4661 13.8962H33.3982C34.4801 13.8962 35.3582 14.8049 35.3582 15.9329C35.3582 17.0609 34.4801 17.9852 33.3982 17.9852H30.4661V13.8962Z" fill="#F0F0F0"/>
<path d="M51.4665 23.4999H53.0188L48.9264 12.5332H47.28L43.1875 23.4999H44.7398L45.6336 21.0402H50.5728L51.4665 23.4999ZM46.1353 19.6772L48.0953 14.2722L50.071 19.6772H46.1353Z" fill="#F0F0F0"/>
<path d="M130.123 18.7603H128.668V22.1552H126.766V12.3101H130.682C132.472 12.3101 133.927 13.7812 133.927 15.5918C133.927 16.8365 133.144 17.9682 132.025 18.4208L134.151 22.1552H132.137L130.123 18.7603ZM128.668 17.0629H130.682C131.353 17.0629 132.025 16.3839 132.025 15.5918C132.025 14.7996 131.465 14.1207 130.682 14.1207H128.668V17.0629Z" fill="#F0F0F0"/>
<path d="M138.627 20.6833C139.298 20.6833 139.858 20.3438 140.193 20.0043L141.648 20.7964C140.977 21.7017 139.97 22.2675 138.627 22.2675C136.277 22.2675 134.822 20.6833 134.822 18.5332C134.822 16.4963 136.277 14.7988 138.515 14.7988C140.529 14.7988 141.984 16.3831 141.984 18.5332C141.984 18.7595 141.984 18.9858 141.872 19.3253H136.613C136.836 20.2306 137.62 20.6833 138.627 20.6833ZM140.082 17.9674C139.858 16.9489 139.074 16.4963 138.403 16.4963C137.396 16.4963 136.836 17.0621 136.613 17.9674H140.082Z" fill="#F0F0F0"/>
<path d="M149.48 15.1387L146.795 22.1547H144.781L142.207 15.1387H144.221L145.9 20.0046L147.578 15.1387H149.48Z" fill="#F0F0F0"/>
<path d="M153.51 20.6833C154.181 20.6833 154.741 20.3438 155.076 20.0043L156.531 20.7964C155.86 21.7017 154.852 22.2675 153.51 22.2675C151.16 22.2675 149.705 20.6833 149.705 18.5332C149.705 16.4963 151.16 14.7988 153.398 14.7988C155.412 14.7988 156.867 16.3831 156.867 18.5332C156.867 18.7595 156.867 18.9858 156.755 19.3253H151.495C151.831 20.2306 152.614 20.6833 153.51 20.6833ZM155.076 17.9674C154.852 16.9489 154.069 16.4963 153.398 16.4963C152.391 16.4963 151.831 17.0621 151.607 17.9674H155.076Z" fill="#F0F0F0"/>
<path d="M162.125 15.0254V17.0623C161.23 16.9491 159.999 17.4018 159.999 18.8729V22.2678H158.209V15.1386H159.999V16.3833C160.335 15.3649 161.23 15.0254 162.125 15.0254Z" fill="#F0F0F0"/>
<path d="M170.407 18.6467C170.407 20.6836 168.84 22.381 167.05 22.381C166.043 22.381 165.259 22.0415 164.812 21.3625V22.1547H163.021V12.3096H164.812V15.9308C165.259 15.2518 166.043 14.9123 167.05 14.9123C168.952 14.9123 170.407 16.4966 170.407 18.6467ZM168.616 18.6467C168.616 17.515 167.833 16.7229 166.714 16.7229C165.595 16.7229 164.812 17.515 164.812 18.6467C164.812 19.7783 165.595 20.5704 166.714 20.5704C167.833 20.5704 168.616 19.7783 168.616 18.6467Z" fill="#F0F0F0"/>
<path d="M178.687 18.7598H177.232V22.1547H175.33V12.3096H179.135C180.925 12.3096 182.38 13.7807 182.38 15.5913C182.38 16.8361 181.596 17.9677 180.477 18.4203L182.604 22.1547H180.589L178.687 18.7598ZM177.232 17.0624H179.135C179.806 17.0624 180.477 16.3834 180.477 15.5913C180.477 14.7991 179.918 14.1202 179.135 14.1202H177.12V17.0624H177.232Z" fill="#F0F0F0"/>
<path d="M187.08 20.6833C187.751 20.6833 188.311 20.3438 188.647 20.0043L190.101 20.7964C189.43 21.7017 188.423 22.2675 187.08 22.2675C184.73 22.2675 183.275 20.6833 183.275 18.5332C183.275 16.4963 184.73 14.7988 186.968 14.7988C188.982 14.7988 190.437 16.3831 190.437 18.5332C190.437 18.7595 190.437 18.9858 190.325 19.3253H185.066C185.401 20.2306 186.185 20.6833 187.08 20.6833ZM188.647 17.9674C188.423 16.9489 187.639 16.4963 186.968 16.4963C185.961 16.4963 185.401 17.0621 185.178 17.9674H188.647Z" fill="#F0F0F0"/>
<path d="M201.963 17.8544V22.1546H200.172V17.9676C200.172 17.1754 199.725 16.6096 199.053 16.6096C198.27 16.6096 197.711 17.1754 197.711 18.1939V22.1546H195.92V17.9676C195.92 17.1754 195.473 16.6096 194.801 16.6096C194.018 16.6096 193.458 17.1754 193.458 18.1939V22.1546H191.668V15.1385H193.458V15.9306C193.794 15.3648 194.465 15.0253 195.361 15.0253C196.256 15.0253 196.815 15.3648 197.263 16.0438C197.711 15.3648 198.382 15.0253 199.277 15.0253C200.956 14.9122 201.963 16.0438 201.963 17.8544Z" fill="#F0F0F0"/>
<path d="M203.193 18.646C203.193 16.6091 204.76 14.9116 206.886 14.9116C208.9 14.9116 210.579 16.4959 210.579 18.646C210.579 20.6829 208.9 22.3803 206.886 22.3803C204.872 22.2672 203.193 20.6829 203.193 18.646ZM208.788 18.646C208.788 17.5144 208.005 16.7222 206.886 16.7222C205.879 16.7222 204.984 17.5144 204.984 18.646C204.984 19.7776 205.767 20.5697 206.886 20.5697C208.005 20.5697 208.788 19.7776 208.788 18.646Z" fill="#F0F0F0"/>
<path d="M218.075 15.1387L215.389 22.1547H213.375L210.689 15.1387H212.704L214.382 20.0046L216.061 15.1387H218.075Z" fill="#F0F0F0"/>
<path d="M222.215 20.6833C222.886 20.6833 223.446 20.3438 223.781 20.0043L225.236 20.7964C224.565 21.7017 223.558 22.2675 222.215 22.2675C219.865 22.2675 218.41 20.6833 218.41 18.5332C218.41 16.4963 219.865 14.7988 222.103 14.7988C224.117 14.7988 225.572 16.3831 225.572 18.5332C225.572 18.7595 225.572 18.9858 225.46 19.3253H220.201C220.424 20.2306 221.208 20.6833 222.215 20.6833ZM223.669 17.9674C223.446 16.9489 222.662 16.4963 221.991 16.4963C220.984 16.4963 220.424 17.0621 220.201 17.9674H223.669Z" fill="#F0F0F0"/>
<path d="M230.719 15.0254V17.0623C229.824 16.9491 228.593 17.4018 228.593 18.8729V22.2678H226.803V15.1386H228.593V16.3833C228.929 15.3649 229.824 15.0254 230.719 15.0254Z" fill="#F0F0F0"/>
<path d="M114.345 22.2682H113.338L106.4 18.7602V16.7232L113.338 13.1021H114.345L121.283 16.7232V18.7602L114.345 22.2682ZM109.31 17.7416L113.786 20.118L118.262 17.7416L113.786 15.3652L109.31 17.7416Z" fill="#724DFF"/>
<path d="M278.096 22.1577C278.096 22.1577 277.984 21.7101 277.984 21.2624C277.648 21.9339 277.2 22.3815 276.304 22.3815C275.072 22.3815 274.4 21.4863 274.4 19.9196C274.4 18.4648 275.184 17.5696 276.192 17.0101C277.312 16.4505 277.984 15.891 277.984 14.772C277.984 13.6529 277.648 12.9815 276.752 12.9815C275.856 12.9815 275.408 13.6529 275.408 14.772V15.1077H274.736C274.736 14.9958 274.736 14.772 274.736 14.772C274.736 13.3172 275.296 12.3101 276.752 12.3101C278.208 12.3101 278.768 13.3172 278.768 14.9958V20.591C278.768 21.3743 278.88 22.2696 278.88 22.2696H278.096V22.1577ZM277.984 16.3386C277.76 16.7863 277.424 17.122 276.64 17.5696C275.52 18.1291 275.184 18.8005 275.184 19.9196C275.184 21.1505 275.632 21.7101 276.416 21.7101C277.2 21.7101 277.984 20.9267 277.984 19.8077V16.3386Z" fill="#F0F0F0"/>
<path d="M282.128 22.381C280.784 22.381 280 21.4858 280 19.8072V14.8834C280 13.2048 280.784 12.3096 282.128 12.3096C283.36 12.3096 284.144 13.2048 284.144 14.8834V15.1072H283.472V14.8834C283.472 13.6524 283.024 12.981 282.128 12.981C281.232 12.981 280.784 13.6524 280.784 14.8834V19.6953C280.784 20.9262 281.232 21.5977 282.128 21.5977C283.024 21.5977 283.472 20.9262 283.472 19.6953V19.5834H284.144V19.8072C284.144 21.4858 283.36 22.381 282.128 22.381Z" fill="#F0F0F0"/>
<path d="M287.393 22.381C286.161 22.381 285.377 21.4858 285.377 19.8072V14.8834C285.377 13.2048 286.161 12.3096 287.393 12.3096C288.625 12.3096 289.409 13.2048 289.409 14.8834V15.1072H288.737V14.8834C288.737 13.6524 288.289 12.981 287.393 12.981C286.497 12.981 286.049 13.6524 286.049 14.8834V19.6953C286.049 20.9262 286.497 21.5977 287.393 21.5977C288.289 21.5977 288.737 20.9262 288.737 19.6953V19.5834H289.409V19.8072C289.409 21.4858 288.625 22.381 287.393 22.381Z" fill="#F0F0F0"/>
<path d="M299.489 15.1072V14.5477C299.489 13.6524 299.041 12.981 298.257 12.981C297.473 12.981 296.913 13.5405 296.913 14.5477C296.913 15.2191 297.249 15.7786 297.697 16.2262L299.265 17.681C299.937 18.2405 300.385 18.912 300.385 20.031C300.385 21.4858 299.601 22.381 298.257 22.381C296.689 22.381 296.129 21.262 296.129 19.9191V19.4715H296.801V19.9191C296.801 21.0381 297.249 21.7096 298.257 21.7096C299.153 21.7096 299.713 21.0381 299.713 20.031C299.713 19.3596 299.377 18.8 298.929 18.2405L297.249 16.7858C296.577 16.2262 296.129 15.5548 296.129 14.5477C296.129 13.2048 296.913 12.3096 298.145 12.3096C299.489 12.3096 300.161 13.2048 300.161 14.5477C300.161 14.6596 300.161 14.9953 300.161 14.9953H299.489V15.1072Z" fill="#F0F0F0"/>
<path d="M303.521 22.381C302.289 22.381 301.393 21.4858 301.393 19.8072V14.8834C301.393 13.2048 302.289 12.3096 303.521 12.3096C304.865 12.3096 305.761 13.2048 305.761 14.8834V19.6953C305.761 21.4858 304.865 22.381 303.521 22.381ZM304.977 14.8834C304.977 13.6524 304.417 12.981 303.521 12.981C302.625 12.981 302.065 13.6524 302.065 14.8834V19.6953C302.065 20.9262 302.625 21.5977 303.521 21.5977C304.417 21.5977 304.977 20.9262 304.977 19.6953V14.8834Z" fill="#F0F0F0"/>
<path d="M310.688 22.1572V14.8834C310.688 13.6524 310.352 12.981 309.456 12.981C308.448 12.981 308 13.7643 308 15.1072V22.1572H307.328V12.4215H308V13.2048C308.112 12.6453 308.784 12.3096 309.456 12.3096C310.8 12.3096 311.36 13.0929 311.36 14.8834V22.1572H310.688Z" fill="#F0F0F0"/>
<path d="M321.665 15.1072V14.5477C321.665 13.6524 321.217 12.981 320.433 12.981C319.649 12.981 319.089 13.5405 319.089 14.5477C319.089 15.2191 319.425 15.7786 319.873 16.2262L321.441 17.681C322.113 18.2405 322.561 18.912 322.561 20.031C322.561 21.3739 321.777 22.381 320.433 22.381C318.865 22.381 318.305 21.262 318.305 19.9191V19.4715H318.977V19.9191C318.977 21.0381 319.425 21.7096 320.433 21.7096C321.329 21.7096 321.889 21.0381 321.889 20.031C321.889 19.3596 321.553 18.8 321.105 18.2405L319.537 16.7858C318.865 16.2262 318.417 15.5548 318.417 14.5477C318.417 13.2048 319.201 12.3096 320.433 12.3096C321.665 12.3096 322.337 13.2048 322.337 14.5477C322.337 14.6596 322.337 14.9953 322.337 14.9953H321.665V15.1072Z" fill="#F0F0F0"/>
<path d="M316.512 12.4214V19.6952C316.512 20.9262 315.952 21.5976 315.056 21.5976C314.16 21.5976 313.6 20.9262 313.6 19.6952V12.4214H312.928V19.6952C312.928 21.4857 313.824 22.269 315.056 22.269C316.288 22.269 317.184 21.3738 317.184 19.6952V12.4214H316.512Z" fill="#F0F0F0"/>
<path d="M294.225 18.5761V19.6952C294.225 20.9262 293.665 21.5976 292.769 21.5976C291.873 21.5976 291.313 20.9262 291.313 19.6952V12.4214H290.641V19.6952C290.641 21.2619 291.425 22.1571 292.545 22.269V26.969C292.321 27.0809 292.097 27.3047 292.097 27.6404C292.097 28.0881 292.433 28.3119 292.769 28.3119C293.217 28.3119 293.441 27.9762 293.441 27.6404C293.441 27.3047 293.217 27.0809 292.993 26.969V22.3809C294.113 22.269 294.897 21.3738 294.897 19.8071V12.4214H294.225V18.5761Z" fill="#F0F0F0"/>
<path fill-rule="evenodd" clip-rule="evenodd" d="M90.0569 391.666H82.8789V389.428H91.3809L103.701 411.809H110.879V414.047H102.377L90.0569 391.666Z" fill="#212121"/>
<path fill-rule="evenodd" clip-rule="evenodd" d="M166.422 391.666H173.6V389.428H165.097L152.777 411.809H145.6V414.047H154.102L166.422 391.666Z" fill="#212121"/>
<path fill-rule="evenodd" clip-rule="evenodd" d="M301.035 414.047H291.446L285.846 391.666H278.881V389.428H287.595L293.195 411.809H299.286L304.886 389.428H313.601V391.666H306.635L301.035 414.047Z" fill="#212121"/>
<path fill-rule="evenodd" clip-rule="evenodd" d="M220.884 389.428H230.473L236.073 411.809H243.038V414.047H234.324L228.724 391.666H222.633L217.033 414.047H208.318V411.809H215.284L220.884 389.428Z" fill="#212121"/>
<path fill-rule="evenodd" clip-rule="evenodd" d="M48.1593 402.857H21.2793V400.619H48.1593V402.857Z" fill="#724DFF"/>
<path d="M260.959 160.024C260.959 211.321 219.339 252.905 167.999 252.905C116.659 252.905 75.0391 211.321 75.0391 160.024C75.0391 108.727 116.659 67.1431 167.999 67.1431C219.339 67.1431 260.959 108.727 260.959 160.024Z" fill="black"/>
<path d="M123.76 236.585C110.29 228.815 99.1086 217.634 91.3416 204.17C83.5746 190.706 79.4966 175.435 79.5196 159.894C79.5426 144.354 83.6646 129.095 91.4716 115.653C99.2776 102.212 110.492 91.065 123.985 83.334L168 160.024L123.76 236.585Z" fill="#724DFF"/>
<path fill-rule="evenodd" clip-rule="evenodd" d="M123.266 236.416L127.746 228.023L128.734 228.55L124.254 236.942L123.266 236.416Z" fill="#949494"/>
<path fill-rule="evenodd" clip-rule="evenodd" d="M211.746 236.942L207.266 228.55L208.254 228.023L212.734 236.416L211.746 236.942Z" fill="#949494"/>
<path d="M247.519 160.024C247.519 203.905 211.916 239.477 167.999 239.477C124.081 239.477 88.4785 203.905 88.4785 160.024C88.4785 116.144 124.081 80.5718 167.999 80.5718C211.916 80.5718 247.519 116.144 247.519 160.024Z" fill="#212121"/>
<path d="M131.038 100.416C130.42 99.345 130.789 97.976 131.861 97.359C132.933 96.743 134.303 97.111 134.92 98.182L143.305 112.727C143.923 113.798 143.554 115.167 142.482 115.784C141.41 116.401 140.041 116.032 139.423 114.961L131.038 100.416Z" fill="#949494"/>
<path d="M22.3995 263.067C21.7074 263.067 21.1026 262.919 20.5851 262.624C20.0744 262.322 19.6779 261.895 19.3957 261.345C19.1202 260.787 18.9824 260.133 18.9824 259.381C18.9824 258.636 19.1202 257.988 19.3957 257.437C19.6712 256.88 20.0643 256.453 20.5751 256.158C21.0925 255.863 21.7007 255.715 22.3995 255.715C23.0984 255.715 23.7032 255.863 24.2139 256.158C24.7314 256.453 25.1245 256.88 25.3933 257.437C25.6688 257.988 25.8066 258.636 25.8066 259.381C25.8066 260.133 25.6688 260.787 25.3933 261.345C25.1178 261.895 24.7247 262.322 24.2139 262.624C23.7032 262.919 23.0984 263.067 22.3995 263.067ZM22.3995 262.03C23.0648 262.03 23.5823 261.801 23.9519 261.345C24.3215 260.888 24.5063 260.234 24.5063 259.381C24.5063 258.535 24.3215 257.887 23.9519 257.437C23.5823 256.98 23.0648 256.752 22.3995 256.752C21.7343 256.752 21.2168 256.977 20.8472 257.427C20.4776 257.877 20.2928 258.528 20.2928 259.381C20.2928 260.234 20.4776 260.888 20.8472 261.345C21.2168 261.801 21.7343 262.03 22.3995 262.03Z" fill="#949494"/>
<path d="M30.1015 263.067C29.1137 263.067 28.3644 262.815 27.8537 262.312C27.3497 261.801 27.0977 261.056 27.0977 260.076V255.805H28.3778V260.146C28.3778 260.764 28.5223 261.234 28.8113 261.556C29.1002 261.872 29.5303 262.03 30.1015 262.03C30.6593 262.03 31.0826 261.868 31.3716 261.546C31.6673 261.224 31.8151 260.757 31.8151 260.146V255.805H33.0953V260.076C33.0953 261.049 32.8399 261.791 32.3292 262.302C31.8185 262.812 31.0759 263.067 30.1015 263.067Z" fill="#949494"/>
<path d="M36.2839 262.976V256.873H33.9453V255.805H39.9429V256.873H37.5943V262.976H36.2839Z" fill="#949494"/>
<path d="M40.8418 255.805H43.9565C44.7293 255.805 45.3307 255.993 45.7608 256.369C46.1909 256.739 46.4059 257.246 46.4059 257.89C46.4059 258.535 46.1875 259.045 45.7507 259.421C45.3207 259.797 44.7226 259.985 43.9565 259.985H42.1421V262.976H40.8418V255.805ZM43.8053 258.978C44.2555 258.978 44.5949 258.887 44.8234 258.706C45.0586 258.518 45.1762 258.249 45.1762 257.9C45.1762 257.544 45.0619 257.276 44.8335 257.095C44.605 256.907 44.2623 256.813 43.8053 256.813H42.1421V258.978H43.8053Z" fill="#949494"/>
<path d="M50.5175 263.067C49.5297 263.067 48.7804 262.815 48.2697 262.312C47.7657 261.801 47.5137 261.056 47.5137 260.076V255.805H48.7939V260.146C48.7939 260.764 48.9383 261.234 49.2273 261.556C49.5163 261.872 49.9463 262.03 50.5175 262.03C51.0753 262.03 51.4987 261.868 51.7876 261.546C52.0833 261.224 52.2311 260.757 52.2311 260.146V255.805H53.5113V260.076C53.5113 261.049 53.2559 261.791 52.7452 262.302C52.2345 262.812 51.4919 263.067 50.5175 263.067Z" fill="#949494"/>
<path d="M56.6998 262.976V256.873H54.3613V255.805H60.3589V256.873H58.0102V262.976H56.6998Z" fill="#949494"/>
<path d="M28.1569 79.514V80.572H23.3386V79.615L25.778 76.9861C26.067 76.6706 26.2786 76.3818 26.413 76.12C26.5474 75.8581 26.6146 75.5996 26.6146 75.3445C26.6146 75.0155 26.5172 74.7671 26.3223 74.5992C26.1342 74.4313 25.862 74.3474 25.5058 74.3474C24.8742 74.3474 24.2257 74.5958 23.5604 75.0927L23.127 74.146C23.4092 73.8908 23.7721 73.6894 24.2156 73.5417C24.6591 73.3873 25.106 73.3101 25.5562 73.3101C26.2753 73.3101 26.8431 73.488 27.2598 73.8438C27.6831 74.193 27.8948 74.6663 27.8948 75.2639C27.8948 75.6735 27.8041 76.0596 27.6226 76.4221C27.4479 76.7847 27.1522 77.1909 26.7356 77.6408L24.9716 79.514H28.1569Z" fill="#949494"/>
<path d="M32.0832 75.9893C32.5334 75.9893 32.9299 76.0866 33.2726 76.2813C33.6154 76.4693 33.8808 76.7379 34.069 77.087C34.2571 77.4295 34.3512 77.8256 34.3512 78.2755C34.3512 78.7455 34.2437 79.1622 34.0286 79.5242C33.8136 79.8802 33.5045 80.1592 33.1013 80.3602C32.6981 80.5552 32.231 80.6522 31.7002 80.6522C31.2499 80.6522 30.8064 80.5782 30.3696 80.4312C29.9328 80.2762 29.5733 80.0712 29.291 79.8162L29.7245 78.8697C30.3763 79.3662 31.0416 79.6152 31.7203 79.6152C32.1706 79.6152 32.5133 79.5042 32.7485 79.2822C32.9904 79.0542 33.1114 78.732 33.1114 78.3158C33.1114 77.9196 32.987 77.604 32.7384 77.369C32.4965 77.1273 32.1706 77.0065 31.7606 77.0065C31.4784 77.0065 31.213 77.0602 30.9643 77.1676C30.7157 77.2683 30.4973 77.4194 30.3091 77.6208H29.5229V73.4009H34.0186V74.408H30.793V76.3619C31.1558 76.1135 31.5859 75.9893 32.0832 75.9893Z" fill="#949494"/>
<path d="M28.1569 100.776V101.834H23.3386V100.877L25.778 98.2478C26.067 97.9328 26.2786 97.6438 26.413 97.3818C26.5474 97.1198 26.6146 96.8618 26.6146 96.6068C26.6146 96.2778 26.5172 96.0288 26.3223 95.8608C26.1342 95.6938 25.862 95.6098 25.5058 95.6098C24.8742 95.6098 24.2257 95.8578 23.5604 96.3548L23.127 95.4078C23.4092 95.1528 23.7721 94.9518 24.2156 94.8038C24.6591 94.6488 25.106 94.5718 25.5562 94.5718C26.2753 94.5718 26.8431 94.7498 27.2598 95.1058C27.6831 95.4548 27.8948 95.9288 27.8948 96.5258C27.8948 96.9358 27.8041 97.3218 27.6226 97.6838C27.4479 98.0468 27.1522 98.4528 26.7356 98.9028L24.9716 100.776H28.1569Z" fill="#949494"/>
<path d="M31.7009 101.924C30.8474 101.924 30.1956 101.612 29.7453 100.988C29.3018 100.357 29.0801 99.4398 29.0801 98.2378C29.0801 97.0568 29.3018 96.1528 29.7453 95.5288C30.1956 94.9048 30.8474 94.5918 31.7009 94.5918C32.5543 94.5918 33.2028 94.9048 33.6463 95.5288C34.0965 96.1468 34.3217 97.0498 34.3217 98.2378C34.3217 99.4328 34.0965 100.347 33.6463 100.978C33.2028 101.609 32.5543 101.924 31.7009 101.924ZM31.7009 100.907C32.1645 100.907 32.5005 100.696 32.7089 100.273C32.9239 99.8428 33.0314 99.1648 33.0314 98.2378C33.0314 97.3248 32.9239 96.6598 32.7089 96.2438C32.5005 95.8208 32.1645 95.6098 31.7009 95.6098C31.2372 95.6098 30.8978 95.8208 30.6828 96.2438C30.4745 96.6598 30.3703 97.3248 30.3703 98.2378C30.3703 99.1648 30.4745 99.8428 30.6828 100.273C30.8978 100.696 31.2372 100.907 31.7009 100.907Z" fill="#949494"/>
<path d="M26.6244 122.038H28.1868V123.095H23.7617V122.038H25.3342V117.415L23.8726 118.291V117.133L25.8684 115.924H26.6244V122.038Z" fill="#949494"/>
<path d="M32.0832 118.513C32.5334 118.513 32.9299 118.61 33.2726 118.805C33.6153 118.993 33.8808 119.261 34.0689 119.61C34.2571 119.953 34.3512 120.349 34.3512 120.799C34.3512 121.269 34.2436 121.685 34.0286 122.048C33.8136 122.404 33.5044 122.682 33.1012 122.884C32.698 123.078 32.231 123.176 31.7001 123.176C31.2499 123.176 30.8064 123.102 30.3696 122.954C29.9328 122.8 29.5732 122.595 29.291 122.34L29.7244 121.393C30.3763 121.89 31.0416 122.138 31.7203 122.138C32.1705 122.138 32.5132 122.028 32.7484 121.806C32.9904 121.578 33.1113 121.255 33.1113 120.839C33.1113 120.443 32.987 120.127 32.7384 119.892C32.4964 119.651 32.1705 119.53 31.7606 119.53C31.4784 119.53 31.2129 119.584 30.9643 119.691C30.7156 119.792 30.4972 119.943 30.3091 120.144H29.5228V115.924H34.0185V116.931H30.7929V118.885C31.1558 118.637 31.5859 118.513 32.0832 118.513Z" fill="#949494"/>
<path d="M26.6244 143.3H28.1868V144.357H23.7617V143.3H25.3342V138.677L23.8726 139.553V138.395L25.8684 137.186H26.6244V143.3Z" fill="#949494"/>
<path d="M31.7009 144.448C30.8475 144.448 30.1956 144.136 29.7454 143.511C29.3019 142.88 29.0801 141.963 29.0801 140.762C29.0801 139.58 29.3019 138.677 29.7454 138.052C30.1956 137.428 30.8475 137.116 31.7009 137.116C32.5544 137.116 33.2028 137.428 33.6464 138.052C34.0966 138.67 34.3217 139.573 34.3217 140.762C34.3217 141.957 34.0966 142.87 33.6464 143.501C33.2028 144.132 32.5544 144.448 31.7009 144.448ZM31.7009 143.431C32.1646 143.431 32.5006 143.219 32.7089 142.796C32.924 142.366 33.0315 141.688 33.0315 140.762C33.0315 139.848 32.924 139.184 32.7089 138.767C32.5006 138.344 32.1646 138.133 31.7009 138.133C31.2372 138.133 30.8979 138.344 30.6828 138.767C30.4745 139.184 30.3704 139.848 30.3704 140.762C30.3704 141.688 30.4745 142.366 30.6828 142.796C30.8979 143.219 31.2372 143.431 31.7009 143.431Z" fill="#949494"/>
<path d="M32.0832 161.037C32.5334 161.037 32.9299 161.134 33.2726 161.329C33.6153 161.517 33.8808 161.785 34.0689 162.134C34.2571 162.477 34.3512 162.873 34.3512 163.323C34.3512 163.793 34.2437 164.209 34.0286 164.572C33.8136 164.928 33.5045 165.206 33.1013 165.408C32.6981 165.602 32.231 165.7 31.7001 165.7C31.2499 165.7 30.8064 165.626 30.3696 165.478C29.9328 165.324 29.5733 165.119 29.291 164.864L29.7245 163.917C30.3763 164.414 31.0416 164.662 31.7203 164.662C32.1705 164.662 32.5133 164.552 32.7485 164.33C32.9904 164.102 33.1113 163.779 33.1113 163.363C33.1113 162.967 32.987 162.651 32.7384 162.416C32.4965 162.175 32.1705 162.054 31.7606 162.054C31.4784 162.054 31.2129 162.108 30.9643 162.215C30.7157 162.316 30.4973 162.467 30.3091 162.668H29.5229V158.448H34.0185V159.455H30.7929V161.409C31.1558 161.161 31.5859 161.037 32.0832 161.037Z" fill="#949494"/>
<path d="M31.7009 186.972C30.8474 186.972 30.1956 186.66 29.7454 186.035C29.3018 185.404 29.0801 184.488 29.0801 183.286C29.0801 182.104 29.3018 181.201 29.7454 180.577C30.1956 179.952 30.8474 179.64 31.7009 179.64C32.5543 179.64 33.2028 179.952 33.6463 180.577C34.0966 181.194 34.3217 182.098 34.3217 183.286C34.3217 184.481 34.0966 185.394 33.6463 186.025C33.2028 186.657 32.5543 186.972 31.7009 186.972ZM31.7009 185.955C32.1646 185.955 32.5006 185.743 32.7089 185.32C32.9239 184.891 33.0314 184.213 33.0314 183.286C33.0314 182.373 32.9239 181.708 32.7089 181.292C32.5006 180.869 32.1646 180.657 31.7009 180.657C31.2372 180.657 30.8978 180.869 30.6828 181.292C30.4745 181.708 30.3703 182.373 30.3703 183.286C30.3703 184.213 30.4745 184.891 30.6828 185.32C30.8978 185.743 31.2372 185.955 31.7009 185.955Z" fill="#949494"/>
<path d="M24.9531 205.927V204.92H27.9872V205.927H24.9531Z" fill="#949494"/>
<path d="M32.0852 203.561C32.5354 203.561 32.9319 203.658 33.2746 203.853C33.6173 204.041 33.8828 204.309 34.0709 204.658C34.2591 205.001 34.3532 205.397 34.3532 205.847C34.3532 206.317 34.2457 206.733 34.0306 207.096C33.8156 207.451 33.5065 207.73 33.1033 207.932C32.7001 208.126 32.233 208.224 31.7021 208.224C31.2519 208.224 30.8084 208.15 30.3716 208.002C29.9348 207.848 29.5753 207.643 29.293 207.388L29.7265 206.441C30.3783 206.938 31.0436 207.186 31.7223 207.186C32.1725 207.186 32.5153 207.075 32.7505 206.854C32.9924 206.626 33.1133 206.303 33.1133 205.887C33.1133 205.491 32.989 205.175 32.7404 204.94C32.4985 204.699 32.1725 204.578 31.7626 204.578C31.4804 204.578 31.2149 204.631 30.9663 204.739C30.7177 204.84 30.4993 204.991 30.3111 205.192H29.5249V200.972H34.0205V201.979H30.7949V203.933C31.1578 203.685 31.5879 203.561 32.0852 203.561Z" fill="#949494"/>
<path d="M18.9082 227.189V226.182H21.9423V227.189H18.9082Z" fill="#949494"/>
<path d="M26.6244 228.347H28.1868V229.405H23.7617V228.347H25.3342V223.725L23.8726 224.601V223.443L25.8684 222.234H26.6244V228.347Z" fill="#949494"/>
<path d="M31.7009 229.496C30.8474 229.496 30.1956 229.183 29.7454 228.559C29.3019 227.928 29.0801 227.011 29.0801 225.809C29.0801 224.628 29.3019 223.725 29.7454 223.1C30.1956 222.476 30.8474 222.164 31.7009 222.164C32.5543 222.164 33.2028 222.476 33.6463 223.1C34.0966 223.718 34.3217 224.621 34.3217 225.809C34.3217 227.005 34.0966 227.918 33.6463 228.549C33.2028 229.18 32.5543 229.496 31.7009 229.496ZM31.7009 228.478C32.1646 228.478 32.5006 228.267 32.7089 227.844C32.9239 227.414 33.0315 226.736 33.0315 225.809C33.0315 224.896 32.9239 224.232 32.7089 223.815C32.5006 223.392 32.1646 223.181 31.7009 223.181C31.2372 223.181 30.8979 223.392 30.6828 223.815C30.4745 224.232 30.3703 224.896 30.3703 225.809C30.3703 226.736 30.4745 227.414 30.6828 227.844C30.8979 228.267 31.2372 228.478 31.7009 228.478Z" fill="#949494"/>
<path d="M33.4642 275.286V274.292H34.7291V269.394C34.2599 269.614 33.7825 269.801 33.2969 269.955V268.824C33.7792 268.67 34.3042 268.437 34.8719 268.125H35.9793V274.312H37.2688V275.286H33.4642Z" fill="#949494"/>
<path d="M41.4126 275.399C40.6153 275.399 39.9951 275.059 39.5522 274.381C39.1125 273.699 38.8926 272.786 38.8926 271.642C38.8926 270.484 39.1092 269.588 39.5423 268.952C39.9787 268.312 40.6055 267.993 41.4225 267.993C42.2264 267.993 42.8449 268.319 43.278 268.971C43.7144 269.624 43.9326 270.514 43.9326 271.642C43.9326 272.392 43.8391 273.048 43.6521 273.609C43.4651 274.166 43.1796 274.604 42.7957 274.922C42.4151 275.24 41.9541 275.399 41.4126 275.399ZM41.4323 274.332C42.2494 274.332 42.6579 273.437 42.6579 271.647C42.6579 271.299 42.6366 270.978 42.5939 270.683C42.5512 270.388 42.484 270.115 42.3921 269.866C42.3035 269.614 42.1772 269.417 42.0131 269.276C41.8523 269.132 41.6604 269.06 41.4373 269.06C41.2043 269.06 41.0025 269.132 40.8319 269.276C40.6612 269.417 40.53 269.614 40.4381 269.866C40.3462 270.115 40.279 270.388 40.2363 270.683C40.1937 270.978 40.1723 271.301 40.1723 271.651C40.1723 272.058 40.1937 272.417 40.2363 272.728C40.279 273.04 40.3462 273.32 40.4381 273.569C40.5333 273.815 40.6645 274.004 40.8319 274.135C40.9992 274.266 41.1994 274.332 41.4323 274.332Z" fill="#949494"/>
<path d="M50.5915 274.415C50.8147 274.415 51.0099 274.371 51.1772 274.282C51.3446 274.191 51.4758 274.066 51.571 273.909C51.6694 273.748 51.7416 273.573 51.7876 273.382C51.8368 273.192 51.8614 272.987 51.8614 272.768C51.8614 272.276 51.7547 271.876 51.5415 271.568C51.3282 271.256 51.0083 271.101 50.5817 271.101C50.2962 271.101 50.0551 271.178 49.8582 271.332C49.6646 271.486 49.5251 271.683 49.4398 271.922C49.3578 272.161 49.3168 272.437 49.3168 272.748C49.3168 272.974 49.3397 273.184 49.3857 273.378C49.4349 273.571 49.5071 273.748 49.6022 273.909C49.7007 274.066 49.8336 274.191 50.0009 274.282C50.1715 274.371 50.3684 274.415 50.5915 274.415ZM50.3405 275.399C49.6876 275.399 49.1396 275.159 48.6966 274.681C48.2569 274.202 48.0371 273.571 48.0371 272.787C48.0371 272.43 48.0879 272.092 48.1897 271.774C48.2914 271.456 48.4374 271.173 48.6277 270.924C48.8213 270.674 49.074 270.478 49.3857 270.333C49.6974 270.186 50.0469 270.112 50.434 270.112C50.7819 270.112 51.0755 270.184 51.3151 270.329C51.5579 270.47 51.7269 270.617 51.822 270.771V268.121H53.0328V273.938C53.0328 273.958 53.0476 274.407 53.0771 275.286H51.8269L51.8171 274.641C51.7876 274.717 51.7383 274.794 51.6694 274.873C51.6005 274.951 51.5087 275.033 51.3938 275.118C51.279 275.2 51.1297 275.268 50.9459 275.32C50.7622 275.372 50.5604 275.399 50.3405 275.399Z" fill="#949494"/>
<path d="M55.9318 271.096H56.9998C57.1672 271.096 57.3214 271.081 57.4625 271.051C57.6036 271.019 57.7365 270.966 57.8612 270.894C57.9891 270.822 58.0892 270.72 58.1614 270.589C58.2336 270.458 58.2697 270.301 58.2697 270.117C58.2697 269.763 58.1466 269.522 57.9005 269.394C57.6544 269.263 57.2672 269.198 56.739 269.198H55.9318V271.096ZM55.9465 274.218H57.0737C58.081 274.218 58.5847 273.882 58.5847 273.21C58.5847 272.791 58.4715 272.502 58.2451 272.345C58.0219 272.187 57.6216 272.109 57.0441 272.109H55.9465V274.218ZM54.6816 275.286V268.125H56.6651C56.8719 268.125 57.0572 268.13 57.2213 268.14C57.3854 268.147 57.5724 268.165 57.7824 268.194C57.9957 268.221 58.1827 268.26 58.3435 268.312C58.5043 268.362 58.6667 268.432 58.8308 268.524C58.9948 268.616 59.1294 268.725 59.2344 268.853C59.3426 268.978 59.4296 269.135 59.4952 269.325C59.5641 269.512 59.5986 269.724 59.5986 269.96C59.5986 270.668 59.2819 271.178 58.6487 271.489C59.0752 271.604 59.3951 271.82 59.6084 272.138C59.8217 272.453 59.9283 272.828 59.9283 273.264C59.9283 273.537 59.8742 273.792 59.7659 274.032C59.6576 274.268 59.4985 274.481 59.2885 274.671C59.0785 274.861 58.8012 275.012 58.4567 275.123C58.1155 275.232 57.7283 275.286 57.2951 275.286H54.6816Z" fill="#949494"/>
<path fill-rule="evenodd" clip-rule="evenodd" d="M59.36 76.0952V227.167H56V76.0952H59.36Z" fill="#424242"/>
<path fill-rule="evenodd" clip-rule="evenodd" d="M59.36 137.643V227.167H56V137.643H59.36Z" fill="#724DFF"/>
<path d="M57.681 129.809C63.5573 129.809 68.321 134.569 68.321 140.44C68.321 146.311 63.5573 151.071 57.681 151.071C51.8047 151.071 47.041 146.311 47.041 140.44C47.041 134.569 51.8047 129.809 57.681 129.809Z" fill="#724DFF"/>
<path d="M57.6815 134.285C61.0836 134.285 63.8415 137.041 63.8415 140.44C63.8415 143.839 61.0836 146.595 57.6815 146.595C54.2794 146.595 51.5215 143.839 51.5215 140.44C51.5215 137.041 54.2794 134.285 57.6815 134.285Z" fill="#212121"/>
<path d="M315.06 80.662C314.207 80.662 313.555 80.35 313.105 79.725C312.661 79.094 312.439 78.1778 312.439 76.9759C312.439 75.7942 312.661 74.8911 313.105 74.2667C313.555 73.6423 314.207 73.3301 315.06 73.3301C315.914 73.3301 316.562 73.6423 317.006 74.2667C317.456 74.8844 317.681 75.7875 317.681 76.9759C317.681 78.1711 317.456 79.084 317.006 79.715C316.562 80.347 315.914 80.662 315.06 80.662ZM315.06 79.645C315.524 79.645 315.86 79.433 316.068 79.01C316.283 78.5807 316.391 77.9025 316.391 76.9759C316.391 76.0628 316.283 75.3981 316.068 74.9818C315.86 74.5588 315.524 74.3473 315.06 74.3473C314.597 74.3473 314.257 74.5588 314.042 74.9818C313.834 75.3981 313.73 76.0628 313.73 76.9759C313.73 77.9025 313.834 78.5807 314.042 79.01C314.257 79.433 314.597 79.645 315.06 79.645Z" fill="#949494"/>
<path d="M302.268 102.975V101.968H305.302V102.975H302.268Z" fill="#949494"/>
<path d="M309.984 104.133H311.546V105.191H307.121V104.133H308.693V99.51L307.232 100.387V99.228L309.228 98.02H309.984V104.133Z" fill="#949494"/>
<path d="M315.06 105.281C314.207 105.281 313.555 104.969 313.104 104.345C312.661 103.713 312.439 102.797 312.439 101.595C312.439 100.413 312.661 99.5102 313.104 98.8862C313.555 98.2612 314.207 97.9492 315.06 97.9492C315.913 97.9492 316.562 98.2612 317.005 98.8862C317.456 99.5042 317.681 100.407 317.681 101.595C317.681 102.79 317.456 103.703 317.005 104.335C316.562 104.966 315.913 105.281 315.06 105.281ZM315.06 104.264C315.524 104.264 315.86 104.053 316.068 103.63C316.283 103.2 316.391 102.522 316.391 101.595C316.391 100.682 316.283 100.017 316.068 99.6012C315.86 99.1782 315.524 98.9662 315.06 98.9662C314.596 98.9662 314.257 99.1782 314.042 99.6012C313.834 100.017 313.729 100.682 313.729 101.595C313.729 102.522 313.834 103.2 314.042 103.63C314.257 104.053 314.596 104.264 315.06 104.264Z" fill="#949494"/>
<path d="M302.258 127.594V126.586H305.292V127.594H302.258Z" fill="#949494"/>
<path d="M311.516 128.752V129.809H306.698V128.853L309.137 126.224C309.426 125.908 309.638 125.62 309.772 125.358C309.907 125.096 309.974 124.837 309.974 124.582C309.974 124.253 309.876 124.005 309.681 123.837C309.493 123.669 309.221 123.585 308.865 123.585C308.233 123.585 307.585 123.834 306.92 124.33L306.486 123.384C306.768 123.129 307.131 122.927 307.575 122.779C308.018 122.625 308.465 122.548 308.915 122.548C309.634 122.548 310.202 122.726 310.619 123.082C311.042 123.431 311.254 123.904 311.254 124.502C311.254 124.911 311.163 125.297 310.982 125.66C310.807 126.022 310.511 126.429 310.095 126.879L308.331 128.752H311.516Z" fill="#949494"/>
<path d="M315.06 129.9C314.207 129.9 313.555 129.588 313.105 128.963C312.661 128.332 312.439 127.416 312.439 126.214C312.439 125.032 312.661 124.129 313.105 123.505C313.555 122.88 314.207 122.568 315.06 122.568C315.913 122.568 316.562 122.88 317.005 123.505C317.456 124.122 317.681 125.025 317.681 126.214C317.681 127.409 317.456 128.322 317.005 128.953C316.562 129.584 315.913 129.9 315.06 129.9ZM315.06 128.883C315.524 128.883 315.86 128.671 316.068 128.248C316.283 127.819 316.391 127.14 316.391 126.214C316.391 125.301 316.283 124.636 316.068 124.22C315.86 123.797 315.524 123.585 315.06 123.585C314.596 123.585 314.257 123.797 314.042 124.22C313.834 124.636 313.729 125.301 313.729 126.214C313.729 127.14 313.834 127.819 314.042 128.248C314.257 128.671 314.596 128.883 315.06 128.883Z" fill="#949494"/>
<path d="M302.268 152.213V151.206H305.302V152.213H302.268Z" fill="#949494"/>
<path d="M310.125 150.742C310.548 150.856 310.871 151.065 311.092 151.367C311.321 151.669 311.435 152.042 311.435 152.485C311.435 153.109 311.203 153.603 310.74 153.965C310.283 154.328 309.664 154.509 308.885 154.509C308.401 154.509 307.934 154.435 307.484 154.287C307.04 154.14 306.674 153.935 306.385 153.673L306.829 152.726C307.467 153.223 308.136 153.472 308.834 153.472C309.291 153.472 309.631 153.381 309.853 153.2C310.081 153.018 310.195 152.743 310.195 152.374C310.195 152.011 310.081 151.746 309.853 151.578C309.624 151.404 309.271 151.316 308.794 151.316H307.847V150.279H308.623C309.55 150.279 310.014 149.927 310.014 149.222C310.014 148.893 309.913 148.641 309.711 148.466C309.51 148.292 309.228 148.204 308.865 148.204C308.22 148.204 307.574 148.453 306.929 148.95L306.496 148.003C306.785 147.748 307.148 147.546 307.585 147.399C308.028 147.244 308.482 147.167 308.945 147.167C309.651 147.167 310.212 147.342 310.629 147.691C311.052 148.033 311.264 148.493 311.264 149.07C311.257 149.467 311.153 149.812 310.951 150.108C310.756 150.397 310.481 150.608 310.125 150.742Z" fill="#949494"/>
<path d="M315.06 154.519C314.207 154.519 313.555 154.207 313.104 153.582C312.661 152.951 312.439 152.035 312.439 150.833C312.439 149.651 312.661 148.748 313.104 148.124C313.555 147.499 314.207 147.187 315.06 147.187C315.913 147.187 316.562 147.499 317.005 148.124C317.456 148.741 317.681 149.645 317.681 150.833C317.681 152.028 317.456 152.941 317.005 153.572C316.562 154.204 315.913 154.519 315.06 154.519ZM315.06 153.502C315.524 153.502 315.86 153.29 316.068 152.867C316.283 152.438 316.391 151.76 316.391 150.833C316.391 149.92 316.283 149.255 316.068 148.839C315.86 148.416 315.524 148.204 315.06 148.204C314.596 148.204 314.257 148.416 314.042 148.839C313.834 149.255 313.729 149.92 313.729 150.833C313.729 151.76 313.834 152.438 314.042 152.867C314.257 153.29 314.596 153.502 315.06 153.502Z" fill="#949494"/>
<path d="M302.268 176.832V175.825H305.302V176.832H302.268Z" fill="#949494"/>
<path d="M311.798 176.631V177.648H310.78V179.048H309.51V177.648H306.385V176.681L309.742 171.877H310.78V176.631H311.798ZM307.615 176.631H309.51V173.901L307.615 176.631Z" fill="#949494"/>
<path d="M315.06 179.139C314.207 179.139 313.555 178.826 313.104 178.202C312.661 177.571 312.439 176.654 312.439 175.452C312.439 174.271 312.661 173.368 313.104 172.743C313.555 172.119 314.207 171.807 315.06 171.807C315.913 171.807 316.562 172.119 317.005 172.743C317.456 173.361 317.681 174.264 317.681 175.452C317.681 176.648 317.456 177.561 317.005 178.192C316.562 178.823 315.913 179.139 315.06 179.139ZM315.06 178.121C315.524 178.121 315.86 177.91 316.068 177.487C316.283 177.057 316.391 176.379 316.391 175.452C316.391 174.539 316.283 173.875 316.068 173.458C315.86 173.035 315.524 172.824 315.06 172.824C314.596 172.824 314.257 173.035 314.042 173.458C313.834 173.875 313.729 174.539 313.729 175.452C313.729 176.379 313.834 177.057 314.042 177.487C314.257 177.91 314.596 178.121 315.06 178.121Z" fill="#949494"/>
<path d="M302.268 201.451V200.444H305.302V201.451H302.268Z" fill="#949494"/>
<path d="M309.399 199.085C309.849 199.085 310.246 199.182 310.588 199.377C310.931 199.565 311.197 199.833 311.385 200.182C311.573 200.525 311.667 200.921 311.667 201.371C311.667 201.841 311.559 202.257 311.344 202.62C311.129 202.976 310.82 203.254 310.417 203.456C310.014 203.65 309.547 203.748 309.016 203.748C308.566 203.748 308.122 203.674 307.685 203.526C307.249 203.372 306.889 203.167 306.607 202.912L307.04 201.965C307.692 202.462 308.357 202.71 309.036 202.71C309.486 202.71 309.829 202.6 310.064 202.378C310.306 202.15 310.427 201.827 310.427 201.411C310.427 201.015 310.303 200.699 310.054 200.464C309.812 200.223 309.486 200.102 309.076 200.102C308.794 200.102 308.529 200.156 308.28 200.263C308.031 200.364 307.813 200.515 307.625 200.716H306.839V196.496H311.334V197.503H308.109V199.457C308.472 199.209 308.902 199.085 309.399 199.085Z" fill="#949494"/>
<path d="M315.06 203.758C314.207 203.758 313.555 203.446 313.104 202.821C312.661 202.19 312.439 201.273 312.439 200.072C312.439 198.89 312.661 197.987 313.104 197.362C313.555 196.738 314.207 196.426 315.06 196.426C315.913 196.426 316.562 196.738 317.005 197.362C317.456 197.98 317.681 198.883 317.681 200.072C317.681 201.267 317.456 202.18 317.005 202.811C316.562 203.442 315.913 203.758 315.06 203.758ZM315.06 202.741C315.524 202.741 315.86 202.529 316.068 202.106C316.283 201.676 316.391 200.998 316.391 200.072C316.391 199.158 316.283 198.494 316.068 198.077C315.86 197.654 315.524 197.443 315.06 197.443C314.596 197.443 314.257 197.654 314.042 198.077C313.834 198.494 313.729 199.158 313.729 200.072C313.729 200.998 313.834 201.676 314.042 202.106C314.257 202.529 314.596 202.741 315.06 202.741Z" fill="#949494"/>
<path d="M302.268 226.07V225.063H305.302V226.07H302.268Z" fill="#949494"/>
<path d="M309.458 223.683C309.882 223.683 310.258 223.781 310.587 223.975C310.923 224.17 311.185 224.442 311.374 224.791C311.562 225.14 311.656 225.54 311.656 225.99C311.656 226.446 311.552 226.856 311.343 227.218C311.142 227.581 310.856 227.866 310.487 228.074C310.124 228.276 309.71 228.377 309.247 228.377C308.34 228.377 307.641 228.071 307.15 227.46C306.66 226.842 306.414 225.966 306.414 224.831C306.414 224.039 306.529 223.358 306.757 222.787C306.992 222.216 307.328 221.78 307.765 221.478C308.209 221.175 308.733 221.024 309.337 221.024C309.768 221.024 310.184 221.098 310.587 221.246C310.997 221.387 311.353 221.592 311.656 221.86L311.212 222.807C310.581 222.31 309.973 222.062 309.388 222.062C308.857 222.062 308.447 222.287 308.158 222.737C307.869 223.186 307.718 223.831 307.705 224.67C307.859 224.368 308.094 224.13 308.41 223.955C308.726 223.774 309.075 223.683 309.458 223.683ZM309.186 227.349C309.556 227.349 309.852 227.228 310.073 226.987C310.302 226.745 310.416 226.426 310.416 226.03C310.416 225.634 310.302 225.318 310.073 225.083C309.852 224.841 309.553 224.721 309.176 224.721C308.8 224.721 308.494 224.841 308.259 225.083C308.024 225.325 307.906 225.64 307.906 226.03C307.906 226.419 308.024 226.738 308.259 226.987C308.501 227.228 308.81 227.349 309.186 227.349Z" fill="#949494"/>
<path d="M315.06 228.377C314.207 228.377 313.555 228.064 313.104 227.44C312.661 226.809 312.439 225.892 312.439 224.69C312.439 223.509 312.661 222.606 313.104 221.981C313.555 221.357 314.207 221.045 315.06 221.045C315.913 221.045 316.562 221.357 317.005 221.981C317.456 222.599 317.681 223.502 317.681 224.69C317.681 225.886 317.456 226.799 317.005 227.43C316.562 228.061 315.913 228.377 315.06 228.377ZM315.06 227.359C315.524 227.359 315.86 227.148 316.068 226.725C316.283 226.295 316.391 225.617 316.391 224.69C316.391 223.777 316.283 223.113 316.068 222.696C315.86 222.273 315.524 222.062 315.06 222.062C314.596 222.062 314.257 222.273 314.042 222.696C313.834 223.113 313.729 223.777 313.729 224.69C313.729 225.617 313.834 226.295 314.042 226.725C314.257 227.148 314.596 227.359 315.06 227.359Z" fill="#949494"/>
<path d="M280.777 262.976V255.805H282.078V261.908H285.434V262.976H280.777Z" fill="#949494"/>
<path d="M286.418 262.976V255.805H291.216V256.832H287.688V258.817H291.004V259.844H287.688V261.949H291.216V262.976H286.418Z" fill="#949494"/>
<path d="M297.675 255.805H298.996L295.801 262.976H294.742L291.547 255.805H292.897L295.286 261.344L297.675 255.805Z" fill="#949494"/>
<path d="M299.678 262.976V255.805H304.476V256.832H300.948V258.817H304.265V259.844H300.948V261.949H304.476V262.976H299.678Z" fill="#949494"/>
<path d="M305.672 262.976V255.805H306.973V261.908H310.329V262.976H305.672Z" fill="#949494"/>
<path fill-rule="evenodd" clip-rule="evenodd" d="M284.481 76.0957V227.167H281.121V76.0957H284.481Z" fill="#424242"/>
<path fill-rule="evenodd" clip-rule="evenodd" d="M284.481 115.262V227.167H281.121V115.262H284.481Z" fill="#724DFF"/>
<path d="M305.76 48.1195H306.88V49.2386H305.76V50.3576H304.64V49.2386H303.52V48.1195H304.64V47.0005H305.76V48.1195Z" fill="#939393"/>
<path fill-rule="evenodd" clip-rule="evenodd" d="M309.679 40.286C307.86 40.286 306.319 41.826 306.319 43.6432C306.319 45.4604 307.86 47.0003 309.679 47.0003C310.644 47.0003 311.502 46.6173 312.068 46.06C312.671 45.3526 313.039 44.5863 313.039 43.6432C313.039 41.826 311.498 40.286 309.679 40.286ZM305.199 43.6432C305.199 41.208 307.242 39.167 309.679 39.167C312.116 39.167 314.159 41.208 314.159 43.6432C314.159 44.9307 313.638 45.9503 312.904 46.8049L312.89 46.8213L312.875 46.8364C312.097 47.614 310.946 48.1194 309.679 48.1194C307.242 48.1194 305.199 46.0784 305.199 43.6432Z" fill="#939393"/>
<path fill-rule="evenodd" clip-rule="evenodd" d="M312.876 46.0454L316.236 49.4026L315.444 50.1938L312.084 46.8367L312.876 46.0454Z" fill="#939393"/>
<path d="M322.559 50.3576H319.199L322.559 47.0005V50.3576Z" fill="#939393"/>
<path fill-rule="evenodd" clip-rule="evenodd" d="M166.88 39.1669C163.787 39.1669 161.28 41.6719 161.28 44.7621C161.28 47.8522 163.787 50.3573 166.88 50.3573C169.972 50.3573 172.48 47.8522 172.48 44.7621C172.48 41.6719 169.972 39.1669 166.88 39.1669ZM166.88 38.0479C163.168 38.0479 160.16 41.0539 160.16 44.7621C160.16 48.4703 163.168 51.4765 166.88 51.4765C170.591 51.4765 173.6 48.4703 173.6 44.7621C173.6 41.0539 170.591 38.0479 166.88 38.0479Z" fill="#949494"/>
<path d="M166.131 48.4928H167.624V44.0166H166.131V48.4928Z" fill="#949494"/>
<path d="M167.624 41.7777C167.624 41.3657 167.29 41.0317 166.878 41.0317C166.465 41.0317 166.131 41.3657 166.131 41.7777C166.131 42.1897 166.465 42.5237 166.878 42.5237C167.29 42.5237 167.624 42.1897 167.624 41.7777Z" fill="#949494"/>
</svg>
