<svg width="336" height="470" viewBox="0 0 336 470" fill="none" xmlns="http://www.w3.org/2000/svg">
<rect width="336" height="470" fill="white"/>
<path d="M0 0H336V470H0V0Z" fill="#F0F0F0"/>
<path d="M0 0V304.381H70.112C91.168 304.381 112.112 307.514 132.048 314.341C143.248 318.145 155.232 320.272 167.664 320.272C180.096 320.272 192.08 318.145 203.28 314.341C223.216 307.514 244.16 304.381 265.216 304.381H336V0H0Z" fill="#212121"/>
<path d="M0 440.905H336V470H0V440.905Z" fill="black"/>
<path d="M321.44 454.557L320.096 453.326C319.984 453.214 319.872 453.214 319.76 453.326L318.528 454.557V449.41H311.36V448.514C311.36 448.067 311.808 447.619 312.256 447.619H323.792C324.128 447.619 324.352 447.395 324.352 447.06C324.352 446.724 324.128 446.5 323.904 446.5H312.256C311.136 446.5 310.24 447.395 310.24 448.514V462.95C310.24 463.174 310.352 463.286 310.464 463.286H322.336C323.456 463.286 324.352 462.39 324.352 461.271V449.41H321.44V454.557ZM313.264 461.495C313.264 461.831 313.04 462.055 312.704 462.055C312.368 462.055 312.144 461.831 312.144 461.495V450.976C312.144 450.64 312.368 450.417 312.704 450.417C313.04 450.417 313.264 450.64 313.264 450.976V461.495Z" fill="#F0F0F0"/>
<path d="M125.467 270.201H129.62C130.65 270.201 131.452 270.452 132.026 270.953C132.599 271.445 132.886 272.121 132.886 272.981C132.886 273.84 132.594 274.52 132.012 275.022C131.439 275.523 130.641 275.774 129.62 275.774H127.201V279.762H125.467V270.201ZM129.418 274.431C130.018 274.431 130.471 274.31 130.776 274.068C131.089 273.818 131.246 273.46 131.246 272.994C131.246 272.52 131.094 272.162 130.789 271.92C130.484 271.669 130.027 271.544 129.418 271.544H127.201V274.431H129.418Z" fill="#949494"/>
<path d="M142.294 279.762H140.466L139.243 276.58C139.135 276.284 138.97 276.078 138.746 275.962C138.522 275.845 138.231 275.787 137.872 275.787H136.138V279.762H134.418V270.201H138.517C139.601 270.201 140.426 270.438 140.99 270.913C141.555 271.387 141.837 272.068 141.837 272.954C141.837 273.589 141.667 274.131 141.326 274.579C140.995 275.017 140.52 275.331 139.902 275.519C140.466 275.635 140.874 276.029 141.125 276.7L142.294 279.762ZM138.275 274.444C138.929 274.444 139.413 274.324 139.727 274.082C140.04 273.84 140.197 273.473 140.197 272.981C140.197 272.497 140.04 272.139 139.727 271.906C139.422 271.665 138.938 271.544 138.275 271.544H136.111V274.444H138.275Z" fill="#949494"/>
<path d="M148.036 279.883C147.113 279.883 146.307 279.686 145.617 279.292C144.936 278.889 144.408 278.321 144.031 277.587C143.664 276.844 143.48 275.971 143.48 274.968C143.48 273.974 143.664 273.11 144.031 272.376C144.399 271.633 144.923 271.065 145.604 270.671C146.294 270.277 147.104 270.08 148.036 270.08C148.968 270.08 149.775 270.277 150.456 270.671C151.145 271.065 151.67 271.633 152.028 272.376C152.395 273.11 152.579 273.974 152.579 274.968C152.579 275.971 152.395 276.844 152.028 277.587C151.661 278.321 151.136 278.889 150.456 279.292C149.775 279.686 148.968 279.883 148.036 279.883ZM148.036 278.5C148.923 278.5 149.613 278.195 150.106 277.587C150.599 276.978 150.845 276.105 150.845 274.968C150.845 273.84 150.599 272.976 150.106 272.376C149.613 271.768 148.923 271.463 148.036 271.463C147.149 271.463 146.459 271.763 145.967 272.363C145.474 272.963 145.227 273.831 145.227 274.968C145.227 276.105 145.474 276.978 145.967 277.587C146.459 278.195 147.149 278.5 148.036 278.5Z" fill="#949494"/>
<path d="M158.696 279.883C157.755 279.883 156.931 279.682 156.223 279.279C155.524 278.876 154.987 278.307 154.61 277.573C154.234 276.83 154.046 275.962 154.046 274.968C154.046 273.983 154.234 273.124 154.61 272.39C154.987 271.647 155.524 271.078 156.223 270.684C156.931 270.282 157.755 270.08 158.696 270.08C159.341 270.08 159.946 270.183 160.51 270.389C161.084 270.586 161.559 270.863 161.935 271.222L161.371 272.484C160.941 272.135 160.51 271.884 160.08 271.732C159.659 271.571 159.207 271.49 158.723 271.49C157.8 271.49 157.083 271.79 156.573 272.39C156.071 272.99 155.82 273.849 155.82 274.968C155.82 276.096 156.071 276.964 156.573 277.573C157.074 278.173 157.791 278.473 158.723 278.473C159.207 278.473 159.659 278.397 160.08 278.245C160.51 278.084 160.941 277.828 161.371 277.479L161.935 278.742C161.559 279.1 161.084 279.382 160.51 279.588C159.946 279.784 159.341 279.883 158.696 279.883Z" fill="#949494"/>
<path d="M163.556 270.201H169.953V271.571H165.249V274.216H169.671V275.586H165.249V278.392H169.953V279.762H163.556V270.201Z" fill="#949494"/>
<path d="M174.656 279.883C173.922 279.883 173.232 279.784 172.587 279.588C171.951 279.391 171.408 279.109 170.96 278.742L171.552 277.479C172.018 277.828 172.502 278.088 173.003 278.258C173.514 278.419 174.07 278.5 174.67 278.5C175.333 278.5 175.844 278.383 176.202 278.151C176.569 277.918 176.753 277.591 176.753 277.17C176.753 276.812 176.583 276.539 176.242 276.351C175.911 276.154 175.36 275.971 174.589 275.801C173.389 275.541 172.515 275.205 171.968 274.794C171.422 274.382 171.149 273.782 171.149 272.994C171.149 272.43 171.301 271.929 171.606 271.49C171.91 271.051 172.34 270.707 172.896 270.456C173.46 270.205 174.11 270.08 174.845 270.08C175.517 270.08 176.153 270.183 176.753 270.389C177.362 270.586 177.86 270.863 178.245 271.222L177.667 272.484C176.816 271.803 175.875 271.463 174.845 271.463C174.226 271.463 173.738 271.593 173.38 271.853C173.021 272.103 172.842 272.448 172.842 272.887C172.842 273.263 172.999 273.549 173.312 273.746C173.635 273.943 174.182 274.127 174.952 274.297C175.75 274.485 176.399 274.691 176.901 274.914C177.403 275.129 177.788 275.411 178.057 275.76C178.326 276.101 178.46 276.53 178.46 277.05C178.46 277.622 178.308 278.124 178.003 278.554C177.698 278.974 177.259 279.301 176.686 279.534C176.112 279.767 175.436 279.883 174.656 279.883Z" fill="#949494"/>
<path d="M183.306 279.883C182.571 279.883 181.881 279.784 181.236 279.588C180.6 279.391 180.058 279.109 179.61 278.742L180.201 277.479C180.667 277.828 181.151 278.088 181.653 278.258C182.163 278.419 182.719 278.5 183.319 278.5C183.982 278.5 184.493 278.383 184.851 278.151C185.219 277.918 185.402 277.591 185.402 277.17C185.402 276.812 185.232 276.539 184.892 276.351C184.56 276.154 184.009 275.971 183.239 275.801C182.038 275.541 181.164 275.205 180.618 274.794C180.071 274.382 179.798 273.782 179.798 272.994C179.798 272.43 179.95 271.929 180.255 271.49C180.56 271.051 180.99 270.707 181.545 270.456C182.11 270.205 182.759 270.08 183.494 270.08C184.166 270.08 184.802 270.183 185.402 270.389C186.012 270.586 186.509 270.863 186.894 271.222L186.316 272.484C185.465 271.803 184.524 271.463 183.494 271.463C182.876 271.463 182.387 271.593 182.029 271.853C181.671 272.103 181.491 272.448 181.491 272.887C181.491 273.263 181.648 273.549 181.962 273.746C182.284 273.943 182.831 274.127 183.602 274.297C184.399 274.485 185.049 274.691 185.55 274.914C186.052 275.129 186.437 275.411 186.706 275.76C186.975 276.101 187.109 276.53 187.109 277.05C187.109 277.622 186.957 278.124 186.652 278.554C186.348 278.974 185.909 279.301 185.335 279.534C184.762 279.767 184.085 279.883 183.306 279.883Z" fill="#949494"/>
<path d="M188.716 270.201H190.45V279.762H188.716V270.201Z" fill="#949494"/>
<path d="M200.586 270.201V279.762H199.296L194.135 273.061V279.762H192.522V270.201H193.813L198.96 276.888V270.201H200.586Z" fill="#949494"/>
<path d="M210.651 274.592V279.185C210.212 279.4 209.684 279.57 209.065 279.695C208.447 279.82 207.816 279.883 207.17 279.883C206.185 279.883 205.329 279.686 204.603 279.292C203.878 278.898 203.322 278.334 202.937 277.6C202.552 276.866 202.359 275.989 202.359 274.968C202.359 273.965 202.552 273.097 202.937 272.363C203.322 271.629 203.869 271.065 204.577 270.671C205.293 270.277 206.131 270.08 207.09 270.08C207.762 270.08 208.389 270.179 208.971 270.376C209.563 270.572 210.056 270.85 210.45 271.208L209.858 272.47C209.41 272.121 208.971 271.871 208.541 271.718C208.111 271.566 207.641 271.49 207.13 271.49C206.145 271.49 205.396 271.786 204.886 272.376C204.384 272.967 204.133 273.831 204.133 274.968C204.133 276.141 204.393 277.027 204.913 277.627C205.432 278.218 206.207 278.513 207.238 278.513C207.865 278.513 208.483 278.428 209.092 278.258V275.841H207.023V274.592H210.651Z" fill="#949494"/>
<path d="M148.836 299.795H152.174V294.347C152.029 294.576 150.917 296.392 148.836 299.795ZM152.134 305.5V301.753H146.061V299.894L151.809 291.18H154.625V299.795H156.879V301.753H154.674V305.5H152.134Z" fill="#F0F0F0"/>
<path d="M163.789 305.726C162.194 305.726 160.954 305.048 160.068 303.69C159.189 302.326 158.749 300.5 158.749 298.212C158.749 295.897 159.182 294.104 160.049 292.832C160.921 291.553 162.175 290.914 163.809 290.914C165.417 290.914 166.654 291.566 167.52 292.871C168.393 294.176 168.829 295.956 168.829 298.212C168.829 299.713 168.642 301.025 168.268 302.146C167.894 303.261 167.323 304.136 166.555 304.772C165.794 305.408 164.872 305.726 163.789 305.726ZM163.829 303.592C165.463 303.592 166.28 301.802 166.28 298.222C166.28 297.527 166.237 296.884 166.152 296.294C166.066 295.704 165.932 295.16 165.748 294.661C165.571 294.156 165.318 293.763 164.99 293.481C164.669 293.193 164.285 293.048 163.838 293.048C163.372 293.048 162.969 293.193 162.628 293.481C162.286 293.763 162.024 294.156 161.84 294.661C161.656 295.16 161.522 295.704 161.436 296.294C161.351 296.884 161.309 297.53 161.309 298.232C161.309 299.045 161.351 299.763 161.436 300.386C161.522 301.008 161.656 301.569 161.84 302.067C162.03 302.559 162.293 302.936 162.628 303.198C162.962 303.461 163.363 303.592 163.829 303.592Z" fill="#F0F0F0"/>
<path d="M184.166 305.697C183.076 305.697 182.2 305.346 181.537 304.644C180.875 303.943 180.543 303.051 180.543 301.969C180.543 300.907 180.875 300.018 181.537 299.304C182.2 298.582 183.073 298.222 184.156 298.222C185.239 298.222 186.115 298.582 186.784 299.304C187.454 300.025 187.788 300.913 187.788 301.969C187.788 303.057 187.457 303.953 186.794 304.654C186.131 305.349 185.255 305.697 184.166 305.697ZM184.156 304.162C184.674 304.162 185.061 303.989 185.317 303.641C185.58 303.294 185.711 302.736 185.711 301.969C185.711 301.235 185.586 300.684 185.337 300.317C185.088 299.95 184.694 299.766 184.156 299.766C183.624 299.766 183.234 299.946 182.984 300.307C182.735 300.667 182.61 301.218 182.61 301.959C182.61 302.726 182.738 303.287 182.994 303.641C183.25 303.989 183.637 304.162 184.156 304.162ZM173.849 305.5L183.014 291.18H185.012L175.848 305.5H173.849ZM174.627 298.468C173.511 298.468 172.629 298.14 171.979 297.484C171.329 296.822 171.005 295.907 171.005 294.74C171.005 293.593 171.329 292.684 171.979 292.016C172.629 291.34 173.511 291.003 174.627 291.003C175.736 291.003 176.616 291.34 177.265 292.016C177.921 292.691 178.25 293.599 178.25 294.74C178.25 295.914 177.925 296.828 177.275 297.484C176.625 298.14 175.743 298.468 174.627 298.468ZM174.627 296.933C175.146 296.933 175.533 296.763 175.789 296.422C176.045 296.074 176.173 295.517 176.173 294.75C176.173 294.009 176.048 293.455 175.799 293.088C175.556 292.72 175.165 292.537 174.627 292.537C174.089 292.537 173.695 292.72 173.446 293.088C173.203 293.448 173.082 293.999 173.082 294.74C173.082 295.507 173.21 296.065 173.466 296.412C173.721 296.76 174.109 296.933 174.627 296.933Z" fill="#F0F0F0"/>
<path d="M59.3601 50.3575H43.6801C40.5441 50.3575 38.0801 47.8956 38.0801 44.7622C38.0801 41.6289 40.5441 39.167 43.6801 39.167H59.3601C62.4961 39.167 64.9601 41.6289 64.9601 44.7622C64.9601 47.8956 62.3841 50.3575 59.3601 50.3575Z" fill="#373737"/>
<path d="M59.3609 49.2385C61.8249 49.2385 63.8409 47.2242 63.8409 44.7623C63.8409 42.3004 61.8249 40.2861 59.3609 40.2861C56.8969 40.2861 54.8809 42.3004 54.8809 44.7623C54.8809 47.2242 56.8969 49.2385 59.3609 49.2385Z" fill="#F4B70B"/>
<path d="M17.8417 49.339C17.0727 49.339 16.4007 49.1748 15.8257 48.8466C15.2583 48.5109 14.8177 48.0371 14.5041 47.4254C14.198 46.8062 14.0449 46.0788 14.0449 45.2433C14.0449 44.4152 14.198 43.6952 14.5041 43.0835C14.8103 42.4643 15.2471 41.9906 15.8145 41.6623C16.3895 41.334 17.0652 41.1699 17.8417 41.1699C18.6183 41.1699 19.2903 41.334 19.8577 41.6623C20.4327 41.9906 20.8695 42.4643 21.1681 43.0835C21.4743 43.6952 21.6273 44.4152 21.6273 45.2433C21.6273 46.0788 21.4743 46.8062 21.1681 47.4254C20.862 48.0371 20.4252 48.5109 19.8577 48.8466C19.2903 49.1748 18.6183 49.339 17.8417 49.339ZM17.8417 48.1864C18.5809 48.1864 19.1559 47.9327 19.5665 47.4254C19.9772 46.9181 20.1825 46.1907 20.1825 45.2433C20.1825 44.3033 19.9772 43.5833 19.5665 43.0835C19.1559 42.5762 18.5809 42.3225 17.8417 42.3225C17.1025 42.3225 16.5276 42.5725 16.1169 43.0723C15.7063 43.5721 15.5009 44.2958 15.5009 45.2433C15.5009 46.1907 15.7063 46.9181 16.1169 47.4254C16.5276 47.9327 17.1025 48.1864 17.8417 48.1864Z" fill="#424242"/>
<path d="M23.1074 49.2382V41.2705H28.3154V42.4232H24.541V44.6053H28.0914V45.7691H24.541V49.2382H23.1074Z" fill="#424242"/>
<path d="M29.5166 49.2382V41.2705H34.7246V42.4232H30.9502V44.6053H34.5006V45.7691H30.9502V49.2382H29.5166Z" fill="#424242"/>
<path d="M72.7226 49.339C71.9535 49.339 71.2815 49.1748 70.7066 48.8466C70.1391 48.5109 69.6986 48.0371 69.385 47.4254C69.0788 46.8062 68.9258 46.0788 68.9258 45.2433C68.9258 44.4152 69.0788 43.6952 69.385 43.0835C69.6911 42.4643 70.1279 41.9906 70.6954 41.6623C71.2703 41.334 71.946 41.1699 72.7226 41.1699C73.4991 41.1699 74.1711 41.334 74.7386 41.6623C75.3135 41.9906 75.7503 42.4643 76.049 43.0835C76.3551 43.6952 76.5082 44.4152 76.5082 45.2433C76.5082 46.0788 76.3551 46.8062 76.049 47.4254C75.7428 48.0371 75.306 48.5109 74.7386 48.8466C74.1711 49.1748 73.4991 49.339 72.7226 49.339ZM72.7226 48.1864C73.4618 48.1864 74.0367 47.9327 74.4474 47.4254C74.858 46.9181 75.0634 46.1907 75.0634 45.2433C75.0634 44.3033 74.858 43.5833 74.4474 43.0835C74.0367 42.5762 73.4618 42.3225 72.7226 42.3225C71.9834 42.3225 71.4084 42.5725 70.9978 43.0723C70.5871 43.5721 70.3818 44.2958 70.3818 45.2433C70.3818 46.1907 70.5871 46.9181 70.9978 47.4254C71.4084 47.9327 71.9834 48.1864 72.7226 48.1864Z" fill="#F4B70B"/>
<path d="M83.3532 41.2705H84.7082V49.2382H83.6332L79.3322 43.6541V49.2382H77.9883V41.2705H79.0632L83.3532 46.8434V41.2705Z" fill="#F4B70B"/>
<path d="M260.076 49.2381L259.281 47.3693H255.383L254.577 49.2381H253.121L256.727 41.2705H257.903L261.521 49.2381H260.076ZM255.865 46.2503H258.799L257.332 42.8372L255.865 46.2503Z" fill="#F4B70B"/>
<path d="M268.576 49.8982H267.4L270.301 40.8115H271.5L268.576 49.8982Z" fill="#949494"/>
<path d="M282.41 45.12C282.872 45.2543 283.227 45.4893 283.474 45.825C283.727 46.1607 283.854 46.5748 283.854 47.0672C283.854 47.7461 283.612 48.2795 283.126 48.6674C282.648 49.0479 281.98 49.2381 281.122 49.2381H277.504V41.2705H281.01C281.831 41.2705 282.477 41.457 282.947 41.83C283.418 42.1956 283.653 42.7029 283.653 43.3519C283.653 43.7697 283.541 44.1353 283.317 44.4486C283.1 44.7545 282.798 44.9783 282.41 45.12ZM278.915 44.6277H280.774C281.775 44.6277 282.275 44.2546 282.275 43.5086C282.275 43.1356 282.152 42.8558 281.906 42.6693C281.659 42.4828 281.282 42.3896 280.774 42.3896H278.915V44.6277ZM280.965 48.1191C281.487 48.1191 281.868 48.0258 282.107 47.8393C282.354 47.6528 282.477 47.3581 282.477 46.9553C282.477 46.545 282.354 46.2428 282.107 46.0488C281.868 45.8549 281.487 45.7579 280.965 45.7579H278.915V48.1191H280.965Z" fill="#949494"/>
<path d="M16.5071 22.1202V18.6422H21.1327V17.2792H16.5071V13.9109H21.5247V12.5322H15.0488V23.4989H21.6031V22.1202H16.5071Z" fill="#F0F0F0"/>
<path d="M35.515 23.4989H37.1301L34.5429 19.1122C35.86 18.6422 36.8165 17.3732 36.8165 15.9319C36.8165 14.0519 35.2798 12.5322 33.3982 12.5322H29.0078V23.4989H30.4661V19.3002H33.0533L35.515 23.4989ZM30.4661 13.8952H33.3982C34.4801 13.8952 35.3582 14.8039 35.3582 15.9319C35.3582 17.0599 34.4801 17.9842 33.3982 17.9842H30.4661V13.8952Z" fill="#F0F0F0"/>
<path d="M51.4675 23.4989H53.0198L48.9274 12.5322H47.281L43.1885 23.4989H44.7408L45.6346 21.0392H50.5738L51.4675 23.4989ZM46.1363 19.6762L48.0963 14.2712L50.072 19.6762H46.1363Z" fill="#F0F0F0"/>
<path d="M135.641 12.7568H137.667L140.032 20.0306L142.284 12.7568H144.311L141.158 22.1568H138.793L135.641 12.7568Z" fill="#F0F0F0"/>
<path d="M144.197 18.8002C144.197 16.7859 145.774 15.2192 147.8 15.2192C149.715 15.2192 151.404 16.7859 151.404 18.8002C151.404 20.8145 149.827 22.3811 147.8 22.3811C145.774 22.2692 144.197 20.7026 144.197 18.8002ZM149.602 18.8002C149.602 17.6811 148.814 16.8978 147.8 16.8978C146.787 16.8978 145.999 17.6811 145.999 18.8002C145.999 19.9192 146.787 20.7026 147.8 20.7026C148.814 20.5907 149.602 19.8073 149.602 18.8002Z" fill="#F0F0F0"/>
<path d="M152.418 13.5404C152.418 12.9809 152.868 12.4214 153.431 12.4214C153.994 12.4214 154.557 12.869 154.557 13.5404C154.557 14.1 154.107 14.5476 153.431 14.5476C152.868 14.5476 152.418 14.1 152.418 13.5404ZM152.531 15.4428H154.22V22.1571H152.531V15.4428Z" fill="#F0F0F0"/>
<path d="M155.57 18.8002C155.57 16.7859 157.034 15.2192 159.173 15.2192C160.525 15.2192 161.651 15.8907 162.214 16.8978L160.75 17.793C160.525 17.2335 159.849 16.8978 159.173 16.8978C158.16 16.8978 157.372 17.6811 157.372 18.6883C157.372 19.6954 158.16 20.4788 159.173 20.4788C159.849 20.4788 160.412 20.143 160.75 19.5835L162.214 20.4788C161.538 21.5978 160.412 22.2692 159.061 22.2692C157.034 22.2692 155.57 20.7026 155.57 18.8002Z" fill="#F0F0F0"/>
<path d="M166.493 20.7022C167.169 20.7022 167.732 20.3665 167.957 20.0307L169.421 20.8141C168.745 21.7093 167.732 22.2688 166.493 22.2688C164.241 22.2688 162.777 20.7022 162.777 18.6879C162.777 16.6736 164.241 15.1069 166.381 15.1069C168.407 15.1069 169.758 16.6736 169.758 18.6879C169.758 18.9117 169.758 19.1355 169.646 19.3593H164.579C164.804 20.3665 165.592 20.7022 166.493 20.7022ZM167.957 18.1284C167.732 17.1212 167.056 16.7855 166.268 16.7855C165.367 16.7855 164.692 17.2331 164.466 18.1284H167.957Z" fill="#F0F0F0"/>
<path d="M179.892 20.3664V22.1568H174.375V12.7568H176.289V20.3664H179.892Z" fill="#F0F0F0"/>
<path d="M184.17 20.7022C184.846 20.7022 185.409 20.3665 185.634 20.0307L186.985 20.8141C186.31 21.7093 185.296 22.2688 184.058 22.2688C181.806 22.2688 180.342 20.7022 180.342 18.6879C180.342 16.6736 181.806 15.1069 183.945 15.1069C185.972 15.1069 187.323 16.6736 187.323 18.6879C187.436 19.0236 187.436 19.2474 187.436 19.4712H182.369C182.594 20.3665 183.269 20.7022 184.17 20.7022ZM185.747 18.1284C185.521 17.1212 184.733 16.7855 184.058 16.7855C183.157 16.7855 182.481 17.2331 182.256 18.1284H185.747Z" fill="#F0F0F0"/>
<path d="M194.868 15.4429L192.279 22.1572H190.252L187.662 15.4429H189.576L191.265 20.1429L192.954 15.4429H194.868Z" fill="#F0F0F0"/>
<path d="M198.809 20.7022C199.484 20.7022 200.047 20.3665 200.273 20.0307L201.624 20.8141C200.948 21.7093 199.935 22.2688 198.696 22.2688C196.444 22.2688 194.98 20.7022 194.98 18.6879C194.98 16.6736 196.444 15.1069 198.584 15.1069C200.61 15.1069 201.962 16.6736 201.962 18.6879C201.962 18.9117 201.962 19.1355 201.849 19.3593H196.782C197.12 20.3665 197.908 20.7022 198.809 20.7022ZM200.273 18.1284C200.047 17.1212 199.372 16.7855 198.696 16.7855C197.795 16.7855 197.12 17.2331 196.895 18.1284H200.273Z" fill="#F0F0F0"/>
<path d="M203.312 12.3096H205.001V22.1572H203.312V12.3096Z" fill="#F0F0F0"/>
<path d="M210.069 20.7022C210.744 20.7022 211.307 20.3665 211.532 20.0307L212.884 20.8141C212.208 21.7093 211.195 22.2688 209.956 22.2688C207.704 22.2688 206.24 20.7022 206.24 18.6879C206.24 16.6736 207.704 15.1069 209.843 15.1069C211.87 15.1069 213.221 16.6736 213.221 18.6879C213.221 18.9117 213.221 19.1355 213.109 19.3593H208.042C208.38 20.3665 209.168 20.7022 210.069 20.7022ZM211.532 18.1284C211.307 17.1212 210.632 16.7855 209.843 16.7855C208.943 16.7855 208.267 17.2331 208.042 18.1284H211.532Z" fill="#F0F0F0"/>
<path d="M218.401 15.2192V17.1216C217.501 17.0097 216.375 17.4573 216.375 18.8002V22.0454H214.686V15.3311H216.375V16.4502C216.712 15.6669 217.501 15.2192 218.401 15.2192Z" fill="#F0F0F0"/>
<path d="M115.26 18.5757H113.121V16.3376H115.26C116.274 16.3376 117.4 15.8899 118.075 15.2185L121.003 12.4209L122.579 13.9876L119.764 16.7852C118.526 17.9042 116.949 18.5757 115.26 18.5757Z" fill="#F4B70B"/>
<path d="M120.328 22.3813L118.752 20.8147L121.567 18.017C122.693 16.7861 124.269 16.2266 125.958 16.2266H128.098V18.4647H125.958C124.832 18.4647 123.819 18.9123 123.143 19.5837L120.328 22.3813Z" fill="#F4B70B"/>
<path d="M278.096 22.1572C278.096 22.1572 277.984 21.7096 277.984 21.262C277.648 21.9334 277.2 22.381 276.304 22.381C275.072 22.381 274.4 21.4858 274.4 19.9191C274.4 18.4643 275.184 17.5691 276.192 17.0096C277.312 16.45 277.984 15.8905 277.984 14.7715C277.984 13.6524 277.648 12.981 276.752 12.981C275.856 12.981 275.408 13.6524 275.408 14.7715V15.1072H274.736C274.736 14.9953 274.736 14.7715 274.736 14.7715C274.736 13.3167 275.296 12.3096 276.752 12.3096C278.208 12.3096 278.768 13.3167 278.768 14.9953V20.5905C278.768 21.3739 278.88 22.2691 278.88 22.2691H278.096V22.1572ZM277.984 16.3381C277.76 16.7858 277.424 17.1215 276.64 17.5691C275.52 18.1286 275.184 18.8 275.184 19.9191C275.184 21.15 275.632 21.7096 276.416 21.7096C277.2 21.7096 277.984 20.9262 277.984 19.8072V16.3381Z" fill="#F0F0F0"/>
<path d="M282.128 22.381C280.784 22.381 280 21.4858 280 19.8072V14.8834C280 13.2048 280.784 12.3096 282.128 12.3096C283.36 12.3096 284.144 13.2048 284.144 14.8834V15.1072H283.472V14.8834C283.472 13.6524 283.024 12.981 282.128 12.981C281.232 12.981 280.784 13.6524 280.784 14.8834V19.6953C280.784 20.9262 281.232 21.5977 282.128 21.5977C283.024 21.5977 283.472 20.9262 283.472 19.6953V19.5834H284.144V19.8072C284.144 21.4858 283.36 22.381 282.128 22.381Z" fill="#F0F0F0"/>
<path d="M287.393 22.381C286.161 22.381 285.377 21.4858 285.377 19.8072V14.8834C285.377 13.2048 286.161 12.3096 287.393 12.3096C288.625 12.3096 289.409 13.2048 289.409 14.8834V15.1072H288.737V14.8834C288.737 13.6524 288.289 12.981 287.393 12.981C286.497 12.981 286.049 13.6524 286.049 14.8834V19.6953C286.049 20.9262 286.497 21.5977 287.393 21.5977C288.289 21.5977 288.737 20.9262 288.737 19.6953V19.5834H289.409V19.8072C289.409 21.4858 288.625 22.381 287.393 22.381Z" fill="#F0F0F0"/>
<path d="M299.489 15.1072V14.5477C299.489 13.6524 299.041 12.981 298.257 12.981C297.473 12.981 296.913 13.5405 296.913 14.5477C296.913 15.2191 297.249 15.7786 297.697 16.2262L299.265 17.681C299.937 18.2405 300.385 18.912 300.385 20.031C300.385 21.4858 299.601 22.381 298.257 22.381C296.689 22.381 296.129 21.262 296.129 19.9191V19.4715H296.801V19.9191C296.801 21.0381 297.249 21.7096 298.257 21.7096C299.153 21.7096 299.713 21.0381 299.713 20.031C299.713 19.3596 299.377 18.8 298.929 18.2405L297.249 16.7858C296.577 16.2262 296.129 15.5548 296.129 14.5477C296.129 13.2048 296.913 12.3096 298.145 12.3096C299.489 12.3096 300.161 13.2048 300.161 14.5477C300.161 14.6596 300.161 14.9953 300.161 14.9953H299.489V15.1072Z" fill="#F0F0F0"/>
<path d="M303.521 22.381C302.289 22.381 301.393 21.4858 301.393 19.8072V14.8834C301.393 13.2048 302.289 12.3096 303.521 12.3096C304.865 12.3096 305.761 13.2048 305.761 14.8834V19.6953C305.761 21.4858 304.865 22.381 303.521 22.381ZM304.977 14.8834C304.977 13.6524 304.417 12.981 303.521 12.981C302.625 12.981 302.065 13.6524 302.065 14.8834V19.6953C302.065 20.9262 302.625 21.5977 303.521 21.5977C304.417 21.5977 304.977 20.9262 304.977 19.6953V14.8834Z" fill="#F0F0F0"/>
<path d="M310.688 22.1572V14.8834C310.688 13.6524 310.352 12.981 309.456 12.981C308.448 12.981 308 13.7643 308 15.1072V22.1572H307.328V12.4215H308V13.2048C308.112 12.6453 308.784 12.3096 309.456 12.3096C310.8 12.3096 311.36 13.0929 311.36 14.8834V22.1572H310.688Z" fill="#F0F0F0"/>
<path d="M321.665 15.1072V14.5477C321.665 13.6524 321.217 12.981 320.433 12.981C319.649 12.981 319.089 13.5405 319.089 14.5477C319.089 15.2191 319.425 15.7786 319.873 16.2262L321.441 17.681C322.113 18.2405 322.561 18.912 322.561 20.031C322.561 21.3739 321.777 22.381 320.433 22.381C318.865 22.381 318.305 21.262 318.305 19.9191V19.4715H318.977V19.9191C318.977 21.0381 319.425 21.7096 320.433 21.7096C321.329 21.7096 321.889 21.0381 321.889 20.031C321.889 19.3596 321.553 18.8 321.105 18.2405L319.537 16.7858C318.865 16.2262 318.417 15.5548 318.417 14.5477C318.417 13.2048 319.201 12.3096 320.433 12.3096C321.665 12.3096 322.337 13.2048 322.337 14.5477C322.337 14.6596 322.337 14.9953 322.337 14.9953H321.665V15.1072Z" fill="#F0F0F0"/>
<path d="M316.512 12.4214V19.6952C316.512 20.9262 315.952 21.5976 315.056 21.5976C314.16 21.5976 313.6 20.9262 313.6 19.6952V12.4214H312.928V19.6952C312.928 21.4857 313.824 22.269 315.056 22.269C316.288 22.269 317.184 21.3738 317.184 19.6952V12.4214H316.512Z" fill="#F0F0F0"/>
<path d="M294.225 18.5761V19.6952C294.225 20.9262 293.665 21.5976 292.769 21.5976C291.873 21.5976 291.313 20.9262 291.313 19.6952V12.4214H290.641V19.6952C290.641 21.2619 291.425 22.1571 292.545 22.269V26.969C292.321 27.0809 292.097 27.3047 292.097 27.6404C292.097 28.0881 292.433 28.3119 292.769 28.3119C293.217 28.3119 293.441 27.9762 293.441 27.6404C293.441 27.3047 293.217 27.0809 292.993 26.969V22.3809C294.113 22.269 294.897 21.3738 294.897 19.8071V12.4214H294.225V18.5761Z" fill="#F0F0F0"/>
<path d="M260.959 160.024C260.959 211.32 219.339 252.905 167.999 252.905C116.659 252.905 75.0391 211.32 75.0391 160.024C75.0391 108.727 116.659 67.1426 167.999 67.1426C219.339 67.1426 260.959 108.727 260.959 160.024Z" fill="black"/>
<path d="M123.76 236.584C110.29 228.814 99.1086 217.634 91.3416 204.17C83.5746 190.706 79.4966 175.434 79.5196 159.894C79.5426 144.354 83.6646 129.094 91.4716 115.653C99.2776 102.212 110.492 91.064 123.985 83.333L168 160.024L123.76 236.584Z" fill="#F4B70B"/>
<path fill-rule="evenodd" clip-rule="evenodd" d="M123.266 236.415L127.746 228.022L128.734 228.549L124.254 236.941L123.266 236.415Z" fill="#949494"/>
<path fill-rule="evenodd" clip-rule="evenodd" d="M211.746 236.941L207.266 228.549L208.254 228.022L212.734 236.415L211.746 236.941Z" fill="#949494"/>
<path d="M247.519 160.024C247.519 203.904 211.916 239.476 167.999 239.476C124.081 239.476 88.4785 203.904 88.4785 160.024C88.4785 116.143 124.081 80.5708 167.999 80.5708C211.916 80.5708 247.519 116.143 247.519 160.024Z" fill="#212121"/>
<path d="M131.038 100.415C130.42 99.3442 130.789 97.9752 131.861 97.3592C132.933 96.7422 134.303 97.1102 134.92 98.1812L143.305 112.727C143.922 113.798 143.554 115.166 142.482 115.783C141.41 116.4 140.04 116.032 139.423 114.961L131.038 100.415Z" fill="#949494"/>
<path d="M157.673 402.403L154.919 395.751L152.969 392.23C152.854 392.132 152.51 392.034 152.166 392.034L150.215 392.425C150.1 392.425 149.986 392.523 149.871 392.621C149.527 393.404 147.462 397.61 147.232 398.001C146.888 398.392 145.855 394.48 145.626 393.501C145.626 393.404 145.396 393.306 145.052 393.306H144.593C144.364 393.306 144.019 393.404 144.019 393.501L142.069 399.371C142.069 399.468 141.954 399.468 141.839 399.566L139.545 400.153C139.315 400.153 139.086 400.153 138.971 400.153L136.217 399.273C135.988 399.175 135.758 399.175 135.644 399.273L133.578 399.664C133.234 399.762 132.89 399.664 132.775 399.566L130.022 395.849C129.792 395.556 128.989 395.653 128.874 395.947C128.53 398.392 127.727 403.577 127.497 403.968C127.268 404.359 126.006 406.316 125.547 407.098C125.432 407.196 125.088 407.294 124.858 407.294L124.17 407.196V410.033L124.858 409.935C125.203 409.935 125.547 409.935 125.547 410.131C126.006 410.815 127.153 412.869 127.497 413.261C127.727 413.554 128.53 418.739 128.874 421.282C128.874 421.575 129.792 421.575 130.022 421.38L132.775 417.663C132.89 417.565 133.234 417.467 133.578 417.565L135.414 417.956C135.644 417.956 135.873 417.956 135.988 417.956L138.742 417.076C138.971 416.978 139.2 416.978 139.315 417.076L141.61 417.663C141.725 417.663 141.839 417.76 141.839 417.858L143.79 423.727C143.79 423.825 144.019 423.923 144.364 423.923H144.823C145.167 423.923 145.396 423.825 145.396 423.727C145.626 422.749 146.773 418.934 147.003 419.228C147.347 419.619 149.297 423.825 149.642 424.608C149.642 424.705 149.756 424.705 149.986 424.803L151.936 425.194C152.28 425.292 152.625 425.194 152.739 424.999L154.919 421.184L157.673 414.532V402.403C157.788 402.403 157.788 402.403 157.673 402.403Z" fill="#F4B70B"/>
<path d="M237.44 407.396C237.17 407.396 236.899 407.466 236.628 407.466C233.38 407.606 232.568 406.977 231.486 406.977C230.674 406.977 229.862 404.881 229.32 403.344C229.32 403.134 226.884 403.134 226.614 403.344C225.802 403.973 224.719 404.462 223.907 404.532C222.554 404.602 208.88 402.546 203.28 397.511C203.01 397.371 201.311 406.804 201.04 406.943C197.522 409.179 191.81 401.29 192.08 401.429C192.351 401.499 185.575 392.406 183.68 391.917C183.139 391.778 179.2 399.751 179.2 399.751L174.039 406.943C171.482 405.965 175.84 404.786 178.164 407.256H175.728C175.187 407.256 174.646 407.187 174.375 407.117L172.48 406.139V410.121L174.375 409.143C174.646 409.073 175.187 409.003 175.728 409.003H178.164C178.976 409.003 172.48 409.073 172.48 409.143L186.48 424.678C186.48 424.888 188.739 420.901 189.28 420.762L191.52 416.536C191.52 416.536 197.522 407.885 201.04 410.121C201.311 410.261 203.299 419.542 203.84 419.332C208.88 414.296 222.554 411.658 223.907 411.728C224.719 411.728 225.802 412.287 226.614 412.916C226.884 413.125 229.05 413.055 229.32 412.916C229.862 411.379 230.944 409.283 231.486 409.283C232.568 409.283 233.38 408.654 236.628 408.794C236.899 408.794 237.17 408.863 237.44 408.863V407.396Z" fill="#F4B70B"/>
<path d="M297.998 406.902C297.309 406.609 296.621 406.315 296.277 406.12C296.162 406.12 296.162 406.022 296.162 406.022L295.359 399.468C295.359 399.175 294.211 399.175 294.211 399.468C294.211 399.566 294.211 399.664 294.211 399.761C294.326 400.251 290.655 395.947 289.622 394.577C289.507 394.381 288.934 394.381 288.704 394.479L286.065 395.751C285.95 395.751 285.95 395.849 285.95 395.849L281.82 407.098L281.705 407.196V409.739C281.82 409.739 281.82 409.837 281.82 409.837L285.95 421.086L286.065 421.184L288.704 422.455C288.934 422.553 289.507 422.553 289.622 422.357C290.769 420.988 294.441 416.684 294.211 417.173C294.211 417.271 294.211 417.271 294.211 417.467C294.211 417.76 295.359 417.76 295.359 417.467L296.162 410.913C296.162 410.815 296.162 410.815 296.277 410.815C296.621 410.717 297.309 410.326 297.998 410.032V406.902Z" fill="#F4B70B"/>
<path d="M312.911 408.37V407.881C312.911 407.783 312.682 407.685 312.452 407.685H306.601C306.371 407.685 306.256 407.685 306.142 407.587L305.683 407.098C305.568 407 305.109 406.902 304.88 407.098L303.847 407.685C303.732 407.685 303.617 407.783 303.503 407.783L298.798 408.076C298.684 408.076 298.569 408.076 298.454 408.076L295.127 407C295.012 407 295.012 406.902 295.012 406.902V402.012V401.914L294.897 401.816C294.668 401.62 294.094 401.718 293.98 401.816C293.635 402.403 292.947 403.479 292.832 403.674C292.603 403.968 289.964 401.718 289.161 401.131C289.046 401.033 288.816 401.033 288.587 401.033L286.636 401.425C286.522 401.425 286.407 401.522 286.407 401.522L282.276 407.783C282.276 407.881 282.162 407.881 281.932 407.881L280.096 408.174C279.982 408.174 279.982 408.174 279.867 408.174C279.178 408.174 276.081 407.881 275.736 407.881C275.392 407.881 271.147 408.076 270.459 408.174C269.885 408.272 265.295 408.174 264.607 408.174H264.492L261.624 407.685C261.509 407.685 261.394 407.685 261.165 407.685L259.1 408.174C258.985 408.174 258.87 408.174 258.755 408.174C258.067 408.076 255.887 407.685 255.313 407.587C254.625 407.391 251.527 407.978 250.724 408.174C250.035 408.37 248.314 408.076 247.855 407.978C247.741 407.978 247.626 407.978 247.511 407.978C247.052 408.076 245.905 408.174 245.561 408.174C245.102 408.174 242.348 407.783 241.66 407.783C241.086 407.783 239.939 407.881 239.594 407.978C239.48 407.978 239.48 407.978 239.365 407.978C238.906 407.978 236.841 407.978 236.152 407.978C235.464 407.978 232.251 407.978 231.563 407.978C231.448 407.978 231.333 407.978 231.219 407.978L226.285 406.315C226.055 406.218 225.826 406.218 225.711 406.315C225.137 406.511 223.875 407.098 223.416 407.196C222.843 407.294 208.73 404.066 206.55 403.577C206.435 403.577 206.206 403.577 205.976 403.577L202.993 404.653C202.879 404.653 202.879 404.75 202.879 404.75C202.764 405.142 201.961 407.391 202.075 407.783C202.19 408.076 199.781 408.076 199.092 408.076C198.977 408.076 198.863 408.076 198.863 408.076L196.797 407.489C196.683 407.489 196.683 407.489 196.683 407.391C196.453 407.098 195.076 405.826 195.076 405.729C195.076 405.631 194.273 405.924 193.7 406.218C193.47 406.315 193.011 406.315 192.896 406.12L185.094 398.099C184.98 397.903 184.406 397.903 184.176 398.099C182.685 399.86 177.522 405.924 177.177 406.12C176.948 406.218 176.145 405.729 175.571 405.239C175.342 405.044 174.653 405.142 174.653 405.337V407.881C174.653 407.978 174.424 408.076 174.194 408.076H172.359C172.129 408.076 171.9 407.978 171.9 407.881L169.031 401.718C168.916 401.522 168.343 401.522 168.113 401.718C167.884 401.914 167.31 401.816 167.195 401.62L163.409 387.632C163.294 387.437 162.606 387.437 162.491 387.632L162.376 387.828C162.262 388.024 161.459 388.024 161.459 387.828V387.339C161.459 387.339 161.459 387.241 161.344 387.241L161.229 387.143C161 386.948 160.426 387.045 160.426 387.241L158.246 403.968C158.246 404.066 158.016 404.163 157.787 404.163H157.099C156.869 404.163 156.754 404.163 156.64 404.066L152.509 400.251C152.394 400.153 151.935 400.055 151.706 400.153C151.132 400.446 150.214 400.838 150.1 400.936C149.985 401.033 149.641 400.936 149.296 400.838C149.067 400.74 148.608 400.838 148.608 400.936C148.264 401.62 147.575 403.185 147.231 403.381C147.002 403.577 145.51 401.816 144.707 400.936C144.592 400.74 143.904 400.74 143.789 400.936C143.215 401.816 142.183 403.185 141.953 403.381C141.609 403.674 139.085 404.555 138.511 404.653C138.052 404.75 135.872 404.359 135.184 404.261C135.069 404.261 134.84 404.261 134.725 404.261L134.151 404.555C133.922 404.653 133.692 404.555 133.463 404.457L130.594 402.501C130.365 402.403 129.906 402.403 129.791 402.501L126.464 407.391C126.464 407.489 126.234 407.489 126.005 407.489H122.219C122.104 407.489 121.989 407.489 121.874 407.391L117.744 405.631C117.514 405.533 117.17 405.533 117.055 405.631C116.252 406.12 114.072 407.294 113.728 407.391C113.384 407.489 111.548 407 111.089 406.805C110.974 406.805 110.86 406.805 110.745 406.805L102.599 407.391H102.484L93.534 407.196C93.42 407.196 93.305 407.196 93.19 407.098C92.961 407 92.387 406.805 92.272 406.609C92.157 406.413 87.797 403.381 86.421 402.501C86.191 402.403 85.847 402.403 85.617 402.501C84.47 403.185 81.487 405.044 81.257 405.142C81.028 405.239 80.684 404.163 80.569 403.772C80.569 403.674 80.34 403.577 80.11 403.577H79.766C79.536 403.577 79.422 403.674 79.307 403.674L77.8154 406.12C77.8154 406.218 77.5859 406.218 77.3564 406.218H74.2585C74.0291 406.218 73.7996 406.12 73.7996 406.022L68.6364 393.501C68.5217 393.306 67.8333 393.306 67.7185 393.501L66.8006 396.338C66.6859 396.534 65.9975 396.534 65.8827 396.338L62.4406 390.469C62.4406 390.371 62.2112 390.371 61.9817 390.371H57.9659C57.7364 390.371 57.6217 390.469 57.507 390.469L54.4091 394.773C54.2943 394.969 53.4912 394.969 53.4912 394.773L52.3438 387.241C52.3438 387.241 52.3438 387.241 52.3438 387.143L50.6227 385.089C50.508 384.893 49.7048 384.893 49.7048 385.187C49.4754 388.415 48.7869 398.392 48.6722 398.686C48.4427 398.979 46.9512 403.479 46.4922 404.848C46.4922 405.044 45.9185 405.044 45.6891 404.946L41.9027 403.185C41.9027 403.185 41.788 403.185 41.788 403.088L40.4112 401.229C40.2964 401.033 39.7227 401.033 39.4933 401.229C38.8048 401.914 37.6575 403.088 37.1985 403.283C36.7396 403.479 36.0512 403.381 35.707 403.283C35.5922 403.283 35.4775 403.185 35.4775 403.185L33.527 400.544C33.4122 400.446 33.068 400.349 32.7238 400.446L29.0522 401.816C28.9375 401.816 28.9375 401.914 28.9375 401.914V407.685C28.9375 407.783 28.708 407.881 28.4785 407.881H23.0859C22.8564 407.881 22.627 407.978 22.627 408.076V408.37C22.627 408.467 22.7417 408.467 22.7417 408.467C22.627 408.467 22.627 408.565 22.627 408.565V408.859C22.627 408.957 22.8564 409.054 23.0859 409.054H28.3638C28.5933 409.054 28.8227 409.152 28.8227 409.25V415.021C28.8227 415.119 28.9375 415.119 28.9375 415.119L32.6091 416.489C32.8385 416.586 33.2975 416.489 33.4122 416.391L35.3627 413.75C35.3627 413.652 35.4775 413.652 35.5922 413.652C35.9364 413.554 36.6248 413.554 37.0838 413.652C37.5427 413.847 38.8048 415.021 39.3785 415.706C39.4933 415.902 40.067 415.902 40.2964 415.706L41.6733 413.847C41.6733 413.847 41.6733 413.75 41.788 413.75L45.5743 411.989C45.8038 411.891 46.3775 411.891 46.3775 412.087C46.8364 413.456 48.328 417.956 48.5575 418.249C48.7869 418.543 49.3606 428.52 49.5901 431.748C49.5901 431.944 50.2785 432.042 50.508 431.846L52.2291 429.792C52.2291 429.792 52.2291 429.792 52.2291 429.694L53.3764 422.162C53.3764 421.966 54.1796 421.869 54.2943 422.162L57.3922 426.368C57.507 426.466 57.6217 426.466 57.8512 426.466H61.867C62.0964 426.466 62.2112 426.368 62.3259 426.368L65.768 420.499C65.8827 420.303 66.5712 420.303 66.6859 420.499L67.6038 423.336C67.7185 423.531 68.4069 423.531 68.5217 423.336L73.7996 410.424C73.7996 410.326 74.0291 410.228 74.2585 410.228H77.3564C77.5859 410.228 77.7006 410.326 77.8154 410.326L79.307 412.771C79.307 412.869 79.536 412.869 79.766 412.869H80.11C80.34 412.869 80.569 412.771 80.569 412.674C80.684 412.282 80.913 411.206 81.257 411.304C81.487 411.402 84.47 413.261 85.617 413.945C85.847 414.043 86.191 414.043 86.421 413.945C87.797 413.065 92.157 409.935 92.272 409.837C92.387 409.739 92.961 409.446 93.19 409.348C93.305 409.348 93.42 409.348 93.534 409.25L102.484 409.054H102.599L110.745 409.641C110.86 409.641 110.974 409.641 111.089 409.641C111.663 409.446 113.499 408.957 113.728 409.054C113.957 409.152 116.252 410.326 117.055 410.815C117.17 410.913 117.514 410.913 117.744 410.815L121.874 409.054C121.989 409.054 122.104 408.957 122.219 408.957H126.005C126.234 408.957 126.349 409.054 126.464 409.054L129.791 413.945C129.906 414.141 130.48 414.141 130.594 413.945L133.463 411.989C133.577 411.891 133.922 411.891 134.151 411.891L135.413 412.282C135.528 412.282 135.757 412.282 135.872 412.282C136.561 412.185 138.741 411.793 139.2 411.891C139.773 411.989 142.297 412.967 142.642 413.163C142.871 413.358 143.904 414.826 144.477 415.608C144.592 415.804 145.166 415.804 145.395 415.608C146.199 414.728 147.575 412.967 147.92 413.163C148.149 413.358 148.952 414.923 149.296 415.608C149.411 415.706 149.755 415.804 149.985 415.706C150.329 415.608 150.673 415.51 150.788 415.608C150.903 415.706 151.821 416.097 152.394 416.391C152.624 416.489 152.968 416.489 153.197 416.293L157.328 412.478C157.443 412.38 157.557 412.38 157.787 412.38H158.475C158.705 412.38 158.934 412.478 158.934 412.576L161.114 429.303C161.114 429.498 161.688 429.498 161.917 429.401L162.032 429.303L162.147 429.205V429.107C162.147 428.911 162.95 428.814 163.065 429.107L163.18 429.303C163.294 429.498 163.983 429.498 164.097 429.303L167.884 415.315C167.999 415.119 168.572 415.119 168.802 415.217C169.031 415.413 169.605 415.315 169.72 415.217L172.588 409.054C172.588 408.957 172.817 408.859 173.047 408.859H174.883C175.112 408.859 175.342 408.957 175.342 409.054V411.598C175.342 411.793 176.03 411.891 176.26 411.695C176.833 411.206 177.522 410.717 177.866 410.815C178.325 411.011 183.373 417.075 184.865 418.836C184.98 419.032 185.553 419.032 185.783 418.836L193.585 410.815C193.7 410.717 194.159 410.619 194.388 410.717C194.962 410.913 195.765 411.304 195.765 411.206C195.765 411.109 197.142 409.837 197.371 409.543L197.486 409.446L199.551 408.859C199.666 408.859 199.666 408.859 199.781 408.859C200.354 408.859 202.764 408.761 202.764 409.152C202.649 409.446 203.337 411.695 203.567 412.185L203.682 412.282L206.665 413.358C206.78 413.456 207.009 413.456 207.239 413.358C209.419 412.869 223.531 409.543 224.105 409.739C224.564 409.837 225.826 410.326 226.4 410.619C226.514 410.717 226.859 410.717 226.973 410.619L231.907 408.957C232.022 408.957 232.136 408.957 232.251 408.957C233.054 408.957 236.152 408.957 236.841 408.957C237.529 408.957 239.594 408.957 240.053 408.957C240.168 408.957 240.168 408.957 240.283 408.957C240.627 409.054 241.774 409.152 242.348 409.152C243.036 409.152 245.79 408.761 246.249 408.761C246.593 408.761 247.855 408.859 248.2 408.957C248.314 408.957 248.429 408.957 248.544 408.957C249.117 408.859 250.839 408.565 251.412 408.761C252.215 408.957 255.313 409.543 256.002 409.348C256.575 409.152 258.755 408.859 259.444 408.761C259.559 408.761 259.673 408.761 259.788 408.761L261.853 409.25C261.968 409.25 262.083 409.25 262.312 409.25L265.181 408.761H265.295C265.984 408.761 270.459 408.663 271.147 408.761C271.835 408.859 276.081 409.054 276.425 409.054C276.769 409.054 279.867 408.761 280.555 408.761C280.67 408.761 280.67 408.761 280.785 408.761L282.621 409.054C282.735 409.054 282.85 409.152 282.965 409.152L287.095 415.413C287.095 415.51 287.21 415.51 287.325 415.51L289.275 415.902C289.505 415.902 289.734 415.902 289.849 415.804C290.652 415.217 293.291 412.967 293.521 413.261C293.635 413.456 294.324 414.434 294.668 415.119C294.783 415.315 295.356 415.315 295.586 415.119L295.701 415.021V414.923V410.033C295.701 409.935 295.815 409.935 295.815 409.935L299.143 408.859C299.257 408.859 299.372 408.859 299.487 408.859L304.191 409.152C304.306 409.152 304.421 409.152 304.535 409.25L305.568 409.837C305.797 409.935 306.256 409.935 306.371 409.837L306.83 409.348C306.945 409.25 307.06 409.25 307.289 409.25H313.141C313.37 409.25 313.6 409.152 313.6 409.054V408.565C313.6 408.467 313.485 408.467 313.485 408.467C312.911 408.467 312.911 408.37 312.911 408.37Z" fill="#262626"/>
<path fill-rule="evenodd" clip-rule="evenodd" d="M21.8398 416.293V400.642H22.9589V416.293H21.8398Z" fill="url(#paint0_linear_1133_1774)"/>
<path fill-rule="evenodd" clip-rule="evenodd" d="M312.123 416.293V400.642H313.242V416.293H312.123Z" fill="url(#paint1_linear_1133_1774)"/>
<path d="M288.212 437.608C287.75 437.608 287.347 437.51 287.002 437.313C286.662 437.112 286.397 436.827 286.209 436.46C286.025 436.089 285.934 435.652 285.934 435.151C285.934 434.654 286.025 434.222 286.209 433.855C286.393 433.484 286.655 433.199 286.995 433.002C287.34 432.806 287.746 432.707 288.212 432.707C288.678 432.707 289.081 432.806 289.421 433.002C289.766 433.199 290.028 433.484 290.208 433.855C290.391 434.222 290.483 434.654 290.483 435.151C290.483 435.652 290.391 436.089 290.208 436.46C290.024 436.827 289.762 437.112 289.421 437.313C289.081 437.51 288.678 437.608 288.212 437.608ZM288.212 436.917C288.655 436.917 289 436.765 289.247 436.46C289.493 436.156 289.616 435.72 289.616 435.151C289.616 434.587 289.493 434.155 289.247 433.855C289 433.551 288.655 433.399 288.212 433.399C287.768 433.399 287.423 433.549 287.177 433.848C286.93 434.148 286.807 434.583 286.807 435.151C286.807 435.72 286.93 436.156 287.177 436.46C287.423 436.765 287.768 436.917 288.212 436.917Z" fill="#949494"/>
<path d="M293.347 437.608C292.688 437.608 292.189 437.441 291.848 437.105C291.512 436.765 291.344 436.268 291.344 435.614V432.767H292.198V435.661C292.198 436.073 292.294 436.386 292.486 436.601C292.679 436.812 292.966 436.917 293.347 436.917C293.718 436.917 294.001 436.809 294.193 436.595C294.39 436.38 294.489 436.069 294.489 435.661V432.767H295.342V435.614C295.342 436.263 295.172 436.758 294.832 437.098C294.491 437.438 293.996 437.608 293.347 437.608Z" fill="#949494"/>
<path d="M297.468 437.548V433.479H295.909V432.767H299.907V433.479H298.341V437.548H297.468Z" fill="#949494"/>
<path d="M300.506 432.767H302.582C303.098 432.767 303.499 432.893 303.785 433.143C304.072 433.39 304.215 433.728 304.215 434.157C304.215 434.587 304.07 434.927 303.779 435.178C303.492 435.429 303.093 435.554 302.582 435.554H301.373V437.548H300.506V432.767ZM302.482 434.882C302.782 434.882 303.008 434.822 303.16 434.701C303.317 434.576 303.396 434.397 303.396 434.164C303.396 433.927 303.319 433.748 303.167 433.627C303.015 433.502 302.786 433.439 302.482 433.439H301.373V434.882H302.482Z" fill="#949494"/>
<path d="M306.957 437.608C306.299 437.608 305.799 437.441 305.459 437.105C305.123 436.765 304.955 436.268 304.955 435.614V432.767H305.808V435.661C305.808 436.073 305.904 436.386 306.097 436.601C306.29 436.812 306.576 436.917 306.957 436.917C307.329 436.917 307.611 436.809 307.804 436.595C308.001 436.38 308.1 436.069 308.1 435.661V432.767H308.953V435.614C308.953 436.263 308.783 436.758 308.442 437.098C308.102 437.438 307.607 437.608 306.957 437.608Z" fill="#949494"/>
<path d="M311.078 437.548V433.479H309.519V432.767H313.518V433.479H311.952V437.548H311.078Z" fill="#949494"/>
<path d="M280 437.548C281.232 437.548 282.24 436.541 282.24 435.31C282.24 434.079 281.232 433.072 280 433.072C278.768 433.072 277.76 434.079 277.76 435.31C277.76 436.541 278.768 437.548 280 437.548Z" fill="#F4B70B"/>
<path d="M252.092 437.548V432.767H252.959V437.548H252.092Z" fill="#949494"/>
<path d="M257.214 432.767H258.027V437.548H257.382L254.801 434.197V437.548H253.995V432.767H254.64L257.214 436.111V432.767Z" fill="#949494"/>
<path d="M259.068 432.767H261.144C261.659 432.767 262.06 432.892 262.347 433.143C262.634 433.389 262.777 433.727 262.777 434.157C262.777 434.587 262.632 434.927 262.34 435.178C262.054 435.428 261.655 435.554 261.144 435.554H259.935V437.548H259.068V432.767ZM261.043 434.882C261.344 434.882 261.57 434.822 261.722 434.701C261.879 434.575 261.957 434.396 261.957 434.164C261.957 433.926 261.881 433.747 261.729 433.627C261.577 433.501 261.348 433.439 261.043 433.439H259.935V434.882H261.043Z" fill="#949494"/>
<path d="M265.519 437.608C264.86 437.608 264.361 437.44 264.02 437.105C263.684 436.764 263.516 436.267 263.516 435.614V432.767H264.37V435.661C264.37 436.073 264.466 436.386 264.659 436.601C264.852 436.811 265.138 436.917 265.519 436.917C265.891 436.917 266.173 436.809 266.366 436.594C266.563 436.379 266.661 436.068 266.661 435.661V432.767H267.515V435.614C267.515 436.263 267.345 436.758 267.004 437.098C266.664 437.438 266.169 437.608 265.519 437.608Z" fill="#949494"/>
<path d="M269.64 437.548V433.479H268.081V432.767H272.079V433.479H270.514V437.548H269.64Z" fill="#949494"/>
<path d="M246.4 437.546C247.632 437.546 248.64 436.539 248.64 435.308C248.64 434.077 247.632 433.07 246.4 433.07C245.168 433.07 244.16 434.077 244.16 435.308C244.16 436.539 245.168 437.546 246.4 437.546Z" fill="#262626"/>
<path d="M305.76 48.119H306.88V49.2381H305.76V50.3571H304.64V49.2381H303.52V48.119H304.64V47H305.76V48.119Z" fill="#939393"/>
<path fill-rule="evenodd" clip-rule="evenodd" d="M309.679 40.2856C307.86 40.2856 306.319 41.8255 306.319 43.6427C306.319 45.4599 307.86 46.9998 309.679 46.9998C310.644 46.9998 311.502 46.6168 312.068 46.0595C312.671 45.3521 313.039 44.5858 313.039 43.6427C313.039 41.8255 311.498 40.2856 309.679 40.2856ZM305.199 43.6427C305.199 41.2075 307.242 39.1665 309.679 39.1665C312.116 39.1665 314.159 41.2075 314.159 43.6427C314.159 44.9302 313.638 45.9498 312.904 46.8044L312.89 46.8208L312.875 46.836C312.097 47.6135 310.946 48.1189 309.679 48.1189C307.242 48.1189 305.199 46.0779 305.199 43.6427Z" fill="#939393"/>
<path fill-rule="evenodd" clip-rule="evenodd" d="M312.876 46.0449L316.236 49.4021L315.444 50.1934L312.084 46.8362L312.876 46.0449Z" fill="#939393"/>
<path d="M322.559 50.3571H319.199L322.559 47V50.3571Z" fill="#939393"/>
<path d="M22.3995 263.067C21.7074 263.067 21.1026 262.919 20.5851 262.624C20.0744 262.322 19.6779 261.895 19.3957 261.345C19.1202 260.787 18.9824 260.133 18.9824 259.381C18.9824 258.636 19.1202 257.988 19.3957 257.437C19.6712 256.88 20.0643 256.453 20.5751 256.158C21.0925 255.863 21.7007 255.715 22.3995 255.715C23.0984 255.715 23.7032 255.863 24.2139 256.158C24.7314 256.453 25.1245 256.88 25.3933 257.437C25.6688 257.988 25.8066 258.636 25.8066 259.381C25.8066 260.133 25.6688 260.787 25.3933 261.345C25.1178 261.895 24.7247 262.322 24.2139 262.624C23.7032 262.919 23.0984 263.067 22.3995 263.067ZM22.3995 262.03C23.0648 262.03 23.5823 261.801 23.9519 261.345C24.3215 260.888 24.5063 260.234 24.5063 259.381C24.5063 258.535 24.3215 257.887 23.9519 257.437C23.5823 256.98 23.0648 256.752 22.3995 256.752C21.7343 256.752 21.2168 256.977 20.8472 257.427C20.4776 257.877 20.2928 258.528 20.2928 259.381C20.2928 260.234 20.4776 260.888 20.8472 261.345C21.2168 261.801 21.7343 262.03 22.3995 262.03Z" fill="#949494"/>
<path d="M30.1024 263.067C29.1146 263.067 28.3653 262.815 27.8546 262.312C27.3506 261.801 27.0986 261.056 27.0986 260.076V255.805H28.3787V260.146C28.3787 260.764 28.5232 261.234 28.8122 261.556C29.1011 261.872 29.5312 262.03 30.1024 262.03C30.6602 262.03 31.0835 261.868 31.3725 261.546C31.6682 261.224 31.816 260.757 31.816 260.146V255.805H33.0962V260.076C33.0962 261.049 32.8408 261.791 32.3301 262.302C31.8194 262.812 31.0768 263.067 30.1024 263.067Z" fill="#949494"/>
<path d="M36.2829 262.976V256.873H33.9443V255.805H39.9419V256.873H37.5933V262.976H36.2829Z" fill="#949494"/>
<path d="M40.8408 255.805H43.9555C44.7283 255.805 45.3297 255.993 45.7598 256.369C46.1899 256.739 46.4049 257.246 46.4049 257.89C46.4049 258.535 46.1865 259.045 45.7497 259.421C45.3197 259.797 44.7216 259.985 43.9555 259.985H42.1411V262.976H40.8408V255.805ZM43.8043 258.978C44.2545 258.978 44.5939 258.887 44.8224 258.706C45.0576 258.518 45.1752 258.249 45.1752 257.9C45.1752 257.544 45.0609 257.276 44.8325 257.095C44.604 256.907 44.2613 256.813 43.8043 256.813H42.1411V258.978H43.8043Z" fill="#949494"/>
<path d="M50.5175 263.067C49.5297 263.067 48.7804 262.815 48.2697 262.312C47.7657 261.801 47.5137 261.056 47.5137 260.076V255.805H48.7939V260.146C48.7939 260.764 48.9383 261.234 49.2273 261.556C49.5163 261.872 49.9463 262.03 50.5175 262.03C51.0753 262.03 51.4987 261.868 51.7876 261.546C52.0833 261.224 52.2311 260.757 52.2311 260.146V255.805H53.5113V260.076C53.5113 261.049 53.2559 261.791 52.7452 262.302C52.2345 262.812 51.4919 263.067 50.5175 263.067Z" fill="#949494"/>
<path d="M56.6989 262.976V256.873H54.3604V255.805H60.3579V256.873H58.0092V262.976H56.6989Z" fill="#949494"/>
<path d="M31.7009 80.662C30.8474 80.662 30.1956 80.35 29.7454 79.725C29.3018 79.094 29.0801 78.1778 29.0801 76.9759C29.0801 75.7942 29.3018 74.8911 29.7454 74.2667C30.1956 73.6423 30.8474 73.3301 31.7009 73.3301C32.5543 73.3301 33.2028 73.6423 33.6463 74.2667C34.0966 74.8844 34.3217 75.7875 34.3217 76.9759C34.3217 78.1711 34.0966 79.084 33.6463 79.715C33.2028 80.347 32.5543 80.662 31.7009 80.662ZM31.7009 79.645C32.1646 79.645 32.5006 79.433 32.7089 79.01C32.9239 78.5807 33.0314 77.9025 33.0314 76.9759C33.0314 76.0628 32.9239 75.3981 32.7089 74.9818C32.5006 74.5588 32.1646 74.3473 31.7009 74.3473C31.2372 74.3473 30.8978 74.5588 30.6828 74.9818C30.4745 75.3981 30.3703 76.0628 30.3703 76.9759C30.3703 77.9025 30.4745 78.5807 30.6828 79.01C30.8978 79.433 31.2372 79.645 31.7009 79.645Z" fill="#949494"/>
<path d="M24.9512 99.6178V98.6108H27.9853V99.6178H24.9512Z" fill="#949494"/>
<path d="M32.0821 97.2511C32.5324 97.2511 32.9289 97.3481 33.2716 97.5431C33.6143 97.7311 33.8797 98.0001 34.0679 98.3491C34.2561 98.6911 34.3501 99.0871 34.3501 99.5371C34.3501 100.007 34.2426 100.423 34.0276 100.786C33.8125 101.142 33.5034 101.421 33.1002 101.622C32.697 101.817 32.23 101.914 31.6991 101.914C31.2489 101.914 30.8053 101.84 30.3685 101.692C29.9317 101.538 29.5722 101.333 29.29 101.078L29.7234 100.131C30.3753 100.628 31.0405 100.877 31.7193 100.877C32.1695 100.877 32.5122 100.766 32.7474 100.544C32.9893 100.316 33.1103 99.9941 33.1103 99.5771C33.1103 99.1811 32.986 98.8661 32.7373 98.6311C32.4954 98.3891 32.1695 98.2681 31.7596 98.2681C31.4773 98.2681 31.2119 98.3221 30.9633 98.4291C30.7146 98.5301 30.4962 98.6811 30.3081 98.8831H29.5218V94.6631H34.0175V95.6701H30.7919V97.6241C31.1548 97.3751 31.5849 97.2511 32.0821 97.2511Z" fill="#949494"/>
<path d="M18.9082 120.879V119.872H21.9423V120.879H18.9082Z" fill="#949494"/>
<path d="M26.6244 122.037H28.1868V123.095H23.7617V122.037H25.3342V117.415L23.8726 118.291V117.133L25.8684 115.924H26.6244V122.037Z" fill="#949494"/>
<path d="M31.7009 123.186C30.8474 123.186 30.1956 122.873 29.7454 122.249C29.3019 121.618 29.0801 120.701 29.0801 119.499C29.0801 118.318 29.3019 117.415 29.7454 116.79C30.1956 116.166 30.8474 115.854 31.7009 115.854C32.5543 115.854 33.2028 116.166 33.6463 116.79C34.0966 117.408 34.3217 118.311 34.3217 119.499C34.3217 120.695 34.0966 121.608 33.6463 122.239C33.2028 122.87 32.5543 123.186 31.7009 123.186ZM31.7009 122.168C32.1646 122.168 32.5006 121.957 32.7089 121.534C32.9239 121.104 33.0315 120.426 33.0315 119.499C33.0315 118.586 32.9239 117.922 32.7089 117.505C32.5006 117.082 32.1646 116.871 31.7009 116.871C31.2372 116.871 30.8979 117.082 30.6828 117.505C30.4745 117.922 30.3703 118.586 30.3703 119.499C30.3703 120.426 30.4745 121.104 30.6828 121.534C30.8979 121.957 31.2372 122.168 31.7009 122.168Z" fill="#949494"/>
<path d="M18.9082 142.141V141.134H21.9423V142.141H18.9082Z" fill="#949494"/>
<path d="M26.6244 143.299H28.1868V144.357H23.7617V143.299H25.3342V138.677L23.8726 139.553V138.395L25.8684 137.186H26.6244V143.299Z" fill="#949494"/>
<path d="M32.0831 139.774C32.5334 139.774 32.9298 139.872 33.2726 140.066C33.6153 140.254 33.8807 140.523 34.0689 140.872C34.257 141.215 34.3511 141.611 34.3511 142.061C34.3511 142.531 34.2436 142.947 34.0286 143.309C33.8135 143.665 33.5044 143.944 33.1012 144.145C32.698 144.34 32.231 144.437 31.7001 144.437C31.2498 144.437 30.8063 144.364 30.3695 144.216C29.9327 144.061 29.5732 143.857 29.291 143.602L29.7244 142.655C30.3762 143.152 31.0415 143.4 31.7202 143.4C32.1705 143.4 32.5132 143.289 32.7484 143.068C32.9903 142.839 33.1113 142.517 33.1113 142.101C33.1113 141.705 32.987 141.389 32.7383 141.154C32.4964 140.912 32.1705 140.792 31.7606 140.792C31.4783 140.792 31.2129 140.845 30.9642 140.953C30.7156 141.053 30.4972 141.205 30.309 141.406H29.5228V137.186H34.0185V138.193H30.7929V140.147C31.1558 139.899 31.5858 139.774 32.0831 139.774Z" fill="#949494"/>
<path d="M18.8984 163.403V162.396H21.9325V163.403H18.8984Z" fill="#949494"/>
<path d="M28.1569 164.561V165.619H23.3386V164.662L25.778 162.033C26.067 161.718 26.2786 161.429 26.413 161.167C26.5474 160.905 26.6146 160.647 26.6146 160.392C26.6146 160.063 26.5172 159.814 26.3223 159.647C26.1342 159.479 25.862 159.395 25.5058 159.395C24.8742 159.395 24.2257 159.643 23.5604 160.14L23.127 159.193C23.4092 158.938 23.7721 158.737 24.2156 158.589C24.6591 158.435 25.106 158.357 25.5562 158.357C26.2753 158.357 26.8431 158.535 27.2598 158.891C27.6831 159.24 27.8948 159.714 27.8948 160.311C27.8948 160.721 27.8041 161.107 27.6226 161.469C27.4479 161.832 27.1522 162.238 26.7356 162.688L24.9716 164.561H28.1569Z" fill="#949494"/>
<path d="M31.7009 165.71C30.8474 165.71 30.1956 165.397 29.7453 164.773C29.3018 164.142 29.0801 163.225 29.0801 162.023C29.0801 160.842 29.3018 159.939 29.7453 159.314C30.1956 158.69 30.8474 158.378 31.7009 158.378C32.5543 158.378 33.2028 158.69 33.6463 159.314C34.0965 159.932 34.3217 160.835 34.3217 162.023C34.3217 163.219 34.0965 164.132 33.6463 164.763C33.2028 165.394 32.5543 165.71 31.7009 165.71ZM31.7009 164.692C32.1645 164.692 32.5005 164.481 32.7089 164.058C32.9239 163.628 33.0314 162.95 33.0314 162.023C33.0314 161.11 32.9239 160.446 32.7089 160.029C32.5005 159.606 32.1645 159.395 31.7009 159.395C31.2372 159.395 30.8978 159.606 30.6828 160.029C30.4745 160.446 30.3703 161.11 30.3703 162.023C30.3703 162.95 30.4745 163.628 30.6828 164.058C30.8978 164.481 31.2372 164.692 31.7009 164.692Z" fill="#949494"/>
<path d="M18.8984 184.665V183.658H21.9325V184.665H18.8984Z" fill="#949494"/>
<path d="M28.1569 185.823V186.881H23.3386V185.924L25.778 183.295C26.067 182.98 26.2786 182.691 26.413 182.429C26.5474 182.167 26.6146 181.909 26.6146 181.654C26.6146 181.325 26.5172 181.076 26.3223 180.908C26.1342 180.74 25.862 180.656 25.5058 180.656C24.8742 180.656 24.2257 180.905 23.5604 181.402L23.127 180.455C23.4092 180.2 23.7721 179.998 24.2156 179.851C24.6591 179.696 25.106 179.619 25.5562 179.619C26.2753 179.619 26.8431 179.797 27.2598 180.153C27.6831 180.502 27.8948 180.975 27.8948 181.573C27.8948 181.983 27.8041 182.369 27.6226 182.731C27.4479 183.094 27.1522 183.5 26.7356 183.95L24.9716 185.823H28.1569Z" fill="#949494"/>
<path d="M32.0832 182.298C32.5334 182.298 32.9299 182.395 33.2726 182.59C33.6154 182.778 33.8808 183.047 34.069 183.396C34.2571 183.738 34.3512 184.134 34.3512 184.584C34.3512 185.054 34.2437 185.471 34.0286 185.833C33.8136 186.189 33.5045 186.468 33.1013 186.669C32.6981 186.864 32.231 186.961 31.7002 186.961C31.2499 186.961 30.8064 186.887 30.3696 186.74C29.9328 186.585 29.5733 186.38 29.291 186.125L29.7245 185.179C30.3763 185.675 31.0416 185.924 31.7203 185.924C32.1706 185.924 32.5133 185.813 32.7485 185.591C32.9904 185.363 33.1114 185.041 33.1114 184.625C33.1114 184.228 32.987 183.913 32.7384 183.678C32.4965 183.436 32.1706 183.315 31.7606 183.315C31.4784 183.315 31.213 183.369 30.9643 183.476C30.7157 183.577 30.4973 183.728 30.3091 183.93H29.5229V179.71H34.0186V180.717H30.793V182.671C31.1558 182.422 31.5859 182.298 32.0832 182.298Z" fill="#949494"/>
<path d="M18.9082 205.927V204.92H21.9423V205.927H18.9082Z" fill="#949494"/>
<path d="M26.7651 204.457C27.1885 204.571 27.511 204.779 27.7328 205.081C27.9613 205.383 28.0755 205.756 28.0755 206.199C28.0755 206.823 27.8437 207.317 27.38 207.68C26.923 208.042 26.3048 208.223 25.5253 208.223C25.0414 208.223 24.5744 208.15 24.1242 208.002C23.6806 207.854 23.3144 207.649 23.0254 207.387L23.469 206.441C24.1074 206.938 24.776 207.186 25.4749 207.186C25.9318 207.186 26.2712 207.095 26.493 206.914C26.7214 206.733 26.8357 206.458 26.8357 206.088C26.8357 205.726 26.7214 205.46 26.493 205.293C26.2645 205.118 25.9117 205.031 25.4346 205.031H24.487V203.993H25.2632C26.1906 203.993 26.6542 203.641 26.6542 202.936C26.6542 202.607 26.5534 202.355 26.3518 202.181C26.1502 202.006 25.868 201.919 25.5051 201.919C24.86 201.919 24.2149 202.167 23.5698 202.664L23.1363 201.717C23.4253 201.462 23.7882 201.261 24.225 201.113C24.6685 200.959 25.1221 200.881 25.5858 200.881C26.2914 200.881 26.8525 201.056 27.2691 201.405C27.6925 201.747 27.9042 202.207 27.9042 202.785C27.8974 203.181 27.7933 203.527 27.5917 203.822C27.3968 204.111 27.1213 204.322 26.7651 204.457Z" fill="#949494"/>
<path d="M31.7009 208.233C30.8474 208.233 30.1956 207.921 29.7454 207.297C29.3019 206.666 29.0801 205.749 29.0801 204.547C29.0801 203.366 29.3019 202.463 29.7454 201.838C30.1956 201.214 30.8474 200.901 31.7009 200.901C32.5543 200.901 33.2028 201.214 33.6463 201.838C34.0966 202.456 34.3217 203.359 34.3217 204.547C34.3217 205.742 34.0966 206.656 33.6463 207.287C33.2028 207.918 32.5543 208.233 31.7009 208.233ZM31.7009 207.216C32.1646 207.216 32.5006 207.005 32.7089 206.582C32.9239 206.152 33.0315 205.474 33.0315 204.547C33.0315 203.634 32.9239 202.969 32.7089 202.553C32.5006 202.13 32.1646 201.919 31.7009 201.919C31.2372 201.919 30.8979 202.13 30.6828 202.553C30.4745 202.969 30.3703 203.634 30.3703 204.547C30.3703 205.474 30.4745 206.152 30.6828 206.582C30.8979 207.005 31.2372 207.216 31.7009 207.216Z" fill="#949494"/>
<path d="M18.9082 227.189V226.182H21.9423V227.189H18.9082Z" fill="#949494"/>
<path d="M26.7651 225.718C27.1885 225.833 27.511 226.041 27.7328 226.343C27.9613 226.645 28.0755 227.018 28.0755 227.461C28.0755 228.085 27.8437 228.579 27.38 228.941C26.923 229.304 26.3048 229.485 25.5253 229.485C25.0414 229.485 24.5744 229.411 24.1242 229.264C23.6806 229.116 23.3144 228.911 23.0254 228.649L23.469 227.702C24.1074 228.199 24.776 228.448 25.4749 228.448C25.9318 228.448 26.2712 228.357 26.493 228.176C26.7214 227.995 26.8357 227.719 26.8357 227.35C26.8357 226.987 26.7214 226.722 26.493 226.554C26.2645 226.38 25.9117 226.292 25.4346 226.292H24.487V225.255H25.2632C26.1906 225.255 26.6542 224.903 26.6542 224.198C26.6542 223.869 26.5534 223.617 26.3518 223.442C26.1502 223.268 25.868 223.18 25.5051 223.18C24.86 223.18 24.2149 223.429 23.5698 223.926L23.1363 222.979C23.4253 222.724 23.7882 222.522 24.225 222.375C24.6685 222.22 25.1221 222.143 25.5858 222.143C26.2914 222.143 26.8525 222.318 27.2691 222.667C27.6925 223.009 27.9042 223.469 27.9042 224.047C27.8974 224.443 27.7933 224.788 27.5917 225.084C27.3968 225.373 27.1213 225.584 26.7651 225.718Z" fill="#949494"/>
<path d="M32.0831 224.822C32.5334 224.822 32.9298 224.919 33.2726 225.114C33.6153 225.302 33.8807 225.571 34.0689 225.92C34.257 226.262 34.3511 226.658 34.3511 227.108C34.3511 227.578 34.2436 227.995 34.0286 228.357C33.8135 228.713 33.5044 228.992 33.1012 229.193C32.698 229.388 32.231 229.485 31.7001 229.485C31.2498 229.485 30.8063 229.411 30.3695 229.264C29.9327 229.109 29.5732 228.904 29.291 228.649L29.7244 227.702C30.3762 228.199 31.0415 228.448 31.7202 228.448C32.1705 228.448 32.5132 228.337 32.7484 228.115C32.9903 227.887 33.1113 227.565 33.1113 227.149C33.1113 226.752 32.987 226.437 32.7383 226.202C32.4964 225.96 32.1705 225.839 31.7606 225.839C31.4783 225.839 31.2129 225.893 30.9642 226C30.7156 226.101 30.4972 226.252 30.309 226.454H29.5228V222.234H34.0185V223.241H30.7929V225.195C31.1558 224.946 31.5858 224.822 32.0831 224.822Z" fill="#949494"/>
<path d="M41.4126 275.399C40.6152 275.399 39.9951 275.059 39.5521 274.381C39.1124 273.699 38.8926 272.786 38.8926 271.642C38.8926 270.484 39.1091 269.588 39.5423 268.952C39.9787 268.312 40.6054 267.993 41.4224 267.993C42.2263 267.993 42.8448 268.319 43.278 268.971C43.7144 269.624 43.9326 270.514 43.9326 271.642C43.9326 272.392 43.8391 273.048 43.652 273.609C43.465 274.166 43.1795 274.604 42.7956 274.922C42.415 275.24 41.954 275.399 41.4126 275.399ZM41.4323 274.332C42.2493 274.332 42.6578 273.437 42.6578 271.647C42.6578 271.299 42.6365 270.978 42.5938 270.683C42.5512 270.388 42.4839 270.115 42.392 269.866C42.3034 269.614 42.1771 269.417 42.013 269.276C41.8523 269.132 41.6603 269.06 41.4372 269.06C41.2042 269.06 41.0024 269.132 40.8318 269.276C40.6612 269.417 40.5299 269.614 40.438 269.866C40.3462 270.115 40.2789 270.388 40.2363 270.683C40.1936 270.978 40.1723 271.301 40.1723 271.651C40.1723 272.058 40.1936 272.417 40.2363 272.728C40.2789 273.04 40.3462 273.32 40.438 273.569C40.5332 273.815 40.6645 274.004 40.8318 274.135C40.9991 274.266 41.1993 274.332 41.4323 274.332Z" fill="#949494"/>
<path d="M50.5916 274.415C50.8147 274.415 51.0099 274.371 51.1773 274.282C51.3446 274.191 51.4759 274.066 51.571 273.909C51.6695 273.748 51.7417 273.573 51.7876 273.382C51.8368 273.192 51.8614 272.987 51.8614 272.768C51.8614 272.276 51.7548 271.876 51.5415 271.568C51.3282 271.256 51.0083 271.101 50.5817 271.101C50.2963 271.101 50.0551 271.178 49.8582 271.332C49.6646 271.486 49.5252 271.683 49.4399 271.922C49.3578 272.161 49.3168 272.437 49.3168 272.748C49.3168 272.974 49.3398 273.184 49.3857 273.378C49.4349 273.571 49.5071 273.748 49.6023 273.909C49.7007 274.066 49.8336 274.191 50.001 274.282C50.1716 274.371 50.3684 274.415 50.5916 274.415ZM50.3406 275.399C49.6876 275.399 49.1396 275.159 48.6967 274.681C48.257 274.202 48.0371 273.571 48.0371 272.787C48.0371 272.43 48.088 272.092 48.1897 271.774C48.2914 271.456 48.4374 271.173 48.6277 270.924C48.8213 270.674 49.074 270.478 49.3857 270.333C49.6974 270.186 50.0469 270.112 50.4341 270.112C50.7819 270.112 51.0756 270.184 51.3151 270.329C51.5579 270.47 51.7269 270.617 51.822 270.771V268.121H53.0328V273.938C53.0328 273.958 53.0476 274.407 53.0771 275.286H51.827L51.8171 274.641C51.7876 274.717 51.7384 274.794 51.6695 274.873C51.6006 274.951 51.5087 275.033 51.3938 275.118C51.279 275.2 51.1297 275.268 50.9459 275.32C50.7622 275.372 50.5604 275.399 50.3406 275.399Z" fill="#949494"/>
<path d="M55.9317 271.096H56.9998C57.1671 271.096 57.3213 271.081 57.4624 271.051C57.6035 271.019 57.7364 270.966 57.8611 270.894C57.9891 270.822 58.0891 270.72 58.1613 270.589C58.2335 270.458 58.2696 270.301 58.2696 270.117C58.2696 269.763 58.1466 269.522 57.9005 269.394C57.6544 269.263 57.2672 269.198 56.7389 269.198H55.9317V271.096ZM55.9465 274.218H57.0736C58.0809 274.218 58.5846 273.882 58.5846 273.21C58.5846 272.791 58.4714 272.502 58.245 272.345C58.0219 272.187 57.6216 272.109 57.0441 272.109H55.9465V274.218ZM54.6816 275.286V268.125H56.6651C56.8718 268.125 57.0572 268.13 57.2212 268.14C57.3853 268.147 57.5723 268.165 57.7823 268.194C57.9956 268.221 58.1826 268.26 58.3434 268.312C58.5042 268.362 58.6666 268.432 58.8307 268.524C58.9948 268.616 59.1293 268.725 59.2343 268.853C59.3426 268.978 59.4295 269.135 59.4951 269.325C59.5641 269.512 59.5985 269.724 59.5985 269.96C59.5985 270.668 59.2819 271.178 58.6486 271.489C59.0751 271.604 59.3951 271.82 59.6083 272.138C59.8216 272.453 59.9283 272.828 59.9283 273.264C59.9283 273.537 59.8741 273.792 59.7659 274.032C59.6576 274.268 59.4984 274.481 59.2884 274.671C59.0784 274.861 58.8012 275.012 58.4566 275.123C58.1154 275.232 57.7282 275.286 57.2951 275.286H54.6816Z" fill="#949494"/>
<path fill-rule="evenodd" clip-rule="evenodd" d="M59.362 76.0957V227.167H56.002V76.0957H59.362Z" fill="#424242"/>
<path fill-rule="evenodd" clip-rule="evenodd" d="M59.36 87.2852V227.167H56V87.2852H59.36Z" fill="#F4B70B"/>
<path d="M57.681 66.0244C63.5573 66.0244 68.321 70.7841 68.321 76.6554C68.321 82.5262 63.5573 87.2862 57.681 87.2862C51.8047 87.2862 47.041 82.5262 47.041 76.6554C47.041 70.7841 51.8047 66.0244 57.681 66.0244Z" fill="#F4B70B"/>
<path d="M57.6815 70.5005C61.0836 70.5005 63.8415 73.2561 63.8415 76.6553C63.8415 80.054 61.0836 82.81 57.6815 82.81C54.2794 82.81 51.5215 80.054 51.5215 76.6553C51.5215 73.2561 54.2794 70.5005 57.6815 70.5005Z" fill="#212121"/>
<path d="M315.06 80.662C314.207 80.662 313.555 80.35 313.105 79.725C312.661 79.094 312.439 78.1778 312.439 76.9759C312.439 75.7942 312.661 74.8911 313.105 74.2667C313.555 73.6423 314.207 73.3301 315.06 73.3301C315.914 73.3301 316.562 73.6423 317.006 74.2667C317.456 74.8844 317.681 75.7875 317.681 76.9759C317.681 78.1711 317.456 79.084 317.006 79.715C316.562 80.347 315.914 80.662 315.06 80.662ZM315.06 79.645C315.524 79.645 315.86 79.433 316.068 79.01C316.283 78.5807 316.391 77.9025 316.391 76.9759C316.391 76.0628 316.283 75.3981 316.068 74.9818C315.86 74.5588 315.524 74.3473 315.06 74.3473C314.597 74.3473 314.257 74.5588 314.042 74.9818C313.834 75.3981 313.73 76.0628 313.73 76.9759C313.73 77.9025 313.834 78.5807 314.042 79.01C314.257 79.433 314.597 79.645 315.06 79.645Z" fill="#949494"/>
<path d="M302.268 102.975V101.968H305.302V102.975H302.268Z" fill="#949494"/>
<path d="M309.984 104.133H311.546V105.191H307.121V104.133H308.693V99.51L307.232 100.387V99.228L309.228 98.02H309.984V104.133Z" fill="#949494"/>
<path d="M315.06 105.281C314.207 105.281 313.555 104.969 313.104 104.345C312.661 103.713 312.439 102.797 312.439 101.595C312.439 100.413 312.661 99.5102 313.104 98.8862C313.555 98.2612 314.207 97.9492 315.06 97.9492C315.913 97.9492 316.562 98.2612 317.005 98.8862C317.456 99.5042 317.681 100.407 317.681 101.595C317.681 102.79 317.456 103.703 317.005 104.335C316.562 104.966 315.913 105.281 315.06 105.281ZM315.06 104.264C315.524 104.264 315.86 104.053 316.068 103.63C316.283 103.2 316.391 102.522 316.391 101.595C316.391 100.682 316.283 100.017 316.068 99.6012C315.86 99.1782 315.524 98.9662 315.06 98.9662C314.596 98.9662 314.257 99.1782 314.042 99.6012C313.834 100.017 313.729 100.682 313.729 101.595C313.729 102.522 313.834 103.2 314.042 103.63C314.257 104.053 314.596 104.264 315.06 104.264Z" fill="#949494"/>
<path d="M302.258 127.594V126.586H305.292V127.594H302.258Z" fill="#949494"/>
<path d="M311.516 128.752V129.809H306.698V128.853L309.137 126.224C309.426 125.908 309.638 125.62 309.772 125.358C309.907 125.096 309.974 124.837 309.974 124.582C309.974 124.253 309.876 124.005 309.681 123.837C309.493 123.669 309.221 123.585 308.865 123.585C308.233 123.585 307.585 123.834 306.92 124.33L306.486 123.384C306.768 123.129 307.131 122.927 307.575 122.779C308.018 122.625 308.465 122.548 308.915 122.548C309.634 122.548 310.202 122.726 310.619 123.082C311.042 123.431 311.254 123.904 311.254 124.502C311.254 124.911 311.163 125.297 310.982 125.66C310.807 126.022 310.511 126.429 310.095 126.879L308.331 128.752H311.516Z" fill="#949494"/>
<path d="M315.06 129.9C314.207 129.9 313.555 129.588 313.105 128.963C312.661 128.332 312.439 127.416 312.439 126.214C312.439 125.032 312.661 124.129 313.105 123.505C313.555 122.88 314.207 122.568 315.06 122.568C315.913 122.568 316.562 122.88 317.005 123.505C317.456 124.122 317.681 125.025 317.681 126.214C317.681 127.409 317.456 128.322 317.005 128.953C316.562 129.584 315.913 129.9 315.06 129.9ZM315.06 128.883C315.524 128.883 315.86 128.671 316.068 128.248C316.283 127.819 316.391 127.14 316.391 126.214C316.391 125.301 316.283 124.636 316.068 124.22C315.86 123.797 315.524 123.585 315.06 123.585C314.596 123.585 314.257 123.797 314.042 124.22C313.834 124.636 313.729 125.301 313.729 126.214C313.729 127.14 313.834 127.819 314.042 128.248C314.257 128.671 314.596 128.883 315.06 128.883Z" fill="#949494"/>
<path d="M302.268 152.213V151.206H305.302V152.213H302.268Z" fill="#949494"/>
<path d="M310.125 150.742C310.548 150.856 310.871 151.065 311.092 151.367C311.321 151.669 311.435 152.042 311.435 152.485C311.435 153.109 311.203 153.603 310.74 153.965C310.283 154.328 309.664 154.509 308.885 154.509C308.401 154.509 307.934 154.435 307.484 154.287C307.04 154.14 306.674 153.935 306.385 153.673L306.829 152.726C307.467 153.223 308.136 153.472 308.834 153.472C309.291 153.472 309.631 153.381 309.853 153.2C310.081 153.018 310.195 152.743 310.195 152.374C310.195 152.011 310.081 151.746 309.853 151.578C309.624 151.404 309.271 151.316 308.794 151.316H307.847V150.279H308.623C309.55 150.279 310.014 149.927 310.014 149.222C310.014 148.893 309.913 148.641 309.711 148.466C309.51 148.292 309.228 148.204 308.865 148.204C308.22 148.204 307.574 148.453 306.929 148.95L306.496 148.003C306.785 147.748 307.148 147.546 307.585 147.399C308.028 147.244 308.482 147.167 308.945 147.167C309.651 147.167 310.212 147.342 310.629 147.691C311.052 148.033 311.264 148.493 311.264 149.07C311.257 149.467 311.153 149.812 310.951 150.108C310.756 150.397 310.481 150.608 310.125 150.742Z" fill="#949494"/>
<path d="M315.06 154.519C314.207 154.519 313.555 154.207 313.104 153.582C312.661 152.951 312.439 152.035 312.439 150.833C312.439 149.651 312.661 148.748 313.104 148.124C313.555 147.499 314.207 147.187 315.06 147.187C315.913 147.187 316.562 147.499 317.005 148.124C317.456 148.741 317.681 149.645 317.681 150.833C317.681 152.028 317.456 152.941 317.005 153.572C316.562 154.204 315.913 154.519 315.06 154.519ZM315.06 153.502C315.524 153.502 315.86 153.29 316.068 152.867C316.283 152.438 316.391 151.76 316.391 150.833C316.391 149.92 316.283 149.255 316.068 148.839C315.86 148.416 315.524 148.204 315.06 148.204C314.596 148.204 314.257 148.416 314.042 148.839C313.834 149.255 313.729 149.92 313.729 150.833C313.729 151.76 313.834 152.438 314.042 152.867C314.257 153.29 314.596 153.502 315.06 153.502Z" fill="#949494"/>
<path d="M302.268 176.832V175.825H305.302V176.832H302.268Z" fill="#949494"/>
<path d="M311.798 176.63V177.648H310.78V179.048H309.51V177.648H306.385V176.681L309.742 171.877H310.78V176.63H311.798ZM307.615 176.63H309.51V173.901L307.615 176.63Z" fill="#949494"/>
<path d="M315.06 179.138C314.207 179.138 313.555 178.826 313.104 178.202C312.661 177.57 312.439 176.654 312.439 175.452C312.439 174.27 312.661 173.367 313.104 172.743C313.555 172.118 314.207 171.806 315.06 171.806C315.913 171.806 316.562 172.118 317.005 172.743C317.456 173.361 317.681 174.264 317.681 175.452C317.681 176.647 317.456 177.56 317.005 178.191C316.562 178.823 315.913 179.138 315.06 179.138ZM315.06 178.121C315.524 178.121 315.86 177.909 316.068 177.486C316.283 177.057 316.391 176.379 316.391 175.452C316.391 174.539 316.283 173.874 316.068 173.458C315.86 173.035 315.524 172.823 315.06 172.823C314.596 172.823 314.257 173.035 314.042 173.458C313.834 173.874 313.729 174.539 313.729 175.452C313.729 176.379 313.834 177.057 314.042 177.486C314.257 177.909 314.596 178.121 315.06 178.121Z" fill="#949494"/>
<path d="M302.268 201.451V200.444H305.302V201.451H302.268Z" fill="#949494"/>
<path d="M309.399 199.084C309.849 199.084 310.246 199.182 310.588 199.376C310.931 199.564 311.197 199.833 311.385 200.182C311.573 200.524 311.667 200.921 311.667 201.37C311.667 201.84 311.559 202.257 311.344 202.619C311.129 202.975 310.82 203.254 310.417 203.455C310.014 203.65 309.547 203.747 309.016 203.747C308.566 203.747 308.122 203.673 307.685 203.526C307.249 203.371 306.889 203.166 306.607 202.911L307.04 201.965C307.692 202.461 308.357 202.71 309.036 202.71C309.486 202.71 309.829 202.599 310.064 202.378C310.306 202.149 310.427 201.827 310.427 201.411C310.427 201.015 310.303 200.699 310.054 200.464C309.812 200.222 309.486 200.101 309.076 200.101C308.794 200.101 308.529 200.155 308.28 200.263C308.031 200.363 307.813 200.514 307.625 200.716H306.839V196.496H311.334V197.503H308.109V199.457C308.472 199.208 308.902 199.084 309.399 199.084Z" fill="#949494"/>
<path d="M315.06 203.757C314.207 203.757 313.555 203.445 313.104 202.821C312.661 202.19 312.439 201.273 312.439 200.071C312.439 198.889 312.661 197.986 313.104 197.362C313.555 196.738 314.207 196.425 315.06 196.425C315.913 196.425 316.562 196.738 317.005 197.362C317.456 197.98 317.681 198.883 317.681 200.071C317.681 201.266 317.456 202.179 317.005 202.811C316.562 203.442 315.913 203.757 315.06 203.757ZM315.06 202.74C315.524 202.74 315.86 202.529 316.068 202.106C316.283 201.676 316.391 200.998 316.391 200.071C316.391 199.158 316.283 198.493 316.068 198.077C315.86 197.654 315.524 197.443 315.06 197.443C314.596 197.443 314.257 197.654 314.042 198.077C313.834 198.493 313.729 199.158 313.729 200.071C313.729 200.998 313.834 201.676 314.042 202.106C314.257 202.529 314.596 202.74 315.06 202.74Z" fill="#949494"/>
<path d="M302.268 226.07V225.063H305.302V226.07H302.268Z" fill="#949494"/>
<path d="M309.459 223.683C309.883 223.683 310.259 223.781 310.588 223.975C310.924 224.17 311.186 224.442 311.375 224.791C311.563 225.14 311.657 225.54 311.657 225.99C311.657 226.446 311.553 226.856 311.344 227.218C311.143 227.581 310.857 227.866 310.488 228.074C310.125 228.276 309.711 228.377 309.248 228.377C308.341 228.377 307.642 228.071 307.151 227.46C306.661 226.842 306.415 225.966 306.415 224.831C306.415 224.039 306.53 223.358 306.758 222.787C306.993 222.216 307.329 221.78 307.766 221.478C308.21 221.175 308.734 221.024 309.338 221.024C309.769 221.024 310.185 221.098 310.588 221.246C310.998 221.387 311.354 221.592 311.657 221.86L311.213 222.807C310.582 222.31 309.974 222.062 309.389 222.062C308.858 222.062 308.448 222.287 308.159 222.737C307.87 223.186 307.719 223.831 307.706 224.67C307.86 224.368 308.095 224.13 308.411 223.955C308.727 223.774 309.076 223.683 309.459 223.683ZM309.187 227.349C309.557 227.349 309.853 227.228 310.074 226.987C310.303 226.745 310.417 226.426 310.417 226.03C310.417 225.634 310.303 225.318 310.074 225.083C309.853 224.841 309.554 224.721 309.177 224.721C308.801 224.721 308.495 224.841 308.26 225.083C308.025 225.325 307.907 225.64 307.907 226.03C307.907 226.419 308.025 226.738 308.26 226.987C308.502 227.228 308.811 227.349 309.187 227.349Z" fill="#949494"/>
<path d="M315.06 228.377C314.207 228.377 313.555 228.064 313.104 227.44C312.661 226.809 312.439 225.892 312.439 224.69C312.439 223.509 312.661 222.606 313.104 221.981C313.555 221.357 314.207 221.045 315.06 221.045C315.913 221.045 316.562 221.357 317.005 221.981C317.456 222.599 317.681 223.502 317.681 224.69C317.681 225.886 317.456 226.799 317.005 227.43C316.562 228.061 315.913 228.377 315.06 228.377ZM315.06 227.359C315.524 227.359 315.86 227.148 316.068 226.725C316.283 226.295 316.391 225.617 316.391 224.69C316.391 223.777 316.283 223.113 316.068 222.696C315.86 222.273 315.524 222.062 315.06 222.062C314.596 222.062 314.257 222.273 314.042 222.696C313.834 223.113 313.729 223.777 313.729 224.69C313.729 225.617 313.834 226.295 314.042 226.725C314.257 227.148 314.596 227.359 315.06 227.359Z" fill="#949494"/>
<path d="M280.777 262.977V255.806H282.078V261.909H285.434V262.977H280.777Z" fill="#949494"/>
<path d="M286.418 262.977V255.806H291.216V256.833H287.688V258.817H291.004V259.844H287.688V261.949H291.216V262.977H286.418Z" fill="#949494"/>
<path d="M297.674 255.806H298.995L295.8 262.977H294.741L291.546 255.806H292.896L295.285 261.345L297.674 255.806Z" fill="#949494"/>
<path d="M299.677 262.977V255.806H304.475V256.833H300.947V258.817H304.264V259.844H300.947V261.949H304.475V262.977H299.677Z" fill="#949494"/>
<path d="M305.672 262.977V255.806H306.973V261.909H310.329V262.977H305.672Z" fill="#949494"/>
<path fill-rule="evenodd" clip-rule="evenodd" d="M284.481 76.0952V227.167H281.121V76.0952H284.481Z" fill="#424242"/>
<path fill-rule="evenodd" clip-rule="evenodd" d="M284.481 115.262V227.167H281.121V115.262H284.481Z" fill="#F4B70B"/>
<path fill-rule="evenodd" clip-rule="evenodd" d="M166.88 39.1673C163.787 39.1673 161.28 41.6724 161.28 44.7626C161.28 47.8527 163.787 50.3578 166.88 50.3578C169.972 50.3578 172.48 47.8527 172.48 44.7626C172.48 41.6724 169.972 39.1673 166.88 39.1673ZM166.88 38.0483C163.168 38.0483 160.16 41.0544 160.16 44.7626C160.16 48.4708 163.168 51.4768 166.88 51.4769C170.591 51.4769 173.6 48.4708 173.6 44.7626C173.6 41.0544 170.591 38.0483 166.88 38.0483Z" fill="#949494"/>
<path d="M166.133 48.4923H167.626V44.0161H166.133V48.4923Z" fill="#949494"/>
<path d="M167.626 41.7777C167.626 41.3657 167.292 41.0317 166.879 41.0317C166.467 41.0317 166.133 41.3657 166.133 41.7777C166.133 42.1897 166.467 42.5237 166.879 42.5237C167.292 42.5237 167.626 42.1897 167.626 41.7777Z" fill="#949494"/>
<path d="M174.721 361.452C174.721 355.89 179.234 351.381 184.801 351.381H303.521C309.088 351.381 313.601 355.89 313.601 361.452C313.601 367.015 309.088 371.524 303.521 371.524H184.801C179.234 371.524 174.721 367.015 174.721 361.452Z" fill="#F4B70B"/>
<path d="M218.748 364.809V357.638H223.546V358.666H220.018V360.65H223.334V361.677H220.018V363.782H223.546V364.809H218.748Z" fill="#F0F0F0"/>
<path d="M230.71 357.638H231.738V364.809H230.589V360.358L228.684 364.809H227.827L225.912 360.408V364.809H224.763V357.638H225.791L228.261 363.248L230.71 357.638Z" fill="#F0F0F0"/>
<path d="M233.307 357.638H236.422C237.194 357.638 237.796 357.826 238.226 358.202C238.656 358.572 238.871 359.079 238.871 359.723C238.871 360.368 238.653 360.878 238.216 361.254C237.786 361.63 237.188 361.818 236.422 361.818H234.607V364.809H233.307V357.638ZM236.27 360.811C236.721 360.811 237.06 360.72 237.289 360.539C237.524 360.351 237.641 360.082 237.641 359.733C237.641 359.377 237.527 359.109 237.299 358.928C237.07 358.74 236.727 358.646 236.27 358.646H234.607V360.811H236.27Z" fill="#F0F0F0"/>
<path d="M244.98 357.638H246.27V364.809H244.98V361.697H241.301V364.809H240.02V357.638H241.301V360.64H244.98V357.638Z" fill="#F0F0F0"/>
<path d="M253.31 364.809L252.594 363.127H249.086L248.361 364.809H247.05L250.296 357.638H251.354L254.61 364.809H253.31ZM249.52 362.12H252.161L250.84 359.048L249.52 362.12Z" fill="#F0F0F0"/>
<path d="M257.727 364.9C257.176 364.9 256.659 364.826 256.175 364.678C255.698 364.531 255.291 364.319 254.955 364.044L255.399 363.097C255.748 363.359 256.111 363.554 256.487 363.681C256.87 363.802 257.287 363.863 257.737 363.863C258.235 363.863 258.618 363.775 258.886 363.601C259.162 363.426 259.3 363.181 259.3 362.866C259.3 362.597 259.172 362.392 258.917 362.251C258.668 362.103 258.255 361.966 257.677 361.838C256.776 361.644 256.121 361.392 255.711 361.083C255.301 360.774 255.096 360.324 255.096 359.733C255.096 359.31 255.211 358.934 255.439 358.605C255.667 358.276 255.99 358.018 256.407 357.83C256.83 357.642 257.317 357.548 257.868 357.548C258.372 357.548 258.849 357.625 259.3 357.779C259.757 357.927 260.13 358.135 260.419 358.404L259.985 359.351C259.347 358.84 258.641 358.585 257.868 358.585C257.405 358.585 257.038 358.683 256.77 358.877C256.501 359.065 256.366 359.324 256.366 359.653C256.366 359.935 256.484 360.15 256.719 360.297C256.961 360.445 257.371 360.583 257.949 360.71C258.547 360.851 259.034 361.006 259.411 361.174C259.787 361.335 260.076 361.546 260.277 361.808C260.479 362.063 260.58 362.385 260.58 362.775C260.58 363.205 260.466 363.581 260.237 363.903C260.009 364.218 259.679 364.464 259.249 364.638C258.819 364.813 258.312 364.9 257.727 364.9Z" fill="#F0F0F0"/>
<path d="M261.785 364.809V357.638H263.085V364.809H261.785Z" fill="#F0F0F0"/>
<path d="M267.069 364.9C266.518 364.9 266 364.826 265.517 364.678C265.039 364.531 264.633 364.319 264.297 364.044L264.74 363.097C265.09 363.359 265.453 363.554 265.829 363.681C266.212 363.802 266.629 363.863 267.079 363.863C267.576 363.863 267.959 363.775 268.228 363.601C268.504 363.426 268.641 363.181 268.641 362.866C268.641 362.597 268.514 362.392 268.258 362.251C268.01 362.103 267.596 361.966 267.018 361.838C266.118 361.644 265.463 361.392 265.053 361.083C264.643 360.774 264.438 360.324 264.438 359.733C264.438 359.31 264.552 358.934 264.781 358.605C265.009 358.276 265.332 358.018 265.748 357.83C266.172 357.642 266.659 357.548 267.21 357.548C267.714 357.548 268.191 357.625 268.641 357.779C269.098 357.927 269.471 358.135 269.76 358.404L269.327 359.351C268.688 358.84 267.983 358.585 267.21 358.585C266.746 358.585 266.38 358.683 266.111 358.877C265.842 359.065 265.708 359.324 265.708 359.653C265.708 359.935 265.826 360.15 266.061 360.297C266.303 360.445 266.713 360.583 267.291 360.71C267.889 360.851 268.376 361.006 268.752 361.174C269.129 361.335 269.418 361.546 269.619 361.808C269.821 362.063 269.922 362.385 269.922 362.775C269.922 363.205 269.807 363.581 269.579 363.903C269.35 364.218 269.021 364.464 268.591 364.638C268.161 364.813 267.654 364.9 267.069 364.9Z" fill="#F0F0F0"/>
<path d="M309.122 361.452C309.122 365.16 306.113 368.166 302.402 368.166C298.69 368.166 295.682 365.16 295.682 361.452C295.682 357.744 298.69 354.738 302.402 354.738C306.113 354.738 309.122 357.744 309.122 361.452Z" fill="#F0F0F0"/>
<path d="M306.882 361.452C306.882 363.924 304.876 365.928 302.402 365.928C299.928 365.928 297.922 363.924 297.922 361.452C297.922 358.98 299.928 356.976 302.402 356.976C304.876 356.976 306.882 358.98 306.882 361.452Z" fill="#D8D8D8"/>
<path d="M309.122 361.452C309.122 365.16 306.113 368.166 302.402 368.166C298.69 368.166 295.682 365.16 295.682 361.452C295.682 357.744 298.69 354.738 302.402 354.738C306.113 354.738 309.122 357.744 309.122 361.452Z" fill="#F0F0F0"/>
<path d="M306.882 361.452C306.882 363.924 304.876 365.928 302.402 365.928C299.928 365.928 297.922 363.924 297.922 361.452C297.922 358.98 299.928 356.976 302.402 356.976C304.876 356.976 306.882 358.98 306.882 361.452Z" fill="#1CCCD1"/>
<path fill-rule="evenodd" clip-rule="evenodd" d="M151.2 352.5H32.4804C27.5319 352.5 23.5204 356.508 23.5204 361.452C23.5204 366.397 27.5319 370.405 32.4804 370.405H151.2C156.149 370.405 160.16 366.397 160.16 361.452C160.16 356.508 156.149 352.5 151.2 352.5ZM32.4804 351.381C26.9134 351.381 22.4004 355.89 22.4004 361.452C22.4004 367.015 26.9134 371.524 32.4804 371.524H151.2C156.767 371.524 161.28 367.015 161.28 361.452C161.28 355.89 156.767 351.381 151.2 351.381H32.4804Z" fill="#212121"/>
<path d="M50.7666 361.103C51.1832 361.224 51.5024 361.435 51.7242 361.738C51.9527 362.04 52.0669 362.412 52.0669 362.855C52.0669 363.466 51.8485 363.947 51.4117 364.296C50.9816 364.638 50.3802 364.809 49.6074 364.809H46.3516V357.638H49.5066C50.2458 357.638 50.8271 357.806 51.2504 358.142C51.6738 358.471 51.8855 358.928 51.8855 359.512C51.8855 359.888 51.7847 360.217 51.5831 360.499C51.3882 360.774 51.116 360.975 50.7666 361.103ZM47.6216 360.66H49.2949C50.1954 360.66 50.6456 360.324 50.6456 359.653C50.6456 359.317 50.5348 359.065 50.313 358.897C50.0912 358.73 49.7519 358.646 49.2949 358.646H47.6216V360.66ZM49.4663 363.802C49.9367 363.802 50.2794 363.718 50.4944 363.55C50.7162 363.383 50.8271 363.117 50.8271 362.755C50.8271 362.385 50.7162 362.114 50.4944 361.939C50.2794 361.764 49.9367 361.677 49.4663 361.677H47.6216V363.802H49.4663Z" fill="#212121"/>
<path d="M59.2184 364.809H57.8475L56.9302 362.422C56.8496 362.201 56.7253 362.046 56.5573 361.959C56.3893 361.872 56.1709 361.828 55.9021 361.828H54.6017V364.809H53.3115V357.638H56.3859C57.199 357.638 57.8173 357.816 58.2406 358.172C58.664 358.528 58.8757 359.038 58.8757 359.703C58.8757 360.18 58.748 360.586 58.4926 360.922C58.244 361.251 57.8878 361.486 57.4241 361.627C57.8475 361.714 58.1533 362.009 58.3414 362.513L59.2184 364.809ZM56.2045 360.821C56.695 360.821 57.0579 360.73 57.2931 360.549C57.5283 360.368 57.6459 360.093 57.6459 359.723C57.6459 359.361 57.5283 359.092 57.2931 358.918C57.0646 358.736 56.7017 358.646 56.2045 358.646H54.5816V360.821H56.2045Z" fill="#212121"/>
<path d="M60.3887 364.809V357.638H65.1867V358.666H61.6587V360.65H64.975V361.677H61.6587V363.782H65.1867V364.809H60.3887Z" fill="#212121"/>
<path d="M71.749 364.809L71.0333 363.127H67.5255L66.7997 364.809H65.4893L68.7351 357.638H69.7935L73.0493 364.809H71.749ZM67.9589 362.12H70.5999L69.2794 359.048L67.9589 362.12Z" fill="#212121"/>
<path d="M74.6228 364.809V358.706H72.2842V357.638H78.2819V358.706H75.9332V364.809H74.6228Z" fill="#212121"/>
<path d="M84.1397 357.638H85.4297V364.809H84.1397V361.697H80.4607V364.809H79.1797V357.638H80.4607V360.64H84.1397V357.638Z" fill="#212121"/>
<path d="M93.0085 364.9C92.3035 364.9 91.6855 364.749 91.1545 364.447C90.6305 364.145 90.2265 363.718 89.9445 363.168C89.6625 362.61 89.5215 361.959 89.5215 361.214C89.5215 360.475 89.6625 359.831 89.9445 359.28C90.2265 358.723 90.6305 358.296 91.1545 358.001C91.6855 357.699 92.3035 357.548 93.0085 357.548C93.4925 357.548 93.9465 357.625 94.3695 357.779C94.7995 357.927 95.1565 358.135 95.4385 358.404L95.0145 359.351C94.6925 359.089 94.3695 358.901 94.0475 358.787C93.7315 358.666 93.3925 358.605 93.0295 358.605C92.3365 358.605 91.7995 358.83 91.4165 359.28C91.0405 359.73 90.8515 360.375 90.8515 361.214C90.8515 362.06 91.0405 362.711 91.4165 363.168C91.7925 363.618 92.3305 363.842 93.0295 363.842C93.3925 363.842 93.7315 363.785 94.0475 363.671C94.3695 363.55 94.6925 363.359 95.0145 363.097L95.4385 364.044C95.1565 364.312 94.7995 364.524 94.3695 364.678C93.9465 364.826 93.4925 364.9 93.0085 364.9Z" fill="#212121"/>
<path d="M99.7012 364.9C99.0082 364.9 98.4042 364.752 97.8862 364.457C97.3752 364.155 96.9792 363.728 96.6972 363.178C96.4212 362.62 96.2832 361.966 96.2832 361.214C96.2832 360.469 96.4212 359.821 96.6972 359.27C96.9722 358.713 97.3652 358.286 97.8762 357.991C98.3942 357.696 99.0022 357.548 99.7012 357.548C100.399 357.548 101.004 357.696 101.515 357.991C102.032 358.286 102.426 358.713 102.694 359.27C102.97 359.821 103.108 360.469 103.108 361.214C103.108 361.966 102.97 362.62 102.694 363.178C102.419 363.728 102.026 364.155 101.515 364.457C101.004 364.752 100.399 364.9 99.7012 364.9ZM99.7012 363.863C100.366 363.863 100.883 363.634 101.253 363.178C101.623 362.721 101.807 362.067 101.807 361.214C101.807 360.368 101.623 359.72 101.253 359.27C100.883 358.813 100.366 358.585 99.7012 358.585C99.0352 358.585 98.5182 358.81 98.1482 359.26C97.7792 359.71 97.5942 360.361 97.5942 361.214C97.5942 362.067 97.7792 362.721 98.1482 363.178C98.5182 363.634 99.0352 363.863 99.7012 363.863Z" fill="#212121"/>
<path d="M109.268 357.638H110.488V364.809H109.52L105.649 359.784V364.809H104.44V357.638H105.407L109.268 362.654V357.638Z" fill="#212121"/>
<path d="M113.732 364.809V358.706H111.394V357.638H117.391V358.706H115.043V364.809H113.732Z" fill="#212121"/>
<path d="M124.197 364.809H122.826L121.908 362.422C121.828 362.201 121.703 362.046 121.535 361.959C121.367 361.872 121.149 361.828 120.88 361.828H119.58V364.809H118.29V357.638H121.364C122.177 357.638 122.795 357.816 123.219 358.172C123.642 358.528 123.854 359.038 123.854 359.703C123.854 360.18 123.726 360.586 123.471 360.922C123.222 361.251 122.866 361.486 122.402 361.627C122.826 361.714 123.131 362.009 123.32 362.513L124.197 364.809ZM121.183 360.821C121.673 360.821 122.036 360.73 122.271 360.549C122.506 360.368 122.624 360.093 122.624 359.723C122.624 359.361 122.506 359.092 122.271 358.918C122.043 358.736 121.68 358.646 121.183 358.646H119.56V360.821H121.183Z" fill="#212121"/>
<path d="M128.503 364.9C127.811 364.9 127.206 364.752 126.689 364.457C126.178 364.155 125.782 363.728 125.5 363.178C125.224 362.62 125.086 361.966 125.086 361.214C125.086 360.469 125.224 359.821 125.5 359.27C125.775 358.713 126.168 358.286 126.679 357.991C127.196 357.696 127.805 357.548 128.503 357.548C129.202 357.548 129.807 357.696 130.318 357.991C130.835 358.286 131.228 358.713 131.497 359.27C131.773 359.821 131.91 360.469 131.91 361.214C131.91 361.966 131.773 362.62 131.497 363.178C131.222 363.728 130.829 364.155 130.318 364.457C129.807 364.752 129.202 364.9 128.503 364.9ZM128.503 363.863C129.169 363.863 129.686 363.634 130.056 363.178C130.425 362.721 130.61 362.067 130.61 361.214C130.61 360.368 130.425 359.72 130.056 359.27C129.686 358.813 129.169 358.585 128.503 358.585C127.838 358.585 127.321 358.81 126.951 359.26C126.581 359.71 126.397 360.361 126.397 361.214C126.397 362.067 126.581 362.721 126.951 363.178C127.321 363.634 127.838 363.863 128.503 363.863Z" fill="#212121"/>
<path d="M133.242 364.809V357.638H134.543V363.742H137.899V364.809H133.242Z" fill="#212121"/>
<defs>
<linearGradient id="paint0_linear_1133_1774" x1="22.3994" y1="408.468" x2="23.5184" y2="408.468" gradientUnits="userSpaceOnUse">
<stop stop-color="#1E1E1E"/>
<stop offset="0.9977" stop-color="#262626"/>
</linearGradient>
<linearGradient id="paint1_linear_1133_1774" x1="312.683" y1="408.468" x2="313.802" y2="408.468" gradientUnits="userSpaceOnUse">
<stop stop-color="#1E1E1E"/>
<stop offset="0.9977" stop-color="#262626"/>
</linearGradient>
</defs>
</svg>
