<svg width="336" height="470" viewBox="0 0 336 470" fill="none" xmlns="http://www.w3.org/2000/svg">
<rect width="336" height="470" fill="white"/>
<path d="M0 0H336V470H0V0Z" fill="#F0F0F0"/>
<path d="M0 0V304.381H70.112C91.168 304.381 112.112 307.514 132.048 314.341C143.248 318.145 155.232 320.272 167.664 320.272C180.096 320.272 192.08 318.145 203.28 314.341C223.216 307.514 244.16 304.381 265.216 304.381H336V0H0Z" fill="#212121"/>
<path d="M0 440.905H336V470H0V440.905Z" fill="black"/>
<path d="M321.44 454.557L320.096 453.326C319.984 453.214 319.872 453.214 319.76 453.326L318.528 454.557V449.41H311.36V448.514C311.36 448.067 311.808 447.619 312.256 447.619H323.792C324.128 447.619 324.352 447.395 324.352 447.06C324.352 446.724 324.128 446.5 323.904 446.5H312.256C311.136 446.5 310.24 447.395 310.24 448.514V462.95C310.24 463.174 310.352 463.286 310.464 463.286H322.336C323.456 463.286 324.352 462.39 324.352 461.271V449.41H321.44V454.557ZM313.264 461.495C313.264 461.831 313.04 462.055 312.704 462.055C312.368 462.055 312.144 461.831 312.144 461.495V450.976C312.144 450.64 312.368 450.417 312.704 450.417C313.04 450.417 313.264 450.64 313.264 450.976V461.495Z" fill="#F0F0F0"/>
<path d="M133.557 363.082H135.29V372.643H133.557V363.082Z" fill="#212121"/>
<path d="M145.427 363.082V372.643H144.137L138.976 365.942V372.643H137.363V363.082H138.653L143.801 369.769V363.082H145.427Z" fill="#212121"/>
<path d="M149.753 364.505H146.635V363.082H154.632V364.505H151.5V372.643H149.753V364.505Z" fill="#212121"/>
<path d="M155.83 363.082H162.227V364.452H157.523V367.097H161.945V368.467H157.523V371.273H162.227V372.643H155.83V363.082Z" fill="#212121"/>
<path d="M171.886 363.082V372.643H170.596L165.435 365.942V372.643H163.822V363.082H165.112L170.26 369.769V363.082H171.886Z" fill="#212121"/>
<path d="M177.208 372.764C176.473 372.764 175.783 372.665 175.138 372.468C174.502 372.271 173.96 371.989 173.512 371.622L174.103 370.36C174.569 370.709 175.053 370.969 175.554 371.139C176.065 371.3 176.621 371.381 177.221 371.381C177.884 371.381 178.395 371.264 178.753 371.032C179.121 370.799 179.304 370.472 179.304 370.051C179.304 369.693 179.134 369.42 178.793 369.232C178.462 369.035 177.911 368.852 177.14 368.682C175.94 368.422 175.066 368.086 174.52 367.674C173.973 367.263 173.7 366.663 173.7 365.875C173.7 365.311 173.852 364.81 174.157 364.371C174.461 363.932 174.891 363.588 175.447 363.337C176.011 363.086 176.661 362.961 177.396 362.961C178.068 362.961 178.704 363.064 179.304 363.27C179.913 363.467 180.411 363.744 180.796 364.102L180.218 365.365C179.367 364.684 178.426 364.344 177.396 364.344C176.777 364.344 176.289 364.474 175.931 364.734C175.572 364.984 175.393 365.329 175.393 365.768C175.393 366.144 175.55 366.43 175.864 366.627C176.186 366.824 176.733 367.007 177.503 367.178C178.301 367.366 178.95 367.571 179.452 367.795C179.954 368.01 180.339 368.292 180.608 368.641C180.877 368.981 181.011 369.411 181.011 369.93C181.011 370.503 180.859 371.005 180.554 371.434C180.249 371.855 179.81 372.182 179.237 372.415C178.664 372.647 177.987 372.764 177.208 372.764Z" fill="#212121"/>
<path d="M182.617 363.082H184.351V372.643H182.617V363.082Z" fill="#212121"/>
<path d="M188.669 364.505H185.551V363.082H193.547V364.505H190.416V372.643H188.669V364.505Z" fill="#212121"/>
<path d="M199.001 368.856V372.643H197.267V368.856L193.383 363.082H195.359L198.128 367.406L200.91 363.082H202.885L199.001 368.856Z" fill="#212121"/>
<path d="M280.4 423.081H277.685V425.793H276.502V423.081H273.787V421.885H276.502V419.173H277.685V421.885H280.4V423.081Z" fill="#949494"/>
<path d="M54.6875 423.403V422.06H58.7329V423.403H54.6875Z" fill="#949494"/>
<path d="M166.255 420.124C166.726 420.124 167.144 420.232 167.51 420.449C167.883 420.665 168.174 420.967 168.383 421.355C168.593 421.743 168.697 422.187 168.697 422.687C168.697 423.194 168.581 423.649 168.35 424.052C168.126 424.455 167.809 424.772 167.398 425.003C166.995 425.227 166.535 425.339 166.02 425.339C165.012 425.339 164.236 425 163.691 424.321C163.146 423.634 162.873 422.661 162.873 421.4C162.873 420.52 163 419.762 163.254 419.128C163.515 418.494 163.889 418.009 164.374 417.673C164.867 417.338 165.449 417.17 166.121 417.17C166.599 417.17 167.062 417.252 167.51 417.416C167.965 417.573 168.361 417.8 168.697 418.099L168.204 419.151C167.502 418.599 166.827 418.323 166.177 418.323C165.587 418.323 165.132 418.572 164.811 419.072C164.49 419.572 164.322 420.288 164.307 421.221C164.478 420.885 164.74 420.62 165.091 420.426C165.442 420.225 165.83 420.124 166.255 420.124ZM165.953 424.198C166.364 424.198 166.692 424.063 166.939 423.795C167.193 423.526 167.319 423.172 167.319 422.732C167.319 422.291 167.193 421.941 166.939 421.68C166.692 421.411 166.36 421.277 165.942 421.277C165.524 421.277 165.184 421.411 164.923 421.68C164.661 421.948 164.531 422.299 164.531 422.732C164.531 423.164 164.661 423.519 164.923 423.795C165.191 424.063 165.535 424.198 165.953 424.198Z" fill="#949494"/>
<path fill-rule="evenodd" clip-rule="evenodd" d="M281.121 403.417H54.8809V400.06H281.121V403.417Z" fill="#D8D8D8"/>
<path fill-rule="evenodd" clip-rule="evenodd" d="M178.081 403.417H54.8809V400.06H178.081V403.417Z" fill="#FF878B"/>
<path d="M194.88 401.179C194.88 407.05 190.116 411.81 184.24 411.81C178.363 411.81 173.6 407.05 173.6 401.179C173.6 395.307 178.363 390.548 184.24 390.548C190.116 390.548 194.88 395.307 194.88 401.179Z" fill="#FF878B"/>
<path d="M190.4 401.179C190.4 404.578 187.642 407.333 184.24 407.333C180.838 407.333 178.08 404.578 178.08 401.179C178.08 397.78 180.838 395.024 184.24 395.024C187.642 395.024 190.4 397.78 190.4 401.179Z" fill="#F0F0F0"/>
<path d="M59.3601 50.357H43.6801C40.5441 50.357 38.0801 47.8951 38.0801 44.7618C38.0801 41.6285 40.5441 39.1665 43.6801 39.1665H59.3601C62.4961 39.1665 64.9601 41.6285 64.9601 44.7618C64.9601 47.8951 62.3841 50.357 59.3601 50.357Z" fill="#373737"/>
<path d="M59.3609 49.2385C61.8249 49.2385 63.8409 47.2242 63.8409 44.7623C63.8409 42.3004 61.8249 40.2861 59.3609 40.2861C56.8969 40.2861 54.8809 42.3004 54.8809 44.7623C54.8809 47.2242 56.8969 49.2385 59.3609 49.2385Z" fill="#FF878B"/>
<path d="M17.8417 49.339C17.0727 49.339 16.4007 49.1748 15.8257 48.8466C15.2583 48.5109 14.8177 48.0371 14.5041 47.4254C14.198 46.8062 14.0449 46.0788 14.0449 45.2433C14.0449 44.4152 14.198 43.6952 14.5041 43.0835C14.8103 42.4643 15.2471 41.9906 15.8145 41.6623C16.3895 41.334 17.0652 41.1699 17.8417 41.1699C18.6183 41.1699 19.2903 41.334 19.8577 41.6623C20.4327 41.9906 20.8695 42.4643 21.1681 43.0835C21.4743 43.6952 21.6273 44.4152 21.6273 45.2433C21.6273 46.0788 21.4743 46.8062 21.1681 47.4254C20.862 48.0371 20.4252 48.5109 19.8577 48.8466C19.2903 49.1748 18.6183 49.339 17.8417 49.339ZM17.8417 48.1864C18.5809 48.1864 19.1559 47.9327 19.5665 47.4254C19.9772 46.9181 20.1825 46.1907 20.1825 45.2433C20.1825 44.3033 19.9772 43.5833 19.5665 43.0835C19.1559 42.5762 18.5809 42.3225 17.8417 42.3225C17.1025 42.3225 16.5276 42.5725 16.1169 43.0723C15.7063 43.5721 15.5009 44.2958 15.5009 45.2433C15.5009 46.1907 15.7063 46.9181 16.1169 47.4254C16.5276 47.9327 17.1025 48.1864 17.8417 48.1864Z" fill="#424242"/>
<path d="M23.1074 49.2382V41.2705H28.3154V42.4232H24.541V44.6053H28.0914V45.7691H24.541V49.2382H23.1074Z" fill="#424242"/>
<path d="M29.5156 49.2382V41.2705H34.7236V42.4232H30.9492V44.6053H34.4996V45.7691H30.9492V49.2382H29.5156Z" fill="#424242"/>
<path d="M72.7226 49.339C71.9535 49.339 71.2815 49.1748 70.7066 48.8466C70.1391 48.5109 69.6986 48.0371 69.385 47.4254C69.0788 46.8062 68.9258 46.0788 68.9258 45.2433C68.9258 44.4152 69.0788 43.6952 69.385 43.0835C69.6911 42.4643 70.1279 41.9906 70.6954 41.6623C71.2703 41.334 71.946 41.1699 72.7226 41.1699C73.4991 41.1699 74.1711 41.334 74.7386 41.6623C75.3135 41.9906 75.7503 42.4643 76.049 43.0835C76.3551 43.6952 76.5082 44.4152 76.5082 45.2433C76.5082 46.0788 76.3551 46.8062 76.049 47.4254C75.7428 48.0371 75.306 48.5109 74.7386 48.8466C74.1711 49.1748 73.4991 49.339 72.7226 49.339ZM72.7226 48.1864C73.4618 48.1864 74.0367 47.9327 74.4474 47.4254C74.858 46.9181 75.0634 46.1907 75.0634 45.2433C75.0634 44.3033 74.858 43.5833 74.4474 43.0835C74.0367 42.5762 73.4618 42.3225 72.7226 42.3225C71.9834 42.3225 71.4084 42.5725 70.9978 43.0723C70.5871 43.5721 70.3818 44.2958 70.3818 45.2433C70.3818 46.1907 70.5871 46.9181 70.9978 47.4254C71.4084 47.9327 71.9834 48.1864 72.7226 48.1864Z" fill="#FF878B"/>
<path d="M83.3532 41.2705H84.7082V49.2382H83.6332L79.3322 43.6541V49.2382H77.9883V41.2705H79.0632L83.3532 46.8434V41.2705Z" fill="#FF878B"/>
<path d="M260.076 49.2381L259.281 47.3693H255.383L254.577 49.2381H253.121L256.727 41.2705H257.903L261.521 49.2381H260.076ZM255.865 46.2502H258.799L257.332 42.8371L255.865 46.2502Z" fill="#FF878B"/>
<path d="M268.576 49.8982H267.4L270.301 40.8115H271.5L268.576 49.8982Z" fill="#949494"/>
<path d="M282.41 45.12C282.872 45.2543 283.227 45.4893 283.474 45.825C283.727 46.1607 283.854 46.5747 283.854 47.0671C283.854 47.746 283.612 48.2794 283.126 48.6674C282.648 49.0478 281.98 49.2381 281.122 49.2381H277.504V41.2705H281.01C281.831 41.2705 282.477 41.457 282.947 41.83C283.418 42.1955 283.653 42.7028 283.653 43.3519C283.653 43.7697 283.541 44.1352 283.317 44.4486C283.1 44.7544 282.798 44.9782 282.41 45.12ZM278.915 44.6276H280.774C281.775 44.6276 282.275 44.2546 282.275 43.5086C282.275 43.1355 282.152 42.8558 281.906 42.6693C281.659 42.4828 281.282 42.3895 280.774 42.3895H278.915V44.6276ZM280.965 48.119C281.487 48.119 281.868 48.0258 282.107 47.8393C282.354 47.6528 282.477 47.3581 282.477 46.9552C282.477 46.5449 282.354 46.2428 282.107 46.0488C281.868 45.8548 281.487 45.7578 280.965 45.7578H278.915V48.119H280.965Z" fill="#949494"/>
<path d="M22.3995 264.186C21.7074 264.186 21.1026 264.038 20.5851 263.743C20.0744 263.441 19.6779 263.014 19.3957 262.464C19.1202 261.907 18.9824 261.252 18.9824 260.5C18.9824 259.755 19.1202 259.107 19.3957 258.556C19.6712 257.999 20.0643 257.573 20.5751 257.277C21.0925 256.982 21.7007 256.834 22.3995 256.834C23.0984 256.834 23.7032 256.982 24.2139 257.277C24.7314 257.573 25.1245 257.999 25.3933 258.556C25.6688 259.107 25.8066 259.755 25.8066 260.5C25.8066 261.252 25.6688 261.907 25.3933 262.464C25.1178 263.014 24.7247 263.441 24.2139 263.743C23.7032 264.038 23.0984 264.186 22.3995 264.186ZM22.3995 263.149C23.0648 263.149 23.5823 262.92 23.9519 262.464C24.3215 262.007 24.5063 261.353 24.5063 260.5C24.5063 259.654 24.3215 259.006 23.9519 258.556C23.5823 258.1 23.0648 257.871 22.3995 257.871C21.7343 257.871 21.2168 258.096 20.8472 258.546C20.4776 258.996 20.2928 259.647 20.2928 260.5C20.2928 261.353 20.4776 262.007 20.8472 262.464C21.2168 262.92 21.7343 263.149 22.3995 263.149Z" fill="#949494"/>
<path d="M30.1015 264.186C29.1137 264.186 28.3644 263.934 27.8537 263.431C27.3497 262.92 27.0977 262.175 27.0977 261.195V256.925H28.3778V261.265C28.3778 261.883 28.5223 262.353 28.8113 262.675C29.1002 262.991 29.5303 263.149 30.1015 263.149C30.6593 263.149 31.0826 262.988 31.3716 262.665C31.6673 262.343 31.8151 261.876 31.8151 261.265V256.925H33.0953V261.195C33.0953 262.168 32.8399 262.91 32.3292 263.421C31.8185 263.931 31.0759 264.186 30.1015 264.186Z" fill="#949494"/>
<path d="M36.2839 257.992H33.9453V256.925H39.9429V257.992H37.5943V264.095H36.2839V257.992Z" fill="#949494"/>
<path d="M40.8418 256.925H43.9565C44.7293 256.925 45.3307 257.113 45.7608 257.489C46.1909 257.858 46.4059 258.365 46.4059 259.009C46.4059 259.654 46.1875 260.164 45.7507 260.54C45.3207 260.916 44.7226 261.104 43.9565 261.104H42.1421V264.095H40.8418V256.925ZM43.8053 260.097C44.2555 260.097 44.5949 260.006 44.8234 259.825C45.0586 259.637 45.1762 259.369 45.1762 259.019C45.1762 258.664 45.0619 258.395 44.8335 258.214C44.605 258.026 44.2623 257.932 43.8053 257.932H42.1421V260.097H43.8053Z" fill="#949494"/>
<path d="M50.5175 264.186C49.5297 264.186 48.7804 263.934 48.2697 263.431C47.7657 262.92 47.5137 262.175 47.5137 261.195V256.925H48.7939V261.265C48.7939 261.883 48.9383 262.353 49.2273 262.675C49.5163 262.991 49.9463 263.149 50.5175 263.149C51.0753 263.149 51.4987 262.988 51.7876 262.665C52.0833 262.343 52.2311 261.876 52.2311 261.265V256.925H53.5113V261.195C53.5113 262.168 53.2559 262.91 52.7452 263.421C52.2345 263.931 51.4919 264.186 50.5175 264.186Z" fill="#949494"/>
<path d="M56.6998 257.992H54.3613V256.925H60.3589V257.992H58.0102V264.095H56.6998V257.992Z" fill="#949494"/>
<path d="M28.1868 79.5141V80.5721H23.7617V79.5141H25.3342V74.8915L23.8726 75.7677V74.6095L25.8684 73.4009H26.6244V79.5141H28.1868Z" fill="#949494"/>
<path d="M31.7009 80.6618C30.8475 80.6618 30.1956 80.3498 29.7454 79.7258C29.3019 79.0948 29.0801 78.1778 29.0801 76.976C29.0801 75.7943 29.3019 74.8912 29.7454 74.2668C30.1956 73.6423 30.8475 73.3301 31.7009 73.3301C32.5544 73.3301 33.2028 73.6423 33.6464 74.2668C34.0966 74.8845 34.3217 75.7876 34.3217 76.976C34.3217 78.1711 34.0966 79.0838 33.6464 79.7158C33.2028 80.3468 32.5544 80.6618 31.7009 80.6618ZM31.7009 79.6448C32.1646 79.6448 32.5006 79.4338 32.7089 79.0108C32.924 78.5807 33.0315 77.9026 33.0315 76.976C33.0315 76.0628 32.924 75.3981 32.7089 74.9818C32.5006 74.5588 32.1646 74.3473 31.7009 74.3473C31.2372 74.3473 30.8979 74.5588 30.6828 74.9818C30.4745 75.3981 30.3704 76.0628 30.3704 76.976C30.3704 77.9026 30.4745 78.5807 30.6828 79.0108C30.8979 79.4338 31.2372 79.6448 31.7009 79.6448Z" fill="#949494"/>
<path d="M32.0832 97.2511C32.5334 97.2511 32.9299 97.3491 33.2726 97.5431C33.6153 97.7311 33.8808 98.0001 34.0689 98.3491C34.2571 98.6911 34.3512 99.0881 34.3512 99.5371C34.3512 100.007 34.2437 100.424 34.0286 100.786C33.8136 101.142 33.5045 101.421 33.1013 101.622C32.6981 101.817 32.231 101.914 31.7001 101.914C31.2499 101.914 30.8064 101.84 30.3696 101.693C29.9328 101.538 29.5733 101.333 29.291 101.078L29.7245 100.132C30.3763 100.628 31.0416 100.877 31.7203 100.877C32.1705 100.877 32.5133 100.766 32.7485 100.545C32.9904 100.316 33.1113 99.9941 33.1113 99.5781C33.1113 99.1821 32.987 98.8661 32.7384 98.6311C32.4965 98.3891 32.1705 98.2681 31.7606 98.2681C31.4784 98.2681 31.2129 98.3221 30.9643 98.4301C30.7157 98.5301 30.4973 98.6811 30.3091 98.8831H29.5229V94.6631H34.0185V95.6701H30.7929V97.6241C31.1558 97.3751 31.5859 97.2511 32.0832 97.2511Z" fill="#949494"/>
<path d="M31.7009 123.186C30.8474 123.186 30.1956 122.874 29.7454 122.249C29.3018 121.618 29.0801 120.702 29.0801 119.5C29.0801 118.318 29.3018 117.415 29.7454 116.791C30.1956 116.166 30.8474 115.854 31.7009 115.854C32.5543 115.854 33.2028 116.166 33.6463 116.791C34.0966 117.408 34.3217 118.311 34.3217 119.5C34.3217 120.695 34.0966 121.608 33.6463 122.239C33.2028 122.87 32.5543 123.186 31.7009 123.186ZM31.7009 122.169C32.1646 122.169 32.5006 121.957 32.7089 121.534C32.9239 121.105 33.0314 120.426 33.0314 119.5C33.0314 118.587 32.9239 117.922 32.7089 117.506C32.5006 117.083 32.1646 116.871 31.7009 116.871C31.2372 116.871 30.8978 117.083 30.6828 117.506C30.4745 117.922 30.3703 118.587 30.3703 119.5C30.3703 120.426 30.4745 121.105 30.6828 121.534C30.8978 121.957 31.2372 122.169 31.7009 122.169Z" fill="#949494"/>
<path d="M24.9512 141.135H27.9853V142.142H24.9512V141.135Z" fill="#949494"/>
<path d="M32.0831 139.775C32.5334 139.775 32.9299 139.872 33.2726 140.067C33.6153 140.255 33.8807 140.524 34.0689 140.873C34.2571 141.215 34.3511 141.611 34.3511 142.061C34.3511 142.531 34.2436 142.947 34.0286 143.31C33.8135 143.666 33.5044 143.944 33.1012 144.146C32.698 144.341 32.231 144.438 31.7001 144.438C31.2499 144.438 30.8063 144.364 30.3695 144.216C29.9327 144.062 29.5732 143.857 29.291 143.602L29.7244 142.655C30.3763 143.152 31.0415 143.401 31.7203 143.401C32.1705 143.401 32.5132 143.29 32.7484 143.068C32.9903 142.84 33.1113 142.518 33.1113 142.101C33.1113 141.705 32.987 141.39 32.7383 141.155C32.4964 140.913 32.1705 140.792 31.7606 140.792C31.4783 140.792 31.2129 140.846 30.9643 140.953C30.7156 141.054 30.4972 141.205 30.3091 141.406H29.5228V137.187H34.0185V138.194H30.7929V140.148C31.1558 139.899 31.5859 139.775 32.0831 139.775Z" fill="#949494"/>
<path d="M18.9082 162.396H21.9423V163.404H18.9082V162.396Z" fill="#949494"/>
<path d="M28.1868 164.562V165.619H23.7617V164.562H25.3342V159.939L23.8726 160.815V159.657L25.8684 158.448H26.6244V164.562H28.1868Z" fill="#949494"/>
<path d="M31.7009 165.71C30.8474 165.71 30.1956 165.398 29.7454 164.773C29.3019 164.142 29.0801 163.226 29.0801 162.024C29.0801 160.842 29.3019 159.939 29.7454 159.315C30.1956 158.69 30.8474 158.378 31.7009 158.378C32.5543 158.378 33.2028 158.69 33.6463 159.315C34.0966 159.932 34.3217 160.835 34.3217 162.024C34.3217 163.219 34.0966 164.132 33.6463 164.763C33.2028 165.394 32.5543 165.71 31.7009 165.71ZM31.7009 164.693C32.1646 164.693 32.5006 164.481 32.7089 164.058C32.9239 163.629 33.0315 162.95 33.0315 162.024C33.0315 161.111 32.9239 160.446 32.7089 160.03C32.5006 159.607 32.1646 159.395 31.7009 159.395C31.2372 159.395 30.8979 159.607 30.6828 160.03C30.4745 160.446 30.3703 161.111 30.3703 162.024C30.3703 162.95 30.4745 163.629 30.6828 164.058C30.8979 164.481 31.2372 164.693 31.7009 164.693Z" fill="#949494"/>
<path d="M18.9082 183.658H21.9423V184.666H18.9082V183.658Z" fill="#949494"/>
<path d="M28.1868 185.824V186.881H23.7617V185.824H25.3342V181.201L23.8726 182.077V180.919L25.8684 179.71H26.6244V185.824H28.1868Z" fill="#949494"/>
<path d="M32.0831 182.299C32.5334 182.299 32.9298 182.396 33.2726 182.591C33.6153 182.779 33.8807 183.047 34.0689 183.397C34.257 183.739 34.3511 184.135 34.3511 184.585C34.3511 185.055 34.2436 185.471 34.0286 185.834C33.8135 186.19 33.5044 186.468 33.1012 186.67C32.698 186.865 32.231 186.962 31.7001 186.962C31.2498 186.962 30.8063 186.888 30.3695 186.74C29.9327 186.586 29.5732 186.381 29.291 186.126L29.7244 185.179C30.3762 185.676 31.0415 185.925 31.7202 185.925C32.1705 185.925 32.5132 185.814 32.7484 185.592C32.9903 185.364 33.1113 185.042 33.1113 184.625C33.1113 184.229 32.987 183.914 32.7383 183.679C32.4964 183.437 32.1705 183.316 31.7606 183.316C31.4783 183.316 31.2129 183.37 30.9642 183.477C30.7156 183.578 30.4972 183.729 30.309 183.93H29.5228V179.71H34.0185V180.718H30.7929V182.671C31.1558 182.423 31.5858 182.299 32.0831 182.299Z" fill="#949494"/>
<path d="M18.8984 204.92H21.9325V205.927H18.8984V204.92Z" fill="#949494"/>
<path d="M28.1569 207.086V208.143H23.3386V207.186L25.778 204.558C26.067 204.242 26.2786 203.953 26.413 203.692C26.5474 203.43 26.6146 203.171 26.6146 202.916C26.6146 202.587 26.5172 202.339 26.3223 202.171C26.1342 202.003 25.862 201.919 25.5058 201.919C24.8742 201.919 24.2257 202.167 23.5604 202.664L23.127 201.718C23.4092 201.462 23.7721 201.261 24.2156 201.113C24.6591 200.959 25.106 200.882 25.5562 200.882C26.2753 200.882 26.8431 201.06 27.2598 201.415C27.6831 201.765 27.8948 202.238 27.8948 202.835C27.8948 203.245 27.8041 203.631 27.6226 203.994C27.4479 204.356 27.1522 204.762 26.7356 205.212L24.9716 207.086H28.1569Z" fill="#949494"/>
<path d="M31.7009 208.234C30.8474 208.234 30.1956 207.922 29.7453 207.297C29.3018 206.666 29.0801 205.749 29.0801 204.548C29.0801 203.366 29.3018 202.463 29.7453 201.838C30.1956 201.214 30.8474 200.902 31.7009 200.902C32.5543 200.902 33.2028 201.214 33.6463 201.838C34.0965 202.456 34.3217 203.359 34.3217 204.548C34.3217 205.743 34.0965 206.656 33.6463 207.287C33.2028 207.918 32.5543 208.234 31.7009 208.234ZM31.7009 207.217C32.1645 207.217 32.5005 207.005 32.7089 206.582C32.9239 206.152 33.0314 205.474 33.0314 204.548C33.0314 203.634 32.9239 202.97 32.7089 202.553C32.5005 202.13 32.1645 201.919 31.7009 201.919C31.2372 201.919 30.8978 202.13 30.6828 202.553C30.4745 202.97 30.3703 203.634 30.3703 204.548C30.3703 205.474 30.4745 206.152 30.6828 206.582C30.8978 207.005 31.2372 207.217 31.7009 207.217Z" fill="#949494"/>
<path d="M18.8984 226.182H21.9325V227.189H18.8984V226.182Z" fill="#949494"/>
<path d="M28.1569 228.348V229.405H23.3386V228.448L25.778 225.82C26.067 225.504 26.2786 225.215 26.413 224.953C26.5474 224.692 26.6146 224.433 26.6146 224.178C26.6146 223.849 26.5172 223.601 26.3223 223.433C26.1342 223.265 25.862 223.181 25.5058 223.181C24.8742 223.181 24.2257 223.429 23.5604 223.926L23.127 222.979C23.4092 222.724 23.7721 222.523 24.2156 222.375C24.6591 222.221 25.106 222.144 25.5562 222.144C26.2753 222.144 26.8431 222.321 27.2598 222.677C27.6831 223.026 27.8948 223.5 27.8948 224.097C27.8948 224.507 27.8041 224.893 27.6226 225.256C27.4479 225.618 27.1522 226.024 26.7356 226.474L24.9716 228.348H28.1569Z" fill="#949494"/>
<path d="M32.0832 224.823C32.5334 224.823 32.9299 224.92 33.2726 225.115C33.6154 225.303 33.8808 225.571 34.069 225.92C34.2571 226.263 34.3512 226.659 34.3512 227.109C34.3512 227.579 34.2437 227.995 34.0286 228.358C33.8136 228.713 33.5045 228.992 33.1013 229.194C32.6981 229.388 32.231 229.486 31.7002 229.486C31.2499 229.486 30.8064 229.412 30.3696 229.264C29.9328 229.11 29.5733 228.905 29.291 228.65L29.7245 227.703C30.3763 228.2 31.0416 228.448 31.7203 228.448C32.1706 228.448 32.5133 228.337 32.7485 228.116C32.9904 227.888 33.1114 227.565 33.1114 227.149C33.1114 226.753 32.987 226.437 32.7384 226.202C32.4965 225.961 32.1706 225.84 31.7606 225.84C31.4784 225.84 31.213 225.893 30.9643 226.001C30.7157 226.102 30.4973 226.253 30.3091 226.454H29.5229V222.234H34.0186V223.241H30.793V225.195C31.1558 224.947 31.5859 224.823 32.0832 224.823Z" fill="#949494"/>
<path d="M41.4938 276.496C40.6404 276.496 39.9886 276.183 39.5383 275.559C39.0948 274.928 38.873 274.011 38.873 272.81C38.873 271.628 39.0948 270.725 39.5383 270.1C39.9886 269.476 40.6404 269.164 41.4938 269.164C42.3473 269.164 42.9958 269.476 43.4393 270.1C43.8895 270.718 44.1146 271.621 44.1146 272.81C44.1146 274.005 43.8895 274.918 43.4393 275.549C42.9958 276.18 42.3473 276.496 41.4938 276.496ZM41.4938 275.478C41.9575 275.478 42.2935 275.267 42.5018 274.844C42.7169 274.414 42.8244 273.736 42.8244 272.81C42.8244 271.896 42.7169 271.232 42.5018 270.815C42.2935 270.392 41.9575 270.181 41.4938 270.181C41.0302 270.181 40.6908 270.392 40.4758 270.815C40.2674 271.232 40.1633 271.896 40.1633 272.81C40.1633 273.736 40.2674 274.414 40.4758 274.844C40.6908 275.267 41.0302 275.478 41.4938 275.478Z" fill="#949494"/>
<path d="M52.8345 268.992V276.405H51.5946V275.589C51.4401 275.871 51.2183 276.093 50.9294 276.254C50.6404 276.408 50.3111 276.486 49.9415 276.486C49.5047 276.486 49.115 276.375 48.7722 276.153C48.4295 275.932 48.1607 275.619 47.9658 275.217C47.7777 274.807 47.6836 274.34 47.6836 273.817C47.6836 273.293 47.7777 272.833 47.9658 272.437C48.154 272.041 48.4194 271.735 48.7622 271.52C49.1049 271.299 49.498 271.188 49.9415 271.188C50.3044 271.188 50.627 271.265 50.9092 271.42C51.1982 271.567 51.4199 271.779 51.5745 272.054V268.992H52.8345ZM50.2742 275.499C50.6908 275.499 51.0134 275.354 51.2418 275.066C51.477 274.777 51.5946 274.367 51.5946 273.837C51.5946 273.306 51.4804 272.897 51.2519 272.608C51.0234 272.319 50.7009 272.175 50.2842 272.175C49.8609 272.175 49.5316 272.319 49.2964 272.608C49.0679 272.89 48.9537 273.293 48.9537 273.817C48.9537 274.347 49.0679 274.76 49.2964 275.055C49.5316 275.351 49.8575 275.499 50.2742 275.499Z" fill="#949494"/>
<path d="M58.7119 272.699C59.1286 272.82 59.4478 273.031 59.6695 273.333C59.898 273.635 60.0123 274.008 60.0123 274.451C60.0123 275.062 59.7939 275.542 59.3571 275.891C58.927 276.234 58.3255 276.405 57.5527 276.405H54.2969V269.234H57.4519C58.1911 269.234 58.7724 269.402 59.1958 269.738C59.6191 270.067 59.8308 270.523 59.8308 271.107C59.8308 271.483 59.73 271.812 59.5284 272.094C59.3335 272.37 59.0614 272.571 58.7119 272.699ZM55.567 272.256H57.2403C58.1407 272.256 58.591 271.92 58.591 271.248C58.591 270.913 58.4801 270.661 58.2583 270.493C58.0366 270.325 57.6972 270.241 57.2403 270.241H55.567V272.256ZM57.4116 275.398C57.882 275.398 58.2247 275.314 58.4398 275.146C58.6615 274.978 58.7724 274.713 58.7724 274.35C58.7724 273.981 58.6615 273.709 58.4398 273.535C58.2247 273.36 57.882 273.273 57.4116 273.273H55.567V275.398H57.4116Z" fill="#949494"/>
<path fill-rule="evenodd" clip-rule="evenodd" d="M59.36 76.0957V227.167H56V76.0957H59.36Z" fill="#424242"/>
<path fill-rule="evenodd" clip-rule="evenodd" d="M59.36 117.695V227.167H56V117.695H59.36Z" fill="#FF878B"/>
<path d="M57.681 108.548C63.5573 108.548 68.321 113.307 68.321 119.179C68.321 125.05 63.5573 129.81 57.681 129.81C51.8047 129.81 47.041 125.05 47.041 119.179C47.041 113.307 51.8047 108.548 57.681 108.548Z" fill="#FF878B"/>
<path d="M57.6815 113.024C61.0836 113.024 63.8415 115.78 63.8415 119.179C63.8415 122.578 61.0836 125.333 57.6815 125.333C54.2794 125.333 51.5215 122.578 51.5215 119.179C51.5215 115.78 54.2794 113.024 57.6815 113.024Z" fill="#212121"/>
<path d="M260.959 160.024C260.959 211.321 219.339 252.905 167.999 252.905C116.659 252.905 75.0391 211.321 75.0391 160.024C75.0391 108.727 116.659 67.1426 167.999 67.1426C219.339 67.1426 260.959 108.727 260.959 160.024Z" fill="black"/>
<path d="M112.216 228.646C94.0002 213.864 82.4082 192.458 79.9902 169.137L84.3902 168.681C86.6882 190.836 97.7002 211.172 115.005 225.215L112.216 228.646Z" fill="#FF878B"/>
<path d="M133.971 78.4186C144.697 73.9537 156.197 71.6433 167.817 71.6193C179.436 71.5954 190.946 73.8583 201.69 78.2789L200.006 82.366C189.799 78.1666 178.864 76.0168 167.826 76.0396C156.788 76.0623 145.862 78.2572 135.672 82.499L133.971 78.4186Z" fill="#FF878B"/>
<path d="M255.992 169.284C253.534 192.602 241.906 213.988 223.666 228.74L220.883 225.304C238.211 211.29 249.257 190.973 251.593 168.821L255.992 169.284Z" fill="#FF878B"/>
<path fill-rule="evenodd" clip-rule="evenodd" d="M163.551 100.525C165.085 98.0608 168.674 98.0608 170.208 100.525L223.521 186.151C225.145 188.76 223.267 192.136 220.192 192.136H113.567C110.492 192.136 108.614 188.76 110.238 186.151L163.551 100.525ZM169.257 101.116C168.161 99.3558 165.598 99.3558 164.502 101.116L111.189 186.742C110.029 188.605 111.37 191.017 113.567 191.017H220.192C222.389 191.017 223.73 188.605 222.57 186.742L169.257 101.116Z" fill="#949494"/>
<path d="M190.745 202.628C190.117 202.628 189.568 202.494 189.096 202.225C188.63 201.957 188.272 201.578 188.021 201.088C187.77 200.593 187.645 200.014 187.645 199.351C187.645 198.695 187.77 198.122 188.021 197.633C188.272 197.137 188.63 196.758 189.096 196.496C189.568 196.227 190.117 196.093 190.745 196.093C191.175 196.093 191.578 196.161 191.954 196.299C192.337 196.43 192.653 196.615 192.904 196.854L192.528 197.695C192.241 197.462 191.954 197.295 191.668 197.194C191.387 197.086 191.085 197.033 190.763 197.033C190.147 197.033 189.669 197.233 189.329 197.633C188.995 198.032 188.827 198.605 188.827 199.351C188.827 200.103 188.995 200.682 189.329 201.088C189.664 201.488 190.141 201.688 190.763 201.688C191.085 201.688 191.387 201.637 191.668 201.536C191.954 201.428 192.241 201.258 192.528 201.026L192.904 201.867C192.653 202.106 192.337 202.294 191.954 202.431C191.578 202.562 191.175 202.628 190.745 202.628Z" fill="#949494"/>
<path d="M193.984 202.547V196.173H195.14V201.598H198.124V202.547H193.984Z" fill="#949494"/>
<path d="M203.82 202.547L203.184 201.052H200.066L199.42 202.547H198.256L201.141 196.173H202.082L204.976 202.547H203.82ZM200.451 200.157H202.798L201.625 197.427L200.451 200.157Z" fill="#949494"/>
<path d="M210.916 202.547H209.698L208.882 200.426C208.811 200.229 208.7 200.092 208.551 200.014C208.401 199.936 208.207 199.898 207.968 199.898H206.812V202.547H205.666V196.173H208.398C209.121 196.173 209.671 196.332 210.047 196.648C210.423 196.964 210.612 197.418 210.612 198.009C210.612 198.432 210.498 198.793 210.271 199.092C210.05 199.384 209.733 199.593 209.321 199.718C209.698 199.796 209.969 200.059 210.137 200.506L210.916 202.547ZM208.237 199.002C208.673 199.002 208.996 198.922 209.205 198.761C209.414 198.599 209.518 198.355 209.518 198.026C209.518 197.704 209.414 197.465 209.205 197.31C209.002 197.149 208.679 197.069 208.237 197.069H206.795V199.002H208.237Z" fill="#949494"/>
<path d="M211.957 202.547V196.173H213.113V202.547H211.957Z" fill="#949494"/>
<path d="M215.991 202.547V197.122H213.912V196.173H219.243V197.122H217.155V202.547H215.991Z" fill="#949494"/>
<path d="M225.469 196.173L222.88 200.023V202.547H221.724V200.023L219.135 196.173H220.452L222.298 199.056L224.152 196.173H225.469Z" fill="#949494"/>
<path d="M114.374 199.253C114.744 199.36 115.028 199.548 115.225 199.817C115.428 200.086 115.53 200.417 115.53 200.811C115.53 201.354 115.335 201.781 114.947 202.091C114.565 202.395 114.03 202.547 113.343 202.547H110.449V196.173H113.254C113.911 196.173 114.427 196.323 114.804 196.621C115.18 196.913 115.368 197.319 115.368 197.838C115.368 198.173 115.279 198.465 115.099 198.716C114.926 198.961 114.684 199.14 114.374 199.253ZM111.578 198.859H113.066C113.866 198.859 114.266 198.561 114.266 197.964C114.266 197.665 114.168 197.442 113.97 197.292C113.773 197.143 113.472 197.069 113.066 197.069H111.578V198.859ZM113.218 201.652C113.636 201.652 113.941 201.578 114.132 201.428C114.329 201.279 114.427 201.043 114.427 200.721C114.427 200.393 114.329 200.151 114.132 199.996C113.941 199.841 113.636 199.763 113.218 199.763H111.578V201.652H113.218Z" fill="#949494"/>
<path d="M119.468 202.628C118.853 202.628 118.315 202.497 117.855 202.234C117.401 201.966 117.049 201.587 116.798 201.097C116.553 200.602 116.43 200.02 116.43 199.351C116.43 198.689 116.553 198.113 116.798 197.624C117.043 197.128 117.392 196.749 117.846 196.487C118.306 196.224 118.847 196.093 119.468 196.093C120.089 196.093 120.627 196.224 121.081 196.487C121.541 196.749 121.89 197.128 122.129 197.624C122.374 198.113 122.496 198.689 122.496 199.351C122.496 200.02 122.374 200.602 122.129 201.097C121.884 201.587 121.535 201.966 121.081 202.234C120.627 202.497 120.089 202.628 119.468 202.628ZM119.468 201.706C120.059 201.706 120.519 201.503 120.848 201.097C121.176 200.691 121.34 200.109 121.34 199.351C121.34 198.599 121.176 198.024 120.848 197.624C120.519 197.218 120.059 197.015 119.468 197.015C118.876 197.015 118.417 197.215 118.088 197.615C117.759 198.015 117.595 198.593 117.595 199.351C117.595 200.109 117.759 200.691 118.088 201.097C118.417 201.503 118.876 201.706 119.468 201.706Z" fill="#949494"/>
<path d="M123.68 196.173H126.028C127.073 196.173 127.882 196.451 128.456 197.006C129.035 197.561 129.325 198.343 129.325 199.351C129.325 200.366 129.035 201.154 128.456 201.715C127.882 202.27 127.073 202.547 126.028 202.547H123.68V196.173ZM125.956 201.607C127.425 201.607 128.16 200.855 128.16 199.351C128.16 197.859 127.425 197.113 125.956 197.113H124.836V201.607H125.956Z" fill="#949494"/>
<path d="M135.424 196.173L132.835 200.023V202.547H131.679V200.023L129.09 196.173H130.407L132.252 199.056L134.107 196.173H135.424Z" fill="#949494"/>
<path d="M164.033 92.505H160.915L160.27 94H159.105L161.991 87.626H162.931L165.825 94H164.67L164.033 92.505ZM163.648 91.61L162.474 88.879L161.301 91.61H163.648Z" fill="#949494"/>
<path d="M166.516 87.626H167.672V94H166.516V87.626Z" fill="#949494"/>
<path d="M174.303 94H173.085L172.27 91.878C172.198 91.681 172.087 91.544 171.938 91.466C171.789 91.389 171.595 91.35 171.356 91.35H170.2V94H169.053V87.626H171.786C172.508 87.626 173.058 87.784 173.434 88.1C173.811 88.417 173.999 88.87 173.999 89.461C173.999 89.885 173.885 90.246 173.658 90.544C173.437 90.837 173.121 91.046 172.709 91.171C173.085 91.248 173.357 91.511 173.524 91.959L174.303 94ZM171.624 90.455C172.06 90.455 172.383 90.374 172.592 90.213C172.801 90.052 172.906 89.807 172.906 89.479C172.906 89.157 172.801 88.918 172.592 88.763C172.389 88.602 172.066 88.521 171.624 88.521H170.182V90.455H171.624Z" fill="#949494"/>
<path d="M173.598 151.071C173.598 154.779 170.59 157.786 166.878 157.786C163.167 157.786 160.158 154.779 160.158 151.071C160.158 147.363 163.167 144.357 166.878 144.357C170.59 144.357 173.598 147.363 173.598 151.071Z" fill="#F0F0F0"/>
<path d="M315.06 80.6618C314.207 80.6618 313.555 80.3498 313.105 79.7258C312.661 79.0948 312.439 78.1778 312.439 76.976C312.439 75.7943 312.661 74.8912 313.105 74.2668C313.555 73.6423 314.207 73.3301 315.06 73.3301C315.914 73.3301 316.562 73.6423 317.006 74.2668C317.456 74.8845 317.681 75.7876 317.681 76.976C317.681 78.1711 317.456 79.0838 317.006 79.7158C316.562 80.3468 315.914 80.6618 315.06 80.6618ZM315.06 79.6448C315.524 79.6448 315.86 79.4338 316.068 79.0108C316.283 78.5807 316.391 77.9026 316.391 76.976C316.391 76.0628 316.283 75.3981 316.068 74.9818C315.86 74.5588 315.524 74.3473 315.06 74.3473C314.597 74.3473 314.257 74.5588 314.042 74.9818C313.834 75.3981 313.73 76.0628 313.73 76.976C313.73 77.9026 313.834 78.5807 314.042 79.0108C314.257 79.4338 314.597 79.6448 315.06 79.6448Z" fill="#949494"/>
<path d="M302.268 101.968H305.302V102.975H302.268V101.968Z" fill="#949494"/>
<path d="M311.546 104.133V105.191H307.121V104.133H308.693V99.511L307.232 100.387V99.229L309.228 98.02H309.984V104.133H311.546Z" fill="#949494"/>
<path d="M315.06 105.281C314.207 105.281 313.555 104.969 313.104 104.345C312.661 103.714 312.439 102.797 312.439 101.595C312.439 100.414 312.661 99.5112 313.104 98.8862C313.555 98.2622 314.207 97.9492 315.06 97.9492C315.913 97.9492 316.562 98.2622 317.005 98.8862C317.456 99.5042 317.681 100.407 317.681 101.595C317.681 102.79 317.456 103.704 317.005 104.335C316.562 104.966 315.913 105.281 315.06 105.281ZM315.06 104.264C315.524 104.264 315.86 104.053 316.068 103.63C316.283 103.2 316.391 102.522 316.391 101.595C316.391 100.682 316.283 100.017 316.068 99.6012C315.86 99.1782 315.524 98.9672 315.06 98.9672C314.596 98.9672 314.257 99.1782 314.042 99.6012C313.834 100.017 313.729 100.682 313.729 101.595C313.729 102.522 313.834 103.2 314.042 103.63C314.257 104.053 314.596 104.264 315.06 104.264Z" fill="#949494"/>
<path d="M302.258 127.594V126.587H305.292V127.594H302.258Z" fill="#949494"/>
<path d="M311.516 128.752V129.81H306.698V128.853L309.137 126.224C309.426 125.909 309.638 125.62 309.772 125.358C309.907 125.096 309.974 124.838 309.974 124.583C309.974 124.254 309.876 124.005 309.681 123.837C309.493 123.67 309.221 123.586 308.865 123.586C308.233 123.586 307.585 123.834 306.92 124.331L306.486 123.384C306.768 123.129 307.131 122.928 307.575 122.78C308.018 122.626 308.465 122.548 308.915 122.548C309.634 122.548 310.202 122.726 310.619 123.082C311.042 123.431 311.254 123.905 311.254 124.502C311.254 124.912 311.163 125.298 310.982 125.66C310.807 126.023 310.511 126.429 310.095 126.879L308.331 128.752H311.516Z" fill="#949494"/>
<path d="M315.06 129.9C314.207 129.9 313.555 129.588 313.105 128.964C312.661 128.333 312.439 127.416 312.439 126.214C312.439 125.033 312.661 124.13 313.105 123.505C313.555 122.881 314.207 122.568 315.06 122.568C315.913 122.568 316.562 122.881 317.005 123.505C317.456 124.123 317.681 125.026 317.681 126.214C317.681 127.409 317.456 128.323 317.005 128.954C316.562 129.585 315.913 129.9 315.06 129.9ZM315.06 128.883C315.524 128.883 315.86 128.672 316.068 128.249C316.283 127.819 316.391 127.141 316.391 126.214C316.391 125.301 316.283 124.636 316.068 124.22C315.86 123.797 315.524 123.586 315.06 123.586C314.596 123.586 314.257 123.797 314.042 124.22C313.834 124.636 313.729 125.301 313.729 126.214C313.729 127.141 313.834 127.819 314.042 128.249C314.257 128.672 314.596 128.883 315.06 128.883Z" fill="#949494"/>
<path d="M302.268 152.213V151.206H305.302V152.213H302.268Z" fill="#949494"/>
<path d="M310.125 150.743C310.548 150.857 310.871 151.065 311.092 151.367C311.321 151.669 311.435 152.042 311.435 152.485C311.435 153.109 311.203 153.603 310.74 153.965C310.283 154.328 309.664 154.509 308.885 154.509C308.401 154.509 307.934 154.435 307.484 154.288C307.04 154.14 306.674 153.935 306.385 153.673L306.829 152.727C307.467 153.224 308.136 153.472 308.834 153.472C309.291 153.472 309.631 153.381 309.853 153.2C310.081 153.019 310.195 152.743 310.195 152.374C310.195 152.012 310.081 151.746 309.853 151.579C309.624 151.404 309.271 151.317 308.794 151.317H307.847V150.279H308.623C309.55 150.279 310.014 149.927 310.014 149.222C310.014 148.893 309.913 148.641 309.711 148.466C309.51 148.292 309.228 148.205 308.865 148.205C308.22 148.205 307.574 148.453 306.929 148.95L306.496 148.003C306.785 147.748 307.148 147.547 307.585 147.399C308.028 147.244 308.482 147.167 308.945 147.167C309.651 147.167 310.212 147.342 310.629 147.691C311.052 148.033 311.264 148.493 311.264 149.071C311.257 149.467 311.153 149.813 310.951 150.108C310.756 150.397 310.481 150.608 310.125 150.743Z" fill="#949494"/>
<path d="M315.06 154.519C314.207 154.519 313.555 154.207 313.104 153.583C312.661 152.952 312.439 152.035 312.439 150.833C312.439 149.652 312.661 148.748 313.104 148.124C313.555 147.5 314.207 147.187 315.06 147.187C315.913 147.187 316.562 147.5 317.005 148.124C317.456 148.742 317.681 149.645 317.681 150.833C317.681 152.028 317.456 152.942 317.005 153.573C316.562 154.204 315.913 154.519 315.06 154.519ZM315.06 153.502C315.524 153.502 315.86 153.291 316.068 152.868C316.283 152.438 316.391 151.76 316.391 150.833C316.391 149.92 316.283 149.255 316.068 148.839C315.86 148.416 315.524 148.205 315.06 148.205C314.596 148.205 314.257 148.416 314.042 148.839C313.834 149.255 313.729 149.92 313.729 150.833C313.729 151.76 313.834 152.438 314.042 152.868C314.257 153.291 314.596 153.502 315.06 153.502Z" fill="#949494"/>
<path d="M302.268 176.832V175.825H305.302V176.832H302.268Z" fill="#949494"/>
<path d="M311.798 176.631V177.648H310.78V179.048H309.51V177.648H306.385V176.681L309.742 171.877H310.78V176.631H311.798ZM307.615 176.631H309.51V173.901L307.615 176.631Z" fill="#949494"/>
<path d="M315.06 179.138C314.207 179.138 313.555 178.826 313.104 178.202C312.661 177.571 312.439 176.654 312.439 175.452C312.439 174.271 312.661 173.367 313.104 172.743C313.555 172.119 314.207 171.806 315.06 171.806C315.913 171.806 316.562 172.119 317.005 172.743C317.456 173.361 317.681 174.264 317.681 175.452C317.681 176.647 317.456 177.561 317.005 178.192C316.562 178.823 315.913 179.138 315.06 179.138ZM315.06 178.121C315.524 178.121 315.86 177.91 316.068 177.487C316.283 177.057 316.391 176.379 316.391 175.452C316.391 174.539 316.283 173.874 316.068 173.458C315.86 173.035 315.524 172.824 315.06 172.824C314.596 172.824 314.257 173.035 314.042 173.458C313.834 173.874 313.729 174.539 313.729 175.452C313.729 176.379 313.834 177.057 314.042 177.487C314.257 177.91 314.596 178.121 315.06 178.121Z" fill="#949494"/>
<path d="M302.268 200.444H305.302V201.451H302.268V200.444Z" fill="#949494"/>
<path d="M309.399 199.084C309.849 199.084 310.246 199.182 310.588 199.376C310.931 199.564 311.197 199.833 311.385 200.182C311.573 200.525 311.667 200.921 311.667 201.371C311.667 201.841 311.559 202.257 311.344 202.619C311.129 202.975 310.82 203.254 310.417 203.455C310.014 203.65 309.547 203.747 309.016 203.747C308.566 203.747 308.122 203.674 307.685 203.526C307.249 203.371 306.889 203.167 306.607 202.912L307.04 201.965C307.692 202.462 308.357 202.71 309.036 202.71C309.486 202.71 309.829 202.599 310.064 202.378C310.306 202.149 310.427 201.827 310.427 201.411C310.427 201.015 310.303 200.699 310.054 200.464C309.812 200.222 309.486 200.102 309.076 200.102C308.794 200.102 308.529 200.155 308.28 200.263C308.031 200.363 307.813 200.515 307.625 200.716H306.839V196.496H311.334V197.503H308.109V199.457C308.472 199.209 308.902 199.084 309.399 199.084Z" fill="#949494"/>
<path d="M315.06 203.758C314.207 203.758 313.555 203.445 313.104 202.821C312.661 202.19 312.439 201.273 312.439 200.071C312.439 198.89 312.661 197.987 313.104 197.362C313.555 196.738 314.207 196.426 315.06 196.426C315.913 196.426 316.562 196.738 317.005 197.362C317.456 197.98 317.681 198.883 317.681 200.071C317.681 201.267 317.456 202.18 317.005 202.811C316.562 203.442 315.913 203.758 315.06 203.758ZM315.06 202.74C315.524 202.74 315.86 202.529 316.068 202.106C316.283 201.676 316.391 200.998 316.391 200.071C316.391 199.158 316.283 198.494 316.068 198.077C315.86 197.654 315.524 197.443 315.06 197.443C314.596 197.443 314.257 197.654 314.042 198.077C313.834 198.494 313.729 199.158 313.729 200.071C313.729 200.998 313.834 201.676 314.042 202.106C314.257 202.529 314.596 202.74 315.06 202.74Z" fill="#949494"/>
<path d="M302.268 226.07V225.063H305.302V226.07H302.268Z" fill="#949494"/>
<path d="M309.459 223.683C309.883 223.683 310.259 223.781 310.588 223.975C310.924 224.17 311.186 224.442 311.375 224.791C311.563 225.14 311.657 225.54 311.657 225.99C311.657 226.446 311.553 226.856 311.344 227.218C311.143 227.581 310.857 227.866 310.488 228.074C310.125 228.276 309.711 228.377 309.248 228.377C308.341 228.377 307.642 228.071 307.151 227.46C306.661 226.842 306.415 225.966 306.415 224.831C306.415 224.039 306.53 223.358 306.758 222.787C306.993 222.216 307.329 221.78 307.766 221.478C308.21 221.175 308.734 221.024 309.338 221.024C309.769 221.024 310.185 221.098 310.588 221.246C310.998 221.387 311.354 221.592 311.657 221.86L311.213 222.807C310.582 222.31 309.974 222.062 309.389 222.062C308.858 222.062 308.448 222.287 308.159 222.737C307.87 223.186 307.719 223.831 307.706 224.67C307.86 224.368 308.095 224.13 308.411 223.955C308.727 223.774 309.076 223.683 309.459 223.683ZM309.187 227.349C309.557 227.349 309.853 227.228 310.074 226.987C310.303 226.745 310.417 226.426 310.417 226.03C310.417 225.634 310.303 225.318 310.074 225.083C309.853 224.841 309.554 224.721 309.177 224.721C308.801 224.721 308.495 224.841 308.26 225.083C308.025 225.325 307.907 225.64 307.907 226.03C307.907 226.419 308.025 226.738 308.26 226.987C308.502 227.228 308.811 227.349 309.187 227.349Z" fill="#949494"/>
<path d="M315.06 228.377C314.207 228.377 313.555 228.064 313.104 227.44C312.661 226.809 312.439 225.892 312.439 224.69C312.439 223.509 312.661 222.606 313.104 221.981C313.555 221.357 314.207 221.045 315.06 221.045C315.913 221.045 316.562 221.357 317.005 221.981C317.456 222.599 317.681 223.502 317.681 224.69C317.681 225.886 317.456 226.799 317.005 227.43C316.562 228.061 315.913 228.377 315.06 228.377ZM315.06 227.359C315.524 227.359 315.86 227.148 316.068 226.725C316.283 226.295 316.391 225.617 316.391 224.69C316.391 223.777 316.283 223.113 316.068 222.696C315.86 222.273 315.524 222.062 315.06 222.062C314.596 222.062 314.257 222.273 314.042 222.696C313.834 223.113 313.729 223.777 313.729 224.69C313.729 225.617 313.834 226.295 314.042 226.725C314.257 227.148 314.596 227.359 315.06 227.359Z" fill="#949494"/>
<path d="M280.777 255.806H282.078V261.909H285.434V262.977H280.777V255.806Z" fill="#949494"/>
<path d="M286.418 255.806H291.216V256.833H287.688V258.817H291.004V259.844H287.688V261.949H291.216V262.977H286.418V255.806Z" fill="#949494"/>
<path d="M298.995 255.806L295.8 262.977H294.741L291.546 255.806H292.896L295.285 261.345L297.674 255.806H298.995Z" fill="#949494"/>
<path d="M299.677 255.806H304.475V256.833H300.947V258.817H304.264V259.844H300.947V261.949H304.475V262.977H299.677V255.806Z" fill="#949494"/>
<path d="M305.672 255.806H306.973V261.909H310.329V262.977H305.672V255.806Z" fill="#949494"/>
<path fill-rule="evenodd" clip-rule="evenodd" d="M284.481 76.0957V227.167H281.121V76.0957H284.481Z" fill="#424242"/>
<path fill-rule="evenodd" clip-rule="evenodd" d="M284.481 117.695V227.167H281.121V117.695H284.481Z" fill="#FF878B"/>
<path d="M305.76 48.119H306.88V49.2381H305.76V50.3571H304.64V49.2381H303.52V48.119H304.64V47H305.76V48.119Z" fill="#939393"/>
<path fill-rule="evenodd" clip-rule="evenodd" d="M309.679 40.2856C307.86 40.2856 306.319 41.8256 306.319 43.6427C306.319 45.4599 307.86 46.9999 309.679 46.9999C310.644 46.9999 311.502 46.6168 312.068 46.0595C312.671 45.3521 313.039 44.5859 313.039 43.6427C313.039 41.8256 311.498 40.2856 309.679 40.2856ZM305.199 43.6427C305.199 41.2075 307.242 39.1665 309.679 39.1665C312.116 39.1665 314.159 41.2075 314.159 43.6427C314.159 44.9303 313.638 45.9499 312.904 46.8045L312.89 46.8208L312.875 46.836C312.097 47.6136 310.946 48.1189 309.679 48.1189C307.242 48.1189 305.199 46.0779 305.199 43.6427Z" fill="#939393"/>
<path fill-rule="evenodd" clip-rule="evenodd" d="M312.876 46.0449L316.236 49.4021L315.444 50.1934L312.084 46.8362L312.876 46.0449Z" fill="#939393"/>
<path d="M322.559 50.3571H319.199L322.559 47V50.3571Z" fill="#939393"/>
<path d="M21.2793 331.238C21.2793 325.676 25.7923 321.167 31.3593 321.167H78.399C83.966 321.167 88.479 325.676 88.479 331.238C88.479 336.8 83.966 341.31 78.399 341.31H31.3593C25.7923 341.31 21.2793 336.8 21.2793 331.238Z" fill="#FF878B"/>
<path d="M38.9668 334.697V327.526H40.2671V333.63H43.6238V334.697H38.9668Z" fill="#F0F0F0"/>
<path d="M44.6074 334.697V327.526H49.4054V328.554H45.8774V330.538H49.1938V331.565H45.8774V333.67H49.4054V334.697H44.6074Z" fill="#F0F0F0"/>
<path d="M55.9667 334.697L55.251 333.015H51.7432L51.0174 334.697H49.707L52.9528 327.526H54.0112L57.267 334.697H55.9667ZM52.1766 332.008H54.8176L53.4971 328.936L52.1766 332.008Z" fill="#F0F0F0"/>
<path d="M63.9518 334.697H62.5809L61.6636 332.31C61.583 332.089 61.4586 331.934 61.2906 331.847C61.1226 331.76 60.9042 331.716 60.6354 331.716H59.3351V334.697H58.0449V327.526H61.1193C61.9324 327.526 62.5506 327.704 62.974 328.06C63.3974 328.416 63.609 328.926 63.609 329.591C63.609 330.068 63.4814 330.474 63.226 330.81C62.9774 331.139 62.6212 331.374 62.1575 331.515C62.5809 331.602 62.8866 331.897 63.0748 332.401L63.9518 334.697ZM60.9378 330.709C61.4284 330.709 61.7913 330.618 62.0265 330.437C62.2617 330.256 62.3793 329.98 62.3793 329.611C62.3793 329.249 62.2617 328.98 62.0265 328.805C61.798 328.624 61.4351 328.534 60.9378 328.534H59.315V330.709H60.9378Z" fill="#F0F0F0"/>
<path d="M69.9495 327.526H71.1691V334.697H70.2015L66.3307 329.672V334.697H65.1211V327.526H66.0888L69.9495 332.542V327.526Z" fill="#F0F0F0"/>
<path d="M135.52 12.5312H137.536L139.888 19.8051L142.128 12.5312H144.144L141.008 21.9314H138.656L135.52 12.5312Z" fill="#F0F0F0"/>
<path d="M144.031 18.5755C144.031 16.5613 145.599 14.9946 147.615 14.9946C149.631 14.9946 151.199 16.5613 151.199 18.5755C151.199 20.5898 149.631 22.1565 147.615 22.1565C145.599 22.1565 144.031 20.5898 144.031 18.5755ZM149.407 18.5755C149.407 17.4565 148.623 16.6732 147.615 16.6732C146.607 16.7851 145.823 17.5684 145.823 18.5755C145.823 19.6946 146.607 20.4779 147.615 20.4779C148.623 20.4779 149.407 19.6946 149.407 18.5755Z" fill="#F0F0F0"/>
<path d="M152.207 13.4277C152.207 12.8682 152.655 12.3086 153.215 12.3086C153.775 12.3086 154.335 12.7563 154.335 13.4277C154.335 13.9872 153.887 14.4348 153.215 14.4348C152.655 14.4348 152.207 13.9872 152.207 13.4277ZM152.319 15.2182H153.999V21.9324H152.319V15.2182Z" fill="#F0F0F0"/>
<path d="M155.344 18.5755C155.344 16.5613 156.8 14.9946 158.928 14.9946C160.16 15.1065 161.28 15.7779 161.84 16.7851L160.384 17.6803C160.16 17.1208 159.488 16.7851 158.816 16.7851C157.808 16.7851 157.024 17.5684 157.024 18.5755C157.024 19.5827 157.808 20.366 158.816 20.366C159.488 20.366 160.048 20.0303 160.384 19.4708L161.84 20.366C161.28 21.4851 160.16 22.1565 158.816 22.1565C156.8 22.1565 155.344 20.5898 155.344 18.5755Z" fill="#F0F0F0"/>
<path d="M166.208 20.5898C166.88 20.5898 167.44 20.2541 167.664 19.9184L169.12 20.7017C168.448 21.597 167.44 22.1565 166.208 22.1565C163.968 22.1565 162.512 20.5898 162.512 18.5755C162.512 16.5613 163.968 14.9946 166.096 14.9946C168.112 14.9946 169.456 16.5613 169.456 18.5755C169.456 18.7993 169.456 19.0232 169.344 19.247H164.304C164.528 20.2541 165.312 20.5898 166.208 20.5898ZM167.664 18.016C167.44 17.0089 166.768 16.6732 165.984 16.6732C165.088 16.6732 164.416 17.1208 164.192 18.016H167.664Z" fill="#F0F0F0"/>
<path d="M180.879 15.2184V21.9327H179.199V21.1493C178.751 21.7089 177.967 22.1565 176.959 22.1565C175.167 22.1565 173.711 20.5898 173.711 18.5755C173.711 16.5613 175.167 14.9946 176.959 14.9946C177.967 14.9946 178.639 15.3303 179.199 16.0017V15.2184H180.879ZM179.087 18.5755C179.087 17.4565 178.303 16.6732 177.183 16.6732C176.175 16.6732 175.279 17.4565 175.279 18.5755C175.279 19.6946 176.063 20.4779 177.183 20.4779C178.303 20.4779 179.087 19.6946 179.087 18.5755Z" fill="#F0F0F0"/>
<path d="M188.608 15.2188V21.9329H186.928V21.2616C186.48 21.8211 185.808 22.1567 184.912 22.1567C183.456 22.1567 182.336 21.1496 182.336 19.3591V15.2188H184.016V19.1353C184.016 20.0306 184.576 20.4782 185.36 20.4782C186.256 20.4782 186.816 20.0307 186.816 18.7997V15.2188H188.608Z" fill="#F0F0F0"/>
<path d="M192.64 16.8969V19.6945C192.64 20.3659 193.2 20.4778 194.208 20.3659V21.9326C191.744 22.1564 190.96 21.485 190.96 19.6945V16.8969H189.84V15.2183H190.96V13.8754L192.64 13.3159V15.2183H194.208V16.8969H192.64Z" fill="#F0F0F0"/>
<path d="M194.992 18.5755C194.992 16.5613 196.56 14.9946 198.576 14.9946C200.592 14.9946 202.16 16.5613 202.16 18.5755C202.16 20.5898 200.592 22.1565 198.576 22.1565C196.56 22.1565 194.992 20.5898 194.992 18.5755ZM200.368 18.5755C200.368 17.4565 199.584 16.6732 198.576 16.6732C197.568 16.6732 196.784 17.4565 196.784 18.5755C196.784 19.6946 197.568 20.4779 198.576 20.4779C199.584 20.4779 200.368 19.6946 200.368 18.5755Z" fill="#F0F0F0"/>
<path d="M209.217 20.1422V21.9327H203.393V12.5327H209.105V14.3231H205.185V16.3374H208.769V18.1279H205.185V20.1422H209.217Z" fill="#F0F0F0"/>
<path d="M218.735 20.4777L219.743 21.4848L218.399 22.6039L217.391 21.5967C216.719 21.9324 215.935 22.1563 215.039 22.1563C212.351 22.1563 210.111 20.0301 210.111 17.2324C210.111 14.4348 212.239 12.3086 215.039 12.3086C217.839 12.3086 219.967 14.4348 219.967 17.2324C219.967 18.4634 219.519 19.5824 218.735 20.4777ZM216.047 20.142L214.479 18.5753L215.823 17.4563L217.503 19.1348C217.839 18.6872 218.063 18.0158 218.063 17.3444C218.063 15.5539 216.719 14.211 215.039 14.211C213.359 14.211 212.015 15.442 212.015 17.3444C212.015 19.1348 213.359 20.3658 215.039 20.3658C215.375 20.3658 215.711 20.2539 216.047 20.142Z" fill="#F0F0F0"/>
<path d="M126 22.0448H114.24C113.792 22.0448 113.344 21.821 113.232 21.3734C113.008 21.0377 113.12 20.5901 113.456 20.2544L119.392 13.8758C119.504 13.5401 119.84 13.4282 120.176 13.4282C120.512 13.4282 120.736 13.5401 120.96 13.7639L126.896 20.1425C127.232 20.4782 127.232 20.9258 127.12 21.3734C126.896 21.821 126.448 22.0448 126 22.0448ZM116.816 19.8068H123.536L120.176 16.1139L116.816 19.8068Z" fill="#FF878B"/>
<path d="M278.096 22.1567C278.096 22.1567 277.984 21.7091 277.984 21.2615C277.648 21.9329 277.2 22.3805 276.304 22.3805C275.072 22.3805 274.4 21.4853 274.4 19.9186C274.4 18.4638 275.184 17.5686 276.192 17.0091C277.312 16.4496 277.984 15.89 277.984 14.771C277.984 13.6519 277.648 12.9805 276.752 12.9805C275.856 12.9805 275.408 13.6519 275.408 14.771V15.1067H274.736C274.736 14.9948 274.736 14.771 274.736 14.771C274.736 13.3162 275.296 12.3091 276.752 12.3091C278.208 12.3091 278.768 13.3162 278.768 14.9948V20.59C278.768 21.3734 278.88 22.2686 278.88 22.2686H278.096V22.1567ZM277.984 16.3377C277.76 16.7853 277.424 17.121 276.64 17.5686C275.52 18.1281 275.184 18.7996 275.184 19.9186C275.184 21.1496 275.632 21.7091 276.416 21.7091C277.2 21.7091 277.984 20.9258 277.984 19.8067V16.3377Z" fill="#F0F0F0"/>
<path d="M282.128 22.3801C280.784 22.3801 280 21.4848 280 19.8063V14.8824C280 13.2039 280.784 12.3086 282.128 12.3086C283.36 12.3086 284.144 13.2039 284.144 14.8824V15.1063H283.472V14.8824C283.472 13.6515 283.024 12.9801 282.128 12.9801C281.232 12.9801 280.784 13.6515 280.784 14.8824V19.6944C280.784 20.9253 281.232 21.5967 282.128 21.5967C283.024 21.5967 283.472 20.9253 283.472 19.6944V19.5824H284.144V19.8063C284.144 21.4848 283.36 22.3801 282.128 22.3801Z" fill="#F0F0F0"/>
<path d="M287.393 22.3801C286.161 22.3801 285.377 21.4848 285.377 19.8063V14.8824C285.377 13.2039 286.161 12.3086 287.393 12.3086C288.625 12.3086 289.409 13.2039 289.409 14.8824V15.1063H288.737V14.8824C288.737 13.6515 288.289 12.9801 287.393 12.9801C286.497 12.9801 286.049 13.6515 286.049 14.8824V19.6944C286.049 20.9253 286.497 21.5967 287.393 21.5967C288.289 21.5967 288.737 20.9253 288.737 19.6944V19.5824H289.409V19.8063C289.409 21.4848 288.625 22.3801 287.393 22.3801Z" fill="#F0F0F0"/>
<path d="M299.489 15.1063V14.5467C299.489 13.6515 299.041 12.9801 298.257 12.9801C297.473 12.9801 296.913 13.5396 296.913 14.5467C296.913 15.2182 297.249 15.7777 297.697 16.2253L299.265 17.6801C299.937 18.2396 300.385 18.911 300.385 20.0301C300.385 21.4848 299.601 22.3801 298.257 22.3801C296.689 22.3801 296.129 21.261 296.129 19.9182V19.4705H296.801V19.9182C296.801 21.0372 297.249 21.7086 298.257 21.7086C299.153 21.7086 299.713 21.0372 299.713 20.0301C299.713 19.3586 299.377 18.7991 298.929 18.2396L297.249 16.7848C296.577 16.2253 296.129 15.5539 296.129 14.5467C296.129 13.2039 296.913 12.3086 298.145 12.3086C299.489 12.3086 300.161 13.2039 300.161 14.5467C300.161 14.6586 300.161 14.9944 300.161 14.9944H299.489V15.1063Z" fill="#F0F0F0"/>
<path d="M303.521 22.3801C302.289 22.3801 301.393 21.4848 301.393 19.8063V14.8824C301.393 13.2039 302.289 12.3086 303.521 12.3086C304.865 12.3086 305.761 13.2039 305.761 14.8824V19.6944C305.761 21.4848 304.865 22.3801 303.521 22.3801ZM304.977 14.8824C304.977 13.6515 304.417 12.9801 303.521 12.9801C302.625 12.9801 302.065 13.6515 302.065 14.8824V19.6944C302.065 20.9253 302.625 21.5967 303.521 21.5967C304.417 21.5967 304.977 20.9253 304.977 19.6944V14.8824Z" fill="#F0F0F0"/>
<path d="M310.688 22.1563V14.8824C310.688 13.6515 310.352 12.9801 309.456 12.9801C308.448 12.9801 308 13.7634 308 15.1063V22.1563H307.328V12.4205H308V13.2039C308.112 12.6444 308.784 12.3086 309.456 12.3086C310.8 12.3086 311.36 13.092 311.36 14.8824V22.1563H310.688Z" fill="#F0F0F0"/>
<path d="M321.665 15.1063V14.5467C321.665 13.6515 321.217 12.9801 320.433 12.9801C319.649 12.9801 319.089 13.5396 319.089 14.5467C319.089 15.2182 319.425 15.7777 319.873 16.2253L321.441 17.6801C322.113 18.2396 322.561 18.911 322.561 20.0301C322.561 21.3729 321.777 22.3801 320.433 22.3801C318.865 22.3801 318.305 21.261 318.305 19.9182V19.4705H318.977V19.9182C318.977 21.0372 319.425 21.7086 320.433 21.7086C321.329 21.7086 321.889 21.0372 321.889 20.0301C321.889 19.3586 321.553 18.7991 321.105 18.2396L319.537 16.7848C318.865 16.2253 318.417 15.5539 318.417 14.5467C318.417 13.2039 319.201 12.3086 320.433 12.3086C321.665 12.3086 322.337 13.2039 322.337 14.5467C322.337 14.6586 322.337 14.9944 322.337 14.9944H321.665V15.1063Z" fill="#F0F0F0"/>
<path d="M316.512 12.4209V19.6948C316.512 20.9257 315.952 21.5971 315.056 21.5971C314.16 21.5971 313.6 20.9257 313.6 19.6948V12.4209H312.928V19.6948C312.928 21.4852 313.824 22.2686 315.056 22.2686C316.288 22.2686 317.184 21.3733 317.184 19.6948V12.4209H316.512Z" fill="#F0F0F0"/>
<path d="M294.225 18.5757V19.6948C294.225 20.9257 293.665 21.5971 292.769 21.5971C291.873 21.5971 291.313 20.9257 291.313 19.6948V12.4209H290.641V19.6948C290.641 21.2614 291.425 22.1567 292.545 22.2686V26.9686C292.321 27.0805 292.097 27.3043 292.097 27.64C292.097 28.0876 292.433 28.3114 292.769 28.3114C293.217 28.3114 293.441 27.9757 293.441 27.64C293.441 27.3043 293.217 27.0805 292.993 26.9686V22.3805C294.113 22.2686 294.897 21.3733 294.897 19.8067V12.4209H294.225V18.5757Z" fill="#F0F0F0"/>
<path d="M18.8388 21.8085V23.2398H12.3203V12.3096H18.8388V13.741H13.7544V17.1241H18.3173V18.4253H13.7544V21.9386H18.8388V21.8085Z" fill="#F0F0F0"/>
<path d="M29.268 19.0754H26.6606V23.2393H25.2266V12.3091H29.6592C31.4843 12.3091 33.0488 13.8705 33.0488 15.6922C33.0488 17.1236 32.1362 18.4248 30.8325 18.8152L33.4399 23.2393H31.8755L29.268 19.0754ZM26.6606 17.7742H29.5288C30.5717 17.7742 31.4843 16.8633 31.4843 15.6922C31.4843 14.5212 30.5717 13.6103 29.5288 13.6103H26.6606V17.7742Z" fill="#F0F0F0"/>
<path d="M46.2163 20.767H41.2622L40.3496 23.2393H38.7852L42.957 12.3091H44.6518L48.6933 23.2393H47.1289L46.2163 20.767ZM45.6948 19.4658L43.7392 14.1308L41.7837 19.4658H45.6948Z" fill="#F0F0F0"/>
<path fill-rule="evenodd" clip-rule="evenodd" d="M166.88 39.1669C163.787 39.1669 161.28 41.6719 161.28 44.7621C161.28 47.8522 163.787 50.3573 166.88 50.3573C169.972 50.3573 172.48 47.8522 172.48 44.7621C172.48 41.6719 169.972 39.1669 166.88 39.1669ZM166.88 38.0479C163.168 38.0479 160.16 41.0539 160.16 44.7621C160.16 48.4703 163.168 51.4765 166.88 51.4765C170.591 51.4765 173.6 48.4703 173.6 44.7621C173.6 41.0539 170.591 38.0479 166.88 38.0479Z" fill="#949494"/>
<path d="M166.133 48.4923H167.626V44.0161H166.133V48.4923Z" fill="#949494"/>
<path d="M167.626 41.7777C167.626 41.3657 167.292 41.0317 166.879 41.0317C166.467 41.0317 166.133 41.3657 166.133 41.7777C166.133 42.1897 166.467 42.5237 166.879 42.5237C167.292 42.5237 167.626 42.1897 167.626 41.7777Z" fill="#949494"/>
</svg>
